<?xml version="1.0" encoding="utf-8"?>
<!-- Generator: Adobe Illustrator 24.3.0, SVG Export Plug-In . SVG Version: 6.00 Build 0)  -->
<svg version="1.1" xmlns="http://www.w3.org/2000/svg" xmlns:xlink="http://www.w3.org/1999/xlink" x="0px" y="0px"
	 viewBox="0 0 500 500" style="enable-background:new 0 0 500 500;" xml:space="preserve">
<style type="text/css">
	.st0{fill:#F5F5F5;}
	.st1{fill:#E0E0E0;}
	.st2{fill:#E6E6E6;}
	.st3{fill:#BA68C8;}
	.st4{opacity:0.4;}
	.st5{fill:#FFFFFF;}
	.st6{fill:#263238;}
	.st7{fill:#455A64;}
	.st8{fill:#37474F;}
	.st9{fill:#EBEBEB;}
	.st10{opacity:0.2;}
	.st11{fill:#FAFAFA;}
	.st12{opacity:0.2;fill:#FFFFFF;}
	.st13{opacity:0.1;fill:#FFFFFF;}
	.st14{fill:#FFA8A7;}
	.st15{fill:#374D56;}
	.st16{fill:#556F77;}
	.st17{fill:#F28F8F;}
</style>
<g id="Floor">
	<ellipse class="st0" cx="250" cy="337.6" rx="228.2" ry="135.4"/>
</g>
<g id="Shadows">
	<path class="st1" d="M341.1,250.9l-9.3-5.4c-2.5-1.4-5.5-1.4-8,0L112.6,367.4c-2,1.1-2,4,0,5.1l9.3,5.4c2.5,1.4,5.5,1.4,8,0
		l54.6-32l33.9,19.5c2.1,1.2,4.7,1.2,6.8,0l58.7-33.8c1.4-0.8,1.4-2.8,0-3.6l-34.3-19.7l91.4-52.3
		C343.1,254.8,343.1,252,341.1,250.9z"/>
	<ellipse class="st1" cx="323" cy="403.7" rx="46.4" ry="25.2"/>
</g>
<g id="Clouds">
	<g>
		<path class="st2" d="M160.4,75.9l-7.6,4.4v-6c0-3.5-2.9-4.7-6.3-2.7l-0.3,0.2c-1.5,0.9-2.9,2.3-4,3.8c-0.2-5.9-5.1-7.9-11.2-4.4
			l-0.5,0.3c-6.2,3.6-11.2,11.5-11.2,17.7v10.5l-7,4c-3,1.7-5.4,5.5-5.4,8.5c0,3,2.4,4,5.4,2.3l9.3-5.4c0,0,0,0,0,0l18.2-10.5
			c0,0,0,0,0,0l20.5-11.8c3-1.7,5.4-5.5,5.4-8.5C165.8,75.3,163.3,74.2,160.4,75.9z"/>
		<path class="st2" d="M109.2,66.9l-5.1,3v-4.1c0-2.4-1.9-3.2-4.3-1.8L99.5,64c-1,0.6-2,1.5-2.7,2.6c-0.1-4-3.5-5.3-7.6-3l-0.3,0.2
			c-4.2,2.4-7.6,7.8-7.6,12V83l-4.7,2.7c-2,1.2-3.7,3.8-3.7,5.8c0,2,1.6,2.7,3.7,1.5l6.3-3.6c0,0,0,0,0,0l12.4-7.1c0,0,0,0,0,0
			l13.9-8c2-1.2,3.7-3.8,3.7-5.8C112.8,66.4,111.2,65.7,109.2,66.9z"/>
	</g>
</g>
<g id="Plant">
	<g>
		<g>
			<path class="st3" d="M420.3,275.3l2.5,1.1l0.9,0.4l2.1,0.9c0,0,0.4-14,4.8-24.3c4.4-10.3,12.2-19.9,13.6-25.7
				c1.4-5.8-3.1-8-3.1-8c-9.3-3.6-18.4,10-20.9,21.3C417.8,252.4,420.3,275.3,420.3,275.3z"/>
			<path class="st4" d="M420.3,275.3l2.5,1.1l0.9,0.4l2.1,0.9c0,0,0.4-14,4.8-24.3c4.4-10.3,12.2-19.9,13.6-25.7
				c1.4-5.8-3.1-8-3.1-8c-9.3-3.6-18.4,10-20.9,21.3C417.8,252.4,420.3,275.3,420.3,275.3z"/>
			<g>
				<path class="st5" d="M422.8,276.5l0.9,0.4c-2-39.3,15.4-53.3,15.6-53.4c0.2-0.2,0.2-0.5,0.1-0.6c-0.2-0.2-0.4-0.2-0.6-0.1
					C438.6,222.9,421,236.9,422.8,276.5z"/>
			</g>
		</g>
		<g>
			<path class="st3" d="M421.2,271.2c-0.2,3.6,3.7,10.1,3.7,10.1l6.7,4.7l0.9,0.6l9.8,6.9c0,0,4.8,0,7.4-5c2.6-5-1.2-10.4-0.1-13.9
				c1.1-3.5,7.7-4.5,7.4-8.5c-0.3-4-6.9-8.5-5.9-12.1c1-3.6,3.3-5,4-8c0.7-3-1.3-4.6-3-4.9c-2.2-0.4-5.1,0.1-8,2.9
				c-2.9,2.7-4,4.6-7.2,5.4c-3.2,0.8-6.6,0.3-8.4,3c-1.7,2.7,0.3,8.2-1.5,10.4C425.3,265.1,421.4,267.6,421.2,271.2z"/>
			<path class="st5" d="M431.6,286l0.9,0.6c0.6-7.8,2.2-14.5,4.2-20.1c5.6-1.7,13.1-1,13.2-1c0.3,0,0.5-0.2,0.5-0.4
				c0-0.3-0.2-0.5-0.4-0.5c-0.3,0-7.3-0.6-12.9,0.8c5.2-14,12.7-20.9,12.8-21c0.2-0.2,0.2-0.5,0-0.6c-0.2-0.2-0.5-0.2-0.7,0
				c-0.1,0.1-8,7.4-13.3,22.1c-0.1,0.1-0.1,0.2-0.1,0.3C433.9,271.8,432.3,278.4,431.6,286z"/>
		</g>
	</g>
</g>
<g id="Device">
	<g>
		<g>
			<path class="st6" d="M284.4,317.3c0,0,0,2.9-2,4.1l-57.9,33c-0.8,0.5-1.6,0.7-2.5,0.8c-1.3,0.1-2.6-0.1-3.8-0.8l-26.7-15.3
				c-1.1-0.6-1.7-1.9-1.6-3.2l2.8-19.4l4.3,2.6l61-33L257,296c-0.5,4.5,1.8,8.8,5.7,11l1.2,0.7L279,316c-0.1-0.5-0.2-0.8-0.2-0.8
				l3.5-3C282.4,312.3,284.4,313.3,284.4,317.3z"/>
			<path class="st7" d="M284.4,317.3c0,0,0,2.9-2,4.1l-57.9,33c-0.8,0.5-1.6,0.7-2.5,0.8v-7.8l6.2-16.3c0,0,27.2-18,35.7-23.4
				L279,316c-0.1-0.5-0.2-0.8-0.2-0.8l3.5-3C282.4,312.3,284.4,313.3,284.4,317.3z"/>
			<path class="st8" d="M282.4,315.7l-57.1,32.6c-1.9,1.1-4.3,1.1-6.2,0L197,335.8c-0.3-0.2-0.6-0.4-0.8-0.7
				c-0.6-0.7-0.9-1.6-0.7-2.5l2.8-19.2l60.1-32.5l-1.1,9.8c-0.3,2.8,0.5,5.6,2.2,7.8c0.9,1.2,2.1,2.2,3.4,3l19.4,10.7
				C283.7,313,283.7,314.9,282.4,315.7z"/>
			<path class="st6" d="M259.5,298.5l-63.3,36.6c-0.6-0.7-0.9-1.6-0.7-2.5l2.8-19.2l60.1-32.5l-1.1,9.8
				C257.1,293.6,257.9,296.3,259.5,298.5z"/>
			<path class="st6" d="M342.5,52.8c0,0.6-6.6,4.1-9.9,5.9v167.1c0,2.1-1.1,4.1-3,5.1L117.9,354.3l1.6,11c-2.6,1.1-6.4-0.1-8.3-1.2
				c-4-2.3-4.2-6.3-4.2-6.3V177.5c0-1.3,0.5-2.6,1.3-3.6c0.4-0.5,0.9-0.9,1.5-1.2L329.2,45c0,0,0.1-0.1,0.4-0.2
				c0.1,0,0.2-0.1,0.2-0.1c1.3-0.4,4.4-1,8.1,1.5C342.6,49.3,342.5,52,342.5,52.8z"/>
			<path class="st7" d="M342.5,52.8c0,0.6-6.6,4.1-9.9,5.9V72L127.4,185.1l-19-11.2c0.4-0.5,0.9-0.9,1.5-1.2L329.2,45
				c0,0,0.1-0.1,0.4-0.2c0.1,0,0.2-0.1,0.2-0.1c1.3-0.4,4.4-1,8.1,1.5C342.6,49.3,342.5,52,342.5,52.8z"/>
			<path class="st8" d="M342.5,53v179c0,2.1-1.1,4.1-3,5.2l-220,128.1c-1.1,0.6-2.5-0.2-2.5-1.4V183.6c0-2,1.1-3.8,2.8-4.8
				L339.1,51.1C340.6,50.2,342.5,51.3,342.5,53z"/>
			<path class="st5" d="M331.5,63c1.4-0.8,3.1,0.2,3.1,1.8v154.3c0,2-1,3.8-2.8,4.8L127.2,343c-1,0.6-2.3-0.1-2.3-1.3V186.2
				c0-1.8,1-3.6,2.6-4.5"/>
			<path class="st9" d="M239.9,289.9l-21.6,12.6c-1.5,0.9-3.4-0.2-3.4-1.9v0c0-2.2,1.2-4.3,3.1-5.4l20.1-11.7
				c1.8-1.1,4.1,0.3,4.1,2.4l0,0C242.3,287.4,241.4,289,239.9,289.9z"/>
		</g>
		<g>
			<g>
				<g>
					<g>
						<path class="st3" d="M232.9,157.8l-1.3,0.7c-0.4,0.2-0.8,0.2-0.9-0.2c-0.5-1.8-1.3-3.3-2.4-4.4c-0.2-0.2-0.2-0.7,0.1-1.2
							l0.9-1.4c0.4-0.6,0.4-1.3,0-1.5l-3.7-1.6c-0.4-0.2-1.1,0.2-1.5,0.9l-0.9,1.4c-0.3,0.5-0.8,0.8-1.1,0.8
							c-1.8-0.1-3.7,0.2-5.8,0.9c-0.4,0.1-0.7,0-0.7-0.5v-1.3c0-0.6-0.5-0.8-1.1-0.4l-5.2,3c-0.6,0.3-1.1,1.1-1.1,1.7v1.3
							c0,0.4-0.3,1-0.7,1.3c-2.1,1.7-4,3.6-5.8,5.7c-0.4,0.4-0.8,0.7-1.1,0.5l-0.9-0.4c-0.4-0.2-1.1,0.2-1.5,0.9l-3.7,5.8
							c-0.4,0.6-0.4,1.3,0,1.5l1.1,0.6c0.1,0.2,0.1,0.5-0.1,0.8c-1.1,2.4-1.9,4.8-2.4,7.1c-0.1,0.5-0.5,1-0.9,1.2l-1.3,0.7
							c-0.6,0.3-1.1,1.1-1.1,1.7v5.2c0,0.6,0.5,0.8,1.1,0.4l1.3-0.7c0.4-0.2,0.8-0.2,0.9,0.2c0.5,1.8,1.3,3.3,2.4,4.4
							c0.2,0.2,0.2,0.7-0.1,1.2l-0.9,1.4c-0.4,0.6-0.4,1.3,0,1.5l5.4,3.1l1.5-3.1c0,0,0.3-0.9,0.2-1.5c0,0,0,0,0.1,0
							c1.8,0.1,3.7-0.2,5.8-0.9c0.4-0.1,0.7,0,0.7,0.5v1.3c0,0.6,0.5,0.8,1.1,0.4l5.2-3c0.6-0.3,1.1-1.1,1.1-1.7V191
							c0-0.4,0.3-1,0.7-1.3c2.1-1.7,4-3.6,5.8-5.7c0.4-0.4,0.8-0.7,1.1-0.5l0.9,0.4c0.4,0.2,1.1-0.2,1.5-0.9l3.7-5.8
							c0.4-0.6,0.4-1.3,0-1.5l-0.9-0.4c-0.3-0.1-0.3-0.6-0.1-1.1c1.1-2.4,1.9-4.8,2.4-7.1c0.1-0.5,0.5-1,0.9-1.2l1.3-0.7
							c0.6-0.3,1.1-1.1,1.1-1.7v-5.2C234,157.7,233.5,157.5,232.9,157.8z M223.2,168.4c-0.6,5.5-4.7,12-9.9,15.5
							c-6.7,4.6-12.4,2.6-12.4-3.9c0-6.2,5-14,11.2-17.6C218.7,158.5,223.9,161.2,223.2,168.4z"/>
					</g>
					<g>
						<path class="st3" d="M232.9,157.8l-1.3,0.7c-0.4,0.2-0.8,0.2-0.9-0.2c-0.5-1.8-1.3-3.3-2.4-4.4c-0.2-0.2-0.2-0.7,0.1-1.2
							l0.9-1.4c0.4-0.7,0.4-1.3,0-1.5l-3.7-1.5c-0.4-0.2-1.1,0.2-1.5,0.9l-0.9,1.4c-0.3,0.5-0.8,0.8-1.1,0.8c-1.2,0-2.5,0.1-3.8,0.4
							c-0.6,0.1-1.3,0.3-2,0.6c-0.4,0.1-0.7,0-0.7-0.5v-1.3c0-0.3-0.1-0.5-0.3-0.6c-0.2-0.1-0.5,0-0.7,0.1l-5.2,3
							c-0.6,0.3-1.1,1.1-1.1,1.7v1.3c0,0.4-0.3,1-0.7,1.3c-2.1,1.7-4,3.6-5.8,5.7c-0.4,0.4-0.8,0.7-1.1,0.5l-0.9-0.4
							c-0.4-0.2-1.1,0.2-1.5,0.9l-3.7,5.8c-0.4,0.7-0.4,1.3,0,1.5l1.1,0.6c0.1,0.2,0,0.5-0.1,0.8c-1.1,2.4-1.9,4.8-2.4,7.1
							c-0.1,0.5-0.5,1-0.9,1.2l-1.3,0.7c-0.6,0.3-1.1,1.1-1.1,1.7v5.2c0,0.6,0.5,0.8,1.1,0.4l1.3-0.7c0.4-0.2,0.8-0.2,0.9,0.2
							c0.5,1.8,1.3,3.3,2.4,4.4c0.2,0.2,0.2,0.7-0.1,1.2l-0.9,1.4c-0.4,0.7-0.4,1.3,0,1.5l5.4,3.1l1.5-3.1c0,0,0.3-0.9,0.2-1.5
							c0,0,0,0,0.1,0c1.7,0.1,3.7-0.2,5.8-0.9c0.4-0.2,0.7,0,0.7,0.5v1.3c0,0.6,0.5,0.8,1.1,0.4l5.2-3c0.6-0.3,1.1-1.1,1.1-1.7V191
							c0-0.4,0.3-1,0.7-1.3c2.1-1.7,4-3.6,5.8-5.7c0.4-0.4,0.8-0.7,1.1-0.5l0.9,0.4c0.4,0.2,1.1-0.2,1.5-0.9l3.7-5.8
							c0.4-0.7,0.4-1.3,0-1.5l-0.9-0.4c-0.3-0.1-0.3-0.6-0.1-1.1c1.1-2.4,1.9-4.8,2.4-7.1c0.1-0.5,0.5-1,0.9-1.2l1.3-0.7
							c0.6-0.3,1-1.1,1-1.7v-5.2C234,157.7,233.5,157.5,232.9,157.8z M223.2,168.4c-0.6,5.5-4.7,12-9.9,15.5
							c-6.7,4.6-12.4,2.6-12.4-4c0-6.2,5-14,11.2-17.6C218.7,158.5,223.9,161.2,223.2,168.4z"/>
					</g>
					<g>
						<path class="st3" d="M238.9,160.8l-5.2-3.1l-0.1,3.1c0,0,2.5,2.2,2.8,2.3c0.3,0,1.3,0,1.3,0L238.9,160.8z"/>
					</g>
					<g>
						<polygon class="st3" points="208.7,197 214,200.1 214.3,197.2 211.5,196.8 						"/>
					</g>
					<g class="st10">
						<path d="M232.9,157.8l-1.3,0.7c-0.4,0.2-0.8,0.2-0.9-0.2c-0.5-1.8-1.3-3.3-2.4-4.4c-0.2-0.2-0.2-0.7,0.1-1.2l0.9-1.4
							c0.4-0.6,0.4-1.3,0-1.5l-3.7-1.6c-0.4-0.2-1.1,0.2-1.5,0.9l-0.9,1.4c-0.3,0.5-0.8,0.8-1.1,0.8c-1.8-0.1-3.7,0.2-5.8,0.9
							c-0.4,0.1-0.7,0-0.7-0.5v-1.3c0-0.6-0.5-0.8-1.1-0.4l-5.2,3c-0.6,0.3-1.1,1.1-1.1,1.7v1.3c0,0.4-0.3,1-0.7,1.3
							c-2.1,1.7-4,3.6-5.8,5.7c-0.4,0.4-0.8,0.7-1.1,0.5l-0.9-0.4c-0.4-0.2-1.1,0.2-1.5,0.9l-3.7,5.8c-0.4,0.6-0.4,1.3,0,1.5
							l1.1,0.6c0.1,0.2,0.1,0.5-0.1,0.8c-1.1,2.4-1.9,4.8-2.4,7.1c-0.1,0.5-0.5,1-0.9,1.2l-1.3,0.7c-0.6,0.3-1.1,1.1-1.1,1.7v5.2
							c0,0.6,0.5,0.8,1.1,0.4l1.3-0.7c0.4-0.2,0.8-0.2,0.9,0.2c0.5,1.8,1.3,3.3,2.4,4.4c0.2,0.2,0.2,0.7-0.1,1.2l-0.9,1.4
							c-0.4,0.6-0.4,1.3,0,1.5l5.4,3.1l1.5-3.1c0,0,0.3-0.9,0.2-1.5c0,0,0,0,0.1,0c1.8,0.1,3.7-0.2,5.8-0.9c0.4-0.1,0.7,0,0.7,0.5
							v1.3c0,0.6,0.5,0.8,1.1,0.4l5.2-3c0.6-0.3,1.1-1.1,1.1-1.7V191c0-0.4,0.3-1,0.7-1.3c2.1-1.7,4-3.6,5.8-5.7
							c0.4-0.4,0.8-0.7,1.1-0.5l0.9,0.4c0.4,0.2,1.1-0.2,1.5-0.9l3.7-5.8c0.4-0.6,0.4-1.3,0-1.5l-0.9-0.4c-0.3-0.1-0.3-0.6-0.1-1.1
							c1.1-2.4,1.9-4.8,2.4-7.1c0.1-0.5,0.5-1,0.9-1.2l1.3-0.7c0.6-0.3,1.1-1.1,1.1-1.7v-5.2C234,157.7,233.5,157.5,232.9,157.8z
							 M223.2,168.4c-0.6,5.5-4.7,12-9.9,15.5c-6.7,4.6-12.4,2.6-12.4-3.9c0-6.2,5-14,11.2-17.6
							C218.7,158.5,223.9,161.2,223.2,168.4z"/>
					</g>
					<g class="st10">
						<path d="M232.9,157.8l-1.3,0.7c-0.4,0.2-0.8,0.2-0.9-0.2c-0.5-1.8-1.3-3.3-2.4-4.4c-0.2-0.2-0.2-0.7,0.1-1.2l0.9-1.4
							c0.4-0.7,0.4-1.3,0-1.5l-3.7-1.5c-0.4-0.2-1.1,0.2-1.5,0.9l-0.9,1.4c-0.3,0.5-0.8,0.8-1.1,0.8c-1.2,0-2.5,0.1-3.8,0.4
							c-0.6,0.1-1.3,0.3-2,0.6c-0.4,0.1-0.7,0-0.7-0.5v-1.3c0-0.3-0.1-0.5-0.3-0.6c-0.2-0.1-0.5,0-0.7,0.1l-5.2,3
							c-0.6,0.3-1.1,1.1-1.1,1.7v1.3c0,0.4-0.3,1-0.7,1.3c-2.1,1.7-4,3.6-5.8,5.7c-0.4,0.4-0.8,0.7-1.1,0.5l-0.9-0.4
							c-0.4-0.2-1.1,0.2-1.5,0.9l-3.7,5.8c-0.4,0.7-0.4,1.3,0,1.5l1.1,0.6c0.1,0.2,0,0.5-0.1,0.8c-1.1,2.4-1.9,4.8-2.4,7.1
							c-0.1,0.5-0.5,1-0.9,1.2l-1.3,0.7c-0.6,0.3-1.1,1.1-1.1,1.7v5.2c0,0.6,0.5,0.8,1.1,0.4l1.3-0.7c0.4-0.2,0.8-0.2,0.9,0.2
							c0.5,1.8,1.3,3.3,2.4,4.4c0.2,0.2,0.2,0.7-0.1,1.2l-0.9,1.4c-0.4,0.7-0.4,1.3,0,1.5l5.4,3.1l1.5-3.1c0,0,0.3-0.9,0.2-1.5
							c0,0,0,0,0.1,0c1.7,0.1,3.7-0.2,5.8-0.9c0.4-0.2,0.7,0,0.7,0.5v1.3c0,0.6,0.5,0.8,1.1,0.4l5.2-3c0.6-0.3,1.1-1.1,1.1-1.7V191
							c0-0.4,0.3-1,0.7-1.3c2.1-1.7,4-3.6,5.8-5.7c0.4-0.4,0.8-0.7,1.1-0.5l0.9,0.4c0.4,0.2,1.1-0.2,1.5-0.9l3.7-5.8
							c0.4-0.7,0.4-1.3,0-1.5l-0.9-0.4c-0.3-0.1-0.3-0.6-0.1-1.1c1.1-2.4,1.9-4.8,2.4-7.1c0.1-0.5,0.5-1,0.9-1.2l1.3-0.7
							c0.6-0.3,1-1.1,1-1.7v-5.2C234,157.7,233.5,157.5,232.9,157.8z M223.2,168.4c-0.6,5.5-4.7,12-9.9,15.5
							c-6.7,4.6-12.4,2.6-12.4-4c0-6.2,5-14,11.2-17.6C218.7,158.5,223.9,161.2,223.2,168.4z"/>
					</g>
					<g class="st10">
						<polygon points="208.7,197 214,200.1 214.3,197.2 211.5,196.8 						"/>
					</g>
					<g>
						<path class="st3" d="M196.6,192.3l1.3-0.7c0.4-0.2,0.8-0.2,0.9,0.2c0.5,1.8,1.3,3.3,2.4,4.4c0.2,0.2,0.2,0.7-0.1,1.2l-0.9,1.4
							c-0.4,0.6-0.4,1.3,0,1.5l3.7,1.6c0.4,0.2,1.1-0.2,1.5-0.9l0.9-1.4c0.3-0.5,0.8-0.8,1.1-0.8c1.8,0.1,3.7-0.2,5.8-0.9
							c0.4-0.1,0.7,0,0.7,0.5v1.3c0,0.6,0.5,0.8,1.1,0.4l5.2-3c0.6-0.3,1.1-1.1,1.1-1.7v-1.3c0-0.4,0.3-1,0.7-1.3
							c2.1-1.7,4-3.6,5.8-5.7c0.4-0.4,0.8-0.7,1.1-0.5l0.9,0.4c0.4,0.2,1.1-0.2,1.5-0.9l3.7-5.8c0.4-0.6,0.4-1.3,0-1.5l-0.9-0.4
							c-0.3-0.1-0.3-0.6-0.1-1.1c1.1-2.4,1.9-4.8,2.4-7.1c0.1-0.5,0.5-1,0.9-1.2l1.3-0.7c0.6-0.3,1.1-1.1,1.1-1.7v-5.2
							c0-0.6-0.5-0.8-1.1-0.4l-1.3,0.7c-0.4,0.2-0.8,0.2-0.9-0.2c-0.5-1.8-1.3-3.3-2.4-4.4c-0.2-0.2-0.2-0.7,0.1-1.2l0.9-1.4
							c0.4-0.6,0.4-1.3,0-1.5l-3.7-1.6c-0.4-0.2-1.1,0.2-1.5,0.9l-0.9,1.4c-0.3,0.5-0.8,0.8-1.1,0.8c-1.8-0.1-3.7,0.2-5.8,0.9
							c-0.4,0.1-0.7,0-0.7-0.5v-1.3c0-0.6-0.5-0.8-1.1-0.4l-5.2,3c-0.6,0.3-1.1,1.1-1.1,1.7v1.3c0,0.4-0.3,1-0.7,1.3
							c-2.1,1.7-4,3.6-5.8,5.7c-0.4,0.4-0.8,0.7-1.1,0.5l-0.9-0.4c-0.4-0.2-1.1,0.2-1.5,0.9l-3.7,5.8c-0.4,0.6-0.4,1.3,0,1.5
							l0.9,0.4c0.3,0.1,0.3,0.6,0.1,1.1c-1.1,2.4-1.9,4.8-2.4,7.1c-0.1,0.5-0.5,1-0.9,1.2l-1.3,0.7c-0.6,0.3-1.1,1.1-1.1,1.7v5.2
							C195.5,192.4,196,192.6,196.6,192.3z M206.3,183c0-6.2,5-14,11.2-17.6c6.6-3.8,11.9-1.1,11.1,6.1c-0.6,5.5-4.7,12-9.9,15.5
							C212,191.6,206.3,189.6,206.3,183z"/>
					</g>
					<g>
						<path class="st3" d="M195.5,191.9c0,0.2,0.1,0.4,0.2,0.5l-1-0.6l-4.2-2.5l-0.1,0c0,0-0.1,0-0.1-0.1c-0.1-0.1-0.1-0.2-0.1-0.4
							v-5.2c0-0.4,0.2-0.8,0.5-1.2l5.4,3.1c-0.3,0.4-0.5,0.8-0.5,1.2V191.9z"/>
					</g>
					<g>
						<path class="st3" d="M220.8,153.1c-0.2-0.1-0.4,0-0.7,0.1l-5.2,3c-0.3,0.2-0.5,0.4-0.7,0.7l-5.4-3.1c0.2-0.3,0.4-0.5,0.7-0.7
							l5.2-3c0.3-0.2,0.6-0.2,0.7-0.1l0.1,0.1l2.9,1.7L220.8,153.1z"/>
					</g>
					<g>
						<path class="st3" d="M207.3,166.1C207.3,166.2,207.3,166.2,207.3,166.1c-0.4,0.5-0.9,0.7-1.1,0.5l-0.9-0.4l-5.4-3.1l0.9,0.4
							c0.3,0.1,0.8-0.1,1.1-0.5L207.3,166.1z"/>
					</g>
					<g>
						<path class="st3" d="M231.1,151.4c-0.4-0.2-1.1,0.2-1.5,0.9l-0.9,1.4c-0.1,0.1-0.2,0.2-0.3,0.3c-0.3,0.3-0.6,0.4-0.8,0.4h0
							l-5.4-3.1c0.4,0,0.8-0.3,1.1-0.8l0.9-1.4c0.4-0.7,1.1-1,1.5-0.9L231.1,151.4z"/>
					</g>
					<g>
						<polygon class="st3" points="229.5,149.9 234.8,153 231.1,151.4 225.7,148.3 						"/>
					</g>
				</g>
				<g>
					<g>
						<path class="st3" d="M260.8,179.8l-0.9,0.5c-0.3,0.2-0.6,0.1-0.7-0.2c-0.4-1.3-0.9-2.4-1.7-3.2c-0.2-0.2-0.1-0.5,0.1-0.9
							l0.6-1c0.3-0.5,0.3-1,0-1.1l-2.7-1.1c-0.3-0.1-0.8,0.2-1.1,0.6l-0.6,1c-0.2,0.4-0.6,0.6-0.8,0.6c-1.3-0.1-2.7,0.2-4.2,0.7
							c-0.3,0.1-0.5,0-0.5-0.3v-0.9c0-0.4-0.3-0.6-0.8-0.3l-3.8,2.2c-0.4,0.2-0.8,0.8-0.8,1.2v0.9c0,0.3-0.2,0.7-0.5,1
							c-1.5,1.2-2.9,2.6-4.2,4.2c-0.3,0.3-0.6,0.5-0.8,0.4l-0.6-0.3c-0.3-0.1-0.8,0.2-1.1,0.6l-2.7,4.2c-0.3,0.5-0.3,1,0,1.1
							l0.8,0.5c0.1,0.2,0,0.4-0.1,0.6c-0.8,1.7-1.4,3.5-1.7,5.2c-0.1,0.3-0.3,0.7-0.7,0.9l-0.9,0.5c-0.4,0.2-0.8,0.8-0.8,1.2v3.8
							c0,0.4,0.3,0.6,0.8,0.3l0.9-0.5c0.3-0.2,0.6-0.1,0.7,0.2c0.4,1.3,0.9,2.4,1.7,3.2c0.2,0.2,0.1,0.5-0.1,0.9l-0.7,1
							c-0.3,0.5-0.3,1,0,1.1l3.9,2.3l1.1-2.3c0,0,0.2-0.7,0.2-1.1c0,0,0,0,0,0c1.3,0.1,2.7-0.2,4.2-0.7c0.3-0.1,0.5,0,0.5,0.3v0.9
							c0,0.4,0.3,0.6,0.8,0.3l3.8-2.2c0.4-0.2,0.8-0.8,0.8-1.2V204c0-0.3,0.2-0.7,0.5-1c1.5-1.2,2.9-2.6,4.2-4.2
							c0.3-0.3,0.6-0.5,0.8-0.4l0.7,0.3c0.3,0.1,0.8-0.2,1.1-0.6l2.7-4.2c0.3-0.5,0.3-1,0-1.1l-0.7-0.3c-0.2-0.1-0.3-0.4-0.1-0.8
							c0.8-1.7,1.4-3.5,1.7-5.2c0.1-0.3,0.3-0.7,0.7-0.9l0.9-0.5c0.4-0.2,0.8-0.8,0.8-1.2v-3.8C261.6,179.7,261.2,179.5,260.8,179.8
							z M253.7,187.5c-0.4,4-3.5,8.8-7.2,11.3c-4.9,3.4-9.1,1.9-9.1-2.9c0-4.5,3.7-10.3,8.2-12.9
							C250.4,180.3,254.2,182.3,253.7,187.5z"/>
					</g>
					<g>
						<path class="st3" d="M260.8,179.8l-0.9,0.5c-0.3,0.2-0.6,0.1-0.7-0.2c-0.3-1.3-0.9-2.4-1.7-3.2c-0.2-0.2-0.1-0.5,0.1-0.9
							l0.6-1c0.3-0.5,0.3-1,0-1.1l-2.7-1.1c-0.3-0.1-0.8,0.2-1.1,0.6l-0.6,1c-0.2,0.4-0.6,0.6-0.8,0.6c-0.9,0-1.8,0.1-2.8,0.3
							c-0.5,0.1-1,0.2-1.4,0.4c-0.3,0.1-0.5,0-0.5-0.3v-0.9c0-0.2-0.1-0.4-0.2-0.4c-0.1-0.1-0.3,0-0.5,0.1l-3.8,2.2
							c-0.4,0.2-0.8,0.8-0.8,1.2v0.9c0,0.3-0.2,0.7-0.5,1c-1.5,1.2-2.9,2.6-4.2,4.2c-0.3,0.3-0.6,0.5-0.8,0.4l-0.6-0.3
							c-0.3-0.1-0.8,0.2-1.1,0.6l-2.7,4.2c-0.3,0.5-0.3,1,0,1.1l0.8,0.5c0.1,0.2,0,0.4-0.1,0.6c-0.8,1.7-1.4,3.5-1.7,5.2
							c-0.1,0.3-0.3,0.7-0.7,0.9l-0.9,0.5c-0.4,0.2-0.8,0.8-0.8,1.2v3.8c0,0.4,0.3,0.6,0.8,0.3l0.9-0.5c0.3-0.2,0.6-0.1,0.7,0.2
							c0.3,1.3,0.9,2.4,1.7,3.2c0.2,0.2,0.1,0.5-0.1,0.9l-0.6,1c-0.3,0.5-0.3,1,0,1.1l3.9,2.3l1.1-2.3c0,0,0.2-0.7,0.2-1.1
							c0,0,0,0,0.1,0c1.3,0.1,2.7-0.2,4.2-0.7c0.3-0.1,0.5,0,0.5,0.3v0.9c0,0.4,0.3,0.6,0.8,0.3l3.8-2.2c0.4-0.2,0.8-0.8,0.8-1.2
							V204c0-0.3,0.2-0.7,0.5-1c1.5-1.2,2.9-2.6,4.2-4.2c0.3-0.3,0.6-0.5,0.8-0.4l0.7,0.3c0.3,0.1,0.8-0.2,1.1-0.6l2.7-4.2
							c0.3-0.5,0.3-1,0-1.1l-0.6-0.3c-0.2-0.1-0.3-0.4-0.1-0.8c0.8-1.7,1.4-3.5,1.7-5.2c0.1-0.3,0.3-0.7,0.7-0.9l0.9-0.5
							c0.4-0.2,0.8-0.8,0.8-1.2v-3.8C261.6,179.7,261.2,179.5,260.8,179.8z M253.7,187.5c-0.4,4-3.5,8.8-7.2,11.3
							c-4.9,3.4-9.1,1.9-9.1-2.9c0-4.5,3.7-10.3,8.2-12.9C250.4,180.3,254.2,182.3,253.7,187.5z"/>
					</g>
					<g>
						<path class="st3" d="M265.2,181.9l-3.8-2.2l-0.1,2.2c0,0,1.8,1.6,2,1.7c0.2,0,1,0,1,0L265.2,181.9z"/>
					</g>
					<g>
						<polygon class="st3" points="243.1,208.4 247,210.7 247.2,208.5 245.1,208.3 						"/>
					</g>
					<g class="st10">
						<path d="M260.8,179.8l-0.9,0.5c-0.3,0.2-0.6,0.1-0.7-0.2c-0.4-1.3-0.9-2.4-1.7-3.2c-0.2-0.2-0.1-0.5,0.1-0.9l0.6-1
							c0.3-0.5,0.3-1,0-1.1l-2.7-1.1c-0.3-0.1-0.8,0.2-1.1,0.6l-0.6,1c-0.2,0.4-0.6,0.6-0.8,0.6c-1.3-0.1-2.7,0.2-4.2,0.7
							c-0.3,0.1-0.5,0-0.5-0.3v-0.9c0-0.4-0.3-0.6-0.8-0.3l-3.8,2.2c-0.4,0.2-0.8,0.8-0.8,1.2v0.9c0,0.3-0.2,0.7-0.5,1
							c-1.5,1.2-2.9,2.6-4.2,4.2c-0.3,0.3-0.6,0.5-0.8,0.4l-0.6-0.3c-0.3-0.1-0.8,0.2-1.1,0.6l-2.7,4.2c-0.3,0.5-0.3,1,0,1.1
							l0.8,0.5c0.1,0.2,0,0.4-0.1,0.6c-0.8,1.7-1.4,3.5-1.7,5.2c-0.1,0.3-0.3,0.7-0.7,0.9l-0.9,0.5c-0.4,0.2-0.8,0.8-0.8,1.2v3.8
							c0,0.4,0.3,0.6,0.8,0.3l0.9-0.5c0.3-0.2,0.6-0.1,0.7,0.2c0.4,1.3,0.9,2.4,1.7,3.2c0.2,0.2,0.1,0.5-0.1,0.9l-0.7,1
							c-0.3,0.5-0.3,1,0,1.1l3.9,2.3l1.1-2.3c0,0,0.2-0.7,0.2-1.1c0,0,0,0,0,0c1.3,0.1,2.7-0.2,4.2-0.7c0.3-0.1,0.5,0,0.5,0.3v0.9
							c0,0.4,0.3,0.6,0.8,0.3l3.8-2.2c0.4-0.2,0.8-0.8,0.8-1.2V204c0-0.3,0.2-0.7,0.5-1c1.5-1.2,2.9-2.6,4.2-4.2
							c0.3-0.3,0.6-0.5,0.8-0.4l0.7,0.3c0.3,0.1,0.8-0.2,1.1-0.6l2.7-4.2c0.3-0.5,0.3-1,0-1.1l-0.7-0.3c-0.2-0.1-0.3-0.4-0.1-0.8
							c0.8-1.7,1.4-3.5,1.7-5.2c0.1-0.3,0.3-0.7,0.7-0.9l0.9-0.5c0.4-0.2,0.8-0.8,0.8-1.2v-3.8C261.6,179.7,261.2,179.5,260.8,179.8
							z M253.7,187.5c-0.4,4-3.5,8.8-7.2,11.3c-4.9,3.4-9.1,1.9-9.1-2.9c0-4.5,3.7-10.3,8.2-12.9
							C250.4,180.3,254.2,182.3,253.7,187.5z"/>
					</g>
					<g class="st10">
						<path d="M260.8,179.8l-0.9,0.5c-0.3,0.2-0.6,0.1-0.7-0.2c-0.3-1.3-0.9-2.4-1.7-3.2c-0.2-0.2-0.1-0.5,0.1-0.9l0.6-1
							c0.3-0.5,0.3-1,0-1.1l-2.7-1.1c-0.3-0.1-0.8,0.2-1.1,0.6l-0.6,1c-0.2,0.4-0.6,0.6-0.8,0.6c-0.9,0-1.8,0.1-2.8,0.3
							c-0.5,0.1-1,0.2-1.4,0.4c-0.3,0.1-0.5,0-0.5-0.3v-0.9c0-0.2-0.1-0.4-0.2-0.4c-0.1-0.1-0.3,0-0.5,0.1l-3.8,2.2
							c-0.4,0.2-0.8,0.8-0.8,1.2v0.9c0,0.3-0.2,0.7-0.5,1c-1.5,1.2-2.9,2.6-4.2,4.2c-0.3,0.3-0.6,0.5-0.8,0.4l-0.6-0.3
							c-0.3-0.1-0.8,0.2-1.1,0.6l-2.7,4.2c-0.3,0.5-0.3,1,0,1.1l0.8,0.5c0.1,0.2,0,0.4-0.1,0.6c-0.8,1.7-1.4,3.5-1.7,5.2
							c-0.1,0.3-0.3,0.7-0.7,0.9l-0.9,0.5c-0.4,0.2-0.8,0.8-0.8,1.2v3.8c0,0.4,0.3,0.6,0.8,0.3l0.9-0.5c0.3-0.2,0.6-0.1,0.7,0.2
							c0.3,1.3,0.9,2.4,1.7,3.2c0.2,0.2,0.1,0.5-0.1,0.9l-0.6,1c-0.3,0.5-0.3,1,0,1.1l3.9,2.3l1.1-2.3c0,0,0.2-0.7,0.2-1.1
							c0,0,0,0,0.1,0c1.3,0.1,2.7-0.2,4.2-0.7c0.3-0.1,0.5,0,0.5,0.3v0.9c0,0.4,0.3,0.6,0.8,0.3l3.8-2.2c0.4-0.2,0.8-0.8,0.8-1.2
							V204c0-0.3,0.2-0.7,0.5-1c1.5-1.2,2.9-2.6,4.2-4.2c0.3-0.3,0.6-0.5,0.8-0.4l0.7,0.3c0.3,0.1,0.8-0.2,1.1-0.6l2.7-4.2
							c0.3-0.5,0.3-1,0-1.1l-0.6-0.3c-0.2-0.1-0.3-0.4-0.1-0.8c0.8-1.7,1.4-3.5,1.7-5.2c0.1-0.3,0.3-0.7,0.7-0.9l0.9-0.5
							c0.4-0.2,0.8-0.8,0.8-1.2v-3.8C261.6,179.7,261.2,179.5,260.8,179.8z M253.7,187.5c-0.4,4-3.5,8.8-7.2,11.3
							c-4.9,3.4-9.1,1.9-9.1-2.9c0-4.5,3.7-10.3,8.2-12.9C250.4,180.3,254.2,182.3,253.7,187.5z"/>
					</g>
					<g class="st10">
						<polygon points="243.1,208.4 247,210.7 247.2,208.5 245.1,208.3 						"/>
					</g>
					<g>
						<path class="st3" d="M234.2,205l0.9-0.5c0.3-0.2,0.6-0.1,0.7,0.2c0.4,1.3,0.9,2.4,1.7,3.2c0.2,0.2,0.1,0.5-0.1,0.9l-0.7,1
							c-0.3,0.5-0.3,1,0,1.1l2.7,1.1c0.3,0.1,0.8-0.2,1.1-0.6l0.7-1c0.2-0.4,0.6-0.6,0.8-0.6c1.3,0.1,2.7-0.2,4.2-0.7
							c0.3-0.1,0.5,0,0.5,0.3v0.9c0,0.4,0.3,0.6,0.8,0.3l3.8-2.2c0.4-0.2,0.8-0.8,0.8-1.2v-0.9c0-0.3,0.2-0.7,0.5-1
							c1.5-1.2,2.9-2.6,4.2-4.2c0.3-0.3,0.6-0.5,0.8-0.4l0.7,0.3c0.3,0.1,0.8-0.2,1.1-0.6l2.7-4.2c0.3-0.5,0.3-1,0-1.1l-0.7-0.3
							c-0.2-0.1-0.3-0.4-0.1-0.8c0.8-1.7,1.4-3.5,1.7-5.2c0.1-0.3,0.3-0.7,0.7-0.9l0.9-0.5c0.4-0.2,0.8-0.8,0.8-1.2v-3.8
							c0-0.4-0.3-0.6-0.8-0.3l-0.9,0.5c-0.3,0.2-0.6,0.1-0.7-0.2c-0.4-1.3-0.9-2.4-1.7-3.2c-0.2-0.2-0.1-0.5,0.1-0.9l0.7-1
							c0.3-0.5,0.3-1,0-1.1l-2.7-1.1c-0.3-0.1-0.8,0.2-1.1,0.6l-0.6,1c-0.2,0.4-0.6,0.6-0.8,0.6c-1.3-0.1-2.7,0.2-4.2,0.7
							c-0.3,0.1-0.5,0-0.5-0.3v-0.9c0-0.4-0.3-0.6-0.8-0.3l-3.8,2.2c-0.4,0.2-0.8,0.8-0.8,1.2v0.9c0,0.3-0.2,0.7-0.5,1
							c-1.5,1.2-2.9,2.6-4.2,4.2c-0.3,0.3-0.6,0.5-0.8,0.4l-0.6-0.3c-0.3-0.1-0.8,0.2-1.1,0.6l-2.7,4.2c-0.3,0.5-0.3,1,0,1.1
							l0.7,0.3c0.2,0.1,0.3,0.4,0.1,0.8c-0.8,1.7-1.4,3.5-1.7,5.2c-0.1,0.3-0.3,0.7-0.7,0.9l-0.9,0.5c-0.4,0.2-0.8,0.8-0.8,1.2v3.8
							C233.5,205.1,233.8,205.2,234.2,205z M241.3,198.2c0-4.5,3.7-10.3,8.2-12.9c4.8-2.8,8.7-0.8,8.1,4.5c-0.4,4-3.5,8.8-7.2,11.3
							C245.5,204.5,241.3,203,241.3,198.2z"/>
					</g>
					<g>
						<path class="st3" d="M233.5,204.7c0,0.2,0.1,0.3,0.2,0.4l-0.8-0.4l-3.1-1.8l-0.1,0c0,0,0,0-0.1-0.1c-0.1-0.1-0.1-0.2-0.1-0.3
							v-3.8c0-0.3,0.2-0.6,0.4-0.9l3.9,2.3c-0.2,0.3-0.4,0.6-0.4,0.9V204.7z"/>
					</g>
					<g>
						<path class="st3" d="M251.9,176.3c-0.1-0.1-0.3,0-0.5,0.1l-3.8,2.2c-0.2,0.1-0.4,0.3-0.5,0.5l-3.9-2.3
							c0.1-0.2,0.3-0.4,0.5-0.5l3.8-2.2c0.2-0.1,0.4-0.1,0.5-0.1l0.1,0.1l2.1,1.2L251.9,176.3z"/>
					</g>
					<g>
						<path class="st3" d="M242.1,185.8C242.1,185.9,242,185.9,242.1,185.8c-0.3,0.3-0.6,0.5-0.8,0.4l-0.7-0.3l-3.9-2.3l0.6,0.3
							c0.2,0.1,0.6-0.1,0.8-0.4L242.1,185.8z"/>
					</g>
					<g>
						<path class="st3" d="M259.5,175.1c-0.3-0.1-0.8,0.2-1.1,0.6l-0.7,1c-0.1,0.1-0.1,0.2-0.2,0.3c-0.2,0.2-0.4,0.3-0.6,0.3h0
							L253,175c0.3,0,0.6-0.2,0.8-0.6l0.6-1c0.3-0.5,0.8-0.8,1.1-0.6L259.5,175.1z"/>
					</g>
					<g>
						<polygon class="st3" points="258.3,174 262.2,176.2 259.5,175.1 255.5,172.8 						"/>
					</g>
				</g>
				<g>
					<path class="st3" d="M207.7,233.1c-0.1,0-0.2,0-0.3-0.1l-2.2-0.9c-0.2-0.1-0.3-0.2-0.4-0.4c-0.1-0.3,0-0.6,0.2-1l0.5-0.8
						c0.1-0.2,0.1-0.3,0.1-0.3c-0.7-0.7-1.2-1.6-1.5-2.6c0,0,0,0,0,0l-0.7,0.4c-0.3,0.2-0.6,0.2-0.8,0.1c-0.2-0.1-0.3-0.3-0.3-0.6
						v-3.1c0-0.5,0.3-1,0.8-1.3l0.7-0.4c0.2-0.1,0.3-0.3,0.4-0.5c0.3-1.4,0.8-2.8,1.4-4.3c0-0.1,0-0.1,0.1-0.2l-0.5-0.2
						c-0.2-0.1-0.3-0.2-0.4-0.4c-0.1-0.3,0-0.6,0.2-1l2.2-3.4c0.3-0.5,0.9-0.8,1.3-0.6l0.5,0.2c0,0,0.1-0.1,0.3-0.2
						c1.1-1.3,2.2-2.4,3.5-3.4c0.2-0.1,0.3-0.4,0.3-0.5v-0.7c0-0.5,0.3-1,0.8-1.3l3.1-1.8c0.3-0.2,0.6-0.2,0.8-0.1
						c0.2,0.1,0.3,0.3,0.3,0.6v0.7c1.3-0.4,2.4-0.6,3.5-0.6c0.1,0,0.2-0.1,0.4-0.3l0.5-0.8c0.3-0.5,0.9-0.8,1.3-0.6l2.2,0.9
						c0.2,0.1,0.3,0.2,0.4,0.4c0.1,0.3,0,0.6-0.2,1l-0.5,0.8c-0.1,0.2-0.1,0.3-0.1,0.3c0.7,0.7,1.2,1.6,1.5,2.6c0,0,0,0,0,0l0.7-0.4
						c0.3-0.2,0.6-0.2,0.8-0.1c0.2,0.1,0.3,0.3,0.3,0.6v3.1c0,0.5-0.3,1-0.8,1.3l-0.7,0.4c-0.2,0.1-0.3,0.3-0.4,0.5
						c-0.3,1.4-0.8,2.8-1.4,4.3c-0.1,0.1-0.1,0.2-0.1,0.2l0.5,0.2c0.2,0.1,0.3,0.2,0.4,0.4c0.1,0.3,0,0.6-0.2,1l-2.2,3.4
						c-0.3,0.5-0.9,0.8-1.3,0.6l-0.5-0.2c0,0-0.1,0.1-0.3,0.2c-1.1,1.3-2.2,2.4-3.5,3.4c-0.2,0.1-0.3,0.4-0.3,0.5v0.8
						c0,0.5-0.3,1-0.8,1.3l-3.1,1.8c-0.3,0.2-0.6,0.2-0.8,0.1c-0.2-0.1-0.3-0.3-0.3-0.6v-0.7c-1.3,0.4-2.4,0.6-3.5,0.6h0
						c-0.1,0-0.2,0.1-0.4,0.3l-0.5,0.8C208.5,232.9,208.1,233.1,207.7,233.1z M204.4,226.3c0.1,0,0.2,0,0.2,0
						c0.2,0.1,0.3,0.2,0.4,0.4c0.3,1,0.7,1.8,1.3,2.4c0.3,0.3,0.2,0.7,0,1.2l-0.5,0.8c-0.1,0.2-0.1,0.4-0.1,0.4l2.1,0.9
						c0.1,0,0.3-0.1,0.4-0.4l0.5-0.8c0.2-0.4,0.6-0.7,1-0.6c1,0,2.1-0.1,3.3-0.5c0.2-0.1,0.5-0.1,0.6,0.1c0.2,0.1,0.3,0.3,0.3,0.6
						v0.7c0,0,0,0,0.1,0l3.1-1.8c0.3-0.1,0.4-0.5,0.4-0.7v-0.8c0-0.4,0.2-0.8,0.6-1c1.2-1,2.3-2.1,3.4-3.3c0.3-0.4,0.8-0.6,1.1-0.4
						l0.5,0.2c0.1,0,0.3-0.1,0.4-0.4l2.2-3.4c0.1-0.2,0.1-0.4,0.1-0.4l-0.5-0.2c-0.1-0.1-0.3-0.2-0.3-0.3c-0.1-0.2-0.1-0.5,0.1-0.8
						c0.6-1.4,1.1-2.8,1.4-4.1c0.1-0.4,0.4-0.8,0.7-1l0.7-0.4c0.3-0.1,0.4-0.5,0.4-0.7v-3.1c0,0,0,0-0.1,0l-0.7,0.4
						c-0.2,0.1-0.5,0.2-0.7,0.1c-0.2-0.1-0.3-0.2-0.4-0.4c-0.3-1-0.7-1.8-1.3-2.4c-0.3-0.3-0.2-0.7,0-1.2l0.5-0.8
						c0.1-0.2,0.1-0.4,0.1-0.4l-2.1-0.9h0c-0.1,0-0.3,0.1-0.4,0.4l-0.5,0.8c-0.2,0.4-0.6,0.6-1,0.6c0,0,0,0,0,0
						c-1,0-2.1,0.1-3.3,0.5c-0.2,0.1-0.5,0.1-0.6-0.1c-0.2-0.1-0.3-0.3-0.3-0.6v-0.7c0,0,0,0-0.1,0l-3.1,1.8
						c-0.3,0.1-0.4,0.5-0.4,0.7v0.7c0,0.4-0.2,0.8-0.6,1c-1.2,1-2.3,2.1-3.4,3.3c-0.3,0.4-0.8,0.6-1.1,0.4l-0.5-0.2
						c0,0-0.3,0.1-0.4,0.4l-2.2,3.4c-0.1,0.2-0.1,0.4-0.1,0.4l0.5,0.2c0.1,0.1,0.3,0.2,0.3,0.3c0.1,0.2,0.1,0.5-0.1,0.8
						c-0.6,1.4-1.1,2.8-1.4,4.1c-0.1,0.4-0.4,0.8-0.7,1l-0.7,0.4c-0.3,0.1-0.4,0.5-0.4,0.7v3.1c0,0,0,0,0.1,0l0.7-0.4
						C204.1,226.3,204.2,226.3,204.4,226.3z M212.4,225.8c-0.6,0-1.2-0.1-1.8-0.4c-1.2-0.6-1.9-2-1.9-3.8c0-3.8,3-8.6,6.8-10.7
						c2.1-1.2,4.1-1.4,5.5-0.5c1.2,0.8,1.8,2.4,1.6,4.5c-0.4,3.3-2.9,7.3-6,9.4C215.1,225.3,213.6,225.8,212.4,225.8z M219,210.6
						c-0.9,0-2,0.3-3.1,1c-3.5,2-6.4,6.6-6.4,10.1c0,1.5,0.5,2.6,1.5,3.1c1.3,0.7,3.3,0.3,5.3-1.1c2.9-2,5.3-5.8,5.7-8.9
						c0.2-1.8-0.3-3.1-1.3-3.8C220.1,210.7,219.6,210.6,219,210.6z"/>
				</g>
			</g>
			<g>
				<g>
					<path class="st3" d="M173.2,292.5c-1,0-1.9-0.3-2.8-0.8c-1.8-1-2.8-2.8-2.8-4.9c0-3.9,2.1-7.5,5.4-9.4l114.4-65.9
						c1.8-1,3.9-1,5.6,0c1.8,1,2.8,2.8,2.8,4.9c0,3.9-2.1,7.5-5.4,9.4L176,291.8C175.1,292.3,174.2,292.5,173.2,292.5z M290.2,211.9
						c-0.8,0-1.6,0.2-2.3,0.6l-114.4,65.9c-3,1.7-4.9,5-4.9,8.5c0,1.7,0.9,3.1,2.3,4c1.4,0.8,3.1,0.8,4.6,0L289.9,225
						c3-1.7,4.9-5,4.9-8.5c0-1.7-0.9-3.1-2.3-4C291.8,212.1,291,211.9,290.2,211.9z"/>
				</g>
				<g>
					<path class="st3" d="M245.1,238.9v10.2L175.7,289c-2.3,1.4-5.3-0.3-5.3-3c0-1.3,0.3-2.5,1-3.5c0.6-1.1,1.5-2,2.6-2.6
						L245.1,238.9z"/>
				</g>
				<g>
					<g>
						<path class="st3" d="M206.8,252.1c-0.7-0.3-1-1.1-1-2.3v-5l1.3-0.7v4.9c0,1.9,0.8,2.3,2.5,1.4c0.8-0.5,1.4-1.1,1.8-1.8
							c0.4-0.7,0.6-1.5,0.6-2.5v-4.9l1.2-0.7v5c0,1.3-0.3,2.4-1,3.5c-0.7,1-1.6,1.9-2.7,2.6C208.4,252.2,207.5,252.4,206.8,252.1z"
							/>
					</g>
					<g>
						<path class="st3" d="M222,236.3c0.7,0.2,1,0.7,1,1.7c0,1-0.3,1.9-1,2.8c-0.7,0.9-1.5,1.7-2.7,2.4l-2.2,1.3v2.7l-1.3,0.7V239
							l3.4-2C220.4,236.3,221.3,236.1,222,236.3z M221.1,240.5c0.4-0.6,0.6-1.2,0.6-1.8c0-0.6-0.2-1-0.6-1.1c-0.4-0.1-1,0.1-1.8,0.5
							l-2.1,1.2v3.9l2.1-1.2C220,241.6,220.7,241.1,221.1,240.5z"/>
					</g>
					<g>
						<path class="st3" d="M224.8,233.8l3.7-2.1c0.9-0.5,1.8-0.8,2.5-0.9c0.7,0,1.3,0.1,1.7,0.6c0.4,0.4,0.6,1.1,0.6,1.9
							c0,0.9-0.2,1.7-0.6,2.6c-0.4,0.9-1,1.7-1.7,2.5c-0.7,0.8-1.5,1.4-2.5,2l-3.7,2.1V233.8z M228.4,239.4c0.7-0.4,1.3-0.9,1.9-1.5
							c0.5-0.6,1-1.2,1.2-1.9c0.3-0.7,0.4-1.3,0.4-2c0-0.7-0.1-1.1-0.4-1.5c-0.3-0.3-0.7-0.5-1.2-0.4c-0.5,0-1.2,0.3-1.9,0.7
							l-2.4,1.4v6.6L228.4,239.4z"/>
					</g>
					<g>
						<path class="st3" d="M240.6,231.3l-4.7,2.7l-1,2.8l-1.3,0.7l4-11.1l1.2-0.7l4,6.5l-1.3,0.8L240.6,231.3z M240.2,230.5
							l-1.9-3.2l-1.9,5.4L240.2,230.5z"/>
					</g>
					<g>
						<path class="st3" d="M245.5,222.9l-3,1.7v-1.1l7.3-4.2v1.1l-3,1.7v7.7l-1.2,0.7V222.9z"/>
					</g>
					<g>
						<path class="st3" d="M257.5,222.6v1.1l-6.4,3.7v-8.8l6.2-3.6v1.1l-4.9,2.9v2.7l4.4-2.5v1.1l-4.4,2.5v2.8L257.5,222.6z"/>
					</g>
				</g>
			</g>
		</g>
	</g>
</g>
<g id="Floder">
	<g>
		<polyline class="st3" points="331.2,85.6 372.6,61.4 374.1,62.3 332.5,86.4 331.4,85.7 		"/>
		<polyline class="st3" points="318.5,89.6 318.5,139.6 318.7,140.9 324.9,139 374.1,111.8 374.1,62.3 332.5,86.4 330.9,82.5 
			318.5,89.6 		"/>
		<polyline class="st10" points="318.5,89.6 318.5,139.6 318.7,140.9 324.9,139 374.1,111.8 374.1,62.3 332.5,86.4 330.9,82.5 
			318.5,89.6 		"/>
		<g>
			<path class="st1" d="M377.4,56.9c0-0.4-0.4-0.6-0.8-0.4l-40.8,23.8c-0.7,0.4-1.1,1.1-1.1,1.8v36.1c0,0.4,0.4,0.7,0.8,0.6
				c-0.8,0.4-1.6,0-1.6,0c-0.8-0.4-0.7-1.3-0.7-1.3V81.4c0-0.5,0.2-0.9,0.4-1.3c0.2-0.2,0.4-0.4,0.6-0.6L375,55.8c0,0,0.6-0.4,1.4,0
				C377.2,56.3,377.4,56.6,377.4,56.9z"/>
			<path class="st11" d="M377.4,56.9c0-0.4-0.4-0.6-0.8-0.4l-40.8,23.8c-0.4,0.2-0.7,0.5-0.8,0.9l-1.3-1c0.2-0.2,0.4-0.4,0.6-0.6
				L375,55.8c0,0,0.6-0.4,1.4,0C377.2,56.3,377.4,56.6,377.4,56.9z"/>
			<path class="st9" d="M376,95.2l-40.4,23.5c-0.4,0.3-1-0.1-1-0.6V82.1c0-0.8,0.4-1.5,1.1-1.8l40.8-23.8c0.3-0.2,0.8,0,0.8,0.4v36
				C377.4,93.8,376.9,94.7,376,95.2z"/>
		</g>
		<path class="st3" d="M329.7,100.3l53.9-31.2l-9.5,42.7l-53.9,31.2c0,0-0.9,0.4-1.4,0.2c0,0,0.1,0.1,0.6-1.6
			C320,139.9,329.7,100.3,329.7,100.3z"/>
		<polygon class="st3" points="382.2,68.5 383.6,69.1 329.7,100.3 328.4,99.6 		"/>
		<polyline class="st3" points="317.4,88.9 329.8,81.7 330.9,82.5 318.5,89.6 317.4,88.9 		"/>
		<polyline class="st12" points="332,85.2 372.6,61.4 374.1,62.3 332.5,86.4 332,85.2 		"/>
		<polygon class="st12" points="382.2,68.5 383.6,69.1 329.7,100.3 328.4,99.6 		"/>
		<polyline class="st12" points="317.4,88.9 329.8,81.7 330.9,82.5 318.5,89.6 317.4,88.9 		"/>
		<path class="st3" d="M317.4,88.9v52c0,0,0,1.3,0.7,1.9c0.6,0.5,1.5,0.4,1.8-0.4l9.7-42.1l-1.3-0.6l-9,40.2c0,0-0.1,0.4-0.5,0.3
			c-0.4-0.1-0.3-0.5-0.3-0.5v-50L317.4,88.9z"/>
		<path class="st4" d="M317.4,88.9v52c0,0,0,1.3,0.7,1.9c0.6,0.5,1.5,0.4,1.8-0.4l9.7-42.1l-1.3-0.6l-9,40.2c0,0-0.1,0.4-0.5,0.3
			c-0.4-0.1-0.3-0.5-0.3-0.5v-50L317.4,88.9z"/>
	</g>
</g>
<g id="Icon">
	<g>
		<path class="st3" d="M141.9,248.2l-3.5,0.8v45.8c0,1-0.5,2-1.4,2.5L70.3,336v4.7c-1.6,0.6-2.7,0.3-3.6-0.2
			c-0.9-0.5-1.4-1.5-1.4-2.5v-50.6c0-0.4,0.1-0.8,0.2-1.1c0.2-0.6,0.7-1.1,1.2-1.4l69.7-40.5c0,0,0.1,0,0.1-0.1v0
			c0,0,1.4-0.7,3.3,0.3C141,245.2,141.9,246.1,141.9,248.2z"/>
		<path class="st10" d="M141.9,248.2l-3.5,0.8v45.8c0,1-0.5,2-1.4,2.5L70.3,336v4.7c-1.6,0.6-2.7,0.3-3.6-0.2
			c-0.9-0.5-1.4-1.5-1.4-2.5v-50.6c0-0.4,0.1-0.8,0.2-1.1c0.2-0.6,0.7-1.1,1.2-1.4l69.7-40.5c0,0,0.1,0,0.1-0.1v0
			c0,0,1.4-0.7,3.3,0.3C141,245.2,141.9,246.1,141.9,248.2z"/>
		<path class="st3" d="M141.9,248.2l-3.5,0.8v1.8L70.5,289l-4.9-2.8c0.2-0.6,0.7-1.1,1.2-1.4l69.7-40.5c0,0,0.1,0,0.1-0.1v0
			c0,0,1.4-0.7,3.3,0.3C141,245.2,141.9,246.1,141.9,248.2z"/>
		<path class="st12" d="M141.9,248.2l-3.5,0.8v1.8L70.5,289l-4.9-2.8c0.2-0.6,0.7-1.1,1.2-1.4l69.7-40.5c0,0,0.1,0,0.1-0.1v0
			c0,0,1.4-0.7,3.3,0.3C141,245.2,141.9,246.1,141.9,248.2z"/>
		<path class="st3" d="M70.3,287.6l69.7-40.5c0.8-0.5,1.9,0.1,1.9,1.1v49.3c0,1-0.6,2-1.4,2.5l-69.7,40.5c-0.8,0.5-1.9-0.1-1.9-1.1
			v-49.3C68.8,289.1,69.4,288.1,70.3,287.6z"/>
		<g>
			<g>
				<path class="st5" d="M121.2,270.8l-2.3,3.7c-3.3-1.9-8.1-1.5-13.5,1.6c-8.5,4.9-15.6,14.9-17.3,23.9c-0.1,0.7,0.4,1,1,0.7
					l2.4-1.4c0.5-0.3,0.9-0.8,1-1.3c1.5-6.6,6.7-13.8,12.9-17.4c4.2-2.4,7.9-2.6,10.4-1l-3,4.8c-0.6,1-0.2,1.8,0.6,1.4l8.1-3.9
					c0.8-0.4,1.5-1.4,1.5-2.3v-8.9C122.9,269.6,121.8,269.8,121.2,270.8z"/>
				<path class="st5" d="M105.4,307.2c-4.2,2.4-7.9,2.6-10.4,1l3-4.8c0.6-1,0.2-1.8-0.6-1.4l-8.1,3.9c-0.8,0.4-1.5,1.4-1.5,2.3v8.9
					c0,0.9,1.1,0.7,1.8-0.3l2.3-3.7c3.3,1.9,8.1,1.5,13.5-1.6c8.5-4.9,15.6-14.9,17.3-23.9c0.1-0.7-0.4-1-1-0.7l-2.4,1.4
					c-0.5,0.3-0.9,0.8-1,1.3C116.8,296.4,111.6,303.6,105.4,307.2z"/>
			</g>
		</g>
	</g>
</g>
<g id="Speech_bubbles">
	<g>
		<polygon class="st3" points="323.8,183.8 327.8,189.1 332.4,191.6 331.2,179.6 		"/>
		<polygon class="st10" points="323.8,183.8 327.8,189.1 332.4,191.6 331.2,179.6 		"/>
		<polygon class="st3" points="328.4,186.3 332.4,191.6 335.8,182.1 		"/>
		<path class="st3" d="M397.8,121.3l-3.5,0.8v20.1c0,1-0.5,2-1.4,2.5l-70.3,40.8v4.7c-1.6,0.6-2.7,0.3-3.6-0.2
			c-0.9-0.5-1.4-1.5-1.4-2.5v-24.9c0-0.4,0.1-0.8,0.2-1.1c0.2-0.6,0.7-1.1,1.2-1.4l73.3-42.5c0,0,0.1,0,0.1-0.1v0
			c0,0,1.4-0.7,3.3,0.3C396.9,118.4,397.8,119.3,397.8,121.3z"/>
		<path class="st10" d="M397.8,121.3l-3.5,0.8v20.1c0,1-0.5,2-1.4,2.5l-70.3,40.8v4.7c-1.6,0.6-2.7,0.3-3.6-0.2
			c-0.9-0.5-1.4-1.5-1.4-2.5v-24.9c0-0.4,0.1-0.8,0.2-1.1c0.2-0.6,0.7-1.1,1.2-1.4l73.3-42.5c0,0,0.1,0,0.1-0.1v0
			c0,0,1.4-0.7,3.3,0.3C396.9,118.4,397.8,119.3,397.8,121.3z"/>
		<path class="st3" d="M397.8,121.3l-3.5,0.8v1.8l-71.5,40.3l-4.9-2.8c0.2-0.6,0.7-1.1,1.2-1.4l73.3-42.5c0,0,0.1,0,0.1-0.1v0
			c0,0,1.4-0.7,3.3,0.3C396.9,118.4,397.8,119.3,397.8,121.3z"/>
		<path class="st12" d="M397.8,121.3l-3.5,0.8v1.8l-71.5,40.3l-4.9-2.8c0.2-0.6,0.7-1.1,1.2-1.4l73.3-42.5c0,0,0.1,0,0.1-0.1v0
			c0,0,1.4-0.7,3.3,0.3C396.9,118.4,397.8,119.3,397.8,121.3z"/>
		<path class="st3" d="M322.6,162.8l73.3-42.5c0.8-0.5,1.9,0.1,1.9,1.1V145c0,1-0.6,2-1.4,2.5L323,190c-0.8,0.5-1.9-0.1-1.9-1.1
			v-23.6C321.1,164.3,321.7,163.3,322.6,162.8z"/>
		<path class="st5" d="M326,167.2c-0.3,0-0.5-0.1-0.7-0.4c-0.2-0.4-0.1-0.8,0.3-1.1l66.9-38.5c0.4-0.2,0.8-0.1,1.1,0.3
			c0.2,0.4,0.1,0.8-0.3,1.1l-66.9,38.5C326.3,167.2,326.2,167.2,326,167.2z"/>
		<path class="st5" d="M326,172.5c-0.3,0-0.5-0.1-0.7-0.4c-0.2-0.4-0.1-0.8,0.3-1.1l66.9-38.5c0.4-0.2,0.8-0.1,1.1,0.3
			c0.2,0.4,0.1,0.8-0.3,1.1l-66.9,38.5C326.3,172.5,326.2,172.5,326,172.5z"/>
		<path class="st5" d="M326,177.8c-0.3,0-0.5-0.1-0.7-0.4c-0.2-0.4-0.1-0.8,0.3-1.1l57.7-33.2c0.4-0.2,0.8-0.1,1.1,0.3
			c0.2,0.4,0.1,0.8-0.3,1.1l-57.7,33.2C326.3,177.8,326.2,177.8,326,177.8z"/>
		<path class="st5" d="M326,183.1c-0.3,0-0.5-0.1-0.7-0.4c-0.2-0.4-0.1-0.8,0.3-1.1l66.9-38.5c0.4-0.2,0.8-0.1,1.1,0.3
			c0.2,0.4,0.1,0.8-0.3,1.1L326.4,183C326.3,183.1,326.2,183.1,326,183.1z"/>
	</g>
	<g>
		<path class="st3" d="M89.8,248.5l1.3-4.1l-5.3,3l2.5,4.2c0,0,0.1,0.1,0.1,0.1l0,0l3.2,1.8v-6.3L89.8,248.5z"/>
		<path class="st10" d="M89.8,248.5l1.3-4.1l-5.3,3l2.5,4.2c0,0,0.1,0.1,0.1,0.1l0,0l3.2,1.8v-6.3L89.8,248.5z"/>
		<path class="st3" d="M103.6,218.7l-4.3,1.6v16c0,1.5-0.8,2.8-2,3.5l-14.4,8.3v5.1c-1.5,0.7-3.4-0.5-3.4-0.5
			c-2.2-1.2-2.1-2.8-2.1-2.8v-20.9c0-0.5,0.1-1.1,0.4-1.5c0.3-0.6,0.7-1.1,1.3-1.4l18.9-10.8c0,0,1.1-0.7,2.6-0.2
			C102,215.6,103.6,216.9,103.6,218.7z"/>
		<path class="st10" d="M103.6,218.7l-4.3,1.6v16c0,1.5-0.8,2.8-2,3.5l-14.4,8.3v5.1c-1.5,0.7-3.4-0.5-3.4-0.5
			c-2.2-1.2-2.1-2.8-2.1-2.8v-20.9c0-0.5,0.1-1.1,0.4-1.5c0.3-0.6,0.7-1.1,1.3-1.4l18.9-10.8c0,0,1.1-0.7,2.6-0.2
			C102,215.6,103.6,216.9,103.6,218.7z"/>
		<path class="st3" d="M103.6,218.7l-4.3,1.6v1.9l-16.8,8.3l-4.7-2.9c0.3-0.6,0.7-1.1,1.3-1.4l18.9-10.8c0,0,1.1-0.7,2.6-0.2
			C102,215.6,103.6,216.9,103.6,218.7z"/>
		<path class="st12" d="M103.6,218.7l-4.3,1.6v1.9l-16.8,8.3l-4.7-2.9c0.3-0.6,0.7-1.1,1.3-1.4l18.9-10.8c0,0,1.1-0.7,2.6-0.2
			C102,215.6,103.6,216.9,103.6,218.7z"/>
		<path class="st3" d="M103.6,218.7V239c0,1.5-0.8,2.8-2,3.5l-18.7,10.8c-0.5,0.3-1.1-0.1-1.1-0.7v-20.9c0-1.2,0.6-2.3,1.7-2.9
			l18.9-10.8C102.8,217.6,103.6,218,103.6,218.7z"/>
		<path class="st3" d="M89,249.1l2.5,4.2c0.1,0.2,0.5,0.2,0.6-0.1l2.3-7.1L89,249.1z"/>
		<g>
			<path class="st5" d="M96.9,233c0,1,0.8,1.3,1.7,0.7c1-0.6,1.7-1.8,1.7-2.7s-0.8-1.3-1.7-0.7C97.7,230.8,96.9,232,96.9,233z"/>
			<path class="st5" d="M90.7,236.6c0,1,0.8,1.3,1.7,0.7s1.7-1.8,1.7-2.7c0-1-0.8-1.3-1.7-0.7C91.5,234.4,90.7,235.6,90.7,236.6z"/>
			<path class="st5" d="M84.5,240.2c0,1,0.8,1.3,1.7,0.7c1-0.6,1.7-1.8,1.7-2.7s-0.8-1.3-1.7-0.7C85.2,238,84.5,239.2,84.5,240.2z"
				/>
		</g>
	</g>
</g>
<g id="Suitcase">
	<g>
		<path class="st2" d="M389.1,391.2l-6.4,3.7c-0.3,0.2-0.7,0.2-1,0l-37.3-21.5c-0.2-0.1-0.2-0.4,0-0.5l6.4-3.7c0.3-0.2,0.7-0.2,1,0
			l37.3,21.5C389.3,390.8,389.3,391,389.1,391.2z"/>
		<path class="st3" d="M389.2,353.5v30.9c0,0,0.1,1.4-1.4,2.5c-0.7,0.5-2.1,1.3-3.4,1.8c-1.9,0.8-3.5,0.7-3.5,0.7l1.2-31.8l1.5-2.5
			L389.2,353.5z"/>
		<path class="st3" d="M382.1,357.6v30.5c0,0.7-0.6,1.3-1.3,1.2c-0.4,0-0.9-0.2-1.6-0.6c-2.6-1.5-32.2-18.6-32.2-18.6
			s-2.7-1.6-2.7-5v-29.4l6.7,1.8l27.2,16.4L382.1,357.6z"/>
		<path class="st4" d="M382.1,357.6v30.5c0,0.7-0.6,1.3-1.3,1.2c-0.4,0-0.9-0.2-1.6-0.6c-2.6-1.5-32.2-18.6-32.2-18.6
			s-2.7-1.6-2.7-5v-29.4l6.7,1.8l27.2,16.4L382.1,357.6z"/>
		<path class="st3" d="M344.3,347.6c0,0-0.2,2.3,3,4.1c3,1.7,28.8,16.5,32.3,18.5c0.5,0.3,1,0.3,1.5,0.1c0.5-0.3,1.1-0.9,1.1-2.4
			v-11l-36.7-21.4l-1.2,0.2V347.6z"/>
		<path class="st10" d="M344.3,347.6c0,0-0.2,2.3,3,4.1c3,1.7,28.8,16.5,32.3,18.5c0.5,0.3,1,0.3,1.5,0.1c0.5-0.3,1.1-0.9,1.1-2.4
			v-11l-36.7-21.4l-1.2,0.2V347.6z"/>
		<path class="st3" d="M389.1,353.8l-6.4,3.7c-0.3,0.2-0.7,0.2-1,0L344.4,336c-0.2-0.1-0.2-0.4,0-0.5l6.4-3.7c0.3-0.2,0.7-0.2,1,0
			l37.3,21.5C389.3,353.4,389.3,353.7,389.1,353.8z"/>
		<path class="st13" d="M389.1,353.8l-6.4,3.7c-0.3,0.2-0.7,0.2-1,0L344.4,336c-0.2-0.1-0.2-0.4,0-0.5l6.4-3.7c0.3-0.2,0.7-0.2,1,0
			l37.3,21.5C389.3,353.4,389.3,353.7,389.1,353.8z"/>
		<path class="st8" d="M359,357.1v2.3c0,0.5,0.3,1,0.7,1.3l6.2,3.6c0.3,0.2,0.8-0.1,0.8-0.5v-2.3c0-0.5-0.3-1-0.7-1.3l-6.2-3.6
			C359.4,356.5,359,356.7,359,357.1z"/>
		<path class="st7" d="M360.9,332.8c-1.2,0.3-1.8,1-1.8,1l1.8,2.8v3.9l1.2,0.7v-5l10.1,5.9l0.7,7.3l1.8-1v-7.7L360.9,332.8z"/>
		<polygon class="st6" points="362,336 360.3,335.7 360.3,342.2 362,341.2 		"/>
		<path class="st8" d="M359.1,333.8v7.7c0,0,0.5,0.5,1.2,0.7v-6.5l11.4,6.6v6.5c0,0,0.4,0.5,1.2,0.7v-7.7L359.1,333.8z"/>
	</g>
</g>
<g id="Character">
	<g>
		<path class="st6" d="M345,391.7c0,0,0.4,0.1,0.4,1.2c0.1,1.1,0.2,4.3,0,5c-0.2,0.8-1.8,1.9-3.9,1.7c-2.1-0.2-3.5-1.8-4.5-3.4
			c-1-1.6-5.5-7-6.4-8.3c-0.8-1.3-2.1-4.8-0.5-6.2c1.3-1.2,6.4,1.5,7.7,3C339.2,386.3,345,391.7,345,391.7z"/>
		<path class="st6" d="M323.6,407.2c0,0,0.8,1.1,1,2.5c0.2,1.5,0.2,5.9,0,6.4c-0.2,0.5-1.2,1.4-2.9,1.5c-1.1,0.1-2.5,0.1-3.6,0.1
			c-0.8,0-1.5,0.2-2.2,0.6c-1.2,0.6-3.4,1.7-5.7,2.6c-3.4,1.3-6,1.2-8.1,0.7c-2.1-0.4-4.6-1.8-5.6-3.1c-0.5-0.6-0.5-1.7-0.1-2.1
			c0.3-0.4,5.4-2.5,8-3.8c2.6-1.3,10.2-4.3,10.8-4.9C315.9,407.1,323.6,407.2,323.6,407.2z"/>
		<path class="st14" d="M308.6,219.8c0.3-0.6,0.5-1.3,0.5-2c0-2,0-4.6,0-5.3c0.2-3.4,1.3-4.8,1.3-4.8c4.2-5.5,19.6-4.3,20.7-1.2
			c1.1,3.1,3.2,20-1.5,23c0.5,2.6,1.9,9.1,1.9,9.1c-3.8,3.5-11.9,2.4-11.9,2.4c0.2-1.2-0.8-5.9-1.4-8.3c-3.3,0.4-6.1,0.3-7.1-0.3
			c0,0,0,0,0,0c-0.1-0.1-0.1-0.1-0.2-0.2c-0.7-1-1.2-3.3-1.5-8c-0.9,0.1-2.1-0.2-2.3-0.5C306.9,223.2,307.8,221.3,308.6,219.8z"/>
		<g>
			<g>
				<path class="st15" d="M318.4,269.8L304.9,233c-0.2-0.7-0.7-1.2-1.3-1.5l0.3-0.4l-1.8,0.1v0c-0.4,0-0.8,0.1-1.2,0.4l-20.5,11.8
					c-1.2,0.7-1.7,2.1-1.2,3.4l13.5,36.8c0.4,1,1.3,1.7,2.3,1.8l0,0l1.6,0.1l-0.2-0.3c0.1-0.1,0.3-0.1,0.4-0.2l20.5-11.8
					C318.3,272.5,318.8,271.1,318.4,269.8z"/>
				<path class="st16" d="M280.6,246.6l13.6,37.1c0.6,1.5,2.4,2.2,3.8,1.4l20.8-12c1.1-0.6,1.6-2,1.1-3.2l-13.6-37.1
					c-0.6-1.5-2.4-2.2-3.8-1.4l-20.8,12C280.7,244.1,280.2,245.4,280.6,246.6z"/>
				<path class="st5" d="M282.5,246.4l12.7,34.7c0.3,0.7,1.1,1,1.7,0.6l20.2-11.7c0.5-0.3,0.7-0.9,0.5-1.4l-12.7-34.7
					c-0.3-0.7-1.1-1-1.7-0.6L283,244.9C282.5,245.2,282.3,245.8,282.5,246.4z"/>
			</g>
			<g>
				<g>
					<g>
						<path class="st3" d="M297.8,261.4C297.8,261.4,297.8,261.4,297.8,261.4l-0.5-0.3c0,0-0.1-0.1-0.1-0.1c0-0.1-0.1-0.1-0.1-0.2
							l0-0.1c0,0,0,0,0-0.1c-0.2-0.2-0.3-0.4-0.5-0.6c0,0,0,0,0,0l-0.1,0.1c0,0-0.1,0-0.1,0c0,0-0.1-0.1-0.1-0.1l-0.3-0.6
							c0-0.1,0-0.2,0-0.2l0.1-0.1c0,0,0,0,0-0.1c-0.1-0.3-0.1-0.5-0.1-0.8c0,0,0,0,0,0l-0.1-0.1c0,0-0.1-0.1-0.1-0.1
							c0-0.1-0.1-0.1-0.1-0.2l0.1-0.6c0-0.1,0.1-0.1,0.2-0.1l0.1,0.1c0,0,0,0,0,0c0.1-0.2,0.2-0.4,0.3-0.5c0,0,0-0.1,0-0.1l-0.1-0.1
							c0-0.1,0-0.2,0-0.2l0.4-0.2c0,0,0.1,0,0.1,0c0,0,0.1,0.1,0.1,0.1l0.1,0.1c0.2,0,0.4,0,0.6,0c0,0,0,0,0,0l0-0.1
							c0-0.1,0.1-0.1,0.2-0.1l0.5,0.3c0,0,0.1,0.1,0.1,0.1c0,0.1,0.1,0.1,0.1,0.2l0,0.1c0,0,0,0,0,0.1c0.2,0.2,0.3,0.4,0.5,0.6
							c0,0,0,0,0,0l0.1-0.1c0,0,0.1,0,0.1,0c0,0,0.1,0.1,0.1,0.1l0.3,0.6c0,0.1,0,0.2,0,0.2l-0.1,0.1c0,0,0,0,0,0.1
							c0.1,0.3,0.1,0.5,0.1,0.8c0,0,0,0,0,0l0.1,0c0,0,0.1,0.1,0.1,0.1c0,0.1,0.1,0.1,0.1,0.2l-0.1,0.6c0,0.1-0.1,0.1-0.2,0.1
							l-0.1-0.1c0,0,0,0,0,0c-0.1,0.2-0.2,0.4-0.3,0.5c0,0,0,0.1,0,0.1l0.1,0.1c0,0.1,0,0.2,0,0.2l-0.4,0.2c0,0-0.1,0-0.1,0
							c0,0-0.1-0.1-0.1-0.1l-0.1-0.1c-0.2,0-0.4,0-0.6,0l0,0c0,0,0,0,0,0l0,0.1C297.9,261.4,297.9,261.4,297.8,261.4z M296.6,259.9
							C296.6,259.9,296.7,259.9,296.6,259.9c0.1,0,0.1,0.1,0.1,0.1c0.1,0.2,0.3,0.4,0.4,0.5c0.1,0.1,0.1,0.2,0.1,0.2l0,0.1
							c0,0,0,0.1,0,0.1l0.4,0.3c0,0,0,0,0-0.1l0-0.1c0-0.1,0-0.1,0.1-0.1c0.2,0,0.4,0.1,0.5,0c0,0,0.1,0,0.1,0c0,0,0.1,0.1,0.1,0.1
							l0.1,0.1c0,0,0,0,0,0l0.4-0.2c0,0,0-0.1,0-0.1l-0.1-0.1c0-0.1,0-0.1,0-0.2c0.1-0.1,0.2-0.3,0.3-0.5c0-0.1,0.1-0.1,0.2,0
							l0.1,0.1c0,0,0,0,0-0.1l0.1-0.6c0,0,0-0.1,0-0.1l-0.1-0.1c0,0-0.1,0-0.1-0.1c0,0-0.1-0.1-0.1-0.1c0-0.2-0.1-0.5-0.1-0.8
							c0-0.1,0-0.1,0-0.2l0.1-0.1c0,0,0-0.1,0-0.1l-0.3-0.6c0,0,0,0,0,0l-0.1,0.1c0,0-0.1,0-0.1,0c0,0-0.1-0.1-0.1-0.1
							c-0.1-0.2-0.3-0.4-0.4-0.5c-0.1-0.1-0.1-0.2-0.1-0.2l0-0.1c0,0,0-0.1,0-0.1l-0.4-0.3h0c0,0,0,0,0,0.1l0,0.1
							c0,0.1-0.1,0.1-0.1,0.1c0,0,0,0,0,0c-0.2,0-0.4-0.1-0.5,0c0,0-0.1,0-0.1,0c0,0-0.1-0.1-0.1-0.1l-0.1-0.1c0,0,0,0,0,0l-0.4,0.2
							c0,0,0,0.1,0,0.1l0.1,0.1c0,0.1,0,0.1,0,0.2c-0.1,0.1-0.2,0.3-0.3,0.5c0,0.1-0.1,0.1-0.2,0l-0.1-0.1c0,0,0,0,0,0.1L296,258
							c0,0,0,0.1,0,0.1l0.1,0.1c0,0,0.1,0,0.1,0.1c0,0,0.1,0.1,0.1,0.1c0,0.2,0.1,0.5,0.1,0.8c0,0.1,0,0.1,0,0.2l-0.1,0.1
							c0,0,0,0.1,0,0.1l0.3,0.6c0,0,0,0,0,0L296.6,259.9C296.6,259.9,296.6,259.9,296.6,259.9z M298,260.2c-0.1,0-0.2-0.1-0.3-0.2
							c-0.3-0.2-0.5-0.5-0.7-0.8c-0.3-0.7-0.2-1.5,0.2-1.8c0.3-0.2,0.6-0.1,0.9,0.1c0.3,0.2,0.5,0.5,0.7,0.9
							c0.2,0.6,0.1,1.3-0.2,1.6C298.4,260.2,298.2,260.2,298,260.2z M297.8,257.5c-0.2,0-0.3,0-0.5,0.1c-0.4,0.3-0.5,1-0.2,1.7
							c0.1,0.3,0.3,0.5,0.5,0.7c0.3,0.2,0.6,0.2,0.8,0c0.3-0.3,0.4-0.9,0.2-1.5c-0.1-0.3-0.3-0.6-0.6-0.8
							C298,257.5,297.9,257.5,297.8,257.5z"/>
					</g>
					<path class="st3" d="M300,257l0.1-0.1c0,0,0.1,0,0.1,0.1c0.2,0.3,0.4,0.5,0.6,0.7c0,0,0.1,0.1,0.1,0.2l0,0.2
						c0,0.1,0,0.2,0.1,0.2l0.6,0.3c0.1,0,0.1,0,0.1-0.1l0-0.2c0-0.1,0-0.1,0.1-0.1c0.2,0.1,0.5,0.1,0.7,0c0,0,0.1,0,0.1,0.1l0.1,0.2
						c0,0.1,0.1,0.1,0.2,0.1l0.5-0.3c0.1,0,0.1-0.1,0-0.2l-0.1-0.2c0-0.1,0-0.1,0-0.2c0.2-0.2,0.3-0.4,0.4-0.6c0-0.1,0.1-0.1,0.1,0
						l0.1,0.1c0.1,0,0.1,0,0.1-0.1l0.1-0.7c0-0.1,0-0.2-0.1-0.2l-0.1-0.1c0,0-0.1-0.1-0.1-0.2c0-0.3-0.1-0.6-0.2-0.9
						c0-0.1,0-0.1,0-0.1l0.1-0.1c0.1,0,0.1-0.1,0-0.2l-0.3-0.7c0-0.1-0.1-0.1-0.2-0.1l-0.1,0.1c0,0-0.1,0-0.1-0.1
						c-0.2-0.3-0.4-0.5-0.6-0.7c0,0-0.1-0.1-0.1-0.2l0-0.2c0-0.1,0-0.2-0.1-0.2l-0.6-0.3c-0.1,0-0.1,0-0.1,0.1l0,0.2
						c0,0.1,0,0.1-0.1,0.1c-0.2-0.1-0.5-0.1-0.7,0c0,0-0.1,0-0.1-0.1l-0.1-0.2c0-0.1-0.1-0.1-0.2-0.1l-0.5,0.3c-0.1,0-0.1,0.1,0,0.2
						l0.1,0.2c0,0.1,0,0.1,0,0.2c-0.2,0.2-0.3,0.4-0.4,0.6c0,0.1-0.1,0.1-0.1,0l-0.1-0.1c-0.1,0-0.1,0-0.1,0.1l-0.1,0.7
						c0,0.1,0,0.2,0.1,0.2l0.1,0.1c0,0,0.1,0.1,0.1,0.2c0,0.3,0.1,0.6,0.2,0.9c0,0.1,0,0.1,0,0.1l-0.1,0.1c-0.1,0-0.1,0.1,0,0.2
						l0.3,0.7C299.8,257,299.9,257,300,257z M300.6,256c-0.4-0.9-0.3-1.9,0.3-2.2c0.6-0.3,1.4,0.2,1.8,1.2c0.3,0.8,0.2,1.6-0.3,1.9
						C301.9,257.4,301,256.9,300.6,256z"/>
					<path class="st3" d="M292.3,253l0.2-0.1c0.1,0,0.1,0,0.2,0.1c0.2,0.4,0.5,0.7,0.8,1c0.1,0.1,0.1,0.1,0.1,0.2l0,0.2
						c0,0.1,0,0.2,0.1,0.3l0.8,0.5c0.1,0.1,0.2,0,0.2-0.1l0-0.2c0-0.1,0.1-0.1,0.1-0.1c0.3,0.1,0.6,0.1,0.9,0c0.1,0,0.1,0,0.2,0.1
						l0.1,0.2c0.1,0.1,0.2,0.2,0.2,0.1l0.6-0.4c0.1,0,0.1-0.2,0-0.3l-0.1-0.2c0-0.1,0-0.2,0-0.2c0.2-0.2,0.4-0.5,0.5-0.9
						c0-0.1,0.1-0.1,0.2-0.1l0.2,0.1c0.1,0.1,0.2,0,0.2-0.1l0.1-1c0-0.1,0-0.2-0.1-0.3l-0.2-0.1c-0.1,0-0.1-0.1-0.1-0.2
						c0-0.4-0.1-0.9-0.2-1.3c0-0.1,0-0.2,0-0.2l0.2-0.1c0.1,0,0.1-0.2,0-0.3l-0.5-1c-0.1-0.1-0.2-0.2-0.2-0.1l-0.2,0.1
						c-0.1,0-0.1,0-0.2-0.1c-0.2-0.4-0.5-0.7-0.8-1c-0.1-0.1-0.1-0.1-0.1-0.2l0-0.2c0-0.1,0-0.2-0.1-0.3l-0.8-0.5
						c-0.1-0.1-0.2,0-0.2,0.1l0,0.2c0,0.1-0.1,0.1-0.1,0.1c-0.3-0.1-0.6-0.1-0.9,0c-0.1,0-0.1,0-0.2-0.1l-0.1-0.2
						c-0.1-0.1-0.2-0.2-0.2-0.1l-0.6,0.4c-0.1,0-0.1,0.2,0,0.3l0.1,0.2c0,0.1,0,0.2,0,0.2c-0.2,0.2-0.4,0.5-0.5,0.9
						c0,0.1-0.1,0.1-0.2,0.1l-0.2-0.1c-0.1-0.1-0.2,0-0.2,0.1l-0.1,1c0,0.1,0,0.2,0.1,0.3l0.2,0.1c0.1,0,0.1,0.1,0.1,0.2
						c0,0.4,0.1,0.9,0.2,1.3c0,0.1,0,0.2,0,0.2l-0.2,0.1c-0.1,0-0.1,0.2,0,0.3l0.5,1C292.1,253,292.2,253,292.3,253z M293.1,251.6
						c-0.5-1.2-0.4-2.5,0.4-3c0.8-0.5,2,0.3,2.5,1.6c0.4,1,0.2,2.1-0.3,2.6C294.9,253.5,293.7,252.9,293.1,251.6z"/>
				</g>
				<g>
					<g>
						<path class="st3" d="M297.1,271.6c-0.2,0-0.4-0.1-0.6-0.3c-0.4-0.3-0.7-0.7-0.9-1.1c-0.3-0.8-0.3-1.4,0.1-1.6l14.1-8.2
							c0.2-0.1,0.6,0,1,0.2c0.4,0.3,0.7,0.7,0.9,1.1c0.3,0.8,0.3,1.4-0.1,1.6l-14.1,8.2C297.4,271.6,297.3,271.6,297.1,271.6z
							 M310.3,260.6c-0.1,0-0.3,0-0.3,0l-14.1,8.2c-0.4,0.2-0.4,0.8-0.1,1.5c0.1,0.3,0.4,0.6,0.8,0.9c0.3,0.2,0.6,0.3,0.8,0.2
							l14.1-8.2c0.4-0.2,0.4-0.8,0.1-1.5c-0.1-0.3-0.4-0.6-0.8-0.9C310.6,260.7,310.4,260.7,310.3,260.6z"/>
					</g>
					<path class="st3" d="M304.9,264.1l0.9,2l-8.5,5c-0.3,0.2-0.9-0.3-1.2-0.8c-0.1-0.2-0.2-0.5-0.1-0.7c0-0.2,0.1-0.3,0.2-0.4
						L304.9,264.1z"/>
					<g>
						<path class="st3" d="M298.6,265.7c-0.1-0.1-0.3-0.2-0.4-0.5l-0.4-1l0.2-0.1l0.4,1c0.2,0.4,0.4,0.5,0.6,0.4
							c0.1-0.1,0.2-0.1,0.2-0.3c0-0.1,0-0.3-0.1-0.5l-0.4-1l0.1-0.1l0.4,1c0.1,0.2,0.2,0.5,0.1,0.6c0,0.2-0.1,0.3-0.2,0.4
							C298.9,265.7,298.7,265.7,298.6,265.7z"/>
						<path class="st3" d="M299.8,263.2c0.1,0.1,0.2,0.2,0.3,0.4c0.1,0.2,0.1,0.4,0.1,0.5c0,0.2-0.1,0.3-0.3,0.4l-0.3,0.2l0.2,0.5
							l-0.2,0.1l-0.8-1.7l0.4-0.2C299.6,263.1,299.7,263.1,299.8,263.2z M300,264c0-0.1,0-0.2-0.1-0.3c-0.1-0.1-0.1-0.2-0.2-0.2
							c-0.1,0-0.2,0-0.3,0l-0.3,0.2l0.3,0.8l0.3-0.2C300,264.2,300,264.1,300,264z"/>
						<path class="st3" d="M300.1,262.8l0.5-0.3c0.1-0.1,0.2-0.1,0.4-0.1c0.1,0,0.2,0.1,0.3,0.2c0.1,0.1,0.2,0.2,0.3,0.4
							c0.1,0.2,0.1,0.3,0.1,0.5c0,0.2,0,0.3-0.1,0.4c-0.1,0.1-0.1,0.2-0.3,0.3l-0.5,0.3L300.1,262.8z M301.2,264.1
							c0.1-0.1,0.2-0.1,0.2-0.2c0-0.1,0.1-0.2,0.1-0.3c0-0.1,0-0.2-0.1-0.4c-0.1-0.1-0.1-0.2-0.2-0.3c-0.1-0.1-0.2-0.1-0.3-0.1
							c-0.1,0-0.2,0-0.3,0.1l-0.3,0.2l0.6,1.3L301.2,264.1z"/>
						<path class="st3" d="M302.6,263l-0.6,0.3l0.1,0.5l-0.2,0.1l-0.3-2l0.2-0.1l1.3,1.4l-0.2,0.1L302.6,263z M302.5,262.8l-0.6-0.7
							l0.1,1L302.5,262.8z"/>
						<path class="st3" d="M302.7,261.6l-0.4,0.2l-0.1-0.2l0.9-0.5l0.1,0.2l-0.4,0.2l0.7,1.5l-0.2,0.1L302.7,261.6z"/>
						<path class="st3" d="M304.8,262l0.1,0.2l-0.8,0.5l-0.8-1.7l0.8-0.4l0.1,0.2l-0.6,0.4l0.2,0.5l0.5-0.3l0.1,0.2l-0.5,0.3
							l0.3,0.6L304.8,262z"/>
					</g>
				</g>
			</g>
		</g>
		<path class="st17" d="M311,232.2c0.9,0.7,3.8,0.7,7.1,0.3c0,0,1.2-0.7,1.8-1.8C319.6,230.9,314.4,233.2,311,232.2z"/>
		<path class="st14" d="M323.6,402.2v4.9c0,0-1.5,3.4-5.8,2.5c0,0-1.5-0.3-2.6-2c0,0-0.2-4-0.3-5.4"/>
		<path class="st14" d="M345,388.7v3c0,0-1,1.7-3.5,1.5c-2.5-0.3-3.3-1.7-3.3-1.7l-0.1-3.2"/>
		<path class="st14" d="M352.2,259.5l-11.6,3.1l0.9,3.8l-1.3-0.8l-4.7,7.6l8.8,4.7c0,0,3.6,2.4,6.1,2.4c2,0,5.2-1.8,5.6-5.6
			C356.5,270.8,352.2,259.5,352.2,259.5z"/>
		<path class="st17" d="M341.8,266.5c0,0,1.9,6,2.9,7.5c0,0-3-4.3-4.3-7.9"/>
		<path class="st8" d="M306.8,297c0,0,0.5,49.8,0.9,55.7c0.4,6,7.2,50.7,7.2,50.7c5.4,2.6,9.1,0,9.1,0s-0.2-1.7,0-4.2
			c0.2-2.6,2.2-25.6,2-33.8c-0.2-8.2-2.7-13.8-2.7-13.8l2.7-39.8l1.4-0.6c0,0,0.3,5.6,0.7,12.2l0,0.1c0.4,7.7,1,16.7,1.4,19.7
			c0.7,5.7,4.9,26.5,6.1,31.3c1.2,4.9,2.5,14.1,2.5,14.1c2.4,2.4,7.2,0.5,7.2,0.5s0.1-6.1,0.3-9.9c0.3-3.8,1.8-20.6,1.2-25
			c-0.6-4.4-3-12.3-3.2-13.9c-0.2-1.6,1.1-36.8,1.1-36.8c1.6-6.2,0.3-11.1,0.3-11.1L306.8,297z"/>
		<path class="st3" d="M339,238.1c0,0,6,2.3,9.3,8.5c3.3,6.2,6,14.3,6,14.3s-5.9,5.6-13.5,5.9L339,238.1z"/>
		<path class="st10" d="M339,238.1c0,0,6,2.3,9.3,8.5c3.3,6.2,6,14.3,6,14.3s-5.9,5.6-13.5,5.9L339,238.1z"/>
		<path class="st3" d="M345,292.3C345,292.4,345,292.4,345,292.3c0,0-5.7,6.1-16.5,7.7c-9.9,1.5-20.2-2.2-22-2.8
			c0.3-6.4,1.1-20.2,1.5-27.3c0.2-2.6,0.3-4.3,0.3-4.3l0,0l-1.9,1.9v-2.3c0,0-1.7-21.7,13.4-25c0,0,6,0.5,11.5-2.6
			c0,0,1.1-0.3,2.5-0.5c2.7-0.4,5.5,0.6,7.2,2.8c1.3,1.6,2.5,3.9,3.3,7.5c1.5,6.5-4.8,25.5-5.2,27.4
			C338.6,276.7,344.5,289.4,345,292.3z"/>
		<path class="st14" d="M304.9,268.4c0,0-7.6,9.6-10.8,11.2c-3.2,1.5-24.9-14.5-27.8-15.7c-2.8-1.2-9.7-4.1-10.7-5.6
			c-1-1.5-0.5-2.6,0-3.2c0,0-0.2-1.6,1.2-2.3c0,0,0.1-2.6,1.7-3.1c0,0-4.9-6.4-4.2-7.3c0.6-0.9,2.2-0.4,3.6,1.1
			c1.4,1.5,7.5,9,8.1,9.3c0.7,0.2,1.2-2.4,2.3-4c1.1-1.5,2.9-1.5,2.8-0.3c-0.1,1.3-1.1,4.8-1,6.4c0,1.6,1.4,2.8,2.6,3.7
			c1.2,0.9,17.8,9.2,17.8,9.2l6.5-7.4"/>
		<path class="st3" d="M316.6,241.2c0,0-4.6-0.4-10,4.9c-5.5,5.2-12,14.4-12,14.4s3.4,6.6,10.3,10.1c0,0,13.1-13.3,15.6-19.6
			C323.1,244.6,316.6,241.2,316.6,241.2z"/>
		<path class="st10" d="M316.6,241.2c0,0-4.6-0.4-10,4.9c-5.5,5.2-12,14.4-12,14.4s3.4,6.6,10.3,10.1c0,0,13.1-13.3,15.6-19.6
			C323.1,244.6,316.6,241.2,316.6,241.2z"/>
		<path class="st6" d="M327.4,311.2c0,0,0.3,5.6,0.7,12.2l0,0.1l0.6-11.4c2.6-1.6,5.3-5.1,5.4-5.3
			C330.6,310,327.4,311.2,327.4,311.2z"/>
		<path class="st6" d="M316,202.5c0,0-2.1-2.8-6.2-0.7c-5.5,2.8-0.7,12.9-0.7,12.9s0.8-5.3,6.1-8.5c0,0-1,8.2-0.7,10.8
			c0.3,2.6,1.7,3.5,1.7,3.5s1.1-3.1,3.8-2.1c2.6,1,3.3,7.5-2.3,8.2c0,0,2.7,5.2,5.4,6.2s8.1,0.4,10.9-2.5c2.8-2.9,4.1-5.9,4.1-5.9
			l1,0.2c0,0-0.8,7,3,11.2c3.7,4.3,8.5,4.1,8.5,4.1s-0.9-3.3-0.7-5.8c0.2-2.5,1.6-15.5-0.4-19.8c-2.3-5.1-7.4-6.2-11.4-4.9
			c0,0-0.8-5.1-7.1-7.7C320.8,197.4,316,202.5,316,202.5z"/>
		<path class="st3" d="M338,209.3c0,0-2.3-0.7-3.3,4.1c-1.1,4.8,0.1,10.4,4.4,11.1c0,0-5.3,1-6.6-4.3
			C331.3,215.8,332.1,207.5,338,209.3z"/>
	</g>
</g>
</svg>
