<svg xmlns="http://www.w3.org/2000/svg" viewBox="0 0 903.61 667.04"><defs><style>.cls-1{fill:#a75d20;}.cls-2{fill:#6d5e47;}.cls-3{fill:#fff8d7;}.cls-4{fill:#e3c4a3;}.cls-5{fill:#594934;}.cls-6{fill:#ddd3ab;}.cls-7{fill:#fff;}.cls-8{fill:#a0816a;}.cls-9{fill:#7f471d;}.cls-10{fill:#332520;}.cls-11{fill:#42342e;}.cls-12{fill:#254051;}.cls-13{fill:#d0d5d8;}.cls-14{fill:#976e48;}.cls-15{fill:#89603e;}.cls-16,.cls-32{fill:#272525;}.cls-17{fill:#1e343f;}.cls-18{fill:#a7acaf;}.cls-19{fill:#ffd366;}.cls-20{fill:#ddac4a;}.cls-21{fill:#dcf3f7;}.cls-22{fill:#bdd9e0;}.cls-23{fill:#d8a9a0;}.cls-24{fill:#e8ccaa;}.cls-25{fill:#dbc05e;}.cls-26{fill:#f1dec3;}.cls-27{fill:#a3c2c9;}.cls-28{fill:#9ab9c1;}.cls-29{fill:#bca14b;}.cls-30{fill:#aa876a;}.cls-31{fill:#686d56;}.cls-32,.cls-35{stroke:#272525;stroke-linecap:round;stroke-linejoin:round;}.cls-33{fill:#efeeed;}.cls-34{fill:#d3d3d3;}.cls-35,.cls-36{fill:#b89574;}.cls-37{fill:#50543e;}.cls-38{fill:#89613f;}.cls-39{fill:#756545;}.cls-40{fill:#a07a3d;}.cls-41{fill:#307996;}.cls-42{fill:#353535;}.cls-43{fill:#ddad83;}.cls-44{fill:#256477;}.cls-45{fill:#a58062;}.cls-46{fill:#e2c28f;}.cls-47{fill:#86aab5;}.cls-48{fill:#4f4a46;}.cls-49{fill:#5d8f9b;}.cls-50{fill:#f5e9a9;}.cls-51{fill:#ead2a5;}.cls-52{fill:#847f79;}.cls-53{fill:#e2d28d;}.cls-54{fill:#3f3934;}.cls-55{fill:#684d36;}.cls-56{fill:#3d6687;}.cls-57{fill:#6f8e7c;}.cls-58{fill:#e8d3ba;}.cls-59{fill:#5d7c6a;}.cls-60{fill:#2f5670;}.cls-61{fill:#d6bfa3;}</style></defs><title>Community</title><g id="Layer_2" data-name="Layer 2"><g id="Layer_1-2" data-name="Layer 1"><g id="Object"><path class="cls-1" d="M355.79,590.84s-3.8,3.7-2.2,20.9c0,0,2.8,26.5,25.5,24.9,16.9-1.1,13.6-11.8,13.6-11.8a20.94,20.94,0,0,0-3.4-10c-3.4-5.5-5-14.9-6.3-18.2a30.84,30.84,0,0,1-1.6-4.9s-1-6.2-9.8-6.1A30.41,30.41,0,0,0,355.79,590.84Z"/><path class="cls-1" d="M318.69,598.14s-3.4,6.9-1.4,20.1l1.4,2.9h3.1s-2.3,20.5,28.3,19,3.3-28.3,1.8-30.7-8.8-17.3-8.8-17.3a15.85,15.85,0,0,0-10-2.7C326.79,589.94,318.69,598.14,318.69,598.14Z"/><path class="cls-2" d="M298.49,311.34s-2.3,66.8,2.1,95.1c0,0-.6,14.8,2,20s1.1,20.5,0,26-2.7,25.3-1.6,38.5,1,50.3,7,73l4.3,15.5s-1.5,6.7,1.5,12.1a29.5,29.5,0,0,0,4.8,6.5,2.69,2.69,0,0,0,3.8.2c3.2-2.8,9.9-8.2,13.4-7.4,4.8,1.1,7.3,1.4,7.3,1.4s1.3-18.3,0-20.6-5.8-8.5-5.3-17.8,2.3-15.3.3-30,1-49.6,3-59.7,14.8-60.3,14.8-60.3,4.5,18.4,2.8,33.3,2.3,25.9,2,31.3-1.8,33.9-1.8,33.9-.5,59-.5,63-2,6.3-3,8.3-4.3,11.4.5,17.2c0,0,9.8-1.2,14.8-3.1s11,4,11,4,5.8-5.4,5.8-10.8-4.3-5.6,0-14.3,6-48.5,6-48.5,2.5-38.7,4.3-44,2.8-8.8,1.8-13.5-1.3-7-1.3-7,7.5-17.8,8.5-24.8,7.8-83.3,8-85.9,5.5-15.9,4.5-21.8-5.5-15.6-5.5-15.6Z"/><path class="cls-3" d="M336.79,101.44s-4.4,5.4-6,6.3-30.6,7.7-39.6,11a98.79,98.79,0,0,0-16.6,8.1s-12.7,42.9,3.3,55.1,27.9,60,27.9,60,5.2,25.1-16,54.3a32.75,32.75,0,0,0,19.8,26.6c18.8,8.2,32,9.3,32,9.3l6.5-17.8v18.9s20.8.4,30.3-2.5,27.5-12.6,31.8-19.3a84.9,84.9,0,0,0,4.8-7.9s-1.8-39.3-4.5-43-9.3-26.5-6.8-53.8,17.3-27.3,19-41.3-12.8-46.7-12.8-46.7l-34.8-9.6Z"/><path class="cls-4" d="M392,71.14s2.2-2.2,3.4-.8-3.9,20.4-7.8,20.4-1.9-4.2-1.9-4.2Z"/><path class="cls-4" d="M337.79,91.44l-1.7,17.7s2.1,11,19.8,14.5c14.8,2.9,19.7-11.3,19.2-14.5Z"/><path class="cls-5" d="M363.79,369.74c-.1,0-.3-.1-.4-.1s-.2-.4-.1-.5c5.5-13.4,1.8-34.5,1.8-34.7a.51.51,0,0,1,1-.2c0,.2,3.6,20.3-1.4,33.9,2.2-1.5,6.8-5.9,7.5-16.4.9-13.5.1-15.4.1-15.5a.49.49,0,0,1,.1-.7.48.48,0,0,1,.7.1c.2.3,1.1,2.3.1,16.1-1,14.5-9,17.8-9.3,17.9C363.89,369.74,363.89,369.74,363.79,369.74Z"/><path class="cls-6" d="M348.09,314.74a.47.47,0,0,1-.5-.5c0-.3-2.6-30.7-1.8-42.7.1-2.1.3-5.5.6-9.8,1.2-21.2,3.5-60.5,4.3-64.3,1-4.6,2.8-15.8,2.3-21-.3-3.5-1-12.3.1-18.6l.2-1.4c.8-4.9,1.5-8.8-.2-12.2-2-4,1.8-15.6,1.9-16a.47.47,0,0,1,.9.3c0,.1-3.8,11.7-2,15.3s1.1,7.9.3,12.8L354,158c-1,6.3-.4,14.9-.1,18.4.5,5.4-1.3,16.5-2.3,21.3-.8,3.7-3.2,44.5-4.3,64.2-.2,4.3-.4,7.7-.6,9.8-.7,12,1.8,42.3,1.8,42.6s-.1.4-.4.4Z"/><path class="cls-6" d="M358.79,129.54a2.11,2.11,0,0,1-2.1-2.1,2.1,2.1,0,1,1,4.2,0A2.11,2.11,0,0,1,358.79,129.54Zm0-3.2a1.1,1.1,0,1,0,1.1,1.1A1,1,0,0,0,358.79,126.34Z"/><path class="cls-6" d="M356.59,170.34a2.1,2.1,0,1,1,0-4.2,2.18,2.18,0,0,1,2.1,2.1A2.11,2.11,0,0,1,356.59,170.34Zm0-3.2a1.1,1.1,0,1,0,1.1,1.1A1.11,1.11,0,0,0,356.59,167.14Z"/><path class="cls-6" d="M356.59,198a2.1,2.1,0,1,1,0-4.2,2.1,2.1,0,1,1,0,4.2Zm0-3.3a1.1,1.1,0,1,0,1.1,1.1A1.11,1.11,0,0,0,356.59,194.74Z"/><path class="cls-6" d="M355,227.54a2.11,2.11,0,0,1-2.1-2.1,2.1,2.1,0,1,1,2.1,2.1Zm0-3.2a1.1,1.1,0,1,0,1.1,1.1A1.11,1.11,0,0,0,355,224.34Z"/><path class="cls-6" d="M353.29,257.14a2.1,2.1,0,0,1,0-4.2,2.18,2.18,0,0,1,2.1,2.1A2,2,0,0,1,353.29,257.14Zm0-3.3a1.1,1.1,0,1,0,1.1,1.1A1,1,0,0,0,353.29,253.84Z"/><path class="cls-6" d="M351.69,287.64a2.1,2.1,0,0,1,0-4.2,2.18,2.18,0,0,1,2.1,2.1A2.05,2.05,0,0,1,351.69,287.64Zm0-3.2a1.1,1.1,0,1,0,1.1,1.1A1.11,1.11,0,0,0,351.69,284.44Z"/><path class="cls-6" d="M357.19,143.54a2.11,2.11,0,0,1-2.1-2.1,2.1,2.1,0,0,1,4.2,0A2.11,2.11,0,0,1,357.19,143.54Zm0-3.2a1.1,1.1,0,1,0,1.1,1.1A1.11,1.11,0,0,0,357.19,140.34Z"/><path class="cls-6" d="M387.29,209.24h-.2c-1.1-.5-10.5-4.9-11.7-6.5s-.7-6,.6-13.1c1.1-6.2,0-27.7,0-27.9a.6.6,0,0,1,.1-.4c.1-.1.2-.2.4-.1l31.9,2.2a.76.76,0,0,1,.4.2c.1.1.1.2.1.4-.6,4-5.9,38.9-7.1,40.9-1.3,2.2-12.2,4-14.5,4.3ZM377,162.34c.2,3.5,1,21.7,0,27.6-.7,3.7-2,10.7-.8,12.3.8,1,7.1,4.2,11.2,6.1,5.2-.8,12.8-2.5,13.5-3.7.8-1.4,4.5-24.5,6.9-40.1Z"/><path class="cls-6" d="M406.19,173.14h0l-26.9-1.8a.54.54,0,0,1-.5-.5.47.47,0,0,1,.5-.5l26.8,1.8a.54.54,0,0,1,.5.5A.46.46,0,0,1,406.19,173.14Z"/><path class="cls-6" d="M351.79,129.54h-.2c-21.6-7.4-20.6-16.7-20.5-17.1a.51.51,0,0,1,1,.2c0,.1-.9,8.9,19.8,16a.45.45,0,0,1,.3.6C352.19,129.44,352,129.54,351.79,129.54Z"/><path class="cls-6" d="M364.69,129.54c-.2,0-.5-.2-.5-.4a.68.68,0,0,1,.4-.6c8.3-1,12.7-4.7,15-7.5a14.54,14.54,0,0,0,2.9-6.1.51.51,0,1,1,1,.2,15,15,0,0,1-3.1,6.5c-2.3,3-7,6.8-15.7,7.9Z"/><path class="cls-6" d="M290.19,165.24a.51.51,0,0,1-.5-.4c-6.1-21.3,3.1-42,3.2-42.2a.51.51,0,1,1,.9.5c-.1.2-9.2,20.6-3.1,41.5a.49.49,0,0,1-.3.6Z"/><path class="cls-7" d="M337.29,56.34l.4.6Z"/><path class="cls-4" d="M392,60.14c-.5-2.4.4-9.4,0-13.1s-7.4-4.9-9.1-5.5-22.8-7.2-25.6-8-6.2,7.5-6.4,9.6-9.1,19.6-9.1,19.6l-4-5.8h0l-.4-.6c-.8-1-2.5-2.8-4.6-2.1-2.8,1-3.3,9.1-2.9,13s.6,9.2,5.8,9.4c0,0,2.5,2.9,2.1,12.4s6.4,25.9,21.5,27.2,24.6-19.9,25.1-21.6c.3-1.2,4-12,6.6-20.2C391.49,69.14,392.29,61.64,392,60.14Z"/><path class="cls-8" d="M376.49,28.84c-22.9-8.5-39.9,16.1-38.8,28.1l4,5.8s8.9-17.5,9.1-19.6,3.5-10.4,6.4-9.6,24,7.4,25.6,8,8.7,1.8,9.1,5.5-.5,10.7,0,13.1c.3,1.5-.5,9.1-1,14.2,1.2-3.9,2.3-7.2,2.6-8.7C394.69,61,399.29,37.34,376.49,28.84Z"/><path class="cls-9" d="M336,613.64a.6.6,0,0,1-.4-.1.48.48,0,0,1,0-.7c.1-.1,3.5-3.6,4.6-4.4a5.55,5.55,0,0,1,.8-.6c1.6-1.2,3.7-2.9,5.5-2.2a.47.47,0,0,1-.3.9c-1.3-.5-3.3,1-4.6,2.1-.3.2-.6.5-.8.6-1,.8-4.5,4.2-4.5,4.3A1,1,0,0,1,336,613.64Z"/><path class="cls-9" d="M334.19,609.74a.76.76,0,0,1-.4-.2.48.48,0,0,1,0-.7c.2-.1,3.7-3.4,4.9-4.1.2-.2.5-.3.8-.6,1.6-1.2,3.8-2.8,5.7-1.9a.51.51,0,1,1-.5.9c-1.3-.6-3.3.9-4.7,1.8a5.55,5.55,0,0,0-.8.6c-1.1.7-4.7,4-4.7,4S334.29,609.74,334.19,609.74Z"/><path class="cls-9" d="M332.79,606a.76.76,0,0,1-.4-.2.49.49,0,0,1,.1-.7c.2-.1,3.9-3.2,5.1-3.9a9.22,9.22,0,0,0,.8-.5c1.7-1.1,4-2.6,5.7-1.7a.51.51,0,0,1-.5.9c-1.3-.6-3.4.7-4.7,1.6a4.05,4.05,0,0,1-.9.5c-1.1.6-4.9,3.8-4.9,3.8C333,606,332.89,606,332.79,606Z"/><path class="cls-9" d="M330.89,601.94a.76.76,0,0,1-.4-.2.49.49,0,0,1,.1-.7c.2-.1,3.9-3.2,5.1-3.9a9.22,9.22,0,0,0,.8-.5c1.7-1.1,4-2.6,5.7-1.7a.51.51,0,0,1-.5.9c-1.3-.6-3.4.7-4.7,1.6a4.05,4.05,0,0,1-.9.5c-1.1.6-4.9,3.8-4.9,3.8S331,601.94,330.89,601.94Z"/><path class="cls-9" d="M329.09,598.24a.76.76,0,0,1-.4-.2.49.49,0,0,1,.1-.7c.2-.1,3.9-3.2,5.1-3.9a9.22,9.22,0,0,0,.8-.5c1.7-1.1,4-2.6,5.7-1.7a.51.51,0,1,1-.5.9c-1.3-.6-3.4.7-4.7,1.6a4.05,4.05,0,0,1-.9.5c-1.1.6-4.9,3.8-4.9,3.8C329.29,598.24,329.19,598.24,329.09,598.24Z"/><path class="cls-9" d="M330.29,622c-.2,0-.4-.1-.4-.3a.66.66,0,0,1,.2-.7,31,31,0,0,0,6.9-5.2c3.2-3.2,1.4-6.4,1.4-6.4s-3.9-7.5-5.5-11c-1.4-3-3-2.8-3-2.8a.51.51,0,1,1-.2-1c.1,0,2.3-.4,4.1,3.4,1.6,3.4,5.5,10.8,5.5,10.9a6.52,6.52,0,0,1-1.6,7.6,28.5,28.5,0,0,1-7.1,5.3C330.49,622,330.39,622,330.29,622Z"/><path class="cls-9" d="M352.49,612.14h-.2c-.6-.2-6-2.4-6.9-3a9.78,9.78,0,0,1-4.1-6.8c-.7-4.1-1.4-8.8-1.4-8.8l1-.2s.8,4.7,1.4,8.8a8.76,8.76,0,0,0,3.7,6.1c.6.4,4.4,2,6.7,2.9a.45.45,0,0,1,.3.6A.51.51,0,0,1,352.49,612.14Z"/><path class="cls-9" d="M344.69,637.84a32.77,32.77,0,0,1-19.2-5.9.5.5,0,0,1,.6-.8c.1.1,10.1,7.9,25.2,5,5.4-1,8.9-3,10.2-5.8a7,7,0,0,0-.2-6,.51.51,0,1,1,.9-.5,8.1,8.1,0,0,1,.2,6.9c-1.5,3.1-5.1,5.2-10.9,6.3A23.75,23.75,0,0,1,344.69,637.84Z"/><path class="cls-9" d="M379.79,608.84a.37.37,0,0,1-.3-.1,24,24,0,0,0-5-2.2,6.41,6.41,0,0,0-5.1.6.5.5,0,1,1-.6-.8,7.48,7.48,0,0,1,6-.7,33.53,33.53,0,0,1,5.3,2.3.62.62,0,0,1,.2.7A.76.76,0,0,1,379.79,608.84Z"/><path class="cls-9" d="M379.79,605a.37.37,0,0,1-.3-.1,14.69,14.69,0,0,0-5.4-2.4,8.38,8.38,0,0,0-5.7.7.51.51,0,0,1-.5-.9,9,9,0,0,1,6.5-.8,14.34,14.34,0,0,1,5.9,2.6.62.62,0,0,1,.1.7A.85.85,0,0,1,379.79,605Z"/><path class="cls-9" d="M379.39,601.14a.76.76,0,0,1-.4-.2s-1.6-1.9-5.9-2.5-6.3,1.3-6.3,1.3a.49.49,0,0,1-.7-.7c.1-.1,2.4-2.2,7.1-1.6s6.5,2.8,6.5,2.9a.49.49,0,0,1-.1.7A.35.35,0,0,1,379.39,601.14Z"/><path class="cls-9" d="M379,597.34a.47.47,0,0,1-.5-.5h0s-.4-1.2-4.6-1.8a12.81,12.81,0,0,0-7.7,1,.51.51,0,1,1-.5-.9,13.72,13.72,0,0,1,8.4-1.2c5,.8,5.4,2.4,5.4,2.7,0,.5-.2.7-.5.7Z"/><path class="cls-9" d="M379,593.14a.37.37,0,0,1-.3-.1c-4.7-3.7-14.5-.7-14.6-.7a.47.47,0,1,1-.3-.9c.4-.1,10.3-3.1,15.5.9a.49.49,0,0,1,.1.7A.76.76,0,0,1,379,593.14Z"/><path class="cls-9" d="M363,615a.52.52,0,0,1-.4-.2.49.49,0,0,1,.1-.7c.2-.2,5.1-3.7,6.6-4.5l.1-.1c1.5-.7,3.9-2,3-5.5-1-3.9-6.6-14.2-6.7-14.3a.51.51,0,0,1,.9-.5c.2.4,5.7,10.6,6.8,14.6,1.1,4.3-2,5.9-3.5,6.6l-.1.1c-1.4.7-6.4,4.3-6.5,4.4A.37.37,0,0,1,363,615Z"/><path class="cls-9" d="M386.39,615.64h-.2c-.8-.3-8.1-3.1-9.2-5.3s-1.4-17.1-1.5-18.8a.5.5,0,0,1,1,0c.1,4.5.6,16.7,1.4,18.4s6.5,4,8.6,4.8a.45.45,0,0,1,.3.6C386.79,615.54,386.59,615.64,386.39,615.64Z"/><path class="cls-9" d="M359.19,614.34a.66.66,0,0,1-.5-.4c-.5-2.9-5-6.8-5-6.8a.49.49,0,1,1,.7-.7c.2.2,4.7,4.2,5.3,7.4,0,.2-.2.4-.5.5Z"/><rect class="cls-5" x="344.01" y="389.12" width="29.1" height="1" transform="matrix(0.19, -0.98, 0.98, 0.19, -91.6, 668.4)"/><rect class="cls-5" x="413.46" y="312.26" width="1" height="9.9" transform="translate(-107.25 299.28) rotate(-35.49)"/><path class="cls-10" d="M589.69,612.14v6.8s-.7,1.4,1.7,3.5,8,5.8,11.3,4.3C602.69,626.64,603.49,617.64,589.69,612.14Z"/><path class="cls-11" d="M590.39,603.84a9,9,0,0,0-.9,7.9c1.7,4.4,11.5,6.9,12.8,12.7s-.7,19.8,20.8,24,19.3-4,17.5-10.8-7.8-14.7-11-17.8-10.5-17.9-10.5-17.9S601.69,600.44,590.39,603.84Z"/><path class="cls-11" d="M509.89,599.14s-8.6,17.1-11.1,19.7-16.8,27.1,4.3,29.2,22.7-8.6,23.7-14.2,3.5-17.9,7.2-20.9,1-7.7,1-7.7S518,590.44,509.89,599.14Z"/><path class="cls-10" d="M535.09,611.74v7.2a10.35,10.35,0,0,1-6.5,6.6S530.69,614.34,535.09,611.74Z"/><path class="cls-12" d="M506.49,329.14s-6,47.8-3.6,63.4,3.6,18.3,3.6,18.3-2.2,22.6-2.3,30,2.4,17.4,4.5,21.7-4.5,34.7-4.5,34.7-10.9,24-7.8,36.7,12.7,43.8,12.7,43.8-7,6-6.6,10.1,4.1,10.5,4.1,10.5.7,1.5,4.7.7,9.2-2.5,13.3,1.3,8.8,6.2,10.3,5,7.5-10.7,7.3-13.8-10.7-17.1-6.7-34.7,8.7-32.3,8.3-55.2,9-75.5,9-75.5l10.7-36.7h1.8s5.8,45.2,10.2,66.5,7.3,25.3,6.7,46.5.2,30.8,2.2,38.3-2.5,37.6-2.7,42.7a24.73,24.73,0,0,0,5.2,15.7,60.44,60.44,0,0,1,6.2,9.4s9.5-1.2,14.3-4.2,11.7-2.5,11.7-2.5,5.7-9.4,5.7-12.1-9.5-8-6.7-14.7,4.5-21.7,4.5-30.4-.5-31.9-3.5-43.6-6.2-16.8-4.8-29.2,2.5-58.5,5-66,6-23.3,6.2-35.3-3-44.3-3-44.3Z"/><path class="cls-13" d="M536.39,116.14s-11.2,4.6-13,6.4-10.6-1.8-18.1,0-23.5,27.8-23.5,27.8l2.3,16.3s13.1-1.5,21.2,5.1,14.8,74.6,14.8,74.6-10.8,31.6-11.1,37.6-2.7,45.3-2.7,45.3,13.4,7,53,3.2,64-6,64-6l-3-12.1s6.7-5.7,4.7-11-10.7-21.7-7.3-40.7,10.3-43.7,11.3-49.7,2.3-17.1,2.3-17.1l13,8.7s-1.7-40.7-5-50.3-5.3-39.9-21.7-41.8-22,.6-24.7,0-7.6-4.5-15-2.2Z"/><path class="cls-14" d="M519.19,74.84s-4.6-1.5-2.4,5.6,3.2,13.9,9.2,14.1Z"/><path class="cls-14" d="M575.09,63.24s1.2-2.6,2.3,0,.6,16.2.6,16.2S574.79,67.84,575.09,63.24Z"/><path class="cls-15" d="M535.29,110.74s1.9,6.2.9,8.1c0,0,5.9,9.1,23.6,5.9s19.5-7,19.6-10.1-1.3-4.4-1.3-4.4-1.5.9-2.2,0-1.8-8.9-1.8-8.9Z"/><path class="cls-10" d="M503.89,646.24c-10.1,0-12-8.8-12-8.9-.1-.3.1-.5.4-.6s.5.1.6.4,1.8,8.6,11.9,8.1a40.79,40.79,0,0,0,18.9-6.2.5.5,0,1,1,.6.8,42.7,42.7,0,0,1-19.4,6.4Z"/><path class="cls-10" d="M633.29,646.64a62.78,62.78,0,0,1-7.8-.6,34.64,34.64,0,0,1-17.7-7.5.49.49,0,0,1,.7-.7,34.75,34.75,0,0,0,17.1,7.3c8.1,1,12.5.7,14.1-.9a3,3,0,0,0,.8-2.3.5.5,0,0,1,1,0,3.74,3.74,0,0,1-1.1,3.1C639.19,646,636.89,646.64,633.29,646.64Z"/><path class="cls-10" d="M612.89,620.14c-4.7,0-7.6-.6-9.2-1.9-2-1.6-6.9-8.2-7.1-8.5a.5.5,0,1,1,.8-.6c0,.1,5,6.7,6.9,8.3,1.6,1.3,5.1,1.9,10.7,1.7a56.58,56.58,0,0,0,8.8-.9l.7-.1c.5-.1.8-.2.9-.5s.2-1-1.2-2.9a.5.5,0,1,1,.8-.6c1.3,1.7,1.7,3,1.3,3.8-.2.6-.8.9-1.7,1.1l-.7.1a75.19,75.19,0,0,1-8.9.9A16.23,16.23,0,0,1,612.89,620.14Z"/><path class="cls-10" d="M618.59,616.74a.51.51,0,0,1-.5-.4c-1.8-6.8-6.4-12.9-6.4-13a.5.5,0,1,1,.8-.6,45,45,0,0,1,6.6,13.3c.1.3-.1.5-.4.6A.1.1,0,0,1,618.59,616.74Z"/><path class="cls-10" d="M613.19,615.84a.55.55,0,0,1-.5-.3.42.42,0,0,1,.3-.6c.2-.1,5.5-1.9,9-.8a.47.47,0,1,1-.3.9c-3.2-1-8.3.8-8.4.8Z"/><path class="cls-10" d="M611.79,612.44a.55.55,0,0,1-.5-.3.42.42,0,0,1,.3-.6c.2-.1,5.5-1.9,9-.8a.47.47,0,1,1-.3.9c-3.2-1-8.3.8-8.4.8Z"/><path class="cls-10" d="M609.89,609.14a.55.55,0,0,1-.5-.3.42.42,0,0,1,.3-.6c.2-.1,5.5-1.9,9-.8a.47.47,0,0,1-.3.9c-3.2-1-8.3.8-8.4.8S610,609.14,609.89,609.14Z"/><path class="cls-10" d="M608.49,605.74a.55.55,0,0,1-.5-.3.42.42,0,0,1,.3-.6c.2-.1,5.5-1.9,9-.8a.47.47,0,0,1-.3.9c-3.2-1-8.3.8-8.4.8Z"/><path class="cls-10" d="M508.79,620h0c-.6-.1-5.4-1-6.4-2.9s2.6-8.5,3.7-10.5a.51.51,0,1,1,.9.5c-2.1,3.9-4.1,8.7-3.7,9.6s3.3,1.8,5.2,2.2c.5-1.1,1.9-4,4-3.8s3.2,2.6,3.5,3.4c3.9.3,8.2.3,8.9-.1a26.72,26.72,0,0,0,2.5-4c1.9-3.4,3.2-5.6,4.3-6.1.3-.1.5,0,.7.3s0,.5-.3.7c-.8.4-2.5,3.4-3.8,5.7s-2.2,4-2.8,4.4c-1.3.9-8.4.4-9.8.2-.2,0-.4-.1-.4-.3-.3-.8-1.4-2.9-2.8-3.1s-2.7,2.5-3.1,3.5A.86.86,0,0,1,508.79,620Z"/><path class="cls-10" d="M513.79,615.24h-.2a.45.45,0,0,1-.3-.6l5.8-15.6a.47.47,0,0,1,.9.3l-5.8,15.6C514.19,615.14,514.09,615.24,513.79,615.24Z"/><path class="cls-10" d="M512.19,614.74h0a.54.54,0,0,1-.5-.5l1.3-15.7a.5.5,0,0,1,1,0l-1.3,15.7C512.59,614.54,512.39,614.74,512.19,614.74Z"/><path class="cls-10" d="M508.39,615.84c-.2,0-.4-.1-.4-.3a.66.66,0,0,1,.2-.7,11.71,11.71,0,0,1,8.8-.6.47.47,0,1,1-.3.9,10.69,10.69,0,0,0-7.9.5C508.59,615.84,508.49,615.84,508.39,615.84Z"/><path class="cls-10" d="M509.69,613.34c-.2,0-.4-.1-.4-.3a.66.66,0,0,1,.2-.7,11.71,11.71,0,0,1,8.8-.6.47.47,0,0,1-.3.9,10.69,10.69,0,0,0-7.9.5C509.79,613.34,509.79,613.34,509.69,613.34Z"/><path class="cls-10" d="M510.19,610.24c-.2,0-.4-.1-.4-.3a.66.66,0,0,1,.2-.7,11.71,11.71,0,0,1,8.8-.6.47.47,0,0,1-.3.9,10.69,10.69,0,0,0-7.9.5C510.39,610.24,510.29,610.24,510.19,610.24Z"/><path class="cls-10" d="M510.79,608c-.2,0-.4-.1-.4-.3a.66.66,0,0,1,.2-.7,11.71,11.71,0,0,1,8.8-.6.47.47,0,0,1-.3.9,10.69,10.69,0,0,0-7.9.5C511,607.94,510.89,608,510.79,608Z"/><path class="cls-10" d="M511.29,605.34c-.2,0-.4-.1-.4-.3a.66.66,0,0,1,.2-.7,11.71,11.71,0,0,1,8.8-.6.47.47,0,0,1-.3.9,10.69,10.69,0,0,0-7.9.5C511.49,605.34,511.39,605.34,511.29,605.34Z"/><path class="cls-16" d="M511.59,602.74c-.2,0-.4-.1-.4-.3a.66.66,0,0,1,.2-.7,11.71,11.71,0,0,1,8.8-.6.47.47,0,1,1-.3.9,10.69,10.69,0,0,0-7.9.5C511.79,602.64,511.69,602.74,511.59,602.74Z"/><path class="cls-17" d="M618.39,335.34c-9,0-15.6-5.8-15.7-5.8a.49.49,0,1,1,.7-.7c.1.1,8.8,7.7,19.7,5,.3-.1.5.1.6.4s-.1.5-.4.6A20.92,20.92,0,0,1,618.39,335.34Z"/><path class="cls-17" d="M506.59,335.84a.5.5,0,0,1,0-1c6.4-.5,10.3-2.3,10.3-2.4a.51.51,0,0,1,.5.9,32,32,0,0,1-10.8,2.5Z"/><path class="cls-17" d="M507.39,339.34a.45.45,0,1,1-.1-.9c.1,0,8.6-1,13-5.2a.49.49,0,0,1,.7.7c-4.6,4.4-13.2,5.3-13.6,5.4Z"/><path class="cls-17" d="M616.49,338.84a19,19,0,0,1-16.3-8.7.51.51,0,1,1,.9-.5,18.15,18.15,0,0,0,4.9,5c4.4,3,9.8,3.9,15.8,2.6.3-.1.5.1.6.4s-.1.5-.4.6A28.77,28.77,0,0,1,616.49,338.84Z"/><path class="cls-17" d="M562.69,385.94a.47.47,0,0,1-.5-.5l-3.2-52.5a.5.5,0,0,1,1,0l3.2,52.5a.54.54,0,0,1-.5.5Z"/><path class="cls-17" d="M563.89,371.14a.66.66,0,0,1-.5-.4c-.1-.3.1-.5.4-.6L569,369c7.1-1.8,5.2-27.3,3.9-37a.51.51,0,1,1,1-.2c.2,1.5,4.8,35.8-4.6,38.1l-5.2,1.1A.31.31,0,0,1,563.89,371.14Z"/><path class="cls-18" d="M554.79,316.24c-18.4,0-42.7-1.8-43-1.8a.5.5,0,0,1,0-1c.4,0,44.6,3.3,58.9,1s46.3-1,46.6-1a.5.5,0,0,1,0,1c-.3,0-32.1-1.3-46.4,1A116.45,116.45,0,0,1,554.79,316.24Z"/><path class="cls-18" d="M555,132.54a28.65,28.65,0,0,1-22.7-10.5.5.5,0,1,1,.8-.6,24.91,24.91,0,0,0,7.4,6.3c4.5,2.6,12.1,5.2,22.6,2.8,18.9-4.3,19.9-10,20.4-13.1,0-.2.1-.5.1-.7a.51.51,0,0,1,1,.2c0,.2-.1.4-.1.7-.6,3.3-1.6,9.4-21.2,13.9A36.7,36.7,0,0,1,555,132.54Z"/><path class="cls-14" d="M567,46.44c-3.2-6.8-8.5-7.6-12.1-7.6s-9.2,5.6-10.9,5.6-8.4-.6-12.2-.8-7.5,2.5-9.7,8.9.9,15.6,1,18.7a61.88,61.88,0,0,1-.4,7.4,19.67,19.67,0,0,0,3.1,11.6c3.7,5.7,11.8,11.6,12.9,12.8s9.6,11,19.1,8.4,11.7-7.6,14.1-13.7,5-10.4,5.4-14.7l.7-4.8c-.9-5.7-2.4-10.7-2.7-14-1.1-3.2-2.6-7.5-3.1-9.9C571.29,50.44,570.09,53.34,567,46.44Z"/><path class="cls-16" d="M578.19,80.14l.3-1.6v-.2c-.4-2.8-1-5.4-1.5-7.7s-1-4.6-1.2-6.2v-.1l-.6-1.8c-.7-8.7-3.9-35.3-36.2-31.7,0,0-9.1-.3-17.6,11.6s-5,23.4-2,32.4c0,0,8.3,25.5,11.8,30.8s15.8,14.7,27.4,12.3,17.7-15,19.7-25.8A48.06,48.06,0,0,0,578.19,80.14Zm-2.3-9.3c.5,2.3,1.1,4.9,1.5,7.6l-.7,4.7c-.3,2.9-1.5,5.8-3.2,9.4-.7,1.6-1.4,3.2-2.2,5.1-2.2,5.5-4.3,10.7-13.8,13.4-8.1,2.2-15.6-4.9-18.5-8.1l-.1-.1c-.3-.3-1.1-1-2.1-1.9-2.8-2.4-8-6.8-10.7-10.9a18.67,18.67,0,0,1-3-11.2,67.84,67.84,0,0,0,.4-7.5,25.85,25.85,0,0,0-.6-3.8c-.8-4.1-2-10.2-.4-14.7,1.9-5.5,5.1-8.5,9-8.5h.2c1.8.1,4.3.3,6.6.4a47.3,47.3,0,0,0,5.7.3c.8,0,2-.8,3.9-2.1,2.2-1.5,5-3.5,7-3.5,5.5-.1,9.3,2.3,11.7,7.3,1.7,3.7,2.9,4.6,3.7,5.3a3.37,3.37,0,0,1,1.4,2.6,83.3,83.3,0,0,0,3.1,9.9A52.68,52.68,0,0,0,575.89,70.84Z"/><path class="cls-16" d="M538.39,96h-.2a.52.52,0,0,1-.3-.7l.9-2.2a.54.54,0,1,1,1,.4l-.9,2.2A.55.55,0,0,1,538.39,96Z"/><path class="cls-16" d="M540.09,94.94h-.2a.52.52,0,0,1-.3-.7l.9-2.2a.54.54,0,0,1,1,.4l-.9,2.2A.55.55,0,0,1,540.09,94.94Z"/><path class="cls-16" d="M542.29,93.34h-.2a.52.52,0,0,1-.3-.7l.9-2.2a.54.54,0,1,1,1,.4l-.9,2.2C542.59,93.24,542.49,93.34,542.29,93.34Z"/><path class="cls-16" d="M543.89,92.24h-.2a.52.52,0,0,1-.3-.7l.9-2.2a.54.54,0,1,1,1,.4l-.9,2.2A.55.55,0,0,1,543.89,92.24Z"/><path class="cls-16" d="M545.79,91.64h-.2a.52.52,0,0,1-.3-.7l.9-2.2a.54.54,0,1,1,1,.4l-.9,2.2A.85.85,0,0,1,545.79,91.64Z"/><path class="cls-16" d="M547.59,91.64h-.2a.52.52,0,0,1-.3-.7l.9-2.2a.54.54,0,1,1,1,.4l-.9,2.2A.85.85,0,0,1,547.59,91.64Z"/><path class="cls-16" d="M549.59,91.14h-.2a.52.52,0,0,1-.3-.7l.9-2.2a.54.54,0,1,1,1,.4l-.9,2.2C549.89,91,549.79,91.14,549.59,91.14Z"/><path class="cls-16" d="M571.79,92.74c-.2,0-.4-.1-.4-.3l-1-2.1a.51.51,0,0,1,.9-.5l1,2.1a.66.66,0,0,1-.2.7C572,92.64,571.89,92.74,571.79,92.74Z"/><path class="cls-16" d="M570.09,91.74c-.2,0-.4-.1-.4-.3l-1-2.1a.51.51,0,0,1,.9-.5l1,2.1a.66.66,0,0,1-.2.7A.77.77,0,0,1,570.09,91.74Z"/><path class="cls-16" d="M567.79,90.34c-.2,0-.4-.1-.4-.3l-1-2.1a.51.51,0,0,1,.9-.5l1,2.1a.66.66,0,0,1-.2.7A.77.77,0,0,1,567.79,90.34Z"/><path class="cls-16" d="M566,89.44c-.2,0-.4-.1-.4-.3l-1-2.1a.51.51,0,0,1,.9-.5l1,2.1a.66.66,0,0,1-.2.7C566.19,89.34,566.09,89.44,566,89.44Z"/><path class="cls-16" d="M564.09,88.94c-.2,0-.4-.1-.4-.3l-1-2.1a.51.51,0,0,1,.9-.5l1,2.1a.66.66,0,0,1-.2.7C564.19,88.84,564.19,88.94,564.09,88.94Z"/><path class="cls-16" d="M562.29,89c-.2,0-.4-.1-.4-.3l-1-2.1a.51.51,0,0,1,.9-.5l1,2.1a.66.66,0,0,1-.2.7A.77.77,0,0,1,562.29,89Z"/><path class="cls-16" d="M560.29,88.74c-.2,0-.4-.1-.4-.3l-1-2.1a.51.51,0,0,1,.9-.5l1,2.1a.66.66,0,0,1-.2.7A.37.37,0,0,1,560.29,88.74Z"/><path class="cls-16" d="M551.59,106.24h-.1a.45.45,0,0,1-.3-.6l.3-1a.47.47,0,1,1,.9.3l-.3,1A.55.55,0,0,1,551.59,106.24Z"/><path class="cls-16" d="M552.89,107h0c-.4-.1-.5-.3-.5-.6l.3-1.8a.51.51,0,0,1,1,.2l-.3,1.8A.46.46,0,0,1,552.89,107Z"/><path class="cls-16" d="M554.39,106.74h-.1a.55.55,0,0,1-.4-.6l.4-1.6a.51.51,0,1,1,1,.2l-.4,1.6A.66.66,0,0,1,554.39,106.74Z"/><path class="cls-16" d="M555.69,106.34h-.2a.52.52,0,0,1-.3-.7l.8-1.8a.54.54,0,1,1,1,.4l-.8,1.8A.55.55,0,0,1,555.69,106.34Z"/><path class="cls-16" d="M557.09,106.74H557a.55.55,0,0,1-.4-.6l.6-2.5a.51.51,0,0,1,1,.2l-.6,2.5A.46.46,0,0,1,557.09,106.74Z"/><path class="cls-16" d="M558.79,105.44h-.2a.45.45,0,0,1-.3-.6l.5-1.5a.47.47,0,0,1,.9.3l-.5,1.5C559.19,105.34,559,105.44,558.79,105.44Z"/><path class="cls-18" d="M631.49,196.34a.47.47,0,0,1-.5-.5c0-.3-1.8-33-6.3-46a.47.47,0,1,1,.9-.3c4.5,13.2,6.3,46,6.3,46.3s-.1.5-.4.5Z"/><path class="cls-19" d="M472.59,581.64s-1.6,16.2-1.5,20.1-.7,13.3-.7,13.3l-4,1.5.4-26.9Z"/><path class="cls-19" d="M431.19,598.24a34.47,34.47,0,0,0-1,3.6v2.7s-1.6,4.3-1.4,6.7-1,13.1-1,13.1,10.5.2,14.5.8,9.9,1.9,9.9,1.9,1.1-14.7,1.1-16.6,2.4-8.5,2.4-8.5Z"/><polygon class="cls-20" points="466.29 616.64 459.99 614.54 459.09 597.84 466.69 589.74 466.29 616.64"/><path class="cls-21" d="M429.49,581.14s-2.1-.7-2.1,3.3.5,10.5,2.1,12.5,7.5,4.7,17.9,4.9,12.6,0,13.3-2.9,3.3-14.3.7-14.6S429.49,581.14,429.49,581.14Z"/><path class="cls-22" d="M415.59,325.44s-5.8,48.5-3.6,66.3,13.3,59.5,13.3,63.5-.2,10,.8,13.7,0,11.7,2.3,15.2,5.8,37.2,5.8,37.2-2.1,10.2-1.9,17.3,1.6,23.3,1.4,24.4-4.3,16.9-4.3,16.9-1.5,3.1,4.8,5.1,19.9,3.1,22.1,2.9,5.3-3.4,5.3-4.4v-12.3c0-2.4,5.9-19,6.3-22.9s6.3-54.6,6.4-68.4,5.1-30.9,5.1-30.9,20.1-48.3,21.6-57.4,5.8-50.8,5.5-57.4,0-13.9,0-13.9Z"/><path class="cls-23" d="M486.09,165.34l6.6,1.3s-6.2,15.5-1,29.2,8.8,15.6,8.8,15.6,3,42.2,3.3,51.7.3,17,2.8,29.2,2,27.2,2,27.2-29.2,15.1-59.3,13.7-36.3-9.9-36.3-9.9,4.2-29.2,4.5-36.8-1.8-33.3-4.5-39.5-9.7-37-9.7-37,.6-12.4,2.7-26.4c0,0,2.3-15.1,11.6-15.2C427,168.14,486.09,165.34,486.09,165.34Z"/><path class="cls-24" d="M422.09,150.64s4.7,23.6,4.6,25.6-.2,4.2,1.7,5.5c3.2,2.4,4-1.5,7.3,8.5s8.3,27,8.3,27,3-.7,5.8-8.5,10.3-59,10.3-59Z"/><path class="cls-25" d="M428.29,87.44s-5.3.2-12.3,6.6a34.65,34.65,0,0,0-10.1,17.3c-.6,2.5-1.2,5.5-1.8,9.1-1.8,11.8-18.9,10.2-22.7,1.6,0,0,5.9,15.8,22,5.4,0,0-3.1,14.5-15.7,12.4,0,0,3,3.8,9.1,2.1,0,0-10.5,14,9.4,28.8,0,0-14.3-16.9-4.2-29.3,0,0-3.1,12.2,2.9,22.3s12,8.8,12,8.8-8.9-4.1-10.1-14.2c0,0,7.3,10.4,19.5,14.2l-3.5-19.2s-13.3-53.1,11.4-59.9Z"/><path class="cls-25" d="M428.29,87.44s5.3-4.9,9.5-4.5,23.3,2.8,31.7,28,11.6,21.1,15.8,49,1.9,33.3,3.1,41.5-1,18.4-15,20.1c0,0-4.5,3.1,5.6,7.9,0,0-9.9,6.8-18.9-6.4,0,0-8.5,6.6-16.4,2.3,0,0,6.5-1.5,7.4-6.4,0,0-8,4.8-14,3.4s-6.3-3.6-6.3-3.6,15.3,1.6,15.5-8,1.5-27.3,3.8-32.8,10-28.5,9.9-32.9-7.3-48-26.5-51.5Z"/><path class="cls-26" d="M434.19,93.54s-6.7,1.7-8.8,5.5-9.7,20-10.3,21.8-2.6,34.9,23.5,40c18.8,3.7,23.3-12.7,24.3-21.6a21.12,21.12,0,0,0-.8-9c-1.6-5.6-4.6-15.9-4.6-18.7C457.49,107.64,455.69,92.64,434.19,93.54Z"/><path class="cls-19" d="M471,571.64s2.5,6.4,1.6,10-11.2,13.6-11.2,13.6l.3-17.6Z"/><polygon class="cls-27" points="469.09 559.14 467.79 549.34 464.29 561.64 469.09 559.14"/><path class="cls-21" d="M464.29,561.64s4.3-4.1,4.8-2.5,2.4,11.1,1.9,12.5-9.3,6-9.3,6S460.59,568.64,464.29,561.64Z"/><path class="cls-19" d="M425.59,648.64s-.7,10.2,3.1,11.1,14.8.8,16.2.6,5.1-1.4,5.6-4.6.9-7.5.9-7.5Z"/><path class="cls-20" d="M424.29,644.14s-.9,9.1,13.3,9.1,15.7-7.7,14.2-9.4Z"/><path class="cls-26" d="M427.79,624.24s-5.1,12.4-4.3,17.4c0,0,2,7.3,6.9,7.8s6.3-.6,6.3-.6a5.19,5.19,0,0,0,4,1.4c2.5-.2,2.8-1.6,2.8-1.6a9.53,9.53,0,0,0,3.9-1,3.38,3.38,0,0,0,4.1-2.6c1-3.4,1.8-3.9,1.6-8.2a98.24,98.24,0,0,0-.9-9.8S447,624.44,427.79,624.24Z"/><path class="cls-19" d="M423.89,642.64s2-9.2,17-7.6,11.7,6.2,11.7,6.2l-.9,2.7s-2.1-4.5-12.7-4.5-13.7,6.3-13.7,6.3Z"/><path class="cls-26" d="M429.39,607s-5.1,3.7-5.1,4.2a11.79,11.79,0,0,1-.4,1.9s-1.7,2-.4,3,2,3.5,4.9,2.7Z"/><polygon class="cls-20" points="426.19 618.64 427.29 625.54 428.39 618.74 426.19 618.64"/><path class="cls-28" d="M434.09,336h-.2l-14.1-6.4a.54.54,0,1,1,.4-1l14.1,6.4a.52.52,0,0,1,.3.7C434.39,335.94,434.29,336,434.09,336Z"/><path class="cls-28" d="M457.19,338h0l-20.6-.9a.47.47,0,0,1-.5-.5.54.54,0,0,1,.5-.5l20.6.9a.5.5,0,0,1,0,1Z"/><path class="cls-28" d="M464.09,338a.5.5,0,0,1,0-1c.3,0,29.4-1.5,33.1-2s6.9-1.2,7-1.2c.3-.1.5.1.6.4s-.1.5-.4.6c0,0-3.3.8-7,1.3-3.9.4-32.1,1.8-33.3,1.9Z"/><path class="cls-28" d="M460.59,344.24h-4.3a.55.55,0,0,1-.5-.3.66.66,0,0,1,.1-.6s3.1-2.8,1.2-10.1a.6.6,0,0,1,.1-.4.52.52,0,0,1,.4-.2l3.8-.2a.52.52,0,0,1,.4.2c.1.2,3.5,4.8-.9,11.4C460.89,344.14,460.69,344.24,460.59,344.24Zm-3.2-1h2.9c3.3-5.2,1.5-8.9.9-9.8l-2.9.2C459.59,338.84,458.29,341.84,457.39,343.24Z"/><path class="cls-28" d="M418,336h-2.3a.5.5,0,0,1,0-1h1.8l1.2-7.7a.51.51,0,1,1,1,.2l-1.3,8.2A.45.45,0,0,1,418,336Z"/><path class="cls-28" d="M450.49,371.44a.76.76,0,0,1-.4-.2s-1.9-2-5.9-6.1-9.5-15.4-9.5-18.7c0-3.1-1.1-14.6-1.1-14.7a.45.45,0,1,1,.9-.1c0,.5,1.1,11.7,1.1,14.8s5.3,14,9.2,18,5.9,6.1,5.9,6.1a.48.48,0,0,1,0,.7A.22.22,0,0,1,450.49,371.44Z"/><path class="cls-28" d="M443.49,359.44a.52.52,0,0,1-.4-.2.49.49,0,0,1,.1-.7c.2-.1,5-3.5,2.1-7.8-3.2-4.9-2.2-11.7-2.2-12a.51.51,0,1,1,1,.2c0,.1-.9,6.7,2,11.3,3.4,5.1-2.4,9.1-2.4,9.2Z"/><path class="cls-28" d="M476.59,347.64c-3.7,0-7-.1-8.6-.2a3,3,0,0,1-2.4-1.4c-1.3-2.5,1.1-7.2,1.2-7.4a.51.51,0,0,1,.9.5c-.6,1.2-2.1,4.8-1.2,6.5a2,2,0,0,0,1.6.9c4.7.5,24.5,0,24.7,0a.5.5,0,0,1,0,1C492.29,347.44,483.79,347.64,476.59,347.64Z"/><path class="cls-28" d="M466.29,545.14h0c-.4-.1-.5-.3-.5-.6,1-5.8,4.9-68.4,4.5-73.6-.4-5.5,11.3-39.5,11.8-40.9.1-.5,11.3-50.8,13.1-63.7s-.6-29-.6-29.2a.51.51,0,1,1,1-.2c0,.2,2.5,16.5.6,29.5s-13,63.3-13.1,63.8-12.1,35.3-11.7,40.6-3.5,68.1-4.5,73.9A.72.72,0,0,1,466.29,545.14Z"/><path class="cls-28" d="M434.59,500.14h0a.54.54,0,0,1-.5-.5c0-.5,3.3-46.6,4.4-55.3s11.4-70.4,11.5-71a.51.51,0,1,1,1,.2c-.1.6-10.4,62.3-11.5,71s-4.3,54.8-4.4,55.2C435.09,499.94,434.79,500.14,434.59,500.14Z"/><path class="cls-28" d="M497.69,340.14c-.2,0-.5-.2-.5-.4a.68.68,0,0,1,.4-.6l6.5-.9a.51.51,0,0,1,.2,1l-6.6.9Z"/><path class="cls-7" d="M416.29,145.64h-2.6a.47.47,0,0,1-.5-.5v-4.3a.5.5,0,1,1,1,0v3.8h1.6v-1.9a.5.5,0,1,1,1,0v2.4A.54.54,0,0,1,416.29,145.64Z"/><path class="cls-26" d="M492.69,166.64s15.4.2,19.9,16.9,7.6,62.8,7.6,62.8-14-14.3-17.1-22.8-6.6-17.1-6.6-17.1S482.69,183.84,492.69,166.64Z"/><path class="cls-26" d="M412.09,124s-1.4-1-1.4,1,.2,6.1-.4,7.6l-.6,1.5s3.5,11.8,7.7,7.2C417.29,141.44,415.39,129.74,412.09,124Z"/><path class="cls-29" d="M433,93.44a.52.52,0,0,1-.4-.2c-.1-.2-2.6-4.2-.4-7.2a.5.5,0,1,1,.8.6c-1.9,2.5.4,6,.4,6.1a.53.53,0,0,1-.2.7C433.19,93.34,433.09,93.44,433,93.44Z"/><path class="cls-29" d="M434.59,93.14a.55.55,0,0,1-.5-.3c-.1-.1-1.3-3.5,0-5.6a.5.5,0,0,1,.8.6c-1.1,1.7,0,4.7,0,4.7a.42.42,0,0,1-.3.6Z"/><path class="cls-29" d="M436.29,92a.37.37,0,0,1-.3-.1,2.57,2.57,0,0,1-.1-3.4.5.5,0,1,1,.8.6,1.67,1.67,0,0,0-.1,2.1.48.48,0,0,1,0,.7A.37.37,0,0,1,436.29,92Z"/><path class="cls-29" d="M438.79,92h0a.54.54,0,0,1-.5-.5,5.54,5.54,0,0,1,1.9-3.7c1.2-.9,2.8-1,4.9-.5a.42.42,0,0,1,.3.6.45.45,0,0,1-.6.3,4.48,4.48,0,0,0-4,.3,4.31,4.31,0,0,0-1.5,3A.47.47,0,0,1,438.79,92Z"/><path class="cls-29" d="M441.89,92h-.2a.45.45,0,0,1-.3-.6c0-.1.9-2.2,4.8-1.2a.51.51,0,0,1-.2,1c-3-.8-3.5.5-3.6.6A.76.76,0,0,1,441.89,92Z"/><path class="cls-29" d="M426.79,93.64a.52.52,0,0,1-.4-.2.49.49,0,0,1,.1-.7,6.25,6.25,0,0,1,4.3-1,.51.51,0,0,1-.2,1,4.72,4.72,0,0,0-3.5.8A.37.37,0,0,1,426.79,93.64Z"/><path class="cls-29" d="M429.49,91.14a.52.52,0,0,1-.4-.2c0-.1-.7-1-2.7-.9a.5.5,0,0,1,0-1c2.7-.2,3.6,1.3,3.6,1.4a.53.53,0,0,1-.2.7Z"/><path class="cls-29" d="M454,96.94a.76.76,0,0,1-.4-.2c-2-2.5-6.1-1.6-6.1-1.6-.3.1-.5-.1-.6-.4s.1-.5.4-.6,4.7-1.1,7.1,1.9a.49.49,0,0,1-.1.7C454.19,96.94,454.09,96.94,454,96.94Z"/><path class="cls-14" d="M635.79,601.54s-6,3.8-4,12.6,5.3,22,15,29.3,29.4-.1,30.3-1.4c0,0,2.5-.3,0-5.6s-8.1-19.8-9.4-21.2-3.7-8.4-3.7-8.4S663.79,600,635.79,601.54Z"/><path class="cls-14" d="M688.49,609.44s-1.7,9.9.7,14.1,14.8,4.8,20.8,10.6,12.8,17,36.8,16.6-5.1-26.7-5.1-26.7l-5.9-5.1c-.8-.7-1-9.7-7.5-10.9C721.59,606.84,688.49,609.44,688.49,609.44Z"/><path class="cls-30" d="M727.29,81.64s-.8,10.7,5.2,12.5c0,0,.9,15.9-27.1,18.2s-22.9-17.4-22.9-17.4Z"/><path class="cls-31" d="M628,315.74s-5.5,79.8-2.5,106.5,3.4,47.5-.9,66-1.2,91.7,1.7,95.2,7,8.8,7.5,13c1.1,8.8,6.7,6.1,10.7,6.8s16.8.1,19.5,3.7,1.7-5.4,3.7-8.5,1.7-9.1,1-11.6-8.3-18-5.3-26,4.3-11.7,4.7-16.3,1.8-59.1,2.5-74.4,7.7-56,8.3-57.7,12.2-26.5,12.2-26.5,3.7,27.3,3.7,37.3-.8,53.7-1,60.8-3.7,28.3-2.7,38.7,5.3,43.7,5.3,43.7-8.2,14.8-8.2,19.5.3,23.3.3,23.3,2.2,5,10.5,3.8,18.2-5.1,22.8-5.2,6.3,0,6.3,0-2.2-5.6-1.5-8.1,6.2-6.3,6.2-11,2.7-18.5,1.7-24.2-5.7-19.5-4.3-23.8,8.8-27.5,9.8-35.8,2.8-15.3,0-20.2-2.7-7-2.7-10.7,8.2-38.5,8.2-38.5,13-75.8,13.2-86.3-1.5-30.5-1.5-30.5Z"/><path class="cls-32" d="M667.89,59s-3-4.2-3.5-6.1-.5-8.4-1.1-10.3-1.1-8.8-.8-13.4,1.3-6.1,1.3-6.1,6.1-16.3,17.5-19,24.6-5.3,28.8-2.3,4.3,3.6,4.3,3.6,11.4,3.4,14.1,7.6-.1,6,0,7.2,0,6.1.3,7.1.5,4.9.9,6.3,1.3,4.8.6,5.5-3.8,7.8-3.4,9.5,3,8.9,2.6,13.6-.9,16.3-3.1,21.9-7.4,23.1-24.2,23.1-18.8-9.5-22.8-14.6S668.79,84.54,667.89,59Z"/><path class="cls-33" d="M679.59,95.64l-2.3-.4s-28.9,7-32.8,15.1-6.9,36.1-6.9,36.1,5.9,16.1,6.9,58.1-12,36.5-14,75.9-2.5,35.3-2.5,35.3,30.2,13.1,71.5,11.6,57.7-8.5,57.7-8.5,5-16.7,3.3-24-4.3-12.8-3.7-17.6-5.7-33.6-2.3-46.2,21.3-65.8,21.3-65.8l9.3-12.4-15.6-53.3s-14,3.6-18.7,3-13.8-8.3-16.4-8.4-2,0-2,0,1.2,15.1-27.1,18.2c-26.5,3-22.6-15.8-22.6-15.8Z"/><path class="cls-34" d="M702.39,116.64a42.4,42.4,0,0,1-14.7-2.3c-8.4-3.1-6.6-12.4-6.6-12.4a.51.51,0,0,1,1,.2c-.1.3-1.7,8.5,5.9,11.3,8.2,3,22.9,3.3,33.2-1.5,10.7-5,14.7-11.4,14.8-14.5a.5.5,0,0,1,1,0c-.1,4-5,10.5-15.4,15.4C716,115.54,708.89,116.64,702.39,116.64Z"/><path class="cls-35" d="M680.69,27.24a5.7,5.7,0,0,0-9,1.9c-1.6,3.3-3.9,8.8-3.7,11.9.3,4.8,3,6.9,1.8,10.4s-.4,10.3-.1,12.4,2,5.6,2,8.8,1.3,11.5,5.8,12.8,9.9,2.9,11.3,5.8,6.9,7.8,13,6.4,8.5-3,10.5-7.9,12-7.8,13-12.8,1.9-18.1,1-24.6-2.6-11-5.1-11.1.5-8.9-.4-11-5.6-9.4-8.3-9.6-5.5,3-7.1,4.5-6.5,4.9-10.8,5.1-10.2.9-13.1-2.1A3.78,3.78,0,0,0,680.69,27.24Z"/><path class="cls-36" d="M664.49,52.94s-3.1.9-2,4.9,2.6,5.1,3.3,7.1a15.93,15.93,0,0,0,3,4.4L668,59C667.89,59,664.69,54.14,664.49,52.94Z"/><path class="cls-36" d="M729.29,41.14s2.9-2.5,3.9,0a10.9,10.9,0,0,1,0,8.9c-1.5,3.9-2.1,14.8-3.8,15.3a32.81,32.81,0,0,0-1.8-14.6,6.86,6.86,0,0,1,0-5.2C728.69,42.64,729.29,41.14,729.29,41.14Z"/><path class="cls-4" d="M653,102.24s-1.7-2-3.3-1-4,2.5-2.8,4.7,2.4,1.4,3.3,1.2,1.2-2.1,1.2-2.1l2.7.4Z"/><path class="cls-4" d="M659.59,98.84s-3.5-.8-5,.7-1.4,2.8-.7,5.2,2.3,7.3,5,7.6,3.1-2.5,2.6-3.5S658,102.14,659.59,98.84Z"/><path class="cls-4" d="M661.69,109.54a6.49,6.49,0,0,1,1.3,3.7c.1,2.3,3.6,2.4,4.1,1.8s1.9-2.6,1.3-4.6-2.9-10-2.8-11a23.14,23.14,0,0,1,1.1-3.6,2.74,2.74,0,0,0-3.3-.5C661.19,96.24,656,98.84,661.69,109.54Z"/><path class="cls-4" d="M666.79,95.84s2-4.3,4.1-3.9,6.5,3.4,6.5,3.4-5.3.5-4.4,3.4,3.1,12.6.1,14-3.3.2-3.8-2.8-3-7.2-3-7.3S664.79,99.64,666.79,95.84Z"/><path class="cls-37" d="M691.79,361.44a.55.55,0,0,1-.5-.3c-1.1-2.7.4-30.5.6-33.6a.5.5,0,0,1,1,0c-.7,12.3-1.5,31.3-.7,33.2.1.3,0,.5-.3.7Z"/><path class="cls-37" d="M696.19,358a.37.37,0,0,1-.3-.1.49.49,0,0,1-.1-.7c3.1-4.3,4.4-29.5,4.4-29.8a.54.54,0,0,1,.5-.5.47.47,0,0,1,.5.5c-.1,1-1.3,25.7-4.6,30.3C696.49,357.94,696.39,358,696.19,358Z"/><path class="cls-36" d="M704.59,612.14l9.1,7.4a6.21,6.21,0,0,0,1.5-4.2c0-2.8.6-4.8,2.5-5.9l.8-.9S707.89,611.44,704.59,612.14Z"/><path class="cls-38" d="M741,640.44c-8.8,0-22.3-12.5-22.8-13a.49.49,0,1,1,.7-.7c.1.1,13.7,12.8,22.2,12.8a77.72,77.72,0,0,0,12.4-.7c.3-.1.5.1.6.4s-.1.5-.4.6C753.39,639.74,749.69,640.44,741,640.44Z"/><path class="cls-38" d="M658.89,635h-1.6c-12.4-.1-18.6-15.1-18.7-15.2-.1-.3,0-.5.3-.7s.5,0,.7.3c.1.1,6,14.5,17.8,14.6,13,.1,15.2-1.3,15.4-2.2a14.23,14.23,0,0,0,0-3.1.51.51,0,0,1,1-.2,11.51,11.51,0,0,1,0,3.4C673.49,633.44,671.49,635,658.89,635Z"/><path class="cls-39" d="M765,648.44s-.2,8.5,19.2,12.3,14-12.2,11.6-15.5Z"/><path class="cls-4" d="M766.29,620s-4.1,12.2-4.1,18.1,1.8,9.8,2.8,10.3,4.2,3.8,5,4.5,1.3,2.5,3.2,2.5H775a4.17,4.17,0,0,0,2.3,1.3c1.5.3,4.3.3,4.3-1.2s2.3-4,2.3-4-1,6,2.8,7.3,8-.2,8-2.3-.8-5.3,0-7.7a18.38,18.38,0,0,0,.7-9c-.7-3.5-2.6-14.4-1.8-18.1S766.29,620,766.29,620Z"/><path class="cls-39" d="M777,625.44l3,18,3.2-.7-2-17.3A13.59,13.59,0,0,1,777,625.44Z"/><path class="cls-40" d="M780.69,643.44s3.5,3.9,3.3,8.2c0,0,2.1-3.5-.8-8.8Z"/><path class="cls-41" d="M764.79,351.64s-7.3,23.6-3.3,47,16.7,84.7,16.7,84.7-7.2,22.3-8.9,32.3-13.7,88.7-13,93,14,16.6,22,17,20.3-5.9,20.3-5.9-4.3,14.6,8,14.9,22.3,6.5,26.3,7.6,7.7,1.7,10.7-7.6,8.3-19.1,9-24.9,5.7-73.8,5.7-78.4.7-34,3-42.3,13.4-47.9,25-61.8,17.5-49.2,17.2-58.5a60.88,60.88,0,0,0-1.9-14.5Z"/><path class="cls-42" d="M785.49,156.34s-6.5,3.1-11.7,14.9-20.3,63.7-20.3,63.7-1.7,15.2,7.7,36.8,10.5,34.2,10.3,40.3-7.2,30.3-7.3,38,49.5,14.8,69.3,13.5,66-6.8,68-9.5-.3-12.5-8.2-25.3-22.9-52.8-24.3-58.7-7.9-30.3-7.9-30.3,7.4,7.7,13.4,3.7,5.5-7,10.5-5.8,9.9-1.8,10.4-5.1-1.9-10.2-1.9-10.2-9.8-37.5-17-45.3-44-24.3-46-25.8-7.2-1.8-7.2-1.8Z"/><path class="cls-43" d="M784,148.84s4,20.4,5.7,21.3,5-3.2,8.2-2,6.5,4.3,8.8,3.3,5.2-6.3,8-6.5,8.2,3,10.8,2.2,2.5-5.8,6.5-6.2,8.2-1.3,5-3.3-10.2-4.2-12.5-6.2-3.3-13.3-3.3-13.3Z"/><path class="cls-4" d="M777.39,140.64a53.4,53.4,0,0,1,4.1,5.3c2.2,3.2,7.3,8.2,17.6,7.8,15.2-.5,18.2-6.5,19.4-8.6s10.4-18.5,9.7-31.9-13.5-31.7-36.7-30.8C769.49,83.24,761.79,122.74,777.39,140.64Z"/><path class="cls-32" d="M776.29,76.74s-8.2,6.8-10.2,14-6.7,30.5-6,38.5,5.3,14-6.7,14c0,0,3,5.2,9.3,0,0,0,.8,7.8,4.8,6s8-4,9.8-4,2.5-2,2.5-2-5-9.5-5-14.2c0,0-3.8,1.3-4.2-2.2s-1.8-11,2.3-15.1,3.4-14.4,5.6-15.5,2.5-3.8,4.2-5.8,5.8-7,8.2-7,11.5,6.3,15.7,6.2,9-.3,11.2,4.5a28.14,28.14,0,0,0,5.8,8.1s3.5,7.3,2.3,20.7-7.7,21.8-8.3,23.7-.2,6.7,4.3,7.2c0,0-3.7-6.3,2.8-11.7s4.7-6.5,4.7-6.5,8,5.7,12.5-.3c0,0-5,3.8-11-1.2,0,0,8-1.3,9.3-3.5l1.3-2.2s4.8,3.2,8.2-3.2c0,0-4.3,2.8-3.5-1.3s0-8.2-.7-11.4c0,0,3,0,3,4.4,0,0-.2-9.5-3.7-12.5l-3.5-3s4,.5,4.3-1a7.89,7.89,0,0,1-4.8-6.3c-.5-4.7-5.7-26.5-32.5-32.2C781.69,56.24,773,72.74,776.29,76.74Z"/><path class="cls-36" d="M867.79,170.84s10.4,1.5,12.8,2.7,16.3,2.6,19.5,8.9,2.1,28.5,2.1,28.5,1,2.5-3.3,6.3-6.8,9.1-9.9,9.1-8.8-2.9-9.1-3.4-1.9-3.8-4.1-3.8a13.17,13.17,0,0,1-6-1.6,4.83,4.83,0,0,1-1.1-1.5s-4.9-.6-5.3-1.5-.9-2.8,2-4.1,8.1-3.5,9-4.9,4.8-7,4.8-7l-5.6-1.3s-2.5,8.8-6.3,9.5-6.1,2-5.5-5.1,6.6-16.3,7.5-17.1,5.5-1.8,5.5-1.8a5.55,5.55,0,0,1,2.9-1.6,8.92,8.92,0,0,1,2.6,0S872.69,173.64,867.79,170.84Z"/><path class="cls-44" d="M798.49,620.14a.37.37,0,0,1-.3-.1.48.48,0,0,1,0-.7c3.6-4,3.6-4.8,3.9-8.2.2-2.7.7-7.3,3.3-16.6,3.4-11.8,6.4-35.5,8.9-54.6,1.8-14.1,3.4-26.3,4.6-30,2.8-8.5,5.1-24.3,5.1-24.4,0-.8,4.8-83.5,3.3-93.7S824,368.14,824,368a.51.51,0,1,1,1-.2c0,.1,1.7,13.6,3.3,23.8s-3.1,90.5-3.3,93.9c0,.2-2.4,16-5.2,24.6-1.2,3.6-2.8,15.8-4.6,29.9-2.5,19.1-5.5,42.9-8.9,54.8a84.26,84.26,0,0,0-3.3,16.4c-.3,3.5-.4,4.6-4.2,8.8A1,1,0,0,1,798.49,620.14Z"/><path class="cls-4" d="M861.19,239.74s12.9,48.2,13.7,55.7,4.5,43.3,4,48.8-2.5,34.7-2.5,34.7-3.4,4.4-3.6,7.3a97.06,97.06,0,0,1-1.8,11.5,13.73,13.73,0,0,0-.3,4.6c.1,1.5.9,6.3.4,7.5s1.1,3.3,1.4,4.5-.1,7,2.4,6.5h.9s0,6-2.4,9,1.1,3.1,3.8,1.4,4.3-2.9,4.3-2.9l3.4-.1s4.9-3.4,6.1-4.1a12.69,12.69,0,0,0,1.3-.8s4.6-2.1,5.6-3.4a5.72,5.72,0,0,0,1-3.1s4-2.5,4.5-4.1,0-5.1,0-5.1-4.3-21.5-4.1-25.6.3-11.9.3-13.8-.1-6.3-.1-6.3,3.6-44.5,3-58.4-.1-13.6-1-16.8-2.6-14.3-2.6-14.3l-2.8-38.8s-.7-3.3-2.6.9-7.4,1.1-11,2c-2.9.7-5.3,4.4-9.4,7.6S861.19,239.74,861.19,239.74Z"/><path class="cls-39" d="M810.69,662.64s3.3,5.2,19.7,4.3,11.7-11.5,6.7-14Z"/><path class="cls-4" d="M803.79,634.14s-2.8,11.4-2.7,13,3.2,6.8,3.5,8.5,1.3,7.1,6.1,6.9,5.3-3.2,5.3-3.2,0,3.9,4.6,3.7,2.5-1.7,2.5-1.7,2.5,1.1,3.7.1a4,4,0,0,0,1.4-2.2s2.5,1.5,3.8.6a5,5,0,0,0,1.7-1.8,2.94,2.94,0,0,0,2.2-1.6c.6-1.4,1.8-3.7,1.2-5S833,642,833,642,818.89,632.94,803.79,634.14Z"/><polygon class="cls-39" points="811.39 635.04 810.69 647.94 814.59 647.94 815.19 635.74 811.39 635.04"/><polygon class="cls-40" points="811.39 647.94 815.89 659.44 814.09 647.94 811.39 647.94"/><path class="cls-43" d="M881.29,428.84a.37.37,0,0,1-.3-.1.49.49,0,0,1-.1-.7,44.75,44.75,0,0,0,2.8-4.5c.5-1,.9-7.5,1.1-11.7a.54.54,0,0,1,.5-.5.47.47,0,0,1,.5.5c-.1,1.1-.5,10.5-1.2,12a39.5,39.5,0,0,1-2.9,4.6C881.59,428.74,881.49,428.84,881.29,428.84Z"/><path class="cls-43" d="M892.09,423.84H892a.55.55,0,0,1-.4-.6l2.4-11.4a.51.51,0,1,1,1,.2l-2.4,11.4A.66.66,0,0,1,892.09,423.84Z"/><path class="cls-43" d="M898.69,417.34h0a.47.47,0,0,1-.5-.5,31.71,31.71,0,0,1,2-11.6.54.54,0,1,1,1,.4,32.08,32.08,0,0,0-1.9,11.2C899.19,417,899,417.34,898.69,417.34Z"/><path class="cls-43" d="M875.69,421.34h0a.54.54,0,0,1-.5-.5,79.41,79.41,0,0,0-1.9-23.2c-.1-.3.1-.5.4-.6s.5.1.6.4c0,.1,2.9,12.2,1.9,23.6C876.19,421.14,876,421.34,875.69,421.34Z"/><path class="cls-45" d="M868.59,216.54a.51.51,0,0,1-.5-.4c-.1-.3.1-.5.4-.6.1,0,10.4-2.8,12.3-3.9,1.6-.9,7.2-8.2,9.2-10.9a.5.5,0,0,1,.8.6c-.8,1-7.5,9.9-9.5,11.1s-12.1,3.9-12.5,4A.31.31,0,0,1,868.59,216.54Z"/><path class="cls-45" d="M878.39,221.24a.52.52,0,0,1-.4-.2.53.53,0,0,1,.2-.7,41.91,41.91,0,0,1,3.8-2.1,12.21,12.21,0,0,0,2.8-1.7c1.5-1.3,13.2-12.5,13.3-12.7a.49.49,0,1,1,.7.7c-.5.5-11.9,11.4-13.3,12.7a12.57,12.57,0,0,1-3,1.8,31.66,31.66,0,0,0-3.7,2.1A.76.76,0,0,1,878.39,221.24Z"/><path class="cls-45" d="M882.79,225c-.2,0-.4-.1-.4-.3a.66.66,0,0,1,.2-.7c5-2.5,17.9-15.7,18.1-15.9a.49.49,0,0,1,.7.7c-.5.6-13.2,13.5-18.3,16.1C882.89,225,882.89,225,882.79,225Z"/><path class="cls-45" d="M873.49,197.84c-.1,0-.2,0-.2-.1a.57.57,0,0,1-.2-.7l4-8a.51.51,0,0,1,.9.5l-4,8A.91.91,0,0,1,873.49,197.84Z"/><path class="cls-7" d="M773.79,133.84V129h-1v4.8a2.57,2.57,0,0,0-2.1,2.5,2.5,2.5,0,1,0,5,0A2.38,2.38,0,0,0,773.79,133.84Z"/><path class="cls-43" d="M766,649.14a.46.46,0,0,1-.5-.4c-.4-3.4,1.2-8.1,1.3-8.3a.47.47,0,0,1,.9.3s-1.6,4.7-1.2,7.9a.54.54,0,0,1-.5.5Z"/><path class="cls-43" d="M770,653.44a.55.55,0,0,1-.5-.3c-.6-1.8,1-7.9,1.2-8.6a.51.51,0,0,1,1,.2c-.7,2.5-1.6,7-1.2,8.1a.42.42,0,0,1-.3.6Z"/><path class="cls-43" d="M775,655.94a.66.66,0,0,1-.5-.4,2.86,2.86,0,0,1,1-3l.4-.4c.7-.7.8-3.6.6-5.3a.5.5,0,1,1,1,0c0,.5.3,4.8-.9,6l-.4.4c-.8.8-1,1-.7,2.1.1.3-.1.5-.4.6Z"/><path class="cls-43" d="M823,662c-.2,0-.5-.2-.5-.4a8.15,8.15,0,0,0-.9-2.5,5.17,5.17,0,0,1-.6-1.3,18.58,18.58,0,0,1,0-5.3c0-.3.3-.5.5-.4s.5.3.4.5a15.92,15.92,0,0,0,0,4.9,3.38,3.38,0,0,0,.6,1.2,8.79,8.79,0,0,1,1.1,2.9,1.54,1.54,0,0,1-.6.4Z"/><path class="cls-43" d="M827.09,659.64a.47.47,0,0,1-.5-.5v-5.4a.5.5,0,0,1,1,0v5.4A.54.54,0,0,1,827.09,659.64Z"/><path class="cls-43" d="M833.49,657.54h0a.54.54,0,0,1-.5-.5c.2-2.5-1.7-5.9-1.8-5.9a.51.51,0,0,1,.9-.5c.1.1,2.2,3.7,1.9,6.5C834,657.34,833.69,657.54,833.49,657.54Z"/><path class="cls-26" d="M192.89,150.94s-9.4,4.1-9.1,16.5,2.2,76,2.2,76l6.9,6S202.39,169.64,192.89,150.94Z"/><path class="cls-46" d="M290.39,240.44l9.5,37.4s7.2-8.2,6.8-26.3-8.8-33.9-8.8-33.9Z"/><path class="cls-47" d="M196.19,321.24s-1.7,22.7-1.8,26.2-.3,21.3,0,23,10,103,10,103-1,56.8,1.5,68.3,2.7,27.2,2.7,27.2a25.94,25.94,0,0,0,13.8,2.7c8.2-.7,14.8-1.8,14.8-1.8s1.8-22.7,1.8-26.3-1.5-47.2,0-56,6.3-59,7.3-76.5,2.8-31.7,2.8-31.7l1.3-1.8s2.8,19.2,2.8,22.3-1.3,62.3-1.2,67.2,1.2,17,1.2,17-5.2,61.3-5,66a80.55,80.55,0,0,0,17.5,2.7l10.2.5,9.8-71.3s1.3-29.5,3.2-39.3,10.2-37.8,10.8-50.8,5.5-48.3.8-69Z"/><path class="cls-48" d="M250.49,574.64s-.9,15.3-1.6,15.5-1.6,7.3,0,10.4,3.5,3.5,1.6,10.6-.4,19.5,14.4,17.6,18-9.5,14.1-18.9-7.8-16.5-8.8-24.9-.1-12-.1-12S261.09,565.24,250.49,574.64Z"/><path class="cls-16" d="M186,318.74s-2.1,3.1,9.8,8l.4-5.5Z"/><path class="cls-22" d="M248.29,549.94a34.29,34.29,0,0,1,0,5.2s-2,18.1,1.5,19.3,10-3.7,12.8-2.7,11.6,3.2,12-1.5,1.5-14,1.6-15,1.2-2-1.5-2.1S254.79,551.84,248.29,549.94Z"/><path class="cls-22" d="M237.19,569.74s1.2.7,1,3.4-.5,5.5-.5,5.5,4.1,13-1.5,13.8-11.8-1-13.9-.9-9.3,3-11.8-1a8.39,8.39,0,0,1-.6-7.8s-1.9-6.5-1.8-8.2.3-5.7.3-5.7S214.39,572.34,237.19,569.74Z"/><path class="cls-48" d="M214.59,592.64v17.6c0,3.1-1.5,7.5-1.4,9.9s-.5,12.9-1.3,16.5-2.3,15.3,20.6,10.2,10.4-13.4,6-26.6-1.8-27.9-1.8-27.9S223.69,587.24,214.59,592.64Z"/><path class="cls-49" d="M214.09,351.14h0a.54.54,0,0,1-.5-.5l.6-10.7-15.4-1.8a.51.51,0,1,1,.2-1l15.9,1.8c.3,0,.5.3.4.5l-.6,11.1A.73.73,0,0,1,214.09,351.14Z"/><path class="cls-49" d="M206.39,352.34a43.21,43.21,0,0,1-10.3-1.2.51.51,0,1,1,.2-1c.1,0,9,2.2,16.9.5a11.8,11.8,0,0,0,9.4-12.1,1.7,1.7,0,0,0-.1-.7.51.51,0,0,1,1-.2c0,.3.1.5.1.8a13,13,0,0,1-10.2,13.2A33.92,33.92,0,0,1,206.39,352.34Z"/><path class="cls-49" d="M208.39,356a39.71,39.71,0,0,1-12.4-2.2.47.47,0,1,1,.3-.9c.1,0,13.5,4.6,20.4.1,7.7-5.1,8.7-9,8.8-10.4a.5.5,0,0,1,1,0c-.1,1.9-1.5,6-9.2,11.1A15.43,15.43,0,0,1,208.39,356Z"/><path class="cls-49" d="M226,334.84h0l-7.8-.8a68.36,68.36,0,0,1-19.5-3.8.47.47,0,1,1,.3-.9,67.7,67.7,0,0,0,19.2,3.7l7.8.8c.3,0,.5.3.4.5A.46.46,0,0,1,226,334.84Z"/><path class="cls-49" d="M228,340.44h-.2l-3.4-1.4c-.2-.1-.3-.2-.3-.4a.9.9,0,0,1,.1-.5c3.3-3.1,1.3-11.7,1.2-11.7-.1-.3.1-.5.4-.6s.5.1.6.4,2,8.3-1,12.1l2.4,1c.8-1.1,3.7-5.8,1.6-12.8a.47.47,0,0,1,.9-.3c2.7,8.7-1.8,13.9-2,14.1C228.19,340.34,228.09,340.44,228,340.44Z"/><path class="cls-49" d="M256.19,337.44h0l-24.7-1.9a.5.5,0,1,1,0-1l24.6,1.9a.54.54,0,0,1,.5.5C256.69,337.24,256.49,337.44,256.19,337.44Z"/><path class="cls-49" d="M253.69,375.84h-.2a.45.45,0,0,1-.3-.6c0-.1,2.7-8.3,5-15.4,2.2-6.6.7-16.9-1.9-23.6-2.5-6.4.6-10,.7-10.2a.5.5,0,0,1,.8.6c-.1.1-2.8,3.3-.5,9.1,2.1,5.6,4.4,16.7,1.9,24.3-2.3,7-5,15.3-5,15.4A.66.66,0,0,1,253.69,375.84Z"/><path class="cls-49" d="M261,338.24a.66.66,0,0,1-.5-.4c-.1-.3.1-.5.4-.6.1,0,9.1-2.1,11-2.7s7.7-3,7.7-3c.3-.1.5,0,.7.3s0,.5-.3.7-5.9,2.4-7.8,3-10.7,2.6-11,2.7Z"/><path class="cls-49" d="M281.49,337.44c-.1,0-.1,0-.2-.1a.54.54,0,0,1-.3-.4c0-.3-1.4-8.9-1.9-12.2a.6.6,0,0,1,.1-.4c.1-.1.2-.2.3-.2l3.9-.4a.46.46,0,0,1,.5.4l1.5,10.8a.76.76,0,0,1-.2.5C282.49,337,281.89,337.44,281.49,337.44Zm-1.2-12.3c1.1,7.2,1.5,10,1.7,11.1.6-.3,1.6-.9,2.6-1.4l-1.3-10Z"/><path class="cls-49" d="M285.69,331.14a.55.55,0,0,1-.5-.3.62.62,0,0,1,.2-.7c5.1-2.3,10.8-5.3,11.3-6.1a.51.51,0,1,1,.9.5c-.9,1.5-9.9,5.7-11.7,6.5C285.79,331,285.79,331.14,285.69,331.14Z"/><path class="cls-49" d="M297.19,345.84h0c-9.6-.3-12.6-7.8-12.6-7.9a.47.47,0,1,1,.9-.3c.1.3,2.8,7,11.7,7.2a.47.47,0,0,1,.5.5A.54.54,0,0,1,297.19,345.84Z"/><path class="cls-49" d="M297.19,348.84c-12.8,0-15.3-10.8-15.3-11s.1-.5.4-.6.5.1.6.4,2.4,10.2,14.3,10.2a.47.47,0,0,1,.5.5A.54.54,0,0,1,297.19,348.84Z"/><path class="cls-49" d="M256.69,371.54c-.2,0-.5-.2-.5-.4a.55.55,0,0,1,.4-.6,7.64,7.64,0,0,0,6.3-7.5c0-1,.1-2,.1-3.1.3-6.8.6-16.2-.1-18.2a.47.47,0,0,1,.9-.3c.8,2.2.4,11.3.1,18.6,0,1.1-.1,2.1-.1,3.1a8.39,8.39,0,0,1-7.1,8.4Z"/><path class="cls-49" d="M248.39,375.84h-.2l-15.6-5.1a.47.47,0,0,1,.3-.9l15.6,5.1a.46.46,0,0,1-.1.9Z"/><path class="cls-49" d="M260.29,375.34a.52.52,0,0,1-.4-.2.53.53,0,0,1,.2-.7l15.3-9.3a.51.51,0,0,1,.5.9l-15.3,9.3C260.49,375.24,260.39,375.34,260.29,375.34Z"/><path class="cls-49" d="M259.29,334.84c-1.2,0-2.1-1.2-2.1-2.8s.9-2.8,2.1-2.8,2.1,1.2,2.1,2.8S260.49,334.84,259.29,334.84Zm0-4.5c-.6,0-1.1.8-1.1,1.8s.5,1.8,1.1,1.8,1.1-.8,1.1-1.8S259.89,330.34,259.29,330.34Z"/><path class="cls-46" d="M221.69,124.54s-.5,6.8,2.2,9.1a14.52,14.52,0,0,0,6.2,2.9Z"/><path class="cls-46" d="M275,118.74s2.4-4.8,2.5-5.8.8-4.5,0-5.8-2.2-6.6-3.2-7.6-1.8,9.6-1.8,9.6Z"/><path class="cls-50" d="M221.59,128.44s-5-3.1-5.1-3.9a29.64,29.64,0,0,1,.9,3.2s-3.5-4.3-4.7-7.5-5.7-13.3-5.7-13.3-2.5-2-2.3-9.3,7.2-21.2,15.8-25.4c0,0,4.7-7.8,12.2-7.9s9.2,1.5,9.2,1.5a23.07,23.07,0,0,0-6.7-2.8s10.2-1.9,16.8,5.1c0,0,12.3,2,19.3,17.3,0,0-3.2-3-4.3-2.7,0,0,8.6,6.7,8.1,16.9l-2.7,9.6Z"/><path class="cls-16" d="M301.09,322.34c-.2-.4-16-40.4-15.8-46.6.2-9.3,2-28.4,11-51.8,9.8-25.5,1.3-49.9,1.2-50.2,0-.1-.1-.2-.2-.3l-14.6-8-46.2-18.7h-.1c-1.1-.1-28.1-2.2-32.6-1.5a52.4,52.4,0,0,0-10,3c-.1,0-.1.1-.2.1-.3.4-7.2,9.4,2.2,45.5-.2,2.3-3.6,51.6-6.8,63.3-3.3,12.1-3.5,59.4-3.5,61.5a.66.66,0,0,0,.4.5c.1,0,14,2.8,18,5,3.1,1.6,14.4,2,24.4,2.3,3.7.1,7.2.2,9.8.4,1.1.1,2.6.1,4.2.1,12.2,0,36.1-1.7,36.4-1.7l22-2.2a.52.52,0,0,0,.4-.2A.45.45,0,0,0,301.09,322.34Z"/><path class="cls-46" d="M236.59,145s-2.5,9.4,6.5,18.3,21.1,13.5,29.4,11,11.1-7.5,11.1-7.5-7.9-4.8-8.4-10.7-1.1-23.3-1.1-23.3Z"/><path class="cls-51" d="M229.29,85.34s-7.2.6-7.5,9.5,0,17,0,17-3-5.7-4.7-5.3.3,9.7,2.7,14.8,10.3,14.2,11.3,17.5,11.7,13.3,25.5,14.5,20.2-21.2,19.8-25.8-4-19.8-5.5-22.8-14.7-20.3-19.3-22.3C247,80.24,241.29,78.54,229.29,85.34Z"/><path class="cls-49" d="M255.49,549.84h0a.54.54,0,0,1-.5-.5c.2-1.9-.9-8.7-1.7-13.6-.4-2.3-.7-4.2-.8-5.4-.5-4.1,2.3-35.7,3.3-41.1s-1.2-21.7-1.3-21.8c0-.4,1.2-33.4,1.2-37.1s-2.5-50.5-2.5-51a.5.5,0,0,1,1,0c.1,1.9,2.5,47.3,2.5,51s-1.2,36.7-1.3,37c.1.6,2.2,16.4,1.2,22.1-1,5.4-3.7,36.8-3.2,40.9.2,1.2.5,3.2.8,5.4.8,5.2,1.9,11.8,1.7,13.8A.45.45,0,0,1,255.49,549.84Z"/><path class="cls-7" d="M210.79,474.34s.6-6,3.4-5.8,14.5,6.5,14.5,6.5,6.8,5.3,1.4,4.8a141.18,141.18,0,0,0-15.1,0S210.49,478.84,210.79,474.34Z"/><path class="cls-7" d="M280.69,439.94s1.6-2.3,3-2.6a1.38,1.38,0,0,1,.8,2.6A6.43,6.43,0,0,1,280.69,439.94Z"/><path class="cls-52" d="M276.59,118.54a2.43,2.43,0,0,1-1.6-.6.5.5,0,0,1,.6-.8,1.44,1.44,0,0,0,1.3.3,1,1,0,0,0,.6-.8,1.43,1.43,0,0,0-.1-1.3,1.62,1.62,0,0,0-1-.7.51.51,0,0,1,.2-1,2.39,2.39,0,0,1,1.8,3.2,1.91,1.91,0,0,1-1.2,1.5A.73.73,0,0,1,276.59,118.54Z"/><path class="cls-53" d="M229.49,84.64a.76.76,0,0,1-.4-.2,4.84,4.84,0,0,0-2.9-1.7,3.52,3.52,0,0,0-2.3.9.49.49,0,0,1-.7-.7,3.77,3.77,0,0,1,3-1.2,5.16,5.16,0,0,1,3.6,2,.49.49,0,0,1-.1.7C229.69,84.64,229.59,84.64,229.49,84.64Z"/><path class="cls-53" d="M231.59,83.24a.55.55,0,0,1-.5-.3s-.9-2.4-2.5-3a2.53,2.53,0,0,0-1.9.1.51.51,0,0,1-.5-.9,3.21,3.21,0,0,1,2.7-.2c2,.8,3,3.5,3,3.6a.42.42,0,0,1-.3.6C231.69,83.24,231.59,83.24,231.59,83.24Z"/><path class="cls-53" d="M235,80.84c-.2,0-.5-.2-.5-.4h0a4.14,4.14,0,0,0-1.9-2.7c-1.7-1.1-4.3-1.2-7.7-.2a.47.47,0,0,1-.3-.9c3.7-1.1,6.5-1,8.5.3a5.46,5.46,0,0,1,2.4,3.4c0,.2-.2.4-.5.5Z"/><path class="cls-53" d="M240,80.84a.37.37,0,0,1-.3-.1.62.62,0,0,1-.1-.7c2-2.5,2.8-4.9,2.5-7.1a8.37,8.37,0,0,0-3.4-5.2.5.5,0,1,1,.6-.8,9.38,9.38,0,0,1,3.8,5.8c.4,2.6-.5,5.2-2.7,7.9A.52.52,0,0,1,240,80.84Z"/><path class="cls-53" d="M246.49,76.24a.76.76,0,0,1-.4-.2.43.43,0,0,1,.1-.7,3.09,3.09,0,0,0,1.4-2.4,1.83,1.83,0,0,0-.7-1.4.5.5,0,1,1,.6-.8,3.31,3.31,0,0,1,1.1,2.2,4.44,4.44,0,0,1-1.8,3.2C246.79,76.24,246.59,76.24,246.49,76.24Z"/><path class="cls-53" d="M257.19,79.44a.76.76,0,0,1-.4-.2,6.35,6.35,0,0,0-5.5-2.1.51.51,0,0,1-.2-1,7.12,7.12,0,0,1,6.4,2.5.49.49,0,0,1-.1.7A.35.35,0,0,1,257.19,79.44Z"/><path class="cls-54" d="M219.29,631.44a.37.37,0,0,1-.3-.1.49.49,0,0,1-.1-.7,13.3,13.3,0,0,1,4.4-3.6c2.7-1.4,7.3-2.8,14-1.4a.51.51,0,1,1-.2,1c-12.2-2.6-17.2,4.3-17.4,4.5S219.49,631.44,219.29,631.44Z"/><path class="cls-54" d="M220,626a.52.52,0,0,1-.4-.2.53.53,0,0,1,.2-.7c.4-.2,9-5.2,16.2-1.9a.51.51,0,1,1-.5.9c-6.7-3.1-15.1,1.8-15.2,1.8A.37.37,0,0,1,220,626Z"/><path class="cls-54" d="M220,623.14a.52.52,0,0,1-.4-.2.53.53,0,0,1,.2-.7c.4-.2,9-5.2,16.2-1.9a.51.51,0,0,1-.5.9c-6.7-3.1-15.1,1.8-15.2,1.8A.37.37,0,0,1,220,623.14Z"/><path class="cls-54" d="M220,620.24a.52.52,0,0,1-.4-.2.53.53,0,0,1,.2-.7c.4-.2,9-5.2,16.2-1.9a.51.51,0,0,1-.5.9c-6.7-3.1-15.1,1.8-15.2,1.8A.37.37,0,0,1,220,620.24Z"/><path class="cls-54" d="M220,617.34a.52.52,0,0,1-.4-.2.53.53,0,0,1,.2-.7c.4-.2,9-5.2,16.2-1.9a.51.51,0,1,1-.5.9c-6.7-3.1-15.1,1.8-15.2,1.8A.37.37,0,0,1,220,617.34Z"/><path class="cls-54" d="M220,614.44a.52.52,0,0,1-.4-.2.53.53,0,0,1,.2-.7c.4-.2,9-5.2,16.2-1.9a.51.51,0,1,1-.5.9c-6.7-3.1-15.1,1.8-15.2,1.8S220.09,614.44,220,614.44Z"/><path class="cls-54" d="M220,611.44a.52.52,0,0,1-.4-.2.53.53,0,0,1,.2-.7c.4-.2,9-5.2,16.2-1.9a.51.51,0,1,1-.5.9c-6.7-3.1-15.1,1.8-15.2,1.8A.37.37,0,0,1,220,611.44Z"/><path class="cls-54" d="M220,608.54a.52.52,0,0,1-.4-.2.53.53,0,0,1,.2-.7c.4-.2,9-5.2,16.2-1.9a.51.51,0,1,1-.5.9c-6.7-3.1-15.1,1.8-15.2,1.8A.37.37,0,0,1,220,608.54Z"/><path class="cls-54" d="M220,605.64a.52.52,0,0,1-.4-.2.53.53,0,0,1,.2-.7c.4-.2,9-5.2,16.2-1.9a.51.51,0,0,1-.5.9c-6.7-3.1-15.1,1.8-15.2,1.8A.37.37,0,0,1,220,605.64Z"/><path class="cls-54" d="M273.19,608.54H273c-7.7-3.7-17.8-.3-17.9-.2a.47.47,0,1,1-.3-.9c.4-.1,10.6-3.6,18.7.3a.48.48,0,0,1,.2.7A4.33,4.33,0,0,1,273.19,608.54Z"/><path class="cls-54" d="M273.19,604.54H273c-7.7-3.7-17.8-.3-17.9-.2a.47.47,0,1,1-.3-.9c.4-.1,10.6-3.6,18.7.3a.48.48,0,0,1,.2.7A4.33,4.33,0,0,1,273.19,604.54Z"/><path class="cls-54" d="M273.19,600.44H273c-7.7-3.7-17.8-.3-17.9-.2a.47.47,0,0,1-.3-.9c.4-.1,10.6-3.6,18.7.3a.48.48,0,0,1,.2.7A4.33,4.33,0,0,1,273.19,600.44Z"/><path class="cls-54" d="M271.49,596.44c-.1,0-.2,0-.2-.1-7-3.7-16.1-.3-16.2-.2a.47.47,0,0,1-.3-.9c.4-.2,9.7-3.6,17.1.3a.57.57,0,0,1,.2.7C271.79,596.34,271.69,596.44,271.49,596.44Z"/><path class="cls-54" d="M271.19,593.14c-.1,0-.2,0-.2-.1-7-3.7-16.1-.3-16.2-.2a.47.47,0,1,1-.3-.9c.4-.2,9.7-3.6,17.1.3a.57.57,0,0,1,.2.7A1.42,1.42,0,0,1,271.19,593.14Z"/><path class="cls-54" d="M269.89,590c-.1,0-.2,0-.2-.1-6.4-3.7-14.9-.3-14.9-.2-.3.1-.5,0-.7-.3s0-.5.3-.7,9-3.6,15.8.3a.57.57,0,0,1,.2.7C270.29,590,270.09,590,269.89,590Z"/><path class="cls-54" d="M226.89,590.84a.85.85,0,0,0-.7,0,1.61,1.61,0,0,0-.7-.4c-1.1-.2-4.6-.9-6.5.4-1.5,1.1-9.6,8-10,8.3a1.65,1.65,0,0,0-.5,1.5c.3,1.3,1.5,3.7,4.1,3.7a2.49,2.49,0,0,0,.8-.1c2.3-.4,5.7-3.5,9.6-7.3l.1-.1c.7-.6,1.2-1.1,1.5-1.4l.1-.1c.3,4.9.7,15.3-1.6,20a1.45,1.45,0,0,0-.1,1.1,1.42,1.42,0,0,0,.8.9,1.27,1.27,0,0,0,.6.1,1.6,1.6,0,0,0,1.4-.8,19.2,19.2,0,0,0,1.5-5.4c1.9,8.4,4.7,13.3,8.2,14.5a.9.9,0,0,0,.5.1,1.5,1.5,0,0,0,1.4-1,1.45,1.45,0,0,0-.9-1.9c-2-.7-3.7-3.7-5-7.7h0c.7,2,2.9,3.3,5.5,3.3a7.61,7.61,0,0,0,2.1-.3c2.5-.8,3.8-2.9,3.1-5.2C237,593.74,227.29,590.94,226.89,590.84Zm-4,2.2-.2.2a20.69,20.69,0,0,0-1.7,1.6c-1.8,1.7-6.5,6.2-8,6.5a1.2,1.2,0,0,1-1.2-.6c1.8-1.6,7.8-6.7,9-7.5C221,593,221.69,592.94,222.89,593Zm15.4,22.4c-1.4.4-3.4,0-3.8-1.2-.9-2.6-3.9-13.3-5.5-18.9,3,2.3,7.4,7.5,10.5,18.5C239.49,614.24,239.79,615,238.29,615.44Z"/><path class="cls-54" d="M273,604l-5.5-13.3a2.2,2.2,0,0,0,.8.1h.5a3.51,3.51,0,0,0,2.8-3c.6-4.1-4.1-11.7-11.3-15.5h-.1l-.2-.2a1.68,1.68,0,0,0-1.8-.1c-1,.7-10.2,7.4-11.1,12.5a4.29,4.29,0,0,0,.7,3.3c.8,1.1,1.9,2.3,3.3,2.3h.3c1.7-.2,2.8-1.7,4.6-5.7l-2.6,16.9a1.13,1.13,0,0,0,.3,1.1,1.7,1.7,0,0,0,1,.6h.2a1.5,1.5,0,0,0,1.5-1.3l3.4-22,10.5,25.2a1.42,1.42,0,0,0,1.4.9,1.27,1.27,0,0,0,.6-.1c.4-.2.7-.4.8-.8A1,1,0,0,0,273,604Zm-21.9-16.9c-.1-.1-.4-.4-.9-1a1.64,1.64,0,0,1-.2-1c.3-1.6,2.2-4.1,5.4-7C253.79,582.24,251.89,586.64,251.09,587.14Zm17.5.3c-.1.4-.2.5-.4.5-.8.2-3.4-3.5-5.9-10.6C266.69,580.84,268.89,585.44,268.59,587.44Z"/><path class="cls-16" d="M121.69,87.14a.45.45,0,0,0-.5,0,2.34,2.34,0,0,1-3.1-.9.45.45,0,1,0-.8.4l2.7,6.6a28.25,28.25,0,0,0-1,9,4.06,4.06,0,0,1-2.7,2.3.55.55,0,0,0-.4.6.66.66,0,0,0,.5.4h.1a4.3,4.3,0,0,0,2.6-1.8,20.24,20.24,0,0,0,.8,4,.66.66,0,0,0,.5.4h.1a.45.45,0,0,0,.3-.6,24.92,24.92,0,0,1-.9-5.1,17.77,17.77,0,0,0,1.8-6.3.52.52,0,0,0,.2-.4v-8.2C122,87.34,121.89,87.24,121.69,87.14Zm-1.1,7.8.3.6a22.9,22.9,0,0,1-.9,4.4A23.61,23.61,0,0,1,120.59,94.94Z"/><path class="cls-16" d="M178,50.64c-3.7-11.4-15-15.9-15.1-15.9-11.9-4.6-22.1-4.5-30.1.3-7.4,4.4-11.6,12-13.8,17.6a54.2,54.2,0,0,0-3.1,11.2h0c-.9,10.9,45.8,15.1,47.7,15.3a12.09,12.09,0,0,0,2.1.2,9.59,9.59,0,0,0,5.5-1.7c3.9-2.6,6.5-7.8,7.6-15.5a26.29,26.29,0,0,0,.2-6.8c.9,3.4,1.1,8.9-2.4,15.9a.66.66,0,0,0,.2.7c.1,0,.1.1.2.1s.4-.1.4-.3C184,58.74,178.29,51,178,50.64Z"/><path class="cls-55" d="M113.49,649.74s-2.7,5.7,4.8,8.8,16.3,6.8,23,5.5,6.7-1.5,8.2-3,3-5.5.7-11.3Z"/><path class="cls-14" d="M112.19,638.54s.3,13.9,3.8,15.7,17.2,6.8,20.7,6.8,9.8-1,11.5-2.2,2-6.5,2-9.1-5.3-21.9-5.3-21.9Z"/><path class="cls-55" d="M147.89,639.44l3.2,2.2,8-3s2.7,5.4,2.7,8.5,8.5,8.2,16.3,8.2,13.8-.3,16.7-1.2,8.8-2.5,2.7-8.2-43.4-16.6-43.4-16.6l-7.9-1.5h-1.4Z"/><path class="cls-14" d="M152.49,629.74s6.5,8.3,8.2,11.2,5.8,7.3,16.3,8.8,15.3,1.5,19,0,3.8-3.2,1.2-6.5-2.8-8.7-5.3-10.3-9.8-10.5-9.8-10.5Z"/><path class="cls-56" d="M192.79,545.14c4.3-13.8,19-77.5,17-89s-4.3-25.8-7.8-41.8-17.3-80.9-18.3-84.1-6-17.9-6-17.9-41.3-9.8-48.5-10.5-81.7,5.1-81.7,5.1-7.5,31.2,7.5,65.9,24.8,68.8,25.3,98.8,3,61.5,13.5,107.8,10.8,57,14,58.5,10,.3,17.8-2.5c6.8-2.4,17.9-6.5,20.6-7.5a49.37,49.37,0,0,0,24.4,1.5c12.8-2.8,12.3-7.3,12.3-7.3s-3.3-16-1.5-19.5S188.59,558.94,192.79,545.14Zm-38.5-30.7s-7.6,40.4-12.9,71.2a101.46,101.46,0,0,0-4.4-15.5s-11-68.5-10.3-86,1.5-37.5,1.5-44.8c0,0,.9-32.2.9-37.7l33.8,72.2C163.09,473.94,157.59,492.64,154.29,514.44Z"/><path class="cls-26" d="M66.19,191.54l-35.1,35.9s7.5,28.5,24.5,52,26.5,25.8,31.3,34.3l4.8,8.5s-1.5,4.5-6.8,1.3-9.3-12.1-9.3-12.1-3.3,9.8,0,17.1c0,0-15.8,7.8-24.5-8L46.29,302s-43.5-50.5-45.7-65.8,1.3-27.5,18.7-50.5S38.19,160,38.19,160,63.79,165.54,66.19,191.54Z"/><path class="cls-57" d="M103.09,122.44s-26.9,2.5-38.9,7.5-27.6,28.8-27.6,28.8,29.9,22,29.6,32.9,7.6,58.4,3.6,65.6-14.3,22.3-14.3,22.3,19,33.3,41.8,33.5,34.3-6.8,38-6,24.3,9.3,31.5,8.8,11-3.3,11-3.3,8-69.3,10.8-74.3,4.3-22.8,2.8-29l-2.3-9.5,9-9.3s5.5-21-13.3-39.8-42.8-22.3-42.8-22.3Z"/><path class="cls-58" d="M121.29,85.34s1.5,22.4-3.6,29.5-14.6,7.6-14.6,7.6,8.7,2.6,13.2,9.9,30.3,49.6,30.3,49.6,17.1-28.5,17.3-32.6-3-7.8-4.4-11.1a49.78,49.78,0,0,0-3.3-6.3l12.1-40.8Z"/><path class="cls-26" d="M159.59,45.14a20.35,20.35,0,0,1,16.2,14.3c.1.3.2.7.3,1,1.5,6.8,1,26.3,0,31.8s-11.5,21.8-16,23.5-26.8,3.8-37.5-29.3c0,0-1.4,3.4-5.5-.5,0,0-4.1-7-5.1-13.8s4.4-8.3,4.4-8.3,11.4,6.1,17.5-6.1C139.19,47.14,141.19,41.74,159.59,45.14Z"/><ellipse class="cls-7" cx="120.19" cy="85.04" rx="0.9" ry="1.4"/><path class="cls-59" d="M106.49,130.84c-3.4,0-12.1-5-12.4-5.2a.51.51,0,0,1,.5-.9c.1.1,8.8,5.1,11.9,5.1a19.84,19.84,0,0,0,5.2-.6.47.47,0,1,1,.3.9A19.89,19.89,0,0,1,106.49,130.84Z"/><path class="cls-59" d="M152.19,187.44h0l-6.4-.9h-5.5a.47.47,0,0,1-.5-.5,18.3,18.3,0,0,0-2.1-6.2c-1.9-3.4-26.7-42.7-27-43.1a.51.51,0,1,1,.9-.5c1,1.6,25.1,39.6,27,43.1a21.91,21.91,0,0,1,2.2,6.2h5.1l6,.9c1-2.2,6.5-14.2,8.9-17.6,2.7-3.9,8.4-17.8,7-22.3a.47.47,0,0,1,.9-.3c1.6,4.9-4.4,19.3-7.2,23.2-2.5,3.6-8.9,17.6-9,17.8C152.59,187.34,152.39,187.44,152.19,187.44Z"/><path class="cls-59" d="M64,182.44a.52.52,0,0,1-.4-.2c-3.3-5.7-7.9-40.1-8.1-41.5a.51.51,0,0,1,1-.2c0,.4,4.8,35.6,8,41.1a.53.53,0,0,1-.2.7A.37.37,0,0,1,64,182.44Z"/><path class="cls-60" d="M142.19,319.24c-10.4,0-27.5-4.3-28.3-4.5a.51.51,0,0,1,.2-1c.2.1,21.7,5.5,31.2,4.3s16.4-2.1,16.5-2.1a.51.51,0,0,1,.2,1c-.1,0-6.9.9-16.5,2.1A17.74,17.74,0,0,1,142.19,319.24Z"/><path class="cls-60" d="M130.59,353l-1-.2s5.8-24.5,6.3-26.6c.4-1.7.1-11.3,0-14.9a.5.5,0,0,1,1,0c0,.5.5,13,0,15.1S130.59,353,130.59,353Z"/><path class="cls-60" d="M69,330.44c-12.3,0-17-5-17.2-5.2a.49.49,0,1,1,.7-.7c0,.1,5.1,5.3,18.1,4.9,8.2-.3,11-8.3,11-8.4a.47.47,0,0,1,.9.3c0,.1-3,8.7-11.9,9A8.6,8.6,0,0,1,69,330.44Z"/><path class="cls-60" d="M175.59,326.84c-2.9,0-7.1-7-7.6-7.8a.51.51,0,0,1,.9-.5c1.7,2.9,5,7.4,6.7,7.3,2.6-.1,5.2-.5,5.3-.5a.51.51,0,1,1,.2,1c-.1,0-2.8.4-5.5.5Z"/><path class="cls-60" d="M93.69,573.64a.47.47,0,0,1-.5-.5l-7.3-73c0-.5-2.7-52.2-4.2-60-1.6-8.3-19.2-68-23-75.2s-8.2-33.4-8.4-34.5a.51.51,0,1,1,1-.2c0,.3,4.5,27,8.3,34.2s21.5,67.2,23.1,75.5c1.5,7.8,4.1,57.9,4.2,60.1l7.3,73a.63.63,0,0,1-.5.6Z"/><path class="cls-60" d="M109.09,634.14c-.2,0-.4-.1-.4-.3a.66.66,0,0,1,.2-.7c.4-.2,10.1-5.3,15.4-5.8,5.1-.5,18.5-4.2,18.7-4.2a.47.47,0,0,1,.3.9c-.6.2-13.6,3.8-18.8,4.3s-15,5.6-15.1,5.7S109.19,634.14,109.09,634.14Z"/><path class="cls-60" d="M162.49,624.14h-.7a31.6,31.6,0,0,1-13-3.6.51.51,0,1,1,.5-.9,31,31,0,0,0,12.5,3.4c6.8.2,17.2-3.4,17.3-3.5a.47.47,0,0,1,.3.9C179.09,620.84,169.49,624.14,162.49,624.14Z"/><path class="cls-60" d="M151.39,618.44h0a.54.54,0,0,1-.5-.5c0-.3,2.2-27.6,3.7-35.8,1.4-7.8,17.4-97.9,17.4-104.2,0-17.3-7.9-33.3-16.2-50.2-1.2-2.5-2.5-5-3.7-7.6-9.6-19.8-20.1-45.5-20.2-45.8s0-.5.3-.7.5,0,.7.3,10.6,26,20.2,45.7c1.2,2.6,2.5,5.1,3.7,7.6,8.4,17,16.3,33.1,16.3,50.6,0,6.3-16,96.6-17.4,104.3-1.5,8.1-3.7,35.4-3.7,35.7Q151.69,618.44,151.39,618.44Z"/><path class="cls-60" d="M147.29,355.44a.66.66,0,0,1-.5-.4c-.1-.3.1-.5.4-.6,1-.2,24.9-6,31.6-6a.5.5,0,1,1,0,1c-6.6,0-31.1,5.9-31.4,6Z"/><path class="cls-60" d="M127.89,353.44h0c-.4-.1-.5-.3-.5-.6s4.8-25.7,4.5-30.2a.5.5,0,0,1,1,0c.4,4.7-4.3,29.5-4.5,30.5A.85.85,0,0,1,127.89,353.44Z"/><path class="cls-60" d="M129.19,402.14h0a.47.47,0,0,1-.5-.5l.9-45a.5.5,0,0,1,1,0l-.9,45A.47.47,0,0,1,129.19,402.14Z"/><path class="cls-60" d="M146.19,628.44a.47.47,0,0,1-.5-.5c-.1-13.6-4.7-41.9-4.7-42.2a.51.51,0,0,1,1-.2c0,.3,4.6,28.7,4.7,42.3a.56.56,0,0,1-.5.6Z"/><circle class="cls-60" cx="132.69" cy="313.14" r="2.5"/><path class="cls-26" d="M627,273.14s-4.7-3.5-8.3-3.8-8-.8-9.2,1.2c0,0-1.5,2.4,1.9,2.7,0,0-3.4-.3-3.4,1.8a4.15,4.15,0,0,0,2.1,3.6,2.22,2.22,0,0,0-1.1,3.1,10.65,10.65,0,0,0,3.5,3.8l3.8,1.9s-2.2,1.2-.9,2.2,5.7,4.6,6,5.4,1.4-1.6,1-3.3-1.2-2.1-1.2-2.1,1.3-2.8,2.4-4.7,2.2-3.8,1.8-5.3C625.09,277.84,629.19,275.64,627,273.14Z"/><path class="cls-26" d="M617.79,263a8.33,8.33,0,0,1,4.8,1.8c1.8,1.7,3.6,3.6,1.1,6.3a17.25,17.25,0,0,0-6.9-1.9Z"/><path class="cls-61" d="M623.09,277.84a.37.37,0,0,1-.3-.1c-3.9-2.8-10.7-4-10.8-4a.51.51,0,1,1,.2-1c.3,0,7.1,1.2,11.2,4.2a.49.49,0,0,1,.1.7A.76.76,0,0,1,623.09,277.84Z"/><path class="cls-61" d="M620.09,283h-.2c-1.5-.6-8.6-3.9-8.9-4a.51.51,0,1,1,.5-.9c.1,0,7.4,3.4,8.9,4a.45.45,0,0,1,.3.6C620.49,282.84,620.29,283,620.09,283Z"/></g></g></g></svg>