<?xml version="1.0" encoding="utf-8"?>
<!-- Generator: Adobe Illustrator 24.3.0, SVG Export Plug-In . SVG Version: 6.00 Build 0)  -->
<svg version="1.1" xmlns="http://www.w3.org/2000/svg" xmlns:xlink="http://www.w3.org/1999/xlink" x="0px" y="0px"
	 viewBox="0 0 500 500" style="enable-background:new 0 0 500 500;" xml:space="preserve">
<style type="text/css">
	.st0{fill:#F0F0F0;}
	.st1{fill:#E0E0E0;}
	.st2{fill:#27DEBF;}
	.st3{opacity:0.2;}
	.st4{opacity:0.1;}
	.st5{opacity:0.3;}
	.st6{opacity:0.4;}
	.st7{opacity:0.8;fill:#FFFFFF;}
	.st8{fill:none;stroke:#FFFFFF;stroke-width:0.7441;stroke-miterlimit:10;}
	.st9{fill:none;stroke:#FFFFFF;stroke-width:0.7161;stroke-miterlimit:10;}
	.st10{fill:#455A64;}
	.st11{fill:#37474F;}
	.st12{fill:#FAFAFA;}
	.st13{fill:#FFFFFF;}
	.st14{fill:#F5F5F5;}
	.st15{opacity:0.75;fill:#FFFFFF;}
	.st16{opacity:0.4;fill:#FFFFFF;}
	.st17{fill:#F28F8F;}
	.st18{fill:#B16668;}
	.st19{opacity:0.2;fill:#FFFFFF;}
	.st20{opacity:0.1;fill:#FFFFFF;}
	.st21{fill:none;stroke:#FFFFFF;stroke-width:0.7441;stroke-linecap:round;stroke-linejoin:round;stroke-miterlimit:10;}
	.st22{fill:#263238;}
	.st23{fill:#EBEBEB;}
	.st24{opacity:0.7;fill:#FFFFFF;}
	.st25{opacity:5.000000e-02;}
	.st26{fill:#F0997A;}
	.st27{fill:#FFA8A7;}
	.st28{fill:#FFBDA7;}
</style>
<g id="Floor">
	<ellipse id="Floor_11_" class="st0" cx="252" cy="344.9" rx="238.5" ry="140.1"/>
</g>
<g id="Shadows">
	<path id="Shadow_40_" class="st1" d="M30.4,383l52.5,30.3c1.2,0.7,3.1,0.7,4.3,0l251.3-145.1c1.2-0.7,1.2-1.8,0-2.5l-52.3-30.5
		c-1.2-0.7-3.1-0.7-4.3,0L30.4,380.5C29.2,381.2,29.2,382.4,30.4,383z"/>
	<path id="Shadow_39_" class="st1" d="M353.7,252.5c-6.2,3.5-6.3,9.3-0.1,12.9c6.1,3.6,16.2,3.7,22.4,0.2c6.2-3.5,6.3-9.3,0.1-12.9
		C369.9,249.1,359.9,249,353.7,252.5z"/>
	<path id="Shadow_38_" class="st1" d="M434.3,269l-6.1-3.5c-1.8-1.1-4.8-1.1-6.7,0l-2.1,1.2l-7.9-4.6c-0.7-0.4-1.9-0.4-2.6,0l-0.1,0
		c-0.7,0.4-0.7,1.1,0,1.5l7.9,4.6l-0.4,0.3c-1.8,1.1-1.8,2.8,0,3.9l6.1,3.5l8.9,5.2l11.9-6.9L434.3,269z"/>
	<path id="Shadow_37_" class="st1" d="M327.8,306l58.5-33.8c1.4-0.8,3.7-0.8,5.1,0l38.7,22.3c1.4,0.8,1.4,2.1,0,2.9l-58.5,33.8
		c-1.4,0.8-3.7,0.8-5.1,0l-38.7-22.3C326.4,308.1,326.4,306.8,327.8,306z"/>
	<path id="Shadow_36_" class="st1" d="M372.7,377.5c-1,0-1.9-0.6-2.4-1.4l-1-1.9c0,0-0.1-0.1-0.2-0.1c-0.9-0.1-1.8-0.2-2.7-0.3
		c0,0,0,0,0,0c-0.3,0-0.5,0.1-0.6,0.1l-2.6,1.8c-0.5,0.3-1.1,0.5-1.7,0.5c-0.4,0-0.8-0.1-1.1-0.2l-3.9-1.6c-0.6-0.3-1.1-0.8-1.2-1.4
		c-0.1-0.6,0.1-1.3,0.5-1.8l1.4-1.4c-0.3-0.2-0.5-0.5-0.7-0.7c-0.1-0.1-0.3-0.2-0.4-0.2l-4.6,0.2c-1.1,0-2.1-0.7-2.4-1.7l-0.7-2.2
		c-0.2-0.6-0.1-1.2,0.2-1.7c0.3-0.5,0.8-0.9,1.5-1l4.2-0.7c0,0,0-0.1,0-0.1c0.1-0.2,0.1-0.4,0.2-0.6l-2.7-1.4
		c-0.6-0.3-1-0.9-1.1-1.5c-0.1-0.6,0.2-1.3,0.7-1.7l2.5-2.1c0.5-0.4,1.2-0.7,1.9-0.7c0.3,0,0.6,0,0.8,0.1l3.8,1.2c0,0,0.1,0,0.2,0
		c0.2,0,0.4,0,0.5-0.1c0.6-0.3,1.3-0.5,1.9-0.7l-0.2-1.6c-0.1-0.6,0.1-1.2,0.5-1.6c0.4-0.5,0.9-0.8,1.5-0.8l4.9-0.5
		c0.1,0,0.2,0,0.2,0c1,0,1.9,0.6,2.4,1.4l1,1.9c0,0,0.1,0.1,0.2,0.1c0.9,0.1,1.8,0.2,2.7,0.3c0,0,0,0,0,0c0.3,0,0.5-0.1,0.6-0.1
		l2.6-1.8c0.5-0.3,1.1-0.5,1.7-0.5c0.4,0,0.8,0.1,1.1,0.2l3.9,1.6c0.6,0.3,1.1,0.8,1.2,1.4c0.1,0.6-0.1,1.3-0.5,1.8l-1.4,1.4
		c0.3,0.2,0.5,0.5,0.7,0.7c0.1,0.1,0.3,0.2,0.4,0.2l4.6-0.2c1.1,0,2.1,0.7,2.4,1.7l0.7,2.2c0.2,0.6,0.1,1.2-0.2,1.7
		c-0.3,0.5-0.8,0.9-1.5,1l-4.2,0.7c0,0,0,0.1,0,0.1c-0.1,0.2-0.1,0.4-0.2,0.6l2.7,1.4c0.6,0.3,1,0.9,1.1,1.5
		c0.1,0.6-0.2,1.3-0.7,1.7l-2.5,2.1c-0.5,0.4-1.2,0.7-1.9,0.7c-0.3,0-0.6,0-0.8-0.1l-3.8-1.2c0,0-0.1,0-0.2,0c-0.2,0-0.4,0-0.5,0.1
		c-0.6,0.3-1.3,0.5-1.9,0.7l0.2,1.6c0.1,0.6-0.1,1.2-0.5,1.6c-0.4,0.5-0.9,0.8-1.5,0.8l-4.9,0.5
		C372.9,377.5,372.8,377.5,372.7,377.5z M371.4,359.5c-2.8,0-5.3,0.8-6.9,2c-0.6,0.5-1.3,1.3-1.2,2.3c0.2,1.1,1.4,2.2,3.2,2.9
		c1.4,0.6,3.1,0.9,4.8,0.9c2.8,0,5.3-0.8,6.9-2c0.6-0.5,1.3-1.3,1.2-2.3c-0.2-1.1-1.4-2.2-3.2-2.9
		C374.9,359.8,373.2,359.5,371.4,359.5z"/>
	<path id="Shadow_34_" class="st1" d="M426.2,374.2c-1.1,0-2.1-0.8-2.4-2l-0.9-4.6c-2-0.3-3.8-0.8-5.6-1.3c0,0-0.1,0-0.2,0
		c-0.2,0-0.4,0-0.4,0.1l-7.1,3.3c-0.4,0.2-0.8,0.3-1.3,0.3c-0.6,0-1.1-0.1-1.5-0.4l-7-4c-0.6-0.3-1-0.9-1-1.6c0-0.6,0.3-1.2,0.8-1.6
		l5-3.6c-0.7-0.8-1.3-1.7-1.7-2.5c0,0-0.1-0.1-0.2-0.1l-9.3-0.6c-1.2-0.1-2.1-1.1-2.1-2.3v-5.2c0-1.2,0.9-2.2,2.1-2.3l9.3-0.6
		c0,0,0.1-0.1,0.2-0.1c0.5-0.9,1.1-1.7,1.7-2.5l-5-3.6c-0.6-0.4-0.9-1-0.8-1.6c0-0.6,0.4-1.2,1-1.6l7-4c0.4-0.2,1-0.4,1.5-0.4
		c0.5,0,0.9,0.1,1.3,0.3l7.1,3.3c0,0,0.2,0.1,0.4,0.1c0.2,0,0.2,0,0.2,0c1.8-0.6,3.7-1,5.6-1.3l0.9-4.6c0.2-1.1,1.2-2,2.4-2h10.3
		c1.1,0,2.1,0.8,2.4,2l0.9,4.6c2,0.3,3.8,0.8,5.6,1.3c0,0,0.1,0,0.2,0c0.2,0,0.4,0,0.4-0.1l7.1-3.3c0.4-0.2,0.8-0.3,1.3-0.3
		c0.6,0,1.1,0.1,1.5,0.4l7,4c0.6,0.3,1,0.9,1,1.6c0,0.6-0.3,1.2-0.8,1.6l-5,3.6c0.7,0.8,1.3,1.7,1.7,2.5c0,0,0.1,0.1,0.2,0.1
		l9.3,0.6c1.2,0.1,2.1,1.1,2.1,2.3v5.2c0,1.2-0.9,2.2-2.1,2.3l-9.3,0.6c0,0-0.1,0.1-0.2,0.1c-0.5,0.9-1.1,1.7-1.7,2.5l5,3.6
		c0.6,0.4,0.9,1,0.8,1.6c0,0.6-0.4,1.2-1,1.6l-7,4c-0.4,0.2-1,0.4-1.5,0.4c-0.5,0-0.9-0.1-1.3-0.3l-7.1-3.3c0,0-0.2-0.1-0.4-0.1
		c-0.2,0-0.2,0-0.2,0c-1.8,0.6-3.7,1-5.6,1.3l-0.9,4.6c-0.2,1.1-1.2,2-2.4,2H426.2z M431.4,342.2c-4.2,0-8.2,0.9-11.1,2.6
		c-2.7,1.6-4.2,3.6-4.2,5.7c0,2.1,1.5,4.1,4.2,5.7c3,1.7,6.9,2.6,11.1,2.6c4.2,0,8.2-0.9,11.1-2.6c2.7-1.6,4.2-3.6,4.2-5.7
		s-1.5-4.1-4.2-5.7C439.6,343.2,435.6,342.2,431.4,342.2z"/>
	<path id="Shadow_33_" class="st1" d="M280.6,352.3l32.2-18.6c1.2-0.7,1.2-1.8,0-2.5l-7.9-4.5c-1.2-0.7-3.1-0.7-4.3,0l-32.2,18.6
		c-1.2,0.7-1.2,1.8,0,2.5l2.5,1.5L236.5,369c-1.2,0.7-1.5,1.6-0.7,2.1c0.8,0.5,2.4,0.3,3.6-0.4l34.4-19.9l2.4,1.4
		C277.5,353,279.4,353,280.6,352.3z"/>
	<ellipse id="Shadow_31_" class="st1" cx="161.4" cy="443.5" rx="40" ry="20.8"/>
	<ellipse id="Shadow_30_" class="st1" cx="222.1" cy="422" rx="18.4" ry="9.6"/>
	<path id="Shadow_29_" class="st1" d="M266.1,384.6c-3.4,0-6.7-0.8-9.1-2.2c-0.1-0.1-0.3-0.2-0.4-0.3c-0.7-0.4-1-1.2-0.8-1.9
		c0.1-0.3,0.4-1.3,1.8-1.5l9.2-1.4l0.5-1l-2.2-1.3l-9.1,1.3c-0.1,0-0.2,0-0.3,0c-0.8,0-1.5-0.4-1.9-1.1c-0.4-0.7-0.4-1.6,0.1-2.2
		c0.7-1.2,1.9-2.2,3.3-3c2.4-1.4,5.6-2.1,9-2.1c1.3,0,2.5,0.1,3.7,0.3l38.5-22.2c-0.3-1-0.3-2-0.1-3c0.5-1.9,1.9-3.6,4.1-4.8
		c2.4-1.4,5.6-2.1,9-2.1c3.4,0,6.7,0.8,9.1,2.2c0.1,0.1,0.3,0.2,0.4,0.3c0.6,0.4,1,1.2,0.8,1.9c-0.1,0.3-0.4,1.3-1.8,1.5l-9.2,1.4
		l-0.5,1l2.2,1.3l9.1-1.3c0.1,0,0.2,0,0.3,0c0.8,0,1.5,0.4,1.9,1.1c0.4,0.7,0.4,1.6-0.1,2.2c-0.7,1.2-1.9,2.2-3.3,3
		c-2.4,1.4-5.6,2.1-9,2.1c-1.3,0-2.5-0.1-3.7-0.3l-38.5,22.2c0.3,1,0.3,2,0.1,3c-0.5,1.9-1.9,3.6-4.1,4.8
		C272.7,383.9,269.5,384.6,266.1,384.6z"/>
</g>
<g id="Panel">
	<g id="Plan">
		<g>
			<path class="st2" d="M337.4,262.3v3.3L85.2,411.2l-1.4-0.8c-17.4-10-28.2-28.7-28.2-48.8V178.5L307.8,32.9l2.8,1.6V216
				C310.6,235.1,320.8,252.8,337.4,262.3z"/>
			<path class="st2" d="M337.4,262.3L85.2,407.9c-16.5-9.6-26.7-27.2-26.7-46.3V180.1L310.6,34.5V216
				C310.6,235.1,320.8,252.8,337.4,262.3z"/>
			<path class="st3" d="M337.4,262.3L85.2,407.9c-16.5-9.6-26.7-27.2-26.7-46.3V180.1L310.6,34.5V216
				C310.6,235.1,320.8,252.8,337.4,262.3z"/>
			<polygon class="st4" points="55.7,178.5 58.5,180.1 310.6,34.5 307.8,32.9 			"/>
			<path class="st5" d="M58.5,361.6V180.1l-2.8-1.6v183.1c0,20.1,10.8,38.7,28.2,48.8l1.4,0.8v-3.3
				C68.7,398.4,58.5,380.7,58.5,361.6z"/>
			<polygon class="st6" points="85.2,407.9 85.2,411.2 337.4,265.6 337.4,262.3 			"/>
		</g>
		<g id="Tape_1_">
			<polygon class="st2" points="307.6,63.1 304.8,64.4 304.7,60.7 301.9,62 301.8,58.3 299,59.6 298.9,55.9 296.2,57.2 296,53.5 
				293.3,54.8 293.1,51.1 309.7,18.9 312.5,17.6 312.6,21.3 315.4,20 315.5,23.7 318.2,22.4 318.4,26.1 321.1,24.8 321.3,28.5 
				324,27.2 324.1,30.9 			"/>
			<polygon class="st7" points="307.6,63.1 304.8,64.4 304.7,60.7 301.9,62 301.8,58.3 299,59.6 298.9,55.9 296.2,57.2 296,53.5 
				293.3,54.8 293.1,51.1 309.7,18.9 312.5,17.6 312.6,21.3 315.4,20 315.5,23.7 318.2,22.4 318.4,26.1 321.1,24.8 321.3,28.5 
				324,27.2 324.1,30.9 			"/>
		</g>
		<g id="Tape">
			<polygon class="st2" points="35.6,173 34.8,169.6 37.4,169.1 36.7,165.7 39.3,165.2 38.5,161.8 41.2,161.3 40.4,157.9 43,157.4 
				42.3,154 44.9,153.5 75.6,181 76.3,184.4 73.7,184.9 74.4,188.3 71.8,188.8 72.6,192.2 70,192.7 70.7,196.1 68.1,196.6 68.9,200 
				66.2,200.5 			"/>
			<polygon class="st7" points="35.6,173 34.8,169.6 37.4,169.1 36.7,165.7 39.3,165.2 38.5,161.8 41.2,161.3 40.4,157.9 43,157.4 
				42.3,154 44.9,153.5 75.6,181 76.3,184.4 73.7,184.9 74.4,188.3 71.8,188.8 72.6,192.2 70,192.7 70.7,196.1 68.1,196.6 68.9,200 
				66.2,200.5 			"/>
		</g>
		<g id="Mobile">
			<path id="XMLID_654_" class="st8" d="M151.4,176.6l-55.6,32.1c-1,0.6-1.9,2.1-1.9,3.3v133.3c0,1.2,0.8,1.7,1.9,1.1l55.6-32.1
				c1-0.6,1.9-2.1,1.9-3.3V177.7C153.3,176.5,152.5,176,151.4,176.6z"/>
			<path id="XMLID_653_" class="st9" d="M149.6,302.6c0,1-0.7,1.6-1.6,2.1L99,333c-0.9,0.5-1.6,0.1-1.6-0.9V224.7
				c0-1,0.7-2.2,1.6-2.7l49-28.3c0.9-0.5,1.6-0.1,1.6,0.9V302.6z"/>
			<g id="XMLID_625_">
				<path id="XMLID_647_" class="st8" d="M123.5,196.8c0.7-0.4,1.3-0.1,1.3,0.7s-0.6,1.8-1.3,2.2c-0.7,0.4-1.3,0.1-1.3-0.7
					C122.2,198.2,122.8,197.2,123.5,196.8z"/>
				<path id="XMLID_646_" class="st8" d="M116.7,205.8l13.6-7.9c0.6-0.3,1.1-0.1,1.1,0.5c0,0.6-0.5,1.4-1.1,1.7l-13.6,7.9
					c-0.6,0.3-1.1,0.1-1.1-0.5C115.7,206.9,116.1,206.2,116.7,205.8z"/>
			</g>
		</g>
		<g id="Note">
			<polygon id="XMLID_4250_" class="st4" points="281.2,102.2 281.2,170.8 338,138 338,69.4 			"/>
			<g id="XMLID_4406_">
				<g id="XMLID_14190_">
					<path id="XMLID_4408_" class="st10" d="M344.5,141.4c0,0-33.5,18.8-37.7,21.1c-4.2,2.3-7-4.4-7-8.5c-4.2,2.7-12.9,4.4-13.3-1
						l-3-39.1l56.8-32.8L344.5,141.4z"/>
					<polygon id="XMLID_14191_" class="st11" points="340.3,81.1 283.5,113.9 283.5,103.3 340.3,70.5 					"/>
					<polygon id="XMLID_4399_" class="st11" points="288.3,155.8 303.8,162.6 299,150 					"/>
				</g>
			</g>
			<g>
				<path class="st12" d="M309.5,143.2c-0.1-0.4-0.3-0.6-0.6-0.4c-1.3,0.7-2.5,1.6-3.8,2.4c1-1.8,2.1-3.7,2.7-5.8
					c0.3-1.3,0.4-2.9-0.1-3.7c-0.5-0.7-1.4-0.6-2.1,0.1c-0.4,0.3-0.8,0.8-1,1.4c-0.3,0.7-0.4,1.4-0.4,2.1c0,0.3,0.3,0.3,0.3-0.1
					c0.1-0.9,0.8-1.8,1.2-2.2c0.3-0.2,0.6-0.4,0.8-0.5c0.1,0,0.2,0,0.2,0c0.1,0,0,0,0.1,0c0,0,0,0,0.1,0c0,0,0,0,0,0c0,0,0,0,0,0
					c0,0,0,0,0,0c0,0,0,0,0,0c0.1,0.3,0.1,0.8,0,1.3c-0.1,0.5-0.2,1.1-0.4,1.6c-0.4,1.2-1,2.3-1.5,3.4c-0.6,1.2-1.3,2.3-1.9,3.4
					c-0.4,0.8,0.1,1.4,0.5,1.1c1.8-1,3.6-2.3,5.5-3.3C309.3,144,309.5,143.6,309.5,143.2z"/>
				<path class="st12" d="M315.1,139.5c-0.1-0.6-0.3-1.1-0.4-1.7c-0.1-0.7-0.2-1.4-0.2-2.2c0-0.3,0-0.7,0-1c0.2-0.3,0.3-0.7,0.4-1.1
					c0.2-1.1-0.1-2.1-0.3-2.8c-0.2-0.6-1.1-0.5-1.1,0.6c0,1-0.1,2,0,3c0,0,0,0,0,0c-0.1,0.1-0.2,0.2-0.3,0.3
					c0.1-0.1-0.2,0.1-0.2,0.2c-0.1,0.1-0.2,0.2-0.3,0.3c-0.3,0.2-0.4,0.3-0.7,0.4c-0.2,0.1-0.4,0.2-0.7,0.4c0-0.3,0.1-0.5,0.1-0.8
					c0-0.7,0-1.6-0.3-2.1c-0.1-0.2-0.3-0.4-0.5,0c-0.3,0.7-0.2,1.4-0.3,2c-0.1,0.7-0.2,1.3-0.4,1.9c-0.3,0.8,0.3,1.1,0.7,0.9
					c1-0.6,2-0.9,2.9-1.8c0,0.1,0,0.1,0,0.2c0,0.8,0.1,1.6,0.2,2.4c0.1,0.7,0.2,1.5,0.5,1.9c0.2,0.2,0.4,0.4,0.7,0.1
					C315.1,140.3,315.2,139.9,315.1,139.5z"/>
				<path class="st12" d="M321.7,135.3c-0.1-0.2-0.3-0.4-0.5-0.6c-0.2-0.2-0.3-0.4-0.5-0.6c-0.2-0.2-0.3-0.5-0.5-0.7
					c0.1-0.2,0.1-0.3,0.2-0.5c0.2-0.6,0.4-1.3,0.6-1.9c0.2-0.6,0.3-1.2,0.5-1.8c0.1-0.3,0.1-0.6,0.2-0.8c0.1-0.5-0.2-1.2-0.6-0.6
					c-0.8,1.3-1.3,2.9-1.8,4.4c-0.6-0.7-1.1-1.3-1.8-1.8c-0.4-0.3-0.6,0.7-0.3,1c0.4,0.5,0.7,1.1,1,1.6c0.2,0.3,0.4,0.6,0.6,0.9
					c-0.3,0.9-0.6,1.9-0.9,2.8c-0.2,0.6-0.1,1.1,0.2,1.2c0.3,0.1,0.8-0.1,1-0.7c0.2-0.6,0.4-1.2,0.6-1.9c0.1,0.1,0.1,0.2,0.2,0.3
					c0.1,0.2,0.3,0.4,0.4,0.6c0.1,0.2,0.3,0.5,0.5,0.6c0.2,0.1,0.6,0.2,0.8-0.3C321.9,136,321.9,135.6,321.7,135.3z"/>
				<path class="st12" d="M326.4,132.9c0-0.1,0-0.1,0-0.2c0,0,0,0,0,0c0-0.3,0-0.5,0-0.8c0-0.4,0-0.7,0-1.1c0-0.7,0-1.4,0-2.1
					c0-0.8-0.1-1.6-0.1-2.3c0-0.3-0.1-0.7-0.2-1c-0.2-0.6-0.3-0.9-0.7-1c-0.1,0-0.2,0-0.3,0.2c-0.4,0.7-0.3,1.5-0.3,2.1
					c0,0.3,0,0.6,0,0.9c0,0.6,0,1.3,0,2c0,1.3,0,2.6,0,3.9C324.9,134.7,326.3,134.1,326.4,132.9
					C326.4,132.9,326.4,132.9,326.4,132.9z"/>
				<path class="st12" d="M332.1,122.5c-0.6,0-1.1,0.4-1.7,0.8c-0.1,0.1-0.1,0.1-0.2,0.1c0,0,0-0.1,0-0.1c0-0.2,0.1-0.4,0.1-0.5
					c0,0,0-0.1,0.1-0.2c0-0.1,0.1-0.2,0.1-0.3c0.1-0.1,0.2-0.2,0.2-0.4c0.5-0.7,1.2-0.9,1.7-1.1c0.3-0.1,0.5-0.3,0.6-0.8
					c0-0.5-0.2-0.7-0.5-0.7c-1.1,0.1-2.5,0.8-3.3,2.7c-0.4,0.9-0.6,2.1-0.4,2.8c0.2,0.8,0.7,0.9,1.3,0.7c0.3-0.1,0.5-0.3,0.8-0.5
					c0.1-0.1,0.2-0.1,0.3-0.2c0.1,0,0.1-0.1,0.2-0.1c0,0,0,0,0,0c0,0,0.1,0,0.1-0.1c0.1,0,0.2-0.1,0.3-0.1c0,0,0.1,0,0.2,0
					c0,0,0.1,0,0.1,0c0,0,0.1,0,0.1,0.1c0,0,0.1,0.1,0.1,0.1c0.1,0,0.1,0.1,0.2,0.2c0,0,0.1,0.1,0.1,0.1c0,0.1,0.1,0.1,0.1,0.2
					c0,0.1,0.1,0.2,0.1,0.3c0.1,0.3,0.1,0.7,0.1,1.1c0-0.2,0,0.2-0.1,0.3c0,0.1,0,0.2-0.1,0.2c0,0-0.1,0.2-0.1,0.2
					c-0.1,0.3-0.1,0.2-0.2,0.4c-0.1,0.1-0.1,0.2-0.2,0.3c0,0,0,0.1,0,0.1c0,0,0,0,0,0c-0.1,0.2-0.3,0.3-0.4,0.4c0,0-0.1,0.1-0.1,0.1
					c-0.1,0.1-0.2,0.1-0.3,0.2c0,0-0.1,0.1-0.1,0.1c0,0-0.1,0-0.1,0c0,0-0.1,0-0.1,0c-0.2,0.1-0.3,0.1-0.5,0.2c0,0,0,0,0,0
					c0,0,0,0,0,0c-0.1,0-0.2,0-0.3,0c0,0-0.1,0-0.1,0c0,0,0,0-0.1,0c0,0,0,0-0.1,0c-0.4-0.1-0.7-0.2-1.1-0.3c-0.1,0-0.1,0-0.2,0.1
					c-0.5,1.2,0,1.7,0.3,2c0.1,0,0.1,0.1,0.2,0.1c0.1,0.1,0.3,0.1,0.4,0.1c0.3,0.1,0.6,0,0.9,0c0.6-0.1,1.2-0.5,1.8-1
					c1.1-1,2.1-2.8,2-4.7C334,123.8,333.2,122.4,332.1,122.5z"/>
			</g>
			<g>
				<path class="st12" d="M308,110.9c0,0.6-0.4,1.3-0.9,1.6c-0.1,0.1-0.2,0-0.5,0.1c-0.5,0.1-1.1,0.3-1.7,0.7
					c-1.4,0.8-3.4,2.4-3.4,4.5c0,1.6,1.5,0.8,2.9,0l0.7-0.4c1.1-0.6,2.3-1.3,3.3-0.9c1.3,0.5,1.5,2.5,1.5,3.6c0,4.5-3.1,8.2-5.5,9.6
					c-1.2,0.7-3,1.3-3.9,0c-0.2-0.2-0.4-0.7-0.4-1.1c0-0.5,0.3-1,0.7-1.2c0.4-0.2,0.7-0.1,0.9,0.3l0.1,0.1c0.7,0.7,1.8,0.2,2.7-0.3
					c1-0.5,2.1-1.5,3-2.9c0.8-1.2,1.1-2.5,1.1-3.7c0-0.9-0.3-1.9-1-2.1c-0.4-0.1-0.9,0-1.4,0.2c-1.1,0.5-2.1,1.2-3.1,1.6
					c-1.2,0.5-2.9,0.8-2.9-2.1c0-2.8,1.6-4.9,3-6.2c0.6-0.6,1.3-1,1.9-1.4C305.9,110.5,308,109.4,308,110.9z"/>
				<path class="st12" d="M313.7,113.1c0,0.1,0,0.3,0,0.4l0,4.7c0,0.6,0,1.1,0,1.7v1.8c0,0.3,0,0.5,0,0.7v0.3c0,0.1,0,0.2,0,0.2
					c0,0.7-0.3,1.1-0.6,1.3l-0.1,0.1c-0.6,0.3-0.8-0.2-0.8-0.8c0-0.3,0-0.6,0-0.8l0-1.1c0-0.8,0-1.6,0-2.4v-0.6c0-1.3,0-2.6-0.1-3.9
					v-0.3c0-0.4,0-0.8,0.2-1.3c0.1-0.3,0.4-0.6,0.6-0.8C313.4,111.9,313.7,112.3,313.7,113.1z M313.8,107.4c0,0.1,0.1,0.3,0.1,0.5
					c0,0.5-0.2,1-0.5,1.4c-0.1,0.1-0.2,0.2-0.3,0.3c-0.3,0.2-0.7,0.1-0.8-0.5c0-0.1,0-0.2,0-0.3c0-0.4,0.1-1,0.4-1.4
					c0.1-0.2,0.3-0.3,0.4-0.3C313.4,106.8,313.7,107,313.8,107.4z"/>
				<path class="st12" d="M323,116.9c0,1.2-0.8,1.7-1.6,2.2c-1.9,1.1-3,2.1-3.9,2.6l-0.2,0.1l-0.1,0c-0.1,0.1-0.2,0.2-0.2,0.3
					c-0.4,0.3-0.8-0.2-0.8-0.8c0-0.2,0-0.5,0.1-0.7c0.1-0.4,1.1-2.6,1.3-3.2l2.8-7.2l-0.1,0.1c-3.8,2.5-2.1,1.5-3,2
					c-0.6,0.4-0.9-0.1-0.9-0.8c0-0.5,0.2-1.1,0.8-1.5c0.1-0.1,1-0.5,1.5-0.8c0.3-0.2,0.7-0.4,1-0.6c0.7-0.4,1.9-1.4,2.2-1.6
					c0.1,0,0.1-0.1,0.2-0.1c0.5-0.2,0.8,0,0.8,0.6c0,0.4-0.2,0.9-0.4,1.4c-1.5,3.5-3.1,7.5-4,9.9l0,0.1l1.3-0.8l1.1-0.8
					c0.5-0.3,1.7-1.3,1.8-1.3C322.8,115.8,323,116.2,323,116.9z"/>
				<path class="st12" d="M332.1,107.2c-0.1,0.2-0.1,0.5-0.3,0.7c-0.2,0.3-0.5,0.4-1,0.8c-4.5,3-3.4,2.3-4.5,3.1L326,112
					c0.2,1.6,1.2,2,2.3,1.4c0.2-0.1,0.7-0.4,1.1-1c0.4-0.6,0.7-1.3,1.1-1.5c0.3-0.2,1-0.1,1,0.7c0,0.6-0.3,1-0.4,1.2
					c-0.7,1.3-1.5,2.2-2.6,2.8c-0.6,0.4-1.7,0.6-2.5,0c-0.8-0.6-1.2-1.9-1.2-3.5c0-2.9,1.3-6.6,3.2-8.5c0.3-0.3,0.7-0.6,1-0.8
					c2.4-1.4,3.4,2.2,3.4,3.8C332.2,106.8,332.2,107,332.1,107.2z M326.9,109.2c0.7-0.4,2-1.1,3.5-2.4l0.1-0.1
					c-0.2-1.5-0.8-2.3-1.9-1.7c-1,0.5-2.2,2.3-2.6,4.6L326.9,109.2z"/>
			</g>
		</g>
		<g id="Image">
			<path id="XMLID_879_" class="st4" d="M337.1,155.9l-54.9,31.7c-0.7,0.4-1.3,1.4-1.3,2.2l0,52.3c0,0.8,0.6,1.1,1.3,0.7l54.9-31.7
				c0.7-0.4,1.3-1.4,1.3-2.2l0-52.3C338.4,155.8,337.8,155.5,337.1,155.9z"/>
			<g>
				<g id="XMLID_2885_">
					<path id="XMLID_2903_" class="st1" d="M339.9,157.5L285,189.2c-0.7,0.4-1.3,1.4-1.3,2.2v52.3c0,0.8,0.6,1.8,1.3,2.2l0.8,0.5
						c0.7,0.4,1.9,0.4,2.6,0l54.9-31.7c0.7-0.4,1.3-1.4,1.3-2.2l0-52.3c0-0.8-0.6-1.8-1.3-2.2l-0.8-0.5
						C341.7,157,340.6,157,339.9,157.5z"/>
					<path id="XMLID_620_" class="st13" d="M344.5,159.8c-0.2-0.5-0.7-0.7-1.2-0.4l-54.9,31.7c-0.4,0.2-0.7,0.6-0.9,1l-3.4-2
						c0.2-0.4,0.5-0.8,0.9-1l54.9-31.7c0.7-0.4,1.9-0.4,2.6,0l0.8,0.5C343.8,158.3,344.3,159,344.5,159.8z"/>
					<path id="XMLID_2887_" class="st14" d="M343.2,159.4l-54.9,31.7c-0.7,0.4-1.3,1.4-1.3,2.2l0,52.3c0,0.8,0.6,1.2,1.3,0.7
						l54.9-31.7c0.7-0.4,1.3-1.4,1.3-2.2l0-52.3C344.5,159.3,343.9,159,343.2,159.4z"/>
				</g>
				<g id="XMLID_2881_">
					<polygon id="XMLID_2882_" class="st2" points="290.4,193.8 341.1,164.5 341.1,211.4 290.4,240.7 					"/>
					<polygon id="XMLID_2883_" class="st15" points="290.4,193.8 341.1,164.5 341.1,211.4 290.4,240.7 					"/>
				</g>
				<g>
					<polygon id="XMLID_4177_" class="st2" points="290.4,225 304.9,200.2 324.6,214.9 319.8,209.6 330.3,195.7 341.1,202.6 
						341.1,211.4 290.4,240.7 					"/>
					<path id="XMLID_4242_" class="st2" d="M325.9,181.6c-1.9,1.1-3.4,3.7-3.4,5.9c0,2.2,1.5,3,3.4,2c1.9-1.1,3.4-3.7,3.4-5.9
						C329.3,181.4,327.8,180.5,325.9,181.6z"/>
				</g>
			</g>
		</g>
		<g id="Colors">
			<g id="Shadow_28_">
				<path class="st4" d="M255.1,118.2V137c0,1.6-1.1,3.6-2.5,4.4l-16.3,9.4c-0.2,0.1-0.4,0.2-0.6,0.3c-0.1,0-0.2,0.1-0.3,0.1
					c0,0,0,0-0.1,0c-0.2,0-0.3,0.1-0.5,0.1c0.2,0,0.3-0.1,0.5-0.1c0.1,0,0.2-0.1,0.4-0.1c-0.1,0-0.1,0-0.2,0c0,0-0.1,0-0.2,0
					c-0.9,0.1-1.6-0.6-1.6-1.8v-18.8c0-0.8,0.3-1.7,0.7-2.5c0.5-0.8,1.1-1.5,1.8-1.9l16.3-9.4c1.2-0.7,2.3-0.3,2.5,1
					C255.1,117.9,255.1,118,255.1,118.2z"/>
				<path class="st4" d="M255.1,155.8v18.8c0,1.6-1.1,3.6-2.5,4.4l-16.3,9.4c-0.1,0.1-0.3,0.2-0.5,0.2c-0.1,0-0.2,0.1-0.3,0.1
					c0,0-0.1,0-0.2,0c-0.9,0.1-1.6-0.6-1.6-1.8v-18.8c0-0.8,0.3-1.7,0.7-2.5c0.5-0.8,1.1-1.5,1.8-1.9l16.3-9.4
					c1.2-0.7,2.3-0.3,2.5,0.9c0,0,0,0.1,0,0.1C255.1,155.5,255.1,155.7,255.1,155.8z"/>
				<path class="st4" d="M255.1,193.4v18.8c0,1.6-1.1,3.6-2.5,4.4l-16.3,9.4c-0.2,0.1-0.4,0.2-0.6,0.3c-0.1,0-0.1,0-0.2,0.1
					c0,0,0.1,0,0.2-0.1c-0.1,0-0.1,0-0.2,0c0,0-0.1,0-0.2,0c-0.9,0.1-1.6-0.6-1.6-1.8v-18.8c0-0.8,0.3-1.7,0.7-2.5
					c0.5-0.8,1.1-1.5,1.8-1.9l16.3-9.4c1.3-0.7,2.3-0.3,2.5,1C255.1,193.1,255.1,193.3,255.1,193.4z"/>
				<path class="st4" d="M255.1,231v18.8c0,1.6-1.1,3.6-2.5,4.4l-16.3,9.4c-0.2,0.1-0.4,0.2-0.6,0.3c-0.1,0-0.2,0.1-0.3,0.1
					c0,0,0,0-0.1,0c-0.1,0-0.1,0-0.2,0c0.1,0,0.1,0,0.2-0.1c0.1,0,0.2-0.1,0.4-0.1c-0.1,0-0.1,0-0.2,0c0,0-0.1,0-0.2,0
					c-0.9,0.1-1.6-0.6-1.6-1.8v-18.8c0-0.8,0.3-1.7,0.7-2.5c0.5-0.8,1.1-1.5,1.8-1.9l16.3-9.4c1.3-0.7,2.3-0.3,2.5,1
					C255.1,230.7,255.1,230.9,255.1,231z"/>
			</g>
			<g id="XMLID_875_">
				<path id="XMLID_878_" class="st2" d="M266.2,123.6c0-1.6-1.1-3.6-2.5-4.4l-2.1-1.2c-1.4-0.8-3.7-0.8-5.1,0l-16.3,9.4
					c-0.7,0.4-1.3,1.1-1.8,1.9c-0.5,0.8-0.7,1.7-0.7,2.5v18.8c0,1.6,1.1,3.6,2.5,4.4l2.1,1.2c0.2,0.1,0.3,0.2,0.5,0.3
					c0.1,0,0.1,0,0.2,0.1c0.1,0,0.2,0.1,0.4,0.1c0.1,0,0.2,0,0.3,0.1c0.1,0,0.2,0,0.3,0.1c0.1,0,0.2,0,0.4,0c0.1,0,0.2,0,0.3,0
					c0.1,0,0.3,0,0.4,0c0.1,0,0.1,0,0.2,0c0.2,0,0.3,0,0.5-0.1c0,0,0.1,0,0.1,0c0.2,0,0.3-0.1,0.5-0.1c0,0,0,0,0.1,0
					c0.3-0.1,0.7-0.2,0.9-0.4l16.3-9.4c1.4-0.8,2.5-2.8,2.5-4.4L266.2,123.6z"/>
				<path id="XMLID_877_" class="st16" d="M266.2,123.1c-0.2-1.3-1.2-1.8-2.5-1l-16.3,9.4c-0.7,0.4-1.3,1.1-1.8,1.9l-7.1-4.1
					c0.5-0.8,1.1-1.5,1.8-1.9l16.3-9.4c1.4-0.8,3.7-0.8,5.1,0l2.1,1.2C264.9,119.9,266,121.6,266.2,123.1z"/>
				<path id="XMLID_876_" class="st4" d="M246.9,156.4c0,0-0.1,0-0.2,0.1c-0.1,0-0.2,0.1-0.4,0.1c-0.3,0.1-0.7,0.2-1,0.2
					c0,0,0,0,0,0c-0.2,0-0.3,0-0.5,0c-0.9,0-1.8-0.2-2.5-0.6l-2.1-1.2c-1.4-0.8-2.5-2.8-2.5-4.4v-18.8c0-0.5,0.1-1,0.3-1.6
					c0.1-0.2,0.2-0.4,0.3-0.6c0.1-0.1,0.1-0.2,0.2-0.3l7.1,4.1c-0.5,0.8-0.7,1.7-0.7,2.5v18.8c0,1.2,0.7,1.9,1.6,1.8
					c0.1,0,0.1,0,0.2,0C246.7,156.4,246.8,156.4,246.9,156.4z"/>
			</g>
			<g id="XMLID_695_">
				<path id="XMLID_872_" class="st17" d="M266.2,161.2c0-1.6-1.1-3.6-2.5-4.4l-2.1-1.2c-1.4-0.8-3.7-0.8-5.1,0l-16.3,9.4
					c-0.7,0.4-1.3,1.1-1.8,1.9c-0.5,0.8-0.7,1.7-0.7,2.5v18.8c0,1.6,1.1,3.6,2.5,4.4l2.1,1.2c0.2,0.1,0.3,0.2,0.5,0.3
					c0.1,0,0.1,0,0.2,0.1c0.1,0,0.2,0.1,0.4,0.1c0.1,0,0.2,0,0.3,0.1c0.1,0,0.2,0,0.3,0.1c0.1,0,0.2,0,0.4,0c0.1,0,0.2,0,0.3,0
					c0.1,0,0.3,0,0.4,0c0.1,0,0.1,0,0.2,0c0.2,0,0.3,0,0.5-0.1c0,0,0.1,0,0.1,0c0.2,0,0.3-0.1,0.5-0.1c0,0,0,0,0.1,0
					c0.3-0.1,0.7-0.2,0.9-0.4l16.3-9.4c1.4-0.8,2.5-2.8,2.5-4.4L266.2,161.2z"/>
				<path id="XMLID_756_" class="st16" d="M266.2,160.7c-0.2-1.3-1.2-1.8-2.5-1l-16.3,9.4c-0.7,0.4-1.3,1.1-1.8,1.9l-7.1-4.1
					c0.5-0.8,1.1-1.5,1.8-1.9l16.3-9.4c1.4-0.8,3.7-0.8,5.1,0l2.1,1.2C264.9,157.5,266,159.2,266.2,160.7z"/>
				<path id="XMLID_696_" class="st4" d="M246.9,194c0,0-0.1,0-0.2,0.1c-0.1,0-0.2,0.1-0.4,0.1c-0.3,0.1-0.7,0.2-1,0.2c0,0,0,0,0,0
					c-0.2,0-0.3,0-0.5,0c-0.9,0-1.8-0.2-2.5-0.6l-2.1-1.2c-1.4-0.8-2.5-2.8-2.5-4.4v-18.8c0-0.5,0.1-1,0.3-1.6
					c0.1-0.2,0.2-0.4,0.3-0.6c0.1-0.1,0.1-0.2,0.2-0.3l7.1,4.1c-0.5,0.8-0.7,1.7-0.7,2.5v18.8c0,1.2,0.7,1.9,1.6,1.8
					c0.1,0,0.1,0,0.2,0C246.7,194.1,246.8,194,246.9,194z"/>
			</g>
			<g id="XMLID_657_">
				<path id="XMLID_691_" class="st18" d="M266.2,198.8c0-1.6-1.1-3.6-2.5-4.4l-2.1-1.2c-1.4-0.8-3.7-0.8-5.1,0l-16.3,9.4
					c-0.7,0.4-1.3,1.1-1.8,1.9c-0.5,0.8-0.7,1.7-0.7,2.5v18.8c0,1.6,1.1,3.6,2.5,4.4l2.1,1.2c0.2,0.1,0.3,0.2,0.5,0.3
					c0.1,0,0.1,0,0.2,0.1c0.1,0,0.2,0.1,0.4,0.1c0.1,0,0.2,0,0.3,0.1c0.1,0,0.2,0,0.3,0.1c0.1,0,0.2,0,0.4,0c0.1,0,0.2,0,0.3,0
					c0.1,0,0.3,0,0.4,0c0.1,0,0.1,0,0.2,0c0.2,0,0.3,0,0.5-0.1c0,0,0.1,0,0.1,0c0.2,0,0.3-0.1,0.5-0.1c0,0,0,0,0.1,0
					c0.3-0.1,0.7-0.2,0.9-0.4l16.3-9.4c1.4-0.8,2.5-2.8,2.5-4.4L266.2,198.8z"/>
				<path id="XMLID_659_" class="st19" d="M266.2,198.3c-0.2-1.3-1.2-1.8-2.5-1l-16.3,9.4c-0.7,0.4-1.3,1.1-1.8,1.9l-7.1-4.1
					c0.5-0.8,1.1-1.5,1.8-1.9l16.3-9.4c1.4-0.8,3.7-0.8,5.1,0l2.1,1.2C264.9,195.1,266,196.8,266.2,198.3z"/>
				<path id="XMLID_658_" class="st5" d="M246.9,231.6c0,0-0.1,0-0.2,0.1c-0.1,0-0.2,0.1-0.4,0.1c-0.3,0.1-0.7,0.2-1,0.2
					c0,0,0,0,0,0c-0.2,0-0.3,0-0.5,0c-0.9,0-1.8-0.2-2.5-0.6l-2.1-1.2c-1.4-0.8-2.5-2.8-2.5-4.4V207c0-0.5,0.1-1,0.3-1.6
					c0.1-0.2,0.2-0.4,0.3-0.6c0.1-0.1,0.1-0.2,0.2-0.3l7.1,4.1c-0.5,0.8-0.7,1.7-0.7,2.5v18.8c0,1.2,0.7,1.9,1.6,1.8
					c0.1,0,0.1,0,0.2,0C246.7,231.7,246.8,231.6,246.9,231.6z"/>
			</g>
			<g id="XMLID_652_">
				<path id="XMLID_656_" class="st10" d="M266.2,236.4c0-1.6-1.1-3.6-2.5-4.4l-2.1-1.2c-1.4-0.8-3.7-0.8-5.1,0l-16.3,9.4
					c-0.7,0.4-1.3,1.1-1.8,1.9c-0.5,0.8-0.7,1.7-0.7,2.5v18.8c0,1.6,1.1,3.6,2.5,4.4l2.1,1.2c0.2,0.1,0.3,0.2,0.5,0.3
					c0.1,0,0.1,0,0.2,0.1c0.1,0,0.2,0.1,0.4,0.1c0.1,0,0.2,0,0.3,0.1c0.1,0,0.2,0,0.3,0.1c0.1,0,0.2,0,0.4,0c0.1,0,0.2,0,0.3,0
					c0.1,0,0.3,0,0.4,0c0.1,0,0.1,0,0.2,0c0.2,0,0.3,0,0.5-0.1c0,0,0.1,0,0.1,0c0.2,0,0.3-0.1,0.5-0.1c0,0,0,0,0.1,0
					c0.3-0.1,0.7-0.2,0.9-0.4l16.3-9.4c1.4-0.8,2.5-2.8,2.5-4.4L266.2,236.4z"/>
				<path id="XMLID_655_" class="st20" d="M266.2,236c-0.2-1.3-1.2-1.8-2.5-1l-16.3,9.4c-0.7,0.4-1.3,1.1-1.8,1.9l-7.1-4.1
					c0.5-0.8,1.1-1.5,1.8-1.9l16.3-9.4c1.4-0.8,3.7-0.8,5.1,0l2.1,1.2C264.9,232.7,266,234.4,266.2,236z"/>
				<path id="XMLID_2127_" class="st6" d="M246.9,269.2c0,0-0.1,0-0.2,0.1c-0.1,0-0.2,0.1-0.4,0.1c-0.3,0.1-0.7,0.2-1,0.2
					c0,0,0,0,0,0c-0.2,0-0.3,0-0.5,0c-0.9,0-1.8-0.2-2.5-0.6l-2.1-1.2c-1.4-0.8-2.5-2.8-2.5-4.4v-18.8c0-0.5,0.1-1,0.3-1.6
					c0.1-0.2,0.2-0.4,0.3-0.6c0.1-0.1,0.1-0.2,0.2-0.3l7.1,4.1c-0.5,0.8-0.7,1.7-0.7,2.5v18.8c0,1.2,0.7,1.9,1.6,1.8
					c0.1,0,0.1,0,0.2,0C246.7,269.3,246.8,269.2,246.9,269.2z"/>
			</g>
		</g>
		<g id="Text_1_">
			<g>
				<polyline class="st21" points="158.2,294.9 168.1,277.6 211.3,252.7 				"/>
				<path class="st12" d="M174,268.5c0-1.1,0.8-2.4,1.8-2.9l26.3-15.2c1-0.6,1.8-0.2,1.8,0.9c0,1.1-0.8,2.4-1.8,2.9l-26.3,15.2
					C174.8,269.9,174,269.5,174,268.5z"/>
				<g>
					<g>
						<path class="st12" d="M172.5,278.9l11.8-6.8c0.6-0.3,1-0.1,1,0.5s-0.4,1.3-1,1.7l-11.8,6.8c-0.6,0.3-1,0.1-1-0.5
							C171.5,280,171.9,279.3,172.5,278.9z"/>
						<path class="st12" d="M187.2,270.4l10.9-6.3c0.6-0.3,1-0.1,1,0.5c0,0.6-0.4,1.3-1,1.7l-10.9,6.3c-0.6,0.3-1,0.1-1-0.5
							C186.2,271.5,186.6,270.8,187.2,270.4z"/>
						<path class="st12" d="M201.1,262.4l7.8-4.5c0.6-0.3,1-0.1,1,0.5c0,0.6-0.4,1.3-1,1.7l-7.8,4.5c-0.6,0.3-1,0.1-1-0.5
							C200.1,263.5,200.5,262.7,201.1,262.4z"/>
					</g>
					<g>
						<path class="st12" d="M172.5,285.5l22.2-12.8c0.6-0.3,1-0.1,1,0.5s-0.4,1.3-1,1.7l-22.2,12.8c-0.6,0.3-1,0.1-1-0.5
							C171.5,286.5,171.9,285.8,172.5,285.5z"/>
						<path class="st12" d="M197.9,270.8l10.6-6.1c0.6-0.3,1-0.1,1,0.5c0,0.6-0.4,1.3-1,1.7l-10.6,6.1c-0.6,0.3-1,0.1-1-0.5
							C196.9,271.8,197.3,271.1,197.9,270.8z"/>
					</g>
				</g>
			</g>
			<g>
				<polyline class="st21" points="158.2,202.9 168.1,185.7 211.3,160.8 				"/>
				<path class="st12" d="M174,176.5c0-1.1,0.8-2.4,1.8-2.9l26.3-15.2c1-0.6,1.8-0.2,1.8,0.9c0,1.1-0.8,2.4-1.8,2.9l-26.3,15.2
					C174.8,178,174,177.6,174,176.5z"/>
				<g>
					<g>
						<path class="st12" d="M172.5,187l11.8-6.8c0.6-0.3,1-0.1,1,0.5c0,0.6-0.4,1.3-1,1.7l-11.8,6.8c-0.6,0.3-1,0.1-1-0.5
							C171.5,188,171.9,187.3,172.5,187z"/>
						<path class="st12" d="M187.2,178.5l10.9-6.3c0.6-0.3,1-0.1,1,0.5c0,0.6-0.4,1.3-1,1.7l-10.9,6.3c-0.6,0.3-1,0.1-1-0.5
							C186.2,179.5,186.6,178.8,187.2,178.5z"/>
						<path class="st12" d="M201.1,170.5l7.8-4.5c0.6-0.3,1-0.1,1,0.5c0,0.6-0.4,1.3-1,1.7l-7.8,4.5c-0.6,0.3-1,0.1-1-0.5
							C200.1,171.5,200.5,170.8,201.1,170.5z"/>
					</g>
					<g>
						<path class="st12" d="M172.5,193.5l22.2-12.8c0.6-0.3,1-0.1,1,0.5c0,0.6-0.4,1.3-1,1.7l-22.2,12.8c-0.6,0.3-1,0.1-1-0.5
							C171.5,194.6,171.9,193.8,172.5,193.5z"/>
						<path class="st12" d="M197.9,178.8l10.6-6.1c0.6-0.3,1-0.1,1,0.5c0,0.6-0.4,1.3-1,1.7l-10.6,6.1c-0.6,0.3-1,0.1-1-0.5
							C196.9,179.9,197.3,179.1,197.9,178.8z"/>
					</g>
				</g>
			</g>
			<g>
				<polyline class="st21" points="158.2,248.6 168.1,231.4 211.3,206.5 				"/>
				<path class="st12" d="M174,222.2c0-1.1,0.8-2.4,1.8-2.9l26.3-15.2c1-0.6,1.8-0.2,1.8,0.9c0,1.1-0.8,2.4-1.8,2.9l-26.3,15.2
					C174.8,223.7,174,223.3,174,222.2z"/>
				<g>
					<g>
						<path class="st12" d="M172.5,233l4.6-2.7c0.6-0.3,1-0.1,1,0.5c0,0.6-0.4,1.3-1,1.7l-4.6,2.7c-0.6,0.3-1,0.1-1-0.5
							C171.5,234,171.9,233.3,172.5,233z"/>
						<path class="st12" d="M180.5,228.3l11.8-6.8c0.6-0.3,1-0.1,1,0.5s-0.4,1.3-1,1.7l-11.8,6.8c-0.6,0.3-1,0.1-1-0.5
							C179.5,229.4,180,228.6,180.5,228.3z"/>
						<path class="st12" d="M195.2,219.8l13.3-7.7c0.6-0.3,1-0.1,1,0.5c0,0.6-0.4,1.3-1,1.7l-13.3,7.7c-0.6,0.3-1,0.1-1-0.5
							C194.2,220.9,194.7,220.1,195.2,219.8z"/>
					</g>
					<g>
						<path class="st12" d="M172.5,239.5l11.8-6.8c0.6-0.3,1-0.1,1,0.5c0,0.6-0.4,1.3-1,1.7l-11.8,6.8c-0.6,0.3-1,0.1-1-0.5
							C171.5,240.5,171.9,239.8,172.5,239.5z"/>
						<path class="st12" d="M187.2,231l10.9-6.3c0.6-0.3,1-0.1,1,0.5c0,0.6-0.4,1.3-1,1.7l-10.9,6.3c-0.6,0.3-1,0.1-1-0.5
							C186.2,232,186.6,231.3,187.2,231z"/>
						<path class="st12" d="M201.1,222.9l7.8-4.5c0.6-0.3,1-0.1,1,0.5c0,0.6-0.4,1.3-1,1.7l-7.8,4.5c-0.6,0.3-1,0.1-1-0.5
							C200.1,224,200.5,223.3,201.1,222.9z"/>
					</g>
				</g>
			</g>
		</g>
		<g>
			<path class="st12" d="M100.5,179l3.2-10.5c0-0.1,0.1-0.3,0.2-0.6c0.1-0.3,0.3-0.4,0.5-0.6l1.2-0.7c0.1-0.1,0.2-0.1,0.3,0
				c0.1,0.1,0.1,0.2,0.1,0.4V184c0,0.2,0,0.4-0.1,0.6c-0.1,0.2-0.2,0.3-0.3,0.4l-1.4,0.8c-0.1,0.1-0.2,0.1-0.3,0
				c-0.1-0.1-0.1-0.2-0.1-0.4v-10.2l-2.2,7.2c-0.1,0.2-0.1,0.4-0.2,0.6c-0.1,0.2-0.2,0.4-0.4,0.4l-0.9,0.5c-0.2,0.1-0.3,0.1-0.4,0
				c-0.1-0.1-0.2-0.2-0.2-0.3l-2.2-4.6v10.2c0,0.2,0,0.4-0.1,0.6c-0.1,0.2-0.2,0.3-0.3,0.4l-1.4,0.8c-0.1,0.1-0.2,0.1-0.3,0
				c-0.1-0.1-0.1-0.2-0.1-0.4v-16.9c0-0.2,0-0.4,0.1-0.6c0.1-0.2,0.2-0.3,0.3-0.4l1.2-0.7c0.2-0.1,0.4-0.1,0.5,0s0.2,0.2,0.2,0.3
				L100.5,179z"/>
			<path class="st12" d="M112.1,180.5l-3.4-10.1c0,0,0-0.1,0-0.2c0-0.2,0-0.4,0.1-0.6c0.1-0.2,0.2-0.3,0.3-0.4l1.3-0.7
				c0.1-0.1,0.3-0.1,0.4,0c0.1,0.1,0.2,0.2,0.2,0.3l2.3,6.8l2.3-9.4c0-0.2,0.1-0.3,0.2-0.5c0.1-0.2,0.2-0.3,0.4-0.4l1.3-0.7
				c0.1-0.1,0.2-0.1,0.3,0c0.1,0.1,0.1,0.2,0.1,0.4c0,0.1,0,0.1,0,0.2l-4.8,19.8c0,0.2-0.1,0.3-0.2,0.5c-0.1,0.2-0.2,0.3-0.4,0.4
				l-1.3,0.7c-0.1,0.1-0.2,0.1-0.3,0c-0.1-0.1-0.1-0.2-0.1-0.4c0-0.1,0-0.1,0-0.2L112.1,180.5z"/>
			<path class="st12" d="M129.8,152.7c1.4-0.8,2.4-0.9,3.2-0.4c0.8,0.6,1.1,1.8,1.1,3.7c0,1.9-0.4,3.6-1.1,5.1
				c-0.8,1.5-1.8,2.6-3.2,3.4l-2.7,1.6v5.8c0,0.2,0,0.4-0.1,0.6c-0.1,0.2-0.2,0.3-0.3,0.4l-1.4,0.8c-0.1,0.1-0.2,0.1-0.3,0
				c-0.1-0.1-0.1-0.2-0.1-0.4v-16.9c0-0.2,0-0.4,0.1-0.6c0.1-0.2,0.2-0.3,0.3-0.4L129.8,152.7z M127.1,162.8l2.6-1.5
				c0.6-0.4,1.2-0.9,1.5-1.5c0.4-0.6,0.6-1.4,0.6-2.4c0-1-0.2-1.5-0.6-1.7c-0.4-0.2-0.9,0-1.5,0.3l-2.6,1.5V162.8z"/>
			<path class="st12" d="M136.1,160.6c0-1,0.1-2,0.3-2.9c0.2-1,0.5-1.9,0.8-2.7c0.4-0.8,0.8-1.6,1.3-2.3c0.5-0.7,1.1-1.2,1.7-1.5
				c0.6-0.4,1.2-0.5,1.7-0.5c0.5,0.1,1,0.3,1.3,0.7c0.4,0.4,0.6,0.9,0.8,1.6c0.2,0.7,0.3,1.5,0.3,2.4v1.2c0,0.2,0,0.4-0.1,0.6
				c-0.1,0.2-0.2,0.3-0.3,0.4l-5.7,3.3c0,0.4,0.1,0.7,0.2,1c0.1,0.2,0.3,0.4,0.4,0.5c0.2,0.1,0.4,0.1,0.6,0.1c0.2,0,0.5-0.1,0.7-0.3
				c0.4-0.2,0.7-0.4,0.9-0.7c0.2-0.2,0.4-0.5,0.6-0.8c0.1-0.2,0.2-0.4,0.3-0.5c0.1-0.1,0.2-0.2,0.3-0.3l1.4-0.8
				c0.1-0.1,0.2-0.1,0.3,0c0.1,0.1,0.1,0.2,0.1,0.4c0,0.3-0.1,0.6-0.3,1.1c-0.2,0.5-0.4,1-0.7,1.6c-0.3,0.6-0.7,1.1-1.2,1.6
				c-0.5,0.5-1,1-1.7,1.4c-0.6,0.4-1.2,0.5-1.7,0.5c-0.5,0-1-0.3-1.3-0.7c-0.4-0.4-0.6-1-0.8-1.8
				C136.2,162.6,136.1,161.7,136.1,160.6z M140.3,154.3c-0.3,0.2-0.6,0.4-0.8,0.7c-0.2,0.3-0.4,0.6-0.6,0.9c-0.2,0.3-0.3,0.7-0.4,1
				c-0.1,0.3-0.1,0.6-0.2,0.9l3.8-2.2c0-0.2-0.1-0.5-0.1-0.8c-0.1-0.3-0.2-0.5-0.3-0.6c-0.1-0.2-0.3-0.2-0.6-0.3
				C140.9,154,140.6,154.1,140.3,154.3z"/>
			<path class="st12" d="M151.3,148.2c-0.7,0.4-1.2,0.9-1.5,1.5c-0.3,0.6-0.5,1.5-0.5,2.5v6.8c0,0.2,0,0.4-0.1,0.6
				c-0.1,0.2-0.2,0.3-0.3,0.4l-1.3,0.7c-0.1,0.1-0.2,0.1-0.3,0c-0.1-0.1-0.1-0.2-0.1-0.4v-12.2c0-0.2,0-0.4,0.1-0.6
				c0.1-0.2,0.2-0.3,0.3-0.4l1.3-0.7c0.1-0.1,0.2-0.1,0.3,0c0.1,0.1,0.1,0.2,0.1,0.4v0.6c0.3-0.6,0.6-1.1,0.9-1.5
				c0.3-0.4,0.8-0.8,1.3-1.1l0.8-0.4c0.1-0.1,0.2-0.1,0.3,0c0.1,0.1,0.1,0.2,0.1,0.4v1.7c0,0.2,0,0.4-0.1,0.6
				c-0.1,0.2-0.2,0.3-0.3,0.4L151.3,148.2z"/>
			<path class="st12" d="M159.9,149.7c0-0.2,0-0.3-0.1-0.4c-0.1-0.1-0.2-0.1-0.4-0.1c-0.2,0-0.5,0.1-0.8,0.1
				c-0.3,0.1-0.7,0.2-1.3,0.3c-0.5,0.1-0.9,0.1-1.2,0.1c-0.3-0.1-0.6-0.2-0.8-0.5c-0.2-0.2-0.3-0.6-0.4-1c-0.1-0.4-0.1-0.9-0.1-1.4
				c0-0.5,0.1-1.1,0.2-1.7c0.2-0.6,0.4-1.2,0.7-1.7c0.3-0.6,0.7-1.1,1.1-1.6c0.4-0.5,0.9-0.9,1.5-1.2c0.6-0.3,1.1-0.5,1.5-0.6
				c0.4-0.1,0.8,0,1.1,0.1c0.3,0.1,0.5,0.4,0.7,0.7c0.2,0.3,0.3,0.7,0.3,1.1c0,0.2,0,0.4-0.1,0.6c-0.1,0.2-0.2,0.3-0.3,0.4l-1.3,0.8
				c-0.2,0.1-0.3,0.1-0.4,0.1c-0.1,0-0.2-0.1-0.3-0.2c-0.1-0.1-0.2-0.1-0.4-0.1c-0.2,0-0.4,0.1-0.8,0.3c-0.3,0.2-0.6,0.5-0.9,0.8
				c-0.3,0.3-0.4,0.7-0.4,1.1c0,0.2,0,0.3,0.1,0.4c0.1,0.1,0.2,0.1,0.4,0.1c0.2,0,0.4,0,0.7-0.1c0.3-0.1,0.7-0.2,1.2-0.3
				c1-0.3,1.7-0.1,2.1,0.3c0.4,0.5,0.6,1.2,0.6,2.3c0,0.5-0.1,1.1-0.3,1.7c-0.2,0.6-0.4,1.2-0.7,1.8c-0.3,0.6-0.7,1.1-1.2,1.6
				c-0.5,0.5-1,0.9-1.6,1.3c-0.6,0.3-1.1,0.5-1.6,0.6c-0.5,0-0.8,0-1.2-0.2c-0.3-0.2-0.6-0.4-0.7-0.8c-0.2-0.3-0.3-0.7-0.3-1.1
				c0-0.2,0-0.4,0.1-0.6c0.1-0.2,0.2-0.3,0.3-0.4l1.3-0.8c0.2-0.1,0.3-0.1,0.4,0c0.1,0.1,0.2,0.2,0.3,0.3c0.1,0.1,0.3,0.1,0.5,0.2
				c0.2,0,0.5-0.1,0.9-0.3c0.2-0.1,0.3-0.2,0.5-0.4c0.2-0.1,0.3-0.3,0.5-0.5c0.2-0.2,0.3-0.3,0.4-0.5
				C159.9,150.1,159.9,149.9,159.9,149.7z"/>
			<path class="st12" d="M168.7,134.7c0.6-0.4,1.2-0.5,1.7-0.5c0.5,0,0.9,0.2,1.3,0.5c0.4,0.3,0.7,0.8,0.9,1.3
				c0.2,0.6,0.3,1.2,0.4,2c0,0.2,0,0.3,0,0.6s0,0.5,0,0.7s0,0.5,0,0.7c0,0.2,0,0.4,0,0.6c0,0.8-0.2,1.7-0.4,2.5
				c-0.2,0.8-0.5,1.6-0.9,2.3c-0.4,0.7-0.8,1.4-1.3,2c-0.5,0.6-1.1,1.1-1.7,1.4c-0.6,0.4-1.2,0.5-1.7,0.5c-0.5,0-0.9-0.2-1.3-0.5
				c-0.4-0.3-0.7-0.7-0.9-1.3c-0.2-0.6-0.3-1.2-0.4-2c0-0.2,0-0.3,0-0.6c0-0.2,0-0.5,0-0.7c0-0.2,0-0.5,0-0.7c0-0.2,0-0.5,0-0.6
				c0-0.8,0.2-1.6,0.4-2.5c0.2-0.8,0.5-1.6,0.9-2.3c0.4-0.7,0.8-1.4,1.3-2C167.5,135.5,168.1,135.1,168.7,134.7z M170.8,139.4
				c0-0.5-0.1-0.9-0.2-1.2c-0.1-0.3-0.3-0.5-0.5-0.6c-0.2-0.1-0.4-0.1-0.6-0.1c-0.2,0.1-0.5,0.1-0.7,0.3c-0.2,0.1-0.5,0.3-0.7,0.5
				c-0.2,0.2-0.4,0.5-0.6,0.8c-0.2,0.3-0.4,0.7-0.5,1.1c-0.1,0.4-0.2,0.9-0.2,1.5c0,0.1,0,0.3,0,0.5c0,0.2,0,0.4,0,0.7
				c0,0.2,0,0.4,0,0.7c0,0.2,0,0.4,0,0.5c0,0.5,0.1,0.9,0.2,1.2c0.1,0.3,0.3,0.5,0.5,0.6c0.2,0.1,0.4,0.1,0.6,0.1
				c0.2-0.1,0.5-0.1,0.7-0.3c0.2-0.1,0.5-0.3,0.7-0.5c0.2-0.2,0.4-0.5,0.6-0.8c0.2-0.3,0.4-0.7,0.5-1.1c0.1-0.4,0.2-0.9,0.2-1.5
				c0-0.1,0-0.3,0-0.5c0-0.2,0-0.4,0-0.7c0-0.2,0-0.4,0-0.7C170.8,139.7,170.8,139.5,170.8,139.4z"/>
			<path class="st12" d="M184.1,139c0,0.2,0,0.4-0.1,0.6c-0.1,0.2-0.2,0.3-0.3,0.4l-1.3,0.7c-0.1,0.1-0.2,0.1-0.3,0
				c-0.1-0.1-0.1-0.2-0.1-0.4v-6.7c0-1-0.2-1.8-0.5-2.2c-0.3-0.4-0.8-0.5-1.5-0.1c-0.6,0.3-1.1,0.9-1.4,1.8
				c-0.3,0.8-0.5,1.8-0.5,2.8v6.7c0,0.2,0,0.4-0.1,0.6c-0.1,0.2-0.2,0.3-0.3,0.4l-1.3,0.7c-0.1,0.1-0.2,0.1-0.3,0
				c-0.1-0.1-0.1-0.2-0.1-0.4v-12.2c0-0.2,0-0.4,0.1-0.6c0.1-0.2,0.2-0.3,0.3-0.4l1.3-0.7c0.1-0.1,0.2-0.1,0.3,0
				c0.1,0.1,0.1,0.2,0.1,0.4v0.6c0.3-0.6,0.6-1.2,1-1.7c0.4-0.5,0.9-0.9,1.4-1.3c0.7-0.4,1.3-0.6,1.7-0.5c0.5,0.1,0.8,0.3,1.1,0.7
				c0.3,0.4,0.5,0.9,0.6,1.6c0.1,0.7,0.2,1.4,0.2,2.2V139z"/>
			<path class="st12" d="M187.2,127.6c0-0.4,0.2-0.8,0.3-1.4c0.2-0.5,0.4-1,0.7-1.6c0.3-0.5,0.7-1.1,1.1-1.5
				c0.4-0.5,0.9-0.9,1.5-1.2c0.6-0.3,1.1-0.5,1.6-0.6c0.5,0,0.9,0.1,1.2,0.3c0.3,0.3,0.6,0.7,0.8,1.3c0.2,0.6,0.3,1.3,0.3,2.2v7.7
				c0,0.2,0,0.4-0.1,0.6c-0.1,0.2-0.2,0.3-0.3,0.4l-1.3,0.7c-0.1,0.1-0.2,0.1-0.3,0c-0.1-0.1-0.1-0.2-0.1-0.4v-0.9
				c-0.2,0.6-0.6,1.3-1,1.9c-0.4,0.6-1,1.1-1.7,1.5c-0.5,0.3-0.9,0.4-1.3,0.5c-0.4,0-0.7-0.1-1-0.3c-0.3-0.2-0.5-0.5-0.6-0.9
				c-0.1-0.4-0.2-0.9-0.2-1.5c0-1.2,0.3-2.3,0.8-3.3c0.6-1,1.3-1.9,2.2-2.7l2.8-2.3c0-0.7-0.2-1.1-0.5-1.3c-0.3-0.1-0.7-0.1-1.1,0.2
				c-0.3,0.2-0.5,0.4-0.7,0.6c-0.2,0.2-0.3,0.5-0.5,0.8c-0.1,0.2-0.2,0.3-0.3,0.5c-0.1,0.1-0.2,0.2-0.3,0.2l-1.6,0.9
				c-0.1,0.1-0.2,0.1-0.3,0C187.2,127.9,187.2,127.8,187.2,127.6z M190.1,133.4c0.4-0.2,0.7-0.5,1-0.8c0.3-0.3,0.6-0.7,0.8-1.1
				c0.2-0.4,0.4-0.8,0.5-1.2c0.1-0.4,0.2-0.8,0.2-1.2v-0.3l-2.3,2c-0.5,0.4-0.8,0.8-1,1.1c-0.2,0.4-0.3,0.7-0.3,1.1
				c0,0.4,0.1,0.6,0.4,0.6C189.4,133.7,189.7,133.6,190.1,133.4z"/>
			<path class="st12" d="M200,129.8c0,0.2,0,0.4-0.1,0.6c-0.1,0.2-0.2,0.3-0.3,0.4l-1.3,0.7c-0.1,0.1-0.2,0.1-0.3,0
				c-0.1-0.1-0.1-0.2-0.1-0.4v-17.2c0-0.2,0-0.4,0.1-0.6c0.1-0.2,0.2-0.3,0.3-0.4l1.3-0.7c0.1-0.1,0.2-0.1,0.3,0
				c0.1,0.1,0.1,0.2,0.1,0.4V129.8z"/>
			<path class="st12" d="M205,109c0.1-0.1,0.2-0.1,0.3,0c0.1,0.1,0.1,0.2,0.1,0.4v2c0,0.2,0,0.4-0.1,0.6c-0.1,0.2-0.2,0.3-0.3,0.4
				l-1.5,0.8c-0.1,0.1-0.2,0.1-0.3,0c-0.1-0.1-0.1-0.2-0.1-0.4v-2c0-0.2,0-0.4,0.1-0.6c0.1-0.2,0.2-0.3,0.3-0.4L205,109z
				 M205.4,126.7c0,0.2,0,0.4-0.1,0.6c-0.1,0.2-0.2,0.3-0.3,0.4l-1.3,0.7c-0.1,0.1-0.2,0.1-0.3,0c-0.1-0.1-0.1-0.2-0.1-0.4v-12.2
				c0-0.2,0-0.4,0.1-0.6c0.1-0.2,0.2-0.3,0.3-0.4l1.3-0.7c0.1-0.1,0.2-0.1,0.3,0c0.1,0.1,0.1,0.2,0.1,0.4V126.7z"/>
			<path class="st12" d="M215.5,118.4c0.1-0.1,0.2-0.1,0.3,0c0.1,0.1,0.1,0.2,0.1,0.4v1.7c0,0.2,0,0.4-0.1,0.6
				c-0.1,0.2-0.2,0.3-0.3,0.4l-6.9,4c-0.1,0.1-0.2,0.1-0.3,0c-0.1-0.1-0.1-0.2-0.1-0.4v-1.8c0-0.2,0-0.4,0.1-0.6
				c0-0.2,0.1-0.3,0.2-0.5l4.3-9.6l-3.9,2.2c-0.1,0.1-0.2,0.1-0.3,0c-0.1-0.1-0.1-0.2-0.1-0.4v-1.7c0-0.2,0-0.4,0.1-0.6
				c0.1-0.2,0.2-0.3,0.3-0.4l6.4-3.7c0.1-0.1,0.2-0.1,0.3,0c0.1,0.1,0.1,0.2,0.1,0.4v1.8c0,0.2,0,0.3-0.1,0.5
				c-0.1,0.2-0.1,0.4-0.2,0.5l-4.3,9.6L215.5,118.4z"/>
			<path class="st12" d="M218.7,109.5c0-0.4,0.2-0.8,0.3-1.4c0.2-0.5,0.4-1,0.7-1.6c0.3-0.5,0.7-1.1,1.1-1.5
				c0.4-0.5,0.9-0.9,1.5-1.2c0.6-0.3,1.1-0.5,1.6-0.6c0.5,0,0.9,0.1,1.2,0.3c0.3,0.3,0.6,0.7,0.8,1.3c0.2,0.6,0.3,1.3,0.3,2.2v7.7
				c0,0.2,0,0.4-0.1,0.6c-0.1,0.2-0.2,0.3-0.3,0.4l-1.3,0.7c-0.1,0.1-0.2,0.1-0.3,0c-0.1-0.1-0.1-0.2-0.1-0.4v-0.9
				c-0.2,0.6-0.6,1.3-1,1.9c-0.4,0.6-1,1.1-1.7,1.5c-0.5,0.3-0.9,0.4-1.3,0.5c-0.4,0-0.7-0.1-1-0.3c-0.3-0.2-0.5-0.5-0.6-0.9
				c-0.1-0.4-0.2-0.9-0.2-1.5c0-1.2,0.3-2.3,0.8-3.3c0.6-1,1.3-1.9,2.2-2.7l2.8-2.3c0-0.7-0.2-1.1-0.5-1.3c-0.3-0.1-0.7-0.1-1.1,0.2
				c-0.3,0.2-0.5,0.4-0.7,0.6c-0.2,0.2-0.3,0.5-0.5,0.8c-0.1,0.2-0.2,0.3-0.3,0.5c-0.1,0.1-0.2,0.2-0.3,0.2l-1.6,0.9
				c-0.1,0.1-0.2,0.1-0.3,0C218.7,109.8,218.6,109.7,218.7,109.5z M221.5,115.2c0.4-0.2,0.7-0.5,1-0.8c0.3-0.3,0.6-0.7,0.8-1.1
				c0.2-0.4,0.4-0.8,0.5-1.2c0.1-0.4,0.2-0.8,0.2-1.2v-0.3l-2.3,2c-0.5,0.4-0.8,0.8-1,1.1c-0.2,0.4-0.3,0.7-0.3,1.1
				c0,0.4,0.1,0.6,0.4,0.6C220.9,115.5,221.2,115.4,221.5,115.2z"/>
			<path class="st12" d="M232.1,107c0,0.5,0.1,0.9,0.3,1.1c0.2,0.2,0.5,0.2,1-0.1l1-0.6c0.1-0.1,0.2-0.1,0.3,0
				c0.1,0.1,0.1,0.2,0.1,0.4v1.7c0,0.2,0,0.4-0.1,0.6c-0.1,0.2-0.2,0.3-0.3,0.4l-1.3,0.7c-1.1,0.6-1.9,0.7-2.5,0.2
				c-0.6-0.5-0.9-1.5-0.9-3.2v-5.6l-1.1,0.6c-0.1,0.1-0.2,0.1-0.3,0c-0.1-0.1-0.1-0.2-0.1-0.4v-1.7c0-0.2,0-0.4,0.1-0.6
				c0.1-0.2,0.2-0.3,0.3-0.4l1.1-0.6v-4.3c0-0.2,0-0.4,0.1-0.6c0.1-0.2,0.2-0.3,0.3-0.4l1.3-0.7c0.1-0.1,0.2-0.1,0.3,0
				c0.1,0.1,0.1,0.2,0.1,0.4v4.3l2.2-1.3c0.1-0.1,0.2-0.1,0.3,0c0.1,0.1,0.1,0.2,0.1,0.4v1.7c0,0.2,0,0.4-0.1,0.6
				c-0.1,0.2-0.2,0.3-0.3,0.4l-2.2,1.3V107z"/>
			<path class="st12" d="M239.3,89.2c0.1-0.1,0.2-0.1,0.3,0c0.1,0.1,0.1,0.2,0.1,0.4v2c0,0.2,0,0.4-0.1,0.6
				c-0.1,0.2-0.2,0.3-0.3,0.4l-1.5,0.8c-0.1,0.1-0.2,0.1-0.3,0c-0.1-0.1-0.1-0.2-0.1-0.4v-2c0-0.2,0-0.4,0.1-0.6
				c0.1-0.2,0.2-0.3,0.3-0.4L239.3,89.2z M239.7,106.9c0,0.2,0,0.4-0.1,0.6c-0.1,0.2-0.2,0.3-0.3,0.4l-1.3,0.7
				c-0.1,0.1-0.2,0.1-0.3,0c-0.1-0.1-0.1-0.2-0.1-0.4V96c0-0.2,0-0.4,0.1-0.6c0.1-0.2,0.2-0.3,0.3-0.4l1.3-0.7
				c0.1-0.1,0.2-0.1,0.3,0c0.1,0.1,0.1,0.2,0.1,0.4V106.9z"/>
			<path class="st12" d="M246.8,89.6c0.6-0.4,1.2-0.5,1.7-0.5c0.5,0,0.9,0.2,1.3,0.5c0.4,0.3,0.7,0.8,0.9,1.3c0.2,0.6,0.3,1.2,0.4,2
				c0,0.2,0,0.3,0,0.6c0,0.2,0,0.5,0,0.7c0,0.2,0,0.5,0,0.7c0,0.2,0,0.4,0,0.6c0,0.8-0.2,1.7-0.4,2.5c-0.2,0.8-0.5,1.6-0.9,2.3
				c-0.4,0.7-0.8,1.4-1.3,2c-0.5,0.6-1.1,1.1-1.7,1.4c-0.6,0.4-1.2,0.5-1.7,0.5c-0.5,0-0.9-0.2-1.3-0.5c-0.4-0.3-0.7-0.7-0.9-1.3
				c-0.2-0.6-0.3-1.3-0.4-2c0-0.2,0-0.3,0-0.6c0-0.2,0-0.5,0-0.7c0-0.2,0-0.5,0-0.7c0-0.2,0-0.5,0-0.6c0-0.8,0.2-1.6,0.4-2.5
				c0.2-0.8,0.5-1.6,0.9-2.3c0.4-0.7,0.8-1.4,1.3-2C245.6,90.5,246.2,90,246.8,89.6z M248.9,94.3c0-0.5-0.1-0.9-0.2-1.2
				c-0.1-0.3-0.3-0.5-0.5-0.6c-0.2-0.1-0.4-0.1-0.6-0.1c-0.2,0.1-0.5,0.1-0.7,0.3c-0.2,0.1-0.5,0.3-0.7,0.5
				c-0.2,0.2-0.4,0.5-0.6,0.8c-0.2,0.3-0.4,0.7-0.5,1.1c-0.1,0.4-0.2,0.9-0.2,1.5c0,0.1,0,0.3,0,0.5c0,0.2,0,0.4,0,0.7
				c0,0.2,0,0.4,0,0.7c0,0.2,0,0.4,0,0.5c0,0.5,0.1,0.9,0.2,1.2c0.1,0.3,0.3,0.5,0.5,0.6c0.2,0.1,0.4,0.1,0.6,0.1
				c0.2-0.1,0.5-0.1,0.7-0.3c0.2-0.1,0.5-0.3,0.7-0.5c0.2-0.2,0.4-0.5,0.6-0.8c0.2-0.3,0.4-0.7,0.5-1.1c0.1-0.4,0.2-0.9,0.2-1.5
				c0-0.1,0-0.3,0-0.5c0-0.2,0-0.4,0-0.7c0-0.2,0-0.4,0-0.7C248.9,94.6,248.9,94.5,248.9,94.3z"/>
			<path class="st12" d="M262.2,93.9c0,0.2,0,0.4-0.1,0.6c-0.1,0.2-0.2,0.3-0.3,0.4l-1.3,0.7c-0.1,0.1-0.2,0.1-0.3,0
				c-0.1-0.1-0.1-0.2-0.1-0.4v-6.7c0-1-0.2-1.8-0.5-2.2c-0.3-0.4-0.8-0.5-1.5-0.1c-0.6,0.3-1.1,0.9-1.4,1.8
				c-0.3,0.8-0.5,1.8-0.5,2.8v6.7c0,0.2,0,0.4-0.1,0.6c-0.1,0.2-0.2,0.3-0.3,0.4l-1.3,0.7c-0.1,0.1-0.2,0.1-0.3,0
				c-0.1-0.1-0.1-0.2-0.1-0.4V86.5c0-0.2,0-0.4,0.1-0.6c0.1-0.2,0.2-0.3,0.3-0.4l1.3-0.7c0.1-0.1,0.2-0.1,0.3,0
				c0.1,0.1,0.1,0.2,0.1,0.4v0.6c0.3-0.6,0.6-1.2,1-1.7c0.4-0.5,0.9-0.9,1.4-1.3c0.7-0.4,1.3-0.6,1.7-0.5c0.5,0.1,0.8,0.3,1.1,0.7
				c0.3,0.4,0.5,0.9,0.6,1.6c0.1,0.7,0.2,1.4,0.2,2.2V93.9z"/>
		</g>
	</g>
</g>
<g id="Paint_Tools">
	<g id="Paint">
		<path id="XMLID_905_" class="st11" d="M380.1,235.4h-30.6l1.4,21.7l0,0c0,2,1.3,4.1,3.9,5.6c5.3,3.1,13.9,3.2,19.3,0.2
			c2.7-1.5,4.1-3.5,4.1-5.6L380.1,235.4z"/>
		<path id="XMLID_904_" class="st10" d="M354.1,228.6c-6,3.4-6.1,9-0.1,12.5c5.9,3.5,15.6,3.6,21.6,0.2c6-3.4,6.1-9,0.1-12.5
			C369.8,225.3,360.1,225.2,354.1,228.6z"/>
		<path id="XMLID_903_" class="st22" d="M378.8,235.1c0,0.4-0.1,0.8-0.2,1.2c-0.5,1.4-1.7,2.8-3.7,3.9c-2.7,1.5-6.3,2.3-10.2,2.3
			c-3.8,0-7.4-0.9-10.1-2.5c-1.9-1.1-3.1-2.5-3.5-3.9c-0.1-0.4-0.2-0.8-0.2-1.3c0-1.9,1.4-3.7,3.9-5c2.7-1.5,6.3-2.3,10.2-2.3
			c3.9,0,7.5,0.9,10.1,2.5C377.5,231.4,378.8,233.3,378.8,235.1z"/>
		<path class="st2" d="M364.9,237.5c-3.8,0-7.5,0.8-10.2,2.3c-0.1,0-0.1,0.1-0.1,0.1c0,0,0,0,0,0c2.7,1.6,6.3,2.5,10.1,2.5
			c3.9,0,7.5-0.8,10.2-2.3c0.1,0,0.1-0.1,0.1-0.1c0,0,0,0,0,0C372.3,238.5,368.8,237.6,364.9,237.5z"/>
		<path id="XMLID_902_" class="st22" d="M370.6,243.5c0.6-0.3,1.1-0.1,1.1,0.6c0,0.7-0.5,1.5-1.1,1.9c-0.6,0.3-1.1,0.1-1.1-0.6
			C369.5,244.7,370,243.9,370.6,243.5z"/>
		<g id="XMLID_899_">
			<path id="XMLID_901_" class="st1" d="M349.9,241.5c-1.3,3.4-2.3,8,0.6,10.2c0.2,0.1,0.3,0.2,0.5,0.3l0,1.4
				c-0.4-0.2-0.8-0.5-1.2-0.8c-4.4-3.3-1.7-10.4,0-13.8L349.9,241.5z"/>
			<path id="XMLID_900_" class="st1" d="M371.1,245.1c-0.2,0.3-4.4,8.4-11.3,10c-0.8,0.2-1.6,0.3-2.4,0.3c-2.2,0-4.3-0.7-6.5-2
				l0-1.4c2.9,2,5.7,2.7,8.6,2c6.4-1.5,10.5-9.4,10.5-9.4c0.1-0.3,0.5-0.4,0.8-0.3C371.2,244.4,371.3,244.8,371.1,245.1z"/>
		</g>
	</g>
	<g id="Canvas">
		<path id="XMLID_1725_" class="st0" d="M429.1,289.3c0-0.5-0.3-1-1-1.4L391,266.4c-1.3-0.8-3.5-0.8-4.9,0l-56.2,32.5
			c-0.7,0.4-1,0.9-1,1.4c0,0.5,0,3.9,0,4.4c0,0.5,0.3,1,1,1.4l37.1,21.4c1.3,0.8,3.5,0.8,4.9,0l56.2-32.5c0.7-0.4,1-0.9,1-1.4
			C429.1,293.2,429.1,289.8,429.1,289.3z"/>
		<path id="XMLID_1732_" class="st23" d="M369.4,323.8v4.4c-0.9,0-1.8-0.2-2.4-0.6l-37.1-21.4c-0.7-0.4-1-0.9-1-1.4v-4.4
			c0,0.5,0.3,1,1,1.4l37.1,21.4C367.6,323.6,368.5,323.8,369.4,323.8z"/>
		<path id="XMLID_1722_" class="st14" d="M329.8,298.9l56.2-32.5c1.3-0.8,3.5-0.8,4.9,0l37.1,21.4c1.3,0.8,1.3,2,0,2.8l-56.2,32.5
			c-1.3,0.8-3.5,0.8-4.9,0l-37.1-21.4C328.5,300.9,328.5,299.7,329.8,298.9z"/>
		<path id="XMLID_1276_" class="st2" d="M391,266.4c-1.3-0.8-3.5-0.8-4.9,0l-56.2,32.5c-1.3,0.8-1.3,2,0,2.8l13.3,7.7l0,0
			c0,0,14,3.4,20-0.5c6-3.9,7.3-9.6,14.4-13.3c10.6-5.4,21.1-1.8,33.8-3c14.3-1.3,14.9-5.8,14.9-5.8l-11.8-6.8L391,266.4z"/>
		<path id="XMLID_1281_" class="st2" d="M328.8,300.3v4.4c0,0.5,0.3,1,1,1.4l13.3,7.7v-4.4l0,0l-13.3-7.7
			C329.1,301.3,328.8,300.8,328.8,300.3z"/>
		<path id="XMLID_1277_" class="st3" d="M328.8,300.3v4.4c0,0.5,0.3,1,1,1.4l13.3,7.7v-4.4l0,0l-13.3-7.7
			C329.1,301.3,328.8,300.8,328.8,300.3z"/>
	</g>
	<g id="Brush">
		<g id="XMLID_1715_">
			<path id="XMLID_1698_" class="st10" d="M421,268.4l-11.9-6.9c-0.2-0.1-0.4-0.4-0.4-0.8c0-0.8,0.6-1.8,1.3-2.2
				c0.4-0.2,0.7-0.2,0.9-0.1l11.9,6.9L421,268.4z"/>
			<polygon id="XMLID_1718_" class="st11" points="419.8,263.5 416.2,265.6 421,268.4 422.8,265.3 			"/>
		</g>
		<g id="XMLID_1631_">
			<g id="XMLID_1636_">
				<g id="XMLID_1640_">
					<path id="XMLID_893_" class="st11" d="M433.3,269.2l-2.4-1.4l2.4-1.4l-5-2.9c-1.5-0.9-3.9-0.9-5.4,0l-4.3,2.5
						c-0.7,0.4-1.1,0.9-1.1,1.5c0,0.1,0,2.5,0,3c0,0.5,0.4,1.1,1.1,1.5l5,2.9L433.3,269.2z"/>
					<path id="XMLID_892_" class="st10" d="M418.6,266l4.3-2.5c1.5-0.9,3.9-0.9,5.4,0l5,2.9l-9.7,5.6l-5-2.9
						C417.1,268.3,417.1,266.9,418.6,266z"/>
					<polygon id="XMLID_891_" class="st0" points="423.6,272 433.3,266.4 440.6,270.6 430.9,276.2 					"/>
					<polygon id="XMLID_890_" class="st23" points="423.6,272 430.9,276.2 430.9,279 423.6,274.8 					"/>
				</g>
				<polygon id="XMLID_1639_" class="st2" points="421.5,270.8 431.1,265.2 430.1,264.6 420.4,270.2 				"/>
				<polygon id="XMLID_1637_" class="st2" points="421.5,270.8 421.5,273.6 420.4,273 420.4,270.2 				"/>
				<polygon id="XMLID_1716_" class="st4" points="421.5,270.8 421.5,273.6 420.4,273 420.4,270.2 				"/>
			</g>
			<path id="XMLID_1635_" class="st2" d="M428.7,277.7c0,0-1.3-1.7-0.6-3.2l2.8,1.6l0,2.8L428.7,277.7z"/>
			<path id="XMLID_1717_" class="st4" d="M428.7,277.7c0,0-1.3-1.7-0.6-3.2l2.8,1.6l0,2.8L428.7,277.7z"/>
			<path id="XMLID_1634_" class="st2" d="M428,274.6c0,0,0.2-1.9,2-2.7c1.3-0.6,4.1,0.6,5.3-1.3c0.8-1.3-0.1-3.1-0.1-3.1l5.3,3.1
				l-9.7,5.6L428,274.6z"/>
			<polygon id="XMLID_1633_" class="st2" points="440.6,270.6 440.6,273.4 430.9,279 430.9,276.2 			"/>
			<polygon id="XMLID_1719_" class="st24" points="440.6,270.6 440.6,273.4 430.9,279 430.9,276.2 			"/>
		</g>
	</g>
</g>
<g id="Light_Bulb">
	<g id="Light">
		<g id="XMLID_1736_">
			<g id="XMLID_924_">
				<g id="XMLID_2441_">
					<path id="XMLID_2442_" class="st11" d="M419.3,192.6c0,3-2.5,5.5-5.5,5.5c-3,0-5.5-2.5-5.5-5.5c0-3,2.5-5.5,5.5-5.5
						C416.9,187.1,419.3,189.6,419.3,192.6z"/>
				</g>
				<g id="XMLID_2438_">
					<path id="XMLID_2439_" class="st10" d="M407.3,193c-3.6-2.1-3.6-5.5,0-7.6c3.6-2.1,9.5-2.1,13.2,0c3.6,2.1,3.6,5.5,0,7.6
						C416.8,195.1,410.9,195.1,407.3,193z"/>
				</g>
				<g id="XMLID_2436_">
					<path id="XMLID_2437_" class="st11" d="M407.1,191c-3.7-2.2-3.7-5.7,0-7.8c3.7-2.2,9.8-2.2,13.6,0c3.7,2.2,3.7,5.7,0,7.8
						C416.9,193.1,410.8,193.1,407.1,191z"/>
				</g>
				<g id="XMLID_2434_">
					<path id="XMLID_2435_" class="st10" d="M406.8,188.9c-3.9-2.2-3.9-5.8,0-8.1c3.9-2.2,10.1-2.2,14,0c3.9,2.2,3.9,5.8,0,8.1
						C417,191.2,410.7,191.2,406.8,188.9z"/>
				</g>
				<g id="XMLID_2431_">
					<path id="XMLID_2433_" class="st11" d="M406.6,186.8c-4-2.3-4-6,0-8.3c4-2.3,10.4-2.3,14.4,0c4,2.3,4,6,0,8.3
						C417.1,189.1,410.6,189.1,406.6,186.8z"/>
				</g>
				<g id="XMLID_2429_">
					<path id="XMLID_928_" class="st10" d="M406.5,184.6c-4.1-2.3-4.1-6.1,0-8.5c4.1-2.3,10.6-2.3,14.7,0c4.1,2.3,4.1,6.1,0,8.5
						C417.1,187,410.5,187,406.5,184.6z"/>
				</g>
				<g id="XMLID_926_">
					<path id="XMLID_927_" class="st23" d="M413.8,120.8c-14.4,0-26.1,11.7-26.1,26.1c0,20.7,17.1,24.2,17.1,32.5
						c0,1.3,0.9,2.7,2.6,3.7c3.5,2,9.2,2,12.7,0c1.8-1,2.6-2.3,2.6-3.7h0c0-8.4,17.1-11.8,17.1-32.5
						C440,132.4,428.3,120.8,413.8,120.8z"/>
				</g>
				<g id="XMLID_2415_">
					<path id="XMLID_925_" class="st1" d="M409,182c-2.6-1.5-2.6-4,0-5.5c2.6-1.5,6.9-1.5,9.6,0c2.6,1.5,2.6,4,0,5.5
						C416,183.5,411.7,183.5,409,182z"/>
				</g>
			</g>
		</g>
		<g id="XMLID_923_">
			<path id="XMLID_2457_" class="st13" d="M417.3,178.5c-0.5,0-0.9-0.4-0.9-0.9c0-0.3-0.1-7,1.8-14.9c0.4-1.5,0.8-2.9,1.3-4.2
				c-0.7-0.3-1.5-0.6-2.3-1.1c-1.4-0.9-2.6-1.9-3.5-2.9c-0.9,1-2.1,2.1-3.5,2.9c-0.8,0.5-1.5,0.8-2.3,1.1c0.5,1.2,0.9,2.6,1.3,4.2
				c2,7.9,1.8,14.6,1.8,14.9c0,0.5-0.4,0.8-0.9,0.9c-0.5,0-0.9-0.4-0.9-0.9c0-0.1,0.1-6.8-1.8-14.5c-0.4-1.6-0.9-3-1.3-4.1
				c-2.2,0.3-3.9-0.3-4.9-1.5c-1-1.1-1.2-2.6-0.4-3.7c0.6-0.8,1.5-1.2,2.4-1c1.4,0.3,2.8,1.7,3.9,4.1c0.6-0.2,1.3-0.5,2.1-1
				c1.4-0.9,2.5-1.9,3.3-2.8c-1.2-1.9-1.7-3.7-1.3-5c0.3-1.1,1.2-1.8,2.4-1.8c1.2,0,2.1,0.7,2.4,1.8c0.4,1.3-0.1,3.1-1.3,5
				c0.8,1,1.9,2,3.3,2.8c0.7,0.4,1.4,0.8,2.1,1c1.2-2.3,2.5-3.8,3.9-4.1c0.9-0.2,1.8,0.2,2.4,1c0.8,1.1,0.6,2.6-0.4,3.7
				c-1,1.1-2.8,1.8-4.9,1.5c-0.5,1.1-0.9,2.5-1.3,4.1c-1.9,7.7-1.8,14.4-1.8,14.5C418.2,178.1,417.8,178.5,417.3,178.5
				C417.3,178.5,417.3,178.5,417.3,178.5z M403,154.6c-0.2,0-0.3,0.1-0.5,0.3c-0.4,0.6,0.1,1.2,0.2,1.4c0.6,0.6,1.6,1,2.8,0.9
				c-0.9-1.7-1.9-2.6-2.4-2.7C403.1,154.7,403,154.6,403,154.6z M422.1,157.3c1.3,0.1,2.3-0.3,2.8-0.9c0.2-0.2,0.7-0.8,0.2-1.4
				c-0.2-0.3-0.5-0.4-0.6-0.3C424,154.8,423.1,155.6,422.1,157.3z M413.8,148.2c-0.5,0-0.6,0.2-0.7,0.5c-0.2,0.7,0,1.7,0.7,2.9
				c0.6-1.2,0.9-2.2,0.7-2.9C414.4,148.4,414.3,148.2,413.8,148.2z"/>
		</g>
		<g id="XMLID_2448_">
			<path id="XMLID_922_" class="st0" d="M413.8,115.1c-1,0-1.8-0.8-1.8-1.8v-10.2c0-1,0.8-1.8,1.8-1.8c1,0,1.8,0.8,1.8,1.8v10.2
				C415.6,114.3,414.8,115.1,413.8,115.1z"/>
		</g>
		<g id="XMLID_920_">
			<path id="XMLID_921_" class="st0" d="M397.7,119.4c-0.8,0.5-1.9,0.2-2.4-0.6l-5.1-8.8c-0.5-0.8-0.2-1.9,0.6-2.4
				c0.8-0.5,1.9-0.2,2.4,0.6l5.1,8.8C398.9,117.8,398.6,118.9,397.7,119.4z"/>
		</g>
		<g id="XMLID_918_">
			<path id="XMLID_919_" class="st0" d="M385.9,131.2c-0.5,0.8-1.6,1.1-2.4,0.6l-8.8-5.1c-0.8-0.5-1.1-1.6-0.6-2.4
				c0.5-0.8,1.6-1.1,2.4-0.6l8.8,5.1C386.1,129.2,386.4,130.3,385.9,131.2z"/>
		</g>
		<g id="XMLID_1352_">
			<path id="XMLID_1353_" class="st0" d="M381.6,147.3c0,1-0.8,1.8-1.8,1.8h-10.2c-1,0-1.8-0.8-1.8-1.8c0-1,0.8-1.8,1.8-1.8h10.2
				C380.8,145.5,381.6,146.3,381.6,147.3z"/>
		</g>
		<g id="XMLID_1354_">
			<path id="XMLID_2446_" class="st0" d="M385.9,163.4c0.5,0.8,0.2,1.9-0.6,2.4l-8.8,5.1c-0.8,0.5-1.9,0.2-2.4-0.6
				c-0.5-0.8-0.2-1.9,0.6-2.4l8.8-5.1C384.3,162.3,385.4,162.6,385.9,163.4z"/>
		</g>
		<g id="XMLID_916_">
			<path id="XMLID_917_" class="st0" d="M441.7,163.4c0.5-0.8,1.6-1.1,2.4-0.6l8.8,5.1c0.8,0.5,1.1,1.6,0.6,2.4
				c-0.5,0.8-1.6,1.1-2.4,0.6l-8.8-5.1C441.5,165.3,441.3,164.2,441.7,163.4z"/>
		</g>
		<g id="XMLID_898_">
			<path id="XMLID_906_" class="st0" d="M446.1,147.3c0-1,0.8-1.8,1.8-1.8H458c1,0,1.8,0.8,1.8,1.8c0,1-0.8,1.8-1.8,1.8h-10.2
				C446.9,149.1,446.1,148.3,446.1,147.3z"/>
		</g>
		<g id="XMLID_896_">
			<path id="XMLID_897_" class="st0" d="M441.7,131.2c-0.5-0.8-0.2-1.9,0.6-2.4l8.8-5.1c0.8-0.5,1.9-0.2,2.4,0.6
				c0.5,0.8,0.2,1.9-0.6,2.4l-8.8,5.1C443.3,132.3,442.2,132,441.7,131.2z"/>
		</g>
		<g id="XMLID_894_">
			<path id="XMLID_895_" class="st0" d="M429.9,119.4c-0.8-0.5-1.1-1.6-0.6-2.4l5.1-8.8c0.5-0.8,1.6-1.1,2.4-0.6
				c0.8,0.5,1.1,1.6,0.6,2.4l-5.1,8.8C431.9,119.6,430.8,119.9,429.9,119.4z"/>
		</g>
	</g>
</g>
<g id="Tools">
	<g id="Screwdriver">
		<path id="XMLID_1728_" class="st2" d="M280.7,331.3l6.9,11.9l23.2-13.4c1-0.5,1.6-1.6,1.6-3.2c0-3.1-2.2-6.9-4.9-8.4
			c-1.3-0.8-2.6-0.9-3.4-0.3l0,0L280.7,331.3z"/>
		<path id="XMLID_1723_" class="st2" d="M279.3,333.8L279.3,333.8c-0.1,1.8-2.7,2.2-2.7,2.2l4.9,8.4c0,0,1.6-2,3.2-1.2l0,0
			c2.4,1,4.3-0.2,4.3-3.1c0-3.1-2.2-6.9-4.9-8.4C281.7,330.2,279.6,331.2,279.3,333.8z"/>
		<path id="XMLID_1730_" class="st25" d="M279.3,333.8L279.3,333.8c-0.1,1.8-2.7,2.2-2.7,2.2l4.9,8.4c0,0,1.6-2,3.2-1.2l0,0
			c2.4,1,4.3-0.2,4.3-3.1c0-3.1-2.2-6.9-4.9-8.4C281.7,330.2,279.6,331.2,279.3,333.8z"/>
		<path id="XMLID_1814_" class="st25" d="M277.8,335.6c-0.6,0.3-1.2,0.4-1.2,0.4l4.9,8.4c0,0,0.4-0.4,0.9-0.8
			C282.3,340.6,280.3,337.2,277.8,335.6z"/>
		<path id="XMLID_931_" class="st2" d="M271.6,336.6l0.4,0.7c-0.1,0.4-0.2,0.9-0.2,1.5c0,3.1,2.2,6.9,4.9,8.4c0.5,0.3,1,0.5,1.4,0.6
			l0.4,0.7l1.6-0.9l0,0c0.9-0.5,1.4-1.6,1.4-3.2c0-3.1-2.2-6.9-4.9-8.4c-1.3-0.8-2.6-0.8-3.4-0.3l0,0L271.6,336.6z"/>
		<g id="XMLID_1729_">
			<path id="XMLID_930_" class="st2" d="M279.9,345.3c0-3.1-2.2-6.9-4.9-8.4c-2.7-1.6-4.9-0.3-4.9,2.8c0,3.1,2.2,6.9,4.9,8.4
				C277.7,349.7,279.9,348.4,279.9,345.3z"/>
			<path id="XMLID_1724_" class="st4" d="M279.9,345.3c0-3.1-2.2-6.9-4.9-8.4c-2.7-1.6-4.9-0.3-4.9,2.8c0,3.1,2.2,6.9,4.9,8.4
				C277.7,349.7,279.9,348.4,279.9,345.3z"/>
		</g>
		<path id="XMLID_929_" class="st3" d="M308.4,323.2L308.4,323.2c0.4,0.6,0.2,1.5-0.5,1.8l-16.6,9.6c-0.6,0.4-1.5,0.2-1.8-0.5l0,0
			c-0.4-0.6-0.2-1.5,0.5-1.8l16.6-9.6C307.2,322.4,308,322.6,308.4,323.2z"/>
		<path id="XMLID_1726_" class="st3" d="M305.4,319.7L305.4,319.7c0.5,0.4,0.5,1.1-0.1,1.4l-16.9,9.8c-0.6,0.3-1.4,0.2-2-0.2l0,0
			c-0.5-0.4-0.5-1.1,0.1-1.4l16.9-9.8C304,319.1,304.9,319.2,305.4,319.7z"/>
		<path id="XMLID_1727_" class="st3" d="M310,327.6L310,327.6c-0.1-0.7-0.7-1-1.2-0.6l-16.9,9.8c-0.6,0.3-0.9,1.1-0.8,1.8l0,0
			c0.1,0.7,0.7,1,1.2,0.6l16.9-9.8C309.8,329.1,310.1,328.3,310,327.6z"/>
		<g id="XMLID_1816_">
			<path id="XMLID_1752_" class="st10" d="M232.3,365v3.2l8.1-2.6c0,0,1.6-3,3.2-3.9l30.8-17.8l1-2.7l-1-0.6l-30.8,17.8
				c-1.6,0.9-3.2-0.2-3.2-0.2L232.3,365z"/>
			<path id="XMLID_1753_" class="st11" d="M233.3,365.6v3.2l8.1-2.6c0,0,1.6-3,3.2-3.9l30.8-17.8v-3.2L244.6,359
				c-1.6,0.9-3.2-0.2-3.2-0.2L233.3,365.6z"/>
			<polygon id="XMLID_1731_" class="st22" points="233.3,368.8 232.3,368.3 232.3,365 233.3,365.6 			"/>
			<polygon id="XMLID_1815_" class="st10" points="232.3,365 233.3,365.6 241.4,358.8 240.4,358.3 			"/>
		</g>
	</g>
	<g id="Wrench_1_">
		<path class="st11" d="M332.4,345.8c0,0.2,0,0.3-0.1,0.5c-0.6,0.9-1.5,1.7-2.7,2.4c-3.3,1.9-8.1,2.4-12.1,1.5L277,373.5
			c0,0,0,0.1,0.1,0.1l0.6-0.1v2.3c0,1.7-1.1,3.5-3.5,4.8c-4.6,2.6-11.9,2.6-16.4-0.1c-0.1,0-0.2-0.1-0.3-0.2
			c-0.1-0.1-0.2-0.2-0.2-0.3v-2.2l10.5,0.6l1.5-3.2l-0.9-0.5l-3.2-1.9l-9.8,1.4c-0.3,0-0.5-0.2-0.5-0.4v-2.4l2.8-0.5
			c0,0,8.1-2.4,12.2-1.5l40.3-23.3c-0.5-0.8-0.7-1.6-0.7-2.4c0,0,0-2.3,0-2.3l0.6,0.2c0.6-1,1.5-1.9,2.8-2.6
			c4.6-2.6,16.9-1.9,16.9-1.9v2.2c0,0.1-0.1,0.2-0.2,0.2l-10.3,1.5l-0.7,1.4l-0.9,1.8l4,2.4l10-3.6l0.2,0.4V345.8z"/>
		<path class="st22" d="M269.4,373l-0.9,1.8l-3.2-1.9l-9.8,1.4c-0.3,0-0.5-0.2-0.5-0.4v-2.4l10.3-0.9L269.4,373z"/>
		<path class="st22" d="M319.6,338.9l10.5-1.7v2.3c0,0.1-0.1,0.2-0.2,0.2l-10.3,1.5l-0.7,1.4l-0.9-0.5L319.6,338.9z"/>
		<polygon id="XMLID_934_" class="st11" points="317.4,350.2 317.4,347.9 277,371.2 277,373.5 		"/>
		<path id="XMLID_933_" class="st10" d="M258,368.7c-1.3,0.7-2.2,1.6-2.8,2.5c-0.2,0.4,0.1,0.9,0.5,0.8l9.6-1.4l4,2.4l-1.5,3.2
			l-10.1,1.5c-0.4,0.1-0.5,0.2-0.3,0.3c0.1,0.1,0.2,0.2,0.4,0.2c4.5,2.6,11.9,2.7,16.4,0.1c3.4-1.9,4.3-4.7,2.8-7.1l40.3-23.3
			c4.1,0.9,8.8,0.4,12.1-1.5c1.3-0.7,2.2-1.6,2.8-2.5c0.2-0.4-0.1-0.9-0.5-0.8l-9.6,1.4l-4-2.4l1.5-3.2l10.1-1.5
			c0.4-0.1,0.5-0.2,0.3-0.3c-0.1-0.1-0.2-0.2-0.4-0.2c-4.5-2.6-11.9-2.7-16.4-0.1c-3.4,1.9-4.3,4.7-2.8,7.1l-40.3,23.3
			C266,366.3,261.3,366.8,258,368.7z"/>
	</g>
	<g id="Gears">
		<g id="XMLID_1693_">
			<path id="XMLID_1902_" class="st2" d="M352.1,357.9L352.1,357.9c0,0.2,0.1,0.4,0.4,0.5l3.1,1.6c0.4,0.2,0.6,0.7,0.4,1.2
				c-0.1,0.3-0.2,0.6-0.3,0.8c-0.1,0.5-0.6,0.9-1,1l-4.9-2.6l0,4l0,0c0,0.1,0,0.2,0,0.2l0.7,2.2c0.1,0.5,0.7,0.8,1.1,0.8l4.5-0.2
				c0.5,0,1.1,0.3,1.5,0.6c0,0,0.1,0.1,0.1,0.1c-0.4,0.1-0.9,0.3-0.9,0.3l0,4l0,0c0,0.2,0.1,0.4,0.4,0.5l3.9,1.6
				c0.4,0.2,1.1,0.1,1.5-0.2l2.6-1.8c0.4-0.3,1.1-0.4,1.6-0.3c0.8,0.1,1.7,0.3,2.5,0.3c0.5,0,1.1,0.4,1.3,0.8l1,1.9
				c0.2,0.4,0.8,0.7,1.3,0.7l4.9-0.5c0.4,0,0.8-0.4,0.8-0.8l0,0l0-2.7c0.1-0.2,0.3-0.3,0.5-0.4c0.7-0.2,1.4-0.5,2-0.8
				c0.4-0.2,1.2-0.3,1.6-0.1l3.8,1.2c0.5,0.1,1.1,0,1.5-0.3l2.5-2.1c0.2-0.1,0.2-0.3,0.2-0.4l0,0l0-4.1l-3.5,2
				c-0.4-0.2-0.6-0.7-0.4-1.2c0.1-0.3,0.2-0.6,0.3-0.8c0.1-0.5,0.6-0.9,1-1l4.3-0.7c0.4-0.1,0.6-0.4,0.6-0.7l0,0l0-4l-2.7,0.5
				l-3.6,0.5c-0.5,0-1.1-0.3-1.5-0.6c-0.3-0.3-0.7-0.6-1.1-1c-0.4-0.3-0.4-0.8-0.1-1.1l1.8-1.9c0.1-0.1,0.2-0.3,0.2-0.4l0,0l0-4.1
				l-3.1,2.5l-1.3-0.5c-0.4-0.2-1.1-0.1-1.5,0.2l-2.6,1.8c-0.4,0.3-1.1,0.4-1.6,0.3c-0.8-0.1-1.5-0.7-2.4-0.7c-0.5,0-1.2,0-1.4-0.4
				l-1-1.9c-0.2-0.4-0.8-0.7-1.3-0.7l-4.9,0.5c-0.5,0.1-0.8,0.5-0.8,1l0.2,1.9c0.1,0.5-0.3,1-0.7,1.1c-0.7,0.2-1.4,0.5-2,0.8
				c-0.4,0.2-1.2,0.3-1.6,0.1l-3.8-1.2c-0.3-0.1-0.8-0.1-1.1,0.1l-3.1-1.3L352.1,357.9z M376.8,359.1c4.3,1.7,5.3,5.1,2.4,7.5
				c-3,2.5-8.6,2.3-12.8,0.6c-4.3-1.7-5.5-4.3-2.6-6.8C366.7,358.1,372.5,357.4,376.8,359.1z"/>
			<path id="XMLID_950_" class="st3" d="M352.1,357.9L352.1,357.9c0,0.2,0.1,0.4,0.4,0.5l3.1,1.6c0.4,0.2,0.6,0.7,0.4,1.2
				c-0.1,0.3-0.2,0.6-0.3,0.8c-0.1,0.5-0.6,0.9-1,1l-4.9-2.6l0,4l0,0c0,0.1,0,0.2,0,0.2l0.7,2.2c0.1,0.5,0.7,0.8,1.1,0.8l4.5-0.2
				c0.5,0,1.1,0.3,1.5,0.6c0,0,0.1,0.1,0.1,0.1c-0.4,0.1-0.9,0.3-0.9,0.3l0,4l0,0c0,0.2,0.1,0.4,0.4,0.5l3.9,1.6
				c0.4,0.2,1.1,0.1,1.5-0.2l2.6-1.8c0.4-0.3,1.1-0.4,1.6-0.3c0.8,0.1,1.7,0.3,2.5,0.3c0.5,0,1.1,0.4,1.3,0.8l1,1.9
				c0.2,0.4,0.8,0.7,1.3,0.7l4.9-0.5c0.4,0,0.8-0.4,0.8-0.8l0,0l0-2.7c0.1-0.2,0.3-0.3,0.5-0.4c0.7-0.2,1.4-0.5,2-0.8
				c0.4-0.2,1.2-0.3,1.6-0.1l3.8,1.2c0.5,0.1,1.1,0,1.5-0.3l2.5-2.1c0.2-0.1,0.2-0.3,0.2-0.4l0,0l0-4.1l-3.5,2
				c-0.4-0.2-0.6-0.7-0.4-1.2c0.1-0.3,0.2-0.6,0.3-0.8c0.1-0.5,0.6-0.9,1-1l4.3-0.7c0.4-0.1,0.6-0.4,0.6-0.7l0,0l0-4l-2.7,0.5
				l-3.6,0.5c-0.5,0-1.1-0.3-1.5-0.6c-0.3-0.3-0.7-0.6-1.1-1c-0.4-0.3-0.4-0.8-0.1-1.1l1.8-1.9c0.1-0.1,0.2-0.3,0.2-0.4l0,0l0-4.1
				l-3.1,2.5l-1.3-0.5c-0.4-0.2-1.1-0.1-1.5,0.2l-2.6,1.8c-0.4,0.3-1.1,0.4-1.6,0.3c-0.8-0.1-1.5-0.7-2.4-0.7c-0.5,0-1.2,0-1.4-0.4
				l-1-1.9c-0.2-0.4-0.8-0.7-1.3-0.7l-4.9,0.5c-0.5,0.1-0.8,0.5-0.8,1l0.2,1.9c0.1,0.5-0.3,1-0.7,1.1c-0.7,0.2-1.4,0.5-2,0.8
				c-0.4,0.2-1.2,0.3-1.6,0.1l-3.8-1.2c-0.3-0.1-0.8-0.1-1.1,0.1l-3.1-1.3L352.1,357.9z M376.8,359.1c4.3,1.7,5.3,5.1,2.4,7.5
				c-3,2.5-8.6,2.3-12.8,0.6c-4.3-1.7-5.5-4.3-2.6-6.8C366.7,358.1,372.5,357.4,376.8,359.1z"/>
			<path id="XMLID_1915_" class="st2" d="M382.7,370.9l3.8,1.2c0.3,0.1,0.6,0.1,1,0v-5l-0.2,0.1c-0.4-0.2-0.6-0.7-0.4-1.2
				c0,0,0,0,0,0l-4.2-2.4L382.7,370.9z"/>
			<path id="XMLID_1914_" class="st2" d="M372,368.5c-0.6,0-1.2-0.1-1.8-0.2l0,4.8c0.2,0.1,0.3,0.3,0.4,0.5l1,1.9
				c0.1,0.3,0.4,0.5,0.7,0.6v-7.4L372,368.5z"/>
			<path id="XMLID_1943_" class="st2" d="M352.1,353.9c0,0.2,0.1,0.4,0.4,0.5l3.2,1.6c0.4,0.2,0.6,0.7,0.4,1.2
				c-0.1,0.3-0.2,0.6-0.3,0.9c-0.1,0.5-0.6,0.9-1,1l-0.8,0.1l-1.4-0.7c-0.2-0.1-0.4-0.3-0.4-0.5l0,0L352.1,353.9z"/>
			<path id="XMLID_1912_" class="st2" d="M355.7,361.9c0,0,0,0.1-0.1,0.1c-0.1,0.5-0.6,0.9-1,1l-4.9-2.6l0,4l0,0c0,0.1,0,0.2,0,0.2
				l0.7,2.2c0.1,0.5,0.7,0.8,1.1,0.8l4.5-0.2c0.2,0,0.5,0.1,0.7,0.1v-5.4L355.7,361.9z"/>
			<path id="XMLID_938_" class="st2" d="M362.1,374.7v-5l-4.6-1.5c-0.4,0.1-0.8,0.3-0.8,0.3l0,4l0,0c0,0.2,0.1,0.4,0.4,0.5l3.9,1.6
				C361.3,374.8,361.7,374.8,362.1,374.7z"/>
			<path id="XMLID_1843_" class="st2" d="M354.9,351.4l-2.5,2.1c-0.4,0.3-0.3,0.7,0.1,0.9l3.1,1.6c0.4,0.2,0.6,0.7,0.4,1.2
				c-0.1,0.3-0.2,0.6-0.3,0.8c-0.1,0.5-0.6,0.9-1,1l-4.3,0.7c-0.5,0.1-0.7,0.5-0.6,1l0.7,2.2c0.1,0.5,0.7,0.8,1.1,0.8l4.5-0.2
				c0.5,0,1.1,0.3,1.5,0.6c0.3,0.3,0.7,0.6,1.1,1c0.4,0.3,0.4,0.8,0.1,1.1l-1.8,1.9c-0.3,0.4-0.2,0.8,0.2,1l3.9,1.6
				c0.4,0.2,1.1,0.1,1.5-0.2l2.6-1.8c0.4-0.3,1.1-0.4,1.6-0.3c0.8,0.1,1.7,0.3,2.5,0.3c0.5,0,1.1,0.4,1.3,0.8l1,1.9
				c0.2,0.4,0.8,0.7,1.3,0.7l4.9-0.5c0.5,0,0.8-0.5,0.8-1l-0.2-1.9c-0.1-0.5,0.3-1,0.7-1.1c0.7-0.2,1.4-0.5,2-0.8
				c0.4-0.2,1.2-0.3,1.6-0.1l3.8,1.2c0.5,0.1,1.1,0,1.5-0.3l2.5-2.1c0.4-0.3,0.3-0.7-0.1-1l-3.1-1.6c-0.4-0.2-0.6-0.7-0.4-1.2
				c0.1-0.3,0.2-0.6,0.3-0.8c0.1-0.5,0.6-0.9,1-1l4.3-0.7c0.5-0.1,0.7-0.5,0.6-1l-0.7-2.2c-0.1-0.5-0.7-0.8-1.1-0.8l-4.5,0.2
				c-0.5,0-1.1-0.3-1.5-0.6c-0.3-0.3-0.7-0.6-1.1-1c-0.4-0.3-0.4-0.8-0.1-1.1l1.8-1.9c0.3-0.4,0.2-0.8-0.2-1l-3.9-1.6
				c-0.4-0.2-1.1-0.1-1.5,0.2l-2.6,1.8c-0.4,0.3-1.1,0.4-1.6,0.3c-0.8-0.1-1.7-0.3-2.5-0.3c-0.5,0-1.1-0.4-1.3-0.8l-1-1.9
				c-0.2-0.4-0.8-0.7-1.3-0.7l-4.9,0.5c-0.5,0.1-0.8,0.5-0.8,1l0.2,1.9c0.1,0.5-0.3,1-0.7,1.1c-0.7,0.2-1.4,0.5-2,0.8
				c-0.4,0.2-1.2,0.3-1.6,0.1l-3.8-1.2C355.9,350.9,355.2,351.1,354.9,351.4z M376.8,355.1c4.3,1.7,5.3,5.1,2.4,7.5
				c-3,2.5-8.8,3.1-13,1.4c-4.3-1.7-5.3-5.1-2.4-7.5C366.7,354,372.5,353.4,376.8,355.1z"/>
			<path id="XMLID_943_" class="st24" d="M354.9,351.4l-2.5,2.1c-0.4,0.3-0.3,0.7,0.1,0.9l3.1,1.6c0.4,0.2,0.6,0.7,0.4,1.2
				c-0.1,0.3-0.2,0.6-0.3,0.8c-0.1,0.5-0.6,0.9-1,1l-4.3,0.7c-0.5,0.1-0.7,0.5-0.6,1l0.7,2.2c0.1,0.5,0.7,0.8,1.1,0.8l4.5-0.2
				c0.5,0,1.1,0.3,1.5,0.6c0.3,0.3,0.7,0.6,1.1,1c0.4,0.3,0.4,0.8,0.1,1.1l-1.8,1.9c-0.3,0.4-0.2,0.8,0.2,1l3.9,1.6
				c0.4,0.2,1.1,0.1,1.5-0.2l2.6-1.8c0.4-0.3,1.1-0.4,1.6-0.3c0.8,0.1,1.7,0.3,2.5,0.3c0.5,0,1.1,0.4,1.3,0.8l1,1.9
				c0.2,0.4,0.8,0.7,1.3,0.7l4.9-0.5c0.5,0,0.8-0.5,0.8-1l-0.2-1.9c-0.1-0.5,0.3-1,0.7-1.1c0.7-0.2,1.4-0.5,2-0.8
				c0.4-0.2,1.2-0.3,1.6-0.1l3.8,1.2c0.5,0.1,1.1,0,1.5-0.3l2.5-2.1c0.4-0.3,0.3-0.7-0.1-1l-3.1-1.6c-0.4-0.2-0.6-0.7-0.4-1.2
				c0.1-0.3,0.2-0.6,0.3-0.8c0.1-0.5,0.6-0.9,1-1l4.3-0.7c0.5-0.1,0.7-0.5,0.6-1l-0.7-2.2c-0.1-0.5-0.7-0.8-1.1-0.8l-4.5,0.2
				c-0.5,0-1.1-0.3-1.5-0.6c-0.3-0.3-0.7-0.6-1.1-1c-0.4-0.3-0.4-0.8-0.1-1.1l1.8-1.9c0.3-0.4,0.2-0.8-0.2-1l-3.9-1.6
				c-0.4-0.2-1.1-0.1-1.5,0.2l-2.6,1.8c-0.4,0.3-1.1,0.4-1.6,0.3c-0.8-0.1-1.7-0.3-2.5-0.3c-0.5,0-1.1-0.4-1.3-0.8l-1-1.9
				c-0.2-0.4-0.8-0.7-1.3-0.7l-4.9,0.5c-0.5,0.1-0.8,0.5-0.8,1l0.2,1.9c0.1,0.5-0.3,1-0.7,1.1c-0.7,0.2-1.4,0.5-2,0.8
				c-0.4,0.2-1.2,0.3-1.6,0.1l-3.8-1.2C355.9,350.9,355.2,351.1,354.9,351.4z M376.8,355.1c4.3,1.7,5.3,5.1,2.4,7.5
				c-3,2.5-8.8,3.1-13,1.4c-4.3-1.7-5.3-5.1-2.4-7.5C366.7,354,372.5,353.4,376.8,355.1z"/>
		</g>
		<g id="XMLID_1694_">
			<path id="XMLID_1813_" class="st2" d="M400.2,332.8l0,4c0,0,0,0,0,0c0,0.2,0.1,0.3,0.3,0.5l5.5,4c0.4,0.3,0.4,0.8,0.1,1.1
				c-0.8,0.9-1.5,1.8-2,2.7c-0.2,0.4-0.8,0.8-1.3,0.8l-9.3,0.6c-0.5,0-0.9,0.4-0.9,0.9v5.2c0,0.5,0.4,0.9,0.9,0.9l9.3,0.6
				c0.5,0,1,0.4,1.3,0.8c0.3,0.5,0.6,1,1,1.5l-4.9,2.8l0,4l0,0c0,0.2,0.1,0.3,0.3,0.5l7,4c0.4,0.2,1.1,0.3,1.5,0.1l7.1-3.3
				c0.4-0.2,1.2-0.2,1.6-0.1c1.8,0.6,3.6,1,5.5,1.3c0.5,0.1,0.9,0.5,1,1l0.9,4.7c0.1,0.5,0.6,0.9,1,0.9l10.3,0c0.5,0,0.9-0.4,1-0.9
				l0.9-4.7c0.1-0.5,0.5-0.9,1-1c1.9-0.3,3.7-0.8,5.5-1.3c0.5-0.1,1.2-0.1,1.6,0.1l7.1,3.3c0.4,0.2,1.1,0.2,1.5-0.1l7-4
				c0.2-0.1,0.3-0.3,0.3-0.5c0,0,0,0,0,0l0-4l-4.7-3.2c0.3-0.4,0.5-0.8,0.7-1.1c0.2-0.4,0.8-0.8,1.3-0.8l9.3-0.6
				c0.5,0,0.9-0.4,0.9-0.9v-5.2c0-0.5-0.4-0.9-0.9-0.9l-9.3-0.6c-0.5,0-1-0.4-1.3-0.8c-0.5-0.9-1.2-1.9-2-2.7
				c-0.3-0.4-0.3-0.9,0.1-1.1l5.5-4c0.2-0.1,0.3-0.3,0.3-0.5l0,0l0-4l-7.3-0.5c-0.4-0.2-1.1-0.3-1.5-0.1l-7.1,3.3
				c-0.4,0.2-1.1,0.1-1.5-0.2c-1.7-1.3-4-2.3-6-2.8c-0.5-0.1-0.9-0.5-1-1l-0.5-2.9c-0.1-0.5-0.6-0.9-1-0.9h-10.3
				c-0.5,0-0.9,0.4-1,0.9l-0.6,3.1c-0.1,0.5-0.6,0.9-1,1c-2,0.5-4.3,1.7-5.9,2.7c-0.4,0.3-1.1,0.3-1.5,0.1l-7.1-3.3
				c-0.4-0.2-1.1-0.2-1.5,0.1l-4.7-0.8L400.2,332.8z M443.2,343.2c6.5,3.8,6.2,8.6-0.3,12.4c-6.5,3.8-17.2,3.7-23.7-0.1
				c-6.5-3.8-6.1-8.6,0.4-12.3C426.1,339.4,436.7,339.4,443.2,343.2z"/>
			<path id="XMLID_947_" class="st3" d="M400.2,332.8l0,4c0,0,0,0,0,0c0,0.2,0.1,0.3,0.3,0.5l5.5,4c0.4,0.3,0.4,0.8,0.1,1.1
				c-0.8,0.9-1.5,1.8-2,2.7c-0.2,0.4-0.8,0.8-1.3,0.8l-9.3,0.6c-0.5,0-0.9,0.4-0.9,0.9v5.2c0,0.5,0.4,0.9,0.9,0.9l9.3,0.6
				c0.5,0,1,0.4,1.3,0.8c0.3,0.5,0.6,1,1,1.5l-4.9,2.8l0,4l0,0c0,0.2,0.1,0.3,0.3,0.5l7,4c0.4,0.2,1.1,0.3,1.5,0.1l7.1-3.3
				c0.4-0.2,1.2-0.2,1.6-0.1c1.8,0.6,3.6,1,5.5,1.3c0.5,0.1,0.9,0.5,1,1l0.9,4.7c0.1,0.5,0.6,0.9,1,0.9l10.3,0c0.5,0,0.9-0.4,1-0.9
				l0.9-4.7c0.1-0.5,0.5-0.9,1-1c1.9-0.3,3.7-0.8,5.5-1.3c0.5-0.1,1.2-0.1,1.6,0.1l7.1,3.3c0.4,0.2,1.1,0.2,1.5-0.1l7-4
				c0.2-0.1,0.3-0.3,0.3-0.5c0,0,0,0,0,0l0-4l-4.7-3.2c0.3-0.4,0.5-0.8,0.7-1.1c0.2-0.4,0.8-0.8,1.3-0.8l9.3-0.6
				c0.5,0,0.9-0.4,0.9-0.9v-5.2c0-0.5-0.4-0.9-0.9-0.9l-9.3-0.6c-0.5,0-1-0.4-1.3-0.8c-0.5-0.9-1.2-1.9-2-2.7
				c-0.3-0.4-0.3-0.9,0.1-1.1l5.5-4c0.2-0.1,0.3-0.3,0.3-0.5l0,0l0-4l-7.3-0.5c-0.4-0.2-1.1-0.3-1.5-0.1l-7.1,3.3
				c-0.4,0.2-1.1,0.1-1.5-0.2c-1.7-1.3-4-2.3-6-2.8c-0.5-0.1-0.9-0.5-1-1l-0.5-2.9c-0.1-0.5-0.6-0.9-1-0.9h-10.3
				c-0.5,0-0.9,0.4-1,0.9l-0.6,3.1c-0.1,0.5-0.6,0.9-1,1c-2,0.5-4.3,1.7-5.9,2.7c-0.4,0.3-1.1,0.3-1.5,0.1l-7.1-3.3
				c-0.4-0.2-1.1-0.2-1.5,0.1l-4.7-0.8L400.2,332.8z M443.2,343.2c6.5,3.8,6.2,8.6-0.3,12.4c-6.5,3.8-17.2,3.7-23.7-0.1
				c-6.5-3.8-6.1-8.6,0.4-12.3C426.1,339.4,436.7,339.4,443.2,343.2z"/>
			<path id="XMLID_1910_" class="st2" d="M396.6,346.3l-3.1,0.2c-0.5,0-0.9,0.4-0.9,0.9v5.2c0,0.5,0.4,0.9,0.9,0.9l9.3,0.6
				c0.2,0,0.3,0.1,0.5,0.1v-6.7L396.6,346.3z"/>
			<path id="XMLID_1909_" class="st2" d="M445.9,364.5c0.3,0,0.5,0.1,0.7,0.2l7.1,3.3c0.2,0.1,0.4,0.1,0.6,0.1v-4.5l-8.4-4.9
				L445.9,364.5z"/>
			<path id="XMLID_1907_" class="st2" d="M425.3,371.8c0.2,0.3,0.5,0.5,0.9,0.5l10.3,0c0.2,0,0.4-0.1,0.6-0.2l0-5.1l-11.8-1.3
				L425.3,371.8z"/>
			<path id="XMLID_1906_" class="st2" d="M408.6,368v-6.3l-6.2-3.6l-2.2,1.3l0,4l0,0c0,0.2,0.1,0.3,0.3,0.5l7,4
				C407.8,368,408.2,368.1,408.6,368z"/>
			<path id="XMLID_935_" class="st2" d="M407.5,328.2l-7,4c-0.4,0.2-0.4,0.7,0,0.9l5.5,4c0.4,0.3,0.4,0.8,0.1,1.1
				c-0.8,0.9-1.5,1.8-2,2.7c-0.2,0.4-0.8,0.8-1.3,0.8l-9.3,0.6c-0.5,0-0.9,0.4-0.9,0.9v5.2c0,0.5,0.4,0.9,0.9,0.9l9.3,0.6
				c0.5,0,1,0.4,1.3,0.8c0.5,0.9,1.2,1.9,2,2.7c0.3,0.4,0.3,0.9-0.1,1.1l-5.5,4c-0.4,0.3-0.4,0.7,0,0.9l7,4c0.4,0.2,1.1,0.3,1.5,0.1
				l7.1-3.3c0.4-0.2,1.2-0.2,1.6-0.1c1.8,0.6,3.6,1,5.5,1.3c0.5,0.1,0.9,0.5,1,1l0.9,4.7c0.1,0.5,0.6,0.9,1,0.9l10.3,0
				c0.5,0,0.9-0.4,1-0.9l0.9-4.7c0.1-0.5,0.5-0.9,1-1c1.9-0.3,3.7-0.8,5.5-1.3c0.5-0.1,1.2-0.1,1.6,0.1l7.1,3.3
				c0.4,0.2,1.1,0.2,1.5-0.1l7-4c0.4-0.2,0.4-0.7,0-0.9l-5.5-4c-0.4-0.3-0.4-0.8-0.1-1.1c0.8-0.9,1.5-1.8,2-2.7
				c0.2-0.4,0.8-0.8,1.3-0.8l9.3-0.6c0.5,0,0.9-0.4,0.9-0.9l0-5.2c0-0.5-0.4-0.9-0.9-0.9l-9.3-0.6c-0.5,0-1-0.4-1.3-0.8
				c-0.5-0.9-1.2-1.9-2-2.7c-0.3-0.4-0.3-0.9,0.1-1.1l5.5-4c0.4-0.3,0.4-0.7,0-0.9l-7-4c-0.4-0.2-1.1-0.3-1.5-0.1l-7.1,3.3
				c-0.4,0.2-1.2,0.2-1.6,0.1c-1.8-0.6-3.6-1-5.5-1.3c-0.5-0.1-0.9-0.5-1-1l-0.9-4.7c-0.1-0.5-0.6-0.9-1-0.9l-10.3,0
				c-0.5,0-0.9,0.4-1,0.9l-0.9,4.7c-0.1,0.5-0.5,0.9-1,1c-1.9,0.3-3.7,0.8-5.5,1.3c-0.5,0.1-1.2,0.1-1.6-0.1l-7.1-3.3
				C408.6,328,407.9,328,407.5,328.2z M443.2,339.2c6.5,3.8,6.5,9.9,0,13.6c-6.5,3.8-17.1,3.8-23.6,0c-6.5-3.8-6.5-9.9,0-13.6
				C426.1,335.5,436.7,335.5,443.2,339.2z"/>
			<path id="XMLID_940_" class="st24" d="M407.5,328.2l-7,4c-0.4,0.2-0.4,0.7,0,0.9l5.5,4c0.4,0.3,0.4,0.8,0.1,1.1
				c-0.8,0.9-1.5,1.8-2,2.7c-0.2,0.4-0.8,0.8-1.3,0.8l-9.3,0.6c-0.5,0-0.9,0.4-0.9,0.9v5.2c0,0.5,0.4,0.9,0.9,0.9l9.3,0.6
				c0.5,0,1,0.4,1.3,0.8c0.5,0.9,1.2,1.9,2,2.7c0.3,0.4,0.3,0.9-0.1,1.1l-5.5,4c-0.4,0.3-0.4,0.7,0,0.9l7,4c0.4,0.2,1.1,0.3,1.5,0.1
				l7.1-3.3c0.4-0.2,1.2-0.2,1.6-0.1c1.8,0.6,3.6,1,5.5,1.3c0.5,0.1,0.9,0.5,1,1l0.9,4.7c0.1,0.5,0.6,0.9,1,0.9l10.3,0
				c0.5,0,0.9-0.4,1-0.9l0.9-4.7c0.1-0.5,0.5-0.9,1-1c1.9-0.3,3.7-0.8,5.5-1.3c0.5-0.1,1.2-0.1,1.6,0.1l7.1,3.3
				c0.4,0.2,1.1,0.2,1.5-0.1l7-4c0.4-0.2,0.4-0.7,0-0.9l-5.5-4c-0.4-0.3-0.4-0.8-0.1-1.1c0.8-0.9,1.5-1.8,2-2.7
				c0.2-0.4,0.8-0.8,1.3-0.8l9.3-0.6c0.5,0,0.9-0.4,0.9-0.9l0-5.2c0-0.5-0.4-0.9-0.9-0.9l-9.3-0.6c-0.5,0-1-0.4-1.3-0.8
				c-0.5-0.9-1.2-1.9-2-2.7c-0.3-0.4-0.3-0.9,0.1-1.1l5.5-4c0.4-0.3,0.4-0.7,0-0.9l-7-4c-0.4-0.2-1.1-0.3-1.5-0.1l-7.1,3.3
				c-0.4,0.2-1.2,0.2-1.6,0.1c-1.8-0.6-3.6-1-5.5-1.3c-0.5-0.1-0.9-0.5-1-1l-0.9-4.7c-0.1-0.5-0.6-0.9-1-0.9l-10.3,0
				c-0.5,0-0.9,0.4-1,0.9l-0.9,4.7c-0.1,0.5-0.5,0.9-1,1c-1.9,0.3-3.7,0.8-5.5,1.3c-0.5,0.1-1.2,0.1-1.6-0.1l-7.1-3.3
				C408.6,328,407.9,328,407.5,328.2z M443.2,339.2c6.5,3.8,6.5,9.9,0,13.6c-6.5,3.8-17.1,3.8-23.6,0c-6.5-3.8-6.5-9.9,0-13.6
				C426.1,335.5,436.7,335.5,443.2,339.2z"/>
			<path id="XMLID_1922_" class="st2" d="M400.2,332.8L400.2,332.8c0,0.2,0.1,0.3,0.3,0.5l5.5,4c0.4,0.3,0.4,0.8,0.1,1.1
				c-0.6,0.6-1,1.2-1.4,1.9l-4.2-3c-0.2-0.1-0.3-0.3-0.3-0.5l0,0L400.2,332.8z"/>
			<path id="XMLID_946_" class="st2" d="M400.2,332.8L400.2,332.8c0,0.2,0.1,0.3,0.3,0.5l5.5,4c0.4,0.3,0.4,0.8,0.1,1.1
				c-0.6,0.6-1,1.2-1.4,1.9l-4.2-3c-0.2-0.1-0.3-0.3-0.3-0.5l0,0L400.2,332.8z"/>
		</g>
	</g>
</g>
<g id="Character">
	<g id="Character_7_">
		<g id="XMLID_1027_">
			<path id="XMLID_1029_" class="st26" d="M172.5,278.4c4.5,5.4,13.4,16.7,17.6,22c2.2,2.8-1.5,16-4.2,13.3
				c-2.5-2.4-13.3-16.3-13.3-16.3s-4.8-18.9-8.4-20c-3.7-1.1-6.2-0.8-6.2-0.8C162.3,275.1,166.8,271.5,172.5,278.4z"/>
			<path id="XMLID_1028_" class="st2" d="M155.7,273.1c6.7-1.4,11.3-1.9,16.1,3.3c3.3,3.5,10.8,12.3,10.8,12.3s-2.7,6.9-10.1,9.5
				L155.7,273.1z"/>
			<path id="XMLID_962_" class="st24" d="M155.7,273.1c6.7-1.4,11.3-1.9,16.1,3.3c3.3,3.5,10.8,12.3,10.8,12.3s-2.7,6.9-10.1,9.5
				L155.7,273.1z"/>
		</g>
		<g id="XMLID_1014_">
			<g id="XMLID_1015_">
				<g id="XMLID_1016_">
					<path id="XMLID_1026_" class="st27" d="M202.7,392.2l19,28.1c0.6,0.8,1.8,0.5,1.9-0.5l2-34.1L202.7,392.2z"/>
					<path id="XMLID_1025_" class="st13" d="M223.7,419.9c-0.1,1-1.4,1.4-2,0.5l-3.7-5.5l0,0c2.1,0.5,4.3-0.2,5.7-1.9l0.4-0.4
						L223.7,419.9z"/>
					<path id="XMLID_1024_" class="st10" d="M187.8,247.5l0.8,3l1,3.7l36,131.5c-1.7,3.4-4.9,5.8-8.5,7.2
						c-5.4,2.1-11.6,1.8-14.5-0.7L167,261.7l-1.9-7C166.6,259.1,189.3,252,187.8,247.5z"/>
					<path id="XMLID_1023_" class="st2" d="M191,259.1l1.8,6.8c0.6,1.9-3.2,4.3-8,6.1c-6.3,2.3-14,3.5-14.8,1l-1.3-5l-0.5-1.8
						c0.8,2.6,8.6,1.4,14.8-1c4.5-1.7,8.2-4,8-5.9l0,0C191.1,259.2,191,259.1,191,259.1z"/>
					<path id="XMLID_957_" class="st24" d="M191,259.1l1.8,6.8c0.6,1.9-3.2,4.3-8,6.1c-6.3,2.3-14,3.5-14.8,1l-1.3-5l-0.5-1.8
						c0.8,2.6,8.6,1.4,14.8-1c4.5-1.7,8.2-4,8-5.9l0,0C191.1,259.2,191,259.1,191,259.1z"/>
					<path id="XMLID_1022_" class="st2" d="M191.5,260.8c1.4,4.5-21.4,11.6-22.8,7.1l-1.9-6.8c1.4,4.5,24.2-2.5,22.8-7.1
						L191.5,260.8z"/>
					<path id="XMLID_1020_" class="st2" d="M187.8,247.5l1.8,6.7c1.4,4.4-20.5,11.5-22.7,7.5c0-0.1-0.1-0.2-0.1-0.2l-1.8-6.8
						C166.6,259.1,189.3,252,187.8,247.5z"/>
					<path id="XMLID_956_" class="st24" d="M187.8,247.5l1.8,6.7c1.4,4.4-20.5,11.5-22.7,7.5c0-0.1-0.1-0.2-0.1-0.2l-1.8-6.8
						C166.6,259.1,189.3,252,187.8,247.5z"/>
					<path id="XMLID_1019_" class="st17" d="M180,219.2l7.8,28.4c0.6,1.9-3.2,4.3-7.8,6.1c-6.2,2.4-14,3.6-14.9,1.1c0,0,0,0,0,0
						l-7.5-27.3c-2.3-6.2,9-12.3,16.5-11.8C176.9,215.7,179.2,216.8,180,219.2z"/>
					<path class="st4" d="M221.8,420.3c0.2,0.2,0.4,0.4,0.6,0.4l-11.7-26.5l-46.1-176.7c-4.7,2.2-8.4,5.9-7,9.7l7.5,27.3
						c0,0,1.8,6.8,1.8,6.8c0,0.1,0.1,0.2,0.1,0.2l35.7,130.5c0,0,0,0,0,0l0,0L221.8,420.3z"/>
					<path class="st27" d="M180.1,219.6l-0.1-0.4c-0.8-2.3-3.1-3.4-5.9-3.6c-7.2-0.5-17.7,5-16.8,10.9c0.4,1.4,2.2,1.9,4.3,2.2
						c5.5,0.8,13-1.8,16.6-5.6C179.4,221.9,180,220.7,180.1,219.6z"/>
				</g>
			</g>
		</g>
		<g id="XMLID_964_">
			<g id="Botom_1_">
				<g id="XMLID_953_">
					<g id="XMLID_959_">
						<polygon id="XMLID_1030_" class="st28" points="135.5,436.7 143.1,436.7 144.5,421.6 135.5,422.8 						"/>
						<polygon id="XMLID_1018_" class="st28" points="163.6,427.6 172,427.9 171.7,413.4 162.4,412.9 						"/>
						<g>
							<path id="XMLID_1017_" class="st11" d="M152.4,450.9c0.3,0.2,0.2,1.9-0.1,2.3c-0.3,0.5-2,2-5.2,2.2c-3,0.2-5.7-0.2-7.4-1.3
								c-1.8-1.1-2.6-2.4-2.8-4.1c-0.2-1.7,0-3.4-0.8-4.7c-0.8-1.2-2-2.6-2.2-3.2c-0.6-1.4,0-3.5,0-3.5L152.4,450.9z"/>
							<path id="XMLID_1011_" class="st2" d="M144.2,436c0,0.7,0.1,1.3,0.3,1.9c0.4,1.3,1.1,2.6,1.8,3.8c0.4,0.6,0.8,1.2,1.3,1.8
								c0.9,1.1,2,2,3,3c1,1,1.8,2.3,1.9,3.7c0.1,2.4-2.4,3.2-4.4,3.5c-2.1,0.4-4.3,0.3-6.4-0.3c-2.3-0.6-3.9-2.4-4.3-4.7
								c-0.1-0.7-0.1-1.3-0.1-2c-0.2-1.5-1-2.9-1.8-4.1c-0.5-0.7-1.1-1.4-1.4-2.2c-0.6-1.5-0.1-3.1,0.3-4.5c0.3-1.3,0.7-2.7,1.2-2.6
								c0,0.6,0,0.7,0.5,1.2c0.6,0.6,0.6,1.4,1.2,1.9c-0.3-0.8-0.3-1.1-0.4-1.7c0-0.2,0-0.5,0.1-0.7c0.2-0.2,0.4-0.3,0.7-0.4
								c0.9-0.3,1.9-0.5,2.9-0.7c0.9-0.1,1.9-0.2,2.8,0c0.3,0.1,0.5,0.2,0.7,0.4c0.2,0.2,0.2,0.4,0.3,0.8
								C144.2,434.4,144.2,435.4,144.2,436z"/>
							<path id="XMLID_1985_" class="st6" d="M144.2,436c0,0.7,0.1,1.3,0.3,1.9c0.4,1.3,1.1,2.6,1.8,3.8c0.4,0.6,0.8,1.2,1.3,1.8
								c0.9,1.1,2,2,3,3c1,1,1.8,2.3,1.9,3.7c0.1,2.4-2.4,3.2-4.4,3.5c-2.1,0.4-4.3,0.3-6.4-0.3c-2.3-0.6-3.9-2.4-4.3-4.7
								c-0.1-0.7-0.1-1.3-0.1-2c-0.2-1.5-1-2.9-1.8-4.1c-0.5-0.7-1.1-1.4-1.4-2.2c-0.6-1.5-0.1-3.1,0.3-4.5c0.3-1.3,0.7-2.7,1.2-2.6
								c0,0.6,0,0.7,0.5,1.2c0.6,0.6,0.6,1.4,1.2,1.9c-0.3-0.8-0.3-1.1-0.4-1.7c0-0.2,0-0.5,0.1-0.7c0.2-0.2,0.4-0.3,0.7-0.4
								c0.9-0.3,1.9-0.5,2.9-0.7c0.9-0.1,1.9-0.2,2.8,0c0.3,0.1,0.5,0.2,0.7,0.4c0.2,0.2,0.2,0.4,0.3,0.8
								C144.2,434.4,144.2,435.4,144.2,436z"/>
							<path id="XMLID_1010_" class="st14" d="M146.7,442.2c-0.9-0.7-2.8-0.7-3.9-0.6c-1.3,0.1-2.4,0.6-3.1,1.1
								c-0.3,0.2-0.7,0.2-0.9-0.1l0,0c-0.3-0.3-0.3-0.8,0.1-1c0.7-0.5,1.8-1.2,3.4-1.3c2.6-0.2,3.4,0.3,3.4,0.3
								S147,441.4,146.7,442.2z"/>
							<path id="XMLID_1009_" class="st14" d="M148.7,444.6c-1.1-0.7-3.3-0.6-4.3-0.4c-1.3,0.1-2.4,0.7-3,1.1
								c-0.3,0.2-0.7,0.2-0.9-0.1l0,0c-0.3-0.3-0.3-0.8,0.1-1c0.7-0.5,1.9-1.3,3.5-1.4c2.6-0.2,3.3,0.4,3.3,0.4
								S148.5,443.6,148.7,444.6z"/>
							<path id="XMLID_1008_" class="st14" d="M141.3,437.8c1.8-0.2,2.6,0,3.3,0.3c0.5,0.3,0.8,1,0.5,1.2c-0.6-0.3-1.6-0.5-2.9-0.4
								c-0.9,0-2,0.4-2.9,0.8c-0.2,0.1-0.5,0.2-0.7,0.4c-0.3,0.2-0.7,0.1-0.9-0.3l0,0c-0.1-0.3,0-0.6,0.2-0.8
								C138.6,438.6,139.8,437.9,141.3,437.8z"/>
						</g>
						<g>
							<path id="XMLID_1007_" class="st11" d="M188.5,437.3c0.2,0.5,0.2,1.5-0.1,2.1c-0.3,0.6-3.5,2.4-7.8,2.1
								c-4.3-0.3-7.3-2-8.9-3.1c-1.6-1.1-3.4-1.3-5.5-1.4c-2.1-0.1-4.9-1.2-5.4-2.2c-0.5-1,0.1-2.7,0.1-2.7L188.5,437.3z"/>
							<path id="XMLID_1006_" class="st2" d="M171.1,423.9c0.1,0,0.2,0,0.3-0.1c0.2,0,0.4-0.1,0.6,0c0.2,0.1,0.4,0.2,0.5,0.4
								c0.5,0.5,0.7,1.1,1.1,1.7c0.9,1.5,2.8,2.7,4.9,3.8c1.4,0.8,2.8,1.3,4.3,2c1.5,0.7,3.5,1.1,4.6,1.9c1.7,1.1,1.9,4,0,5.1
								c-1.7,1-6,2-10.6,0.7c-2.5-0.7-5.3-3.4-8.6-3.6c-2.1-0.2-6-0.8-7.4-2.3c-0.5-0.7,0.2-2.9,0.7-4.9c0.6-2.1,1.2-5.4,1.9-5.2
								c0,0.4,0.1,0.5,0.4,0.8c0.3,0.3,0.6,0.4,0.9,0.7c0.5,0.4,0.8,1.1,1.2,1.7c0.1,0.3,0.3,0.5,0.6,0.6c0.4,0.1,0.6-0.1,0.9-0.2
								c0.4-0.2,0.8-0.2,1.2-0.1c0-0.4-0.1-0.8-0.2-1.2c0-0.1-0.1-0.3,0-0.4c0-0.1,0.2-0.2,0.3-0.3
								C169.3,424.3,170.2,424.1,171.1,423.9z"/>
							<path id="XMLID_1979_" class="st6" d="M171.1,423.9c0.1,0,0.2,0,0.3-0.1c0.2,0,0.4-0.1,0.6,0c0.2,0.1,0.4,0.2,0.5,0.4
								c0.5,0.5,0.7,1.1,1.1,1.7c0.9,1.5,2.8,2.7,4.9,3.8c1.4,0.8,2.8,1.3,4.3,2c1.5,0.7,3.5,1.1,4.6,1.9c1.7,1.1,1.9,4,0,5.1
								c-1.7,1-6,2-10.6,0.7c-2.5-0.7-5.3-3.4-8.6-3.6c-2.1-0.2-6-0.8-7.4-2.3c-0.5-0.7,0.2-2.9,0.7-4.9c0.6-2.1,1.2-5.4,1.9-5.2
								c0,0.4,0.1,0.5,0.4,0.8c0.3,0.3,0.6,0.4,0.9,0.7c0.5,0.4,0.8,1.1,1.2,1.7c0.1,0.3,0.3,0.5,0.6,0.6c0.4,0.1,0.6-0.1,0.9-0.2
								c0.4-0.2,0.8-0.2,1.2-0.1c0-0.4-0.1-0.8-0.2-1.2c0-0.1-0.1-0.3,0-0.4c0-0.1,0.2-0.2,0.3-0.3
								C169.3,424.3,170.2,424.1,171.1,423.9z"/>
							<path id="XMLID_1005_" class="st14" d="M176.6,428.5c0,0-0.3-0.8-1.5-1c-1-0.2-2.6,0.5-3.7,1.4c-0.4,0.4-0.4,1,0.1,1.3l0,0
								c0.3,0.2,0.6,0.1,0.9-0.1C173,429.5,174.6,428.4,176.6,428.5z"/>
							<path id="XMLID_1004_" class="st14" d="M179.5,430.2c0,0-0.6-1-1.8-0.9c0,0-2.5,0.1-4,1.5c-0.4,0.4-0.4,1,0.1,1.2v0
								c0.3,0.2,0.6,0.1,0.9-0.1C175.3,431.3,176.7,430,179.5,430.2z"/>
							<path id="XMLID_1003_" class="st14" d="M182.8,431.7c0,0-0.7-0.9-1.9-0.9c0,0-2.3,0.1-3.9,1.5c-0.4,0.4-0.4,1,0.1,1.2l0,0
								c0.3,0.2,0.6,0.1,0.9-0.1C178.7,432.9,180,431.5,182.8,431.7z"/>
						</g>
						<path id="XMLID_2228_" class="st10" d="M135.7,323.9c-0.5,16.5,0.5,54.7,0.5,54.7c-0.2,2.1-2.1,5.7-2.3,13.1
							c-0.2,10.7,1.1,36.6,1.1,36.6s4.5,2.4,9.2,0.5c0,0,5.1-36.7,6.7-47.2c1.4-9.3,4.3-26.8,4.3-26.8l2.2,22.4c0,0,0,8,0.4,14.4
							c0.3,4.9,4.8,28,4.8,28s4.7,1.4,9.8-0.3c0,0-0.4-37.4-0.3-41.9c0.1-5.1,0.3-57.8,0.3-57.8L135.7,323.9z"/>
						<path class="st11" d="M155.1,354.7l2.4-13.5c0,0,6.8-0.6,10.5-4.4c0,0-0.7,3.7-9.2,5.9l-2.4,13.7l0.1,12.6L155.1,354.7z"/>
					</g>
				</g>
			</g>
			<g id="XMLID_965_">
				<path id="XMLID_999_" class="st2" d="M141.5,274c-3.2,0.6-5.3,2.3-6,5.5c-0.4,1.6-1.1,5-0.8,7.9l2.4,19.2l-1.9,19.4
					c5.2,5.7,26,7.5,37.4-0.8c0,0-0.1-33.6-0.6-39.4c-0.9-10.1-5.5-13.6-12.2-13.6l-11.5,1L141.5,274z"/>
				<g id="XMLID_968_">
					
						<ellipse id="XMLID_1013_" transform="matrix(0.9871 -0.1602 0.1602 0.9871 -37.7556 29.0082)" class="st22" cx="161" cy="248.7" rx="10.2" ry="10.2"/>
					<g id="XMLID_992_">
						<path class="st22" d="M147.7,250.7l-2.2-5.8c0,0-1.8-0.3-3.2,1.1c-1.4,1.4-0.6,5.7,1.1,10c0,0,1.6,7.7,2.3,9
							c0.7,1.3,2,1.6,2,1.6L147.7,250.7z"/>
						<path id="XMLID_996_" class="st28" d="M147.5,256.3c-0.6,0.4-1.5-0.8-2.3-1.6c-0.8-0.8-3.3-1.9-4.5,0.7
							c-1.3,2.7,1.1,6.2,3.1,6.9c3.4,1.1,3.9-1.1,3.9-1.1l0.3,12.3c0,0,2.2,5.4,8.3,6.3c6,0.8,4.8-4.2,2.8-6.6l0-3.7
							c0,0,3.1,0.5,4.6,0.2c2.5-0.4,4.1-2.4,4.8-5.1c1.2-4.3,1.7-7.9,0.6-16.4c-1.1-9.4-12-9.5-17.9-5.8
							C145.3,246,147.5,256.3,147.5,256.3z"/>
						<path id="XMLID_995_" class="st22" d="M147.5,257.3c-0.3,0-1.5-2-2.3-2.7c-1.1-1,0.3-9.8,0.3-9.8s-1-2.2,1-4.5
							c1.5-1.6,3.9-1.8,8.1-2.5c2.1-0.3,4.5-0.5,6.6-0.9c2.5-0.5,4.1-0.9,6.1-1.9c0.4-0.2,0.8-0.4,1.2-0.3c0.3,0.1,0.6,0.3,0.7,0.6
							c0.1,0.3,0.2,0.6,0.2,1c0,0.3-0.1,0.7-0.2,1c-0.1,0.2-0.5,0.8-0.4,1c0.2,0.4,1.8-0.3,2.1-0.4c0.1,0,0.2,0,0.2,0
							c0.1,0,0.1,0.1,0.1,0.2c0.5,1,0.3,2.4-0.2,3.4c-0.7,1.4-1.8,2.5-3.1,3.4c-1.4,0.9-3,1.3-4.6,1.5c-2.9,0.3-5.9,0.3-8.8,0.1
							c-0.7-0.1-1.5-0.2-2.2-0.3c-0.5-0.1-1.1-0.3-1.5-0.1c-0.6,0.2-0.8,1-0.9,1.6c-0.2,0.8-0.4,1.6-0.5,2.4
							C149,252.8,148.6,257.3,147.5,257.3z"/>
						<path id="XMLID_994_" class="st22" d="M145.5,245.5l-3.8-2c0.5-1.1,1.8-1.5,2.8-0.9C145.7,243.1,146.1,244.4,145.5,245.5z"/>
						<path id="XMLID_993_" class="st26" d="M159,269.3c0,0-5.6-1.1-7.5-2.2c-1.3-0.7-2.4-1.9-2.7-2.7c0,0,0.4,1.7,1.5,3.1
							c1.4,1.8,8.7,3.2,8.7,3.2L159,269.3z"/>
					</g>
					<g id="XMLID_969_">
						<path id="XMLID_991_" class="st22" d="M157.7,254.9c0,0.6-0.5,1.2-1.1,1.2c-0.6,0-1.1-0.5-1.1-1.2c0-0.6,0.5-1.2,1.1-1.2
							C157.2,253.7,157.7,254.2,157.7,254.9z"/>
						<path id="XMLID_990_" class="st22" d="M156.5,250.7l-2.4,1.3c-0.4-0.7-0.1-1.5,0.6-1.9C155.3,249.7,156.1,250,156.5,250.7z"/>
						<path id="XMLID_989_" class="st26" d="M158,262.2l3.6,1.3c-0.4,1-1.4,1.6-2.4,1.2C158.2,264.4,157.6,263.2,158,262.2z"/>
						<path id="XMLID_988_" class="st22" d="M167.6,251.6l-2.2-1.7c0.4-0.6,1.3-0.8,1.9-0.3C168,250.1,168.1,251,167.6,251.6z"/>
						<path id="XMLID_971_" class="st22" d="M167,254.6c0,0.6-0.5,1.2-1.1,1.2c-0.6,0-1.1-0.5-1.1-1.2c0-0.6,0.5-1.2,1.1-1.2
							C166.5,253.4,167,253.9,167,254.6z"/>
						<polygon id="XMLID_970_" class="st26" points="161.3,253.5 161.6,260.2 165.1,259 						"/>
					</g>
				</g>
			</g>
		</g>
		<path id="XMLID_954_" class="st28" d="M198.4,291.6c0,0-2.7-1.3-6.2-0.8c-1.7,0.3-1.7,5.9,3.7,7.7c3.5,1.2,5.6,0.6,6.8,3.5
			c0,0,2.3-0.3,1.8-3.5c-0.5-3.2-1.9-6.2-4.3-9c-1.6-1.8-1.7-3.4-2.4-2.9c-0.9,0.6-0.5,2.3-0.5,2.3L198.4,291.6z"/>
		<g>
			<path id="XMLID_961_" class="st28" d="M98.3,300c-1-1-2.8-1.4-4.2-1.3c-0.9,0.1-1.8,0.1-2.4,0c-1-0.1-2.1-0.6-2.5-1.6
				c-0.1-0.2-0.2-0.5-0.3-0.7c-0.2-0.4-0.5-0.7-0.7-1c-0.3-0.5-0.4-1.1-0.2-1.7c0.1-0.2,0.1-0.5,0.1-0.7c0-0.2-0.2-0.3-0.3-0.5
				c-0.5-0.7-0.6-1.7-0.2-2.5c0.1-0.2,0.2-0.4,0.3-0.6c0.1-0.5-0.1-0.9-0.2-1.4c-0.1-2.2,3.5-1.8,4.8-1.6c0.4,0.1,2.2,0.4,3,0.6
				c-0.1-1-0.2-1.9,0-3.6c0.3-2.3,2.5-3.4,2.7-2c0.1,0.8,0,2.9,0.9,4.7c0.4,0.8,0.9,1.2,1.3,2.6c0.3,1.2,0.7,2.1,3.4,4.6
				c2.5,2.4,12,10,12,10s10.1-17.3,12.4-22c3.7-7.6,13-7.5,13-7.5l-1,12.5c0,0-15.9,25.3-18.7,28.7c-2.7,3.4-6.4,2.4-8.3,0.7
				C110.7,313.4,103.3,304.9,98.3,300z"/>
			<path class="st2" d="M142.5,273.8c0,0-6.1-0.4-10,2.3c-3.9,2.8-12.2,19.1-12.2,19.1s0.7,2.8,3.9,5c3.2,2.3,6.3,2.8,6.3,2.8
				l9.8-14.6C140.3,288.5,143.5,283.3,142.5,273.8z"/>
			<path class="st24" d="M142.5,273.8c0,0-6.1-0.4-10,2.3c-3.9,2.8-12.2,19.1-12.2,19.1s0.7,2.8,3.9,5c3.2,2.3,6.3,2.8,6.3,2.8
				l9.8-14.6C140.3,288.5,143.5,283.3,142.5,273.8z"/>
			<path class="st26" d="M96.1,287.3c1,0.3,1.6,1,1.9,2.7c0.2,1,1,2.8,2.2,3.4c0,0-1,0.1-1.6-0.4c-0.6-0.5-0.8-0.5-1-0.1
				c-0.2,0.4-0.7,0.6-0.7,0.6s0.8,0.6,0.4,1.6c-0.4,1-2.8,1.5-5,0.8c0,0,3.4,0.4,4-0.7c0.6-1.2-1.4-2.1-2.7-2.3c0,0,3.3,0.2,3.6-0.9
				c0.3-1.1-1.1-1.7-3.1-1.8c0,0,2.7,0,3-1C97.4,288.1,96.5,287.6,96.1,287.3z"/>
		</g>
	</g>
</g>
</svg>
