<svg xmlns="http://www.w3.org/2000/svg" xmlns:xlink="http://www.w3.org/1999/xlink" viewBox="0 0 455.4 326.29"><defs><style>.cls-1,.cls-101,.cls-13,.cls-52,.cls-53,.cls-57,.cls-58,.cls-93,.cls-95{fill:none;}.cls-2{fill:#e0f0ff;}.cls-3{clip-path:url(#clip-path);}.cls-4{fill:#cacafe;}.cls-5{fill:url(#linear-gradient);}.cls-6{fill:url(#linear-gradient-2);}.cls-7{fill:url(#linear-gradient-3);}.cls-14,.cls-60,.cls-62,.cls-8{fill:#fff;}.cls-8,.cls-97{opacity:0.55;}.cls-101,.cls-107,.cls-110,.cls-21,.cls-60,.cls-62,.cls-8,.cls-97{isolation:isolate;}.cls-9{fill:url(#linear-gradient-4);}.cls-10{fill:url(#linear-gradient-5);}.cls-11{fill:url(#linear-gradient-6);}.cls-12{fill:url(#linear-gradient-7);}.cls-13,.cls-47,.cls-57,.cls-58{stroke:#fff;}.cls-101,.cls-13,.cls-47,.cls-53,.cls-58,.cls-95{stroke-miterlimit:10;}.cls-13{stroke-width:0.75px;}.cls-15{fill:url(#linear-gradient-8);}.cls-16{fill:url(#linear-gradient-9);}.cls-17{fill:url(#linear-gradient-10);}.cls-18{fill:url(#linear-gradient-11);}.cls-19{fill:url(#linear-gradient-12);}.cls-20{fill:url(#linear-gradient-13);}.cls-101,.cls-110,.cls-21,.cls-60{opacity:0.35;}.cls-21{fill:url(#linear-gradient-14);}.cls-22{fill:url(#linear-gradient-15);}.cls-23{fill:url(#linear-gradient-16);}.cls-24{fill:url(#linear-gradient-17);}.cls-25{clip-path:url(#clip-path-2);}.cls-26{fill:url(#linear-gradient-18);}.cls-27{fill:url(#linear-gradient-19);}.cls-28{fill:url(#linear-gradient-20);}.cls-29{fill:url(#linear-gradient-21);}.cls-30{fill:url(#linear-gradient-22);}.cls-31{fill:url(#linear-gradient-23);}.cls-32{fill:url(#linear-gradient-24);}.cls-33{fill:url(#linear-gradient-25);}.cls-34{fill:url(#linear-gradient-26);}.cls-35{fill:url(#linear-gradient-27);}.cls-36{fill:url(#linear-gradient-28);}.cls-37{fill:url(#linear-gradient-29);}.cls-38{fill:url(#linear-gradient-30);}.cls-39{fill:url(#linear-gradient-31);}.cls-40{fill:url(#linear-gradient-32);}.cls-41{fill:#4ccc89;}.cls-42{fill:#fc4c3a;}.cls-43{fill:url(#linear-gradient-33);}.cls-44{fill:url(#linear-gradient-34);}.cls-45{fill:url(#linear-gradient-35);}.cls-46{clip-path:url(#clip-path-3);}.cls-47,.cls-50{fill:#f66;}.cls-48{fill:#21e392;}.cls-49{fill:#ffdc4a;}.cls-51{fill:url(#linear-gradient-36);}.cls-52,.cls-57,.cls-93,.cls-95{stroke-linecap:round;}.cls-52,.cls-57,.cls-93{stroke-linejoin:round;}.cls-52{stroke-width:2px;stroke:url(#linear-gradient-37);}.cls-53{stroke:#403c5e;}.cls-54{fill:url(#linear-gradient-38);}.cls-55{fill:url(#linear-gradient-39);}.cls-56{clip-path:url(#clip-path-4);}.cls-59{fill:url(#linear-gradient-40);}.cls-61{clip-path:url(#clip-path-5);}.cls-62{opacity:0.25;}.cls-63{fill:url(#linear-gradient-41);}.cls-64{fill:url(#linear-gradient-42);}.cls-65{fill:url(#linear-gradient-43);}.cls-66{fill:url(#linear-gradient-44);}.cls-67{fill:url(#linear-gradient-45);}.cls-68{fill:url(#linear-gradient-46);}.cls-69{fill:url(#linear-gradient-47);}.cls-70{fill:url(#linear-gradient-48);}.cls-71{fill:url(#linear-gradient-49);}.cls-72{fill:url(#linear-gradient-50);}.cls-73{fill:url(#linear-gradient-51);}.cls-74{fill:url(#linear-gradient-52);}.cls-75{fill:url(#linear-gradient-53);}.cls-76{fill:url(#linear-gradient-54);}.cls-77{fill:url(#linear-gradient-55);}.cls-78{fill:url(#linear-gradient-56);}.cls-79{fill:url(#linear-gradient-57);}.cls-80{fill:url(#linear-gradient-58);}.cls-81{fill:url(#linear-gradient-59);}.cls-82{fill:url(#linear-gradient-60);}.cls-83{fill:url(#linear-gradient-61);}.cls-84{fill:url(#linear-gradient-62);}.cls-85{fill:url(#linear-gradient-63);}.cls-86{fill:url(#linear-gradient-64);}.cls-87{fill:url(#linear-gradient-65);}.cls-88{fill:url(#linear-gradient-66);}.cls-89,.cls-97{fill:#ffd9d9;}.cls-90{clip-path:url(#clip-path-7);}.cls-91{fill:url(#linear-gradient-67);}.cls-92{fill:url(#linear-gradient-68);}.cls-93{stroke:#e16d90;}.cls-94{fill:#2a3249;}.cls-95{stroke:#2a3249;}.cls-96{fill:url(#linear-gradient-69);}.cls-98{fill:url(#linear-gradient-70);}.cls-99{fill:url(#linear-gradient-71);}.cls-100{clip-path:url(#clip-path-8);}.cls-101{stroke:#e0f0ff;stroke-width:6px;}.cls-102{clip-path:url(#clip-path-9);}.cls-103{clip-path:url(#clip-path-10);}.cls-104{clip-path:url(#clip-path-11);}.cls-105{clip-path:url(#clip-path-12);}.cls-106{clip-path:url(#clip-path-13);}.cls-107{fill:#515151;opacity:0.36;}.cls-108{fill:url(#linear-gradient-72);}.cls-109{clip-path:url(#clip-path-14);}.cls-110{fill:url(#linear-gradient-73);}</style><clipPath id="clip-path"><path class="cls-1" d="M287.2,6.89c84.4,18.5,137.6,77.9,144.7,160.6,7,81.1-107.2,45.6-167,89.9-59.4,43.9-143.3,43.9-190.8,3.3s-42.6-115.6-17.4-161C99.6,22.59,178.7-16.91,287.2,6.89Z"/></clipPath><linearGradient id="linear-gradient" x1="312.78" y1="155.09" x2="312.69" y2="135.43" gradientTransform="matrix(1, 0, 0, -1, 0, 270.99)" gradientUnits="userSpaceOnUse"><stop offset="0" stop-color="#e0f0ff"/><stop offset="1" stop-color="#d1dbf6"/></linearGradient><linearGradient id="linear-gradient-2" x1="312.77" y1="155.09" x2="312.69" y2="135.43" xlink:href="#linear-gradient"/><linearGradient id="linear-gradient-3" x1="66.47" y1="184.01" x2="59.55" y2="116.65" gradientTransform="matrix(1, 0, 0, -1, 0, 270.99)" gradientUnits="userSpaceOnUse"><stop offset="0" stop-color="#70ffac"/><stop offset="0.28" stop-color="#51ddbc"/><stop offset="1" stop-color="#0085e5"/></linearGradient><linearGradient id="linear-gradient-4" x1="77.84" y1="167.51" x2="73.64" y2="90.75" gradientTransform="matrix(1, 0, 0, -1, 0, 270.99)" gradientUnits="userSpaceOnUse"><stop offset="0" stop-color="#70ffac"/><stop offset="1" stop-color="#0085e5"/></linearGradient><linearGradient id="linear-gradient-5" x1="49.92" y1="169.07" x2="45.71" y2="92.27" xlink:href="#linear-gradient-4"/><linearGradient id="linear-gradient-6" x1="67.11" y1="213.02" x2="68.83" y2="167.43" gradientTransform="matrix(1, 0, 0, -1, 0, 270.99)" gradientUnits="userSpaceOnUse"><stop offset="0.01" stop-color="#f7d64e"/><stop offset="1" stop-color="#f79448"/></linearGradient><linearGradient id="linear-gradient-7" x1="67.8" y1="194.76" x2="68.95" y2="164.33" xlink:href="#linear-gradient-6"/><linearGradient id="linear-gradient-8" x1="91.06" y1="164.52" x2="92.25" y2="132.98" xlink:href="#linear-gradient-6"/><linearGradient id="linear-gradient-9" x1="91.54" y1="151.88" x2="92.33" y2="130.84" xlink:href="#linear-gradient-6"/><linearGradient id="linear-gradient-10" x1="412.85" y1="95.69" x2="131.96" y2="97.1" gradientTransform="matrix(1, 0, 0, -1, 0, 270.99)" gradientUnits="userSpaceOnUse"><stop offset="0" stop-color="#2a3264"/><stop offset="1" stop-color="#4f61a5"/></linearGradient><linearGradient id="linear-gradient-11" x1="412.85" y1="92.69" x2="131.96" y2="94.1" xlink:href="#linear-gradient-10"/><linearGradient id="linear-gradient-12" x1="229.5" y1="138.22" x2="250.87" y2="70.36" gradientTransform="matrix(1, 0, 0, -1, 0, 270.99)" gradientUnits="userSpaceOnUse"><stop offset="0.01" stop-color="#ffbac0"/><stop offset="0.81" stop-color="#f75f98"/><stop offset="1" stop-color="#f54a8f"/></linearGradient><linearGradient id="linear-gradient-13" x1="241.83" y1="92.69" x2="243.11" y2="141.76" xlink:href="#linear-gradient-10"/><linearGradient id="linear-gradient-14" x1="235.92" y1="84.76" x2="244.6" y2="135.82" xlink:href="#linear-gradient-10"/><linearGradient id="linear-gradient-15" x1="257.14" y1="129.57" x2="268.63" y2="89.74" xlink:href="#linear-gradient-10"/><linearGradient id="linear-gradient-16" x1="195.26" y1="3.66" x2="282.58" y2="281.7" xlink:href="#linear-gradient-10"/><linearGradient id="linear-gradient-17" x1="541.05" y1="189.54" x2="61.35" y2="191.94" gradientTransform="matrix(1, 0, 0, -1, 0, 270.99)" gradientUnits="userSpaceOnUse"><stop offset="0" stop-color="#e0f0ff"/><stop offset="1" stop-color="#fff"/></linearGradient><clipPath id="clip-path-2"><path class="cls-1" d="M171.1,14.79H357.5a7.2,7.2,0,0,1,7.1,8.4l-20.3,116a7.19,7.19,0,0,1-7.1,5.9H150.6a7.2,7.2,0,0,1-7.1-8.4l20.4-116A7.38,7.38,0,0,1,171.1,14.79Z"/></clipPath><linearGradient id="linear-gradient-18" x1="350.24" y1="297.77" x2="353.64" y2="195.3" xlink:href="#linear-gradient-10"/><linearGradient id="linear-gradient-19" x1="190.45" y1="150.35" x2="188.79" y2="166.43" xlink:href="#linear-gradient-10"/><linearGradient id="linear-gradient-20" x1="201.03" y1="151.44" x2="199.38" y2="167.52" xlink:href="#linear-gradient-10"/><linearGradient id="linear-gradient-21" x1="210.89" y1="152.46" x2="209.23" y2="168.54" xlink:href="#linear-gradient-10"/><linearGradient id="linear-gradient-22" x1="222.21" y1="153.62" x2="220.55" y2="169.71" xlink:href="#linear-gradient-10"/><linearGradient id="linear-gradient-23" x1="230.89" y1="154.52" x2="229.23" y2="170.6" xlink:href="#linear-gradient-10"/><linearGradient id="linear-gradient-24" x1="242.68" y1="155.74" x2="241.02" y2="171.82" xlink:href="#linear-gradient-10"/><linearGradient id="linear-gradient-25" x1="254.4" y1="156.94" x2="252.74" y2="173.03" xlink:href="#linear-gradient-10"/><linearGradient id="linear-gradient-26" x1="265.15" y1="158.05" x2="263.49" y2="174.14" xlink:href="#linear-gradient-10"/><linearGradient id="linear-gradient-27" x1="275.67" y1="159.14" x2="274.01" y2="175.22" xlink:href="#linear-gradient-10"/><linearGradient id="linear-gradient-28" x1="285.09" y1="160.11" x2="283.43" y2="176.2" xlink:href="#linear-gradient-10"/><linearGradient id="linear-gradient-29" x1="295.11" y1="161.15" x2="293.45" y2="177.23" xlink:href="#linear-gradient-10"/><linearGradient id="linear-gradient-30" x1="305.99" y1="162.27" x2="304.33" y2="178.35" xlink:href="#linear-gradient-10"/><linearGradient id="linear-gradient-31" x1="315.79" y1="163.28" x2="314.13" y2="179.36" xlink:href="#linear-gradient-10"/><linearGradient id="linear-gradient-32" x1="326.66" y1="164.4" x2="325" y2="180.49" xlink:href="#linear-gradient-10"/><linearGradient id="linear-gradient-33" x1="241.94" y1="153.37" x2="242.37" y2="130.73" xlink:href="#linear-gradient"/><linearGradient id="linear-gradient-34" x1="241.82" y1="153.37" x2="242.24" y2="130.73" xlink:href="#linear-gradient"/><linearGradient id="linear-gradient-35" x1="298.95" y1="221.99" x2="318.03" y2="221.99" xlink:href="#linear-gradient"/><clipPath id="clip-path-3"><path class="cls-1" d="M308.5,58.49A9.5,9.5,0,1,1,318,49,9.5,9.5,0,0,1,308.5,58.49Zm0-16.1a6.5,6.5,0,1,0,6.5,6.5A6.49,6.49,0,0,0,308.5,42.39Z"/></clipPath><linearGradient id="linear-gradient-36" x1="203" y1="225.94" x2="276.4" y2="225.94" xlink:href="#linear-gradient"/><linearGradient id="linear-gradient-37" x1="203.7" y1="226.02" x2="275.7" y2="226.02" xlink:href="#linear-gradient-12"/><linearGradient id="linear-gradient-38" x1="373.95" y1="-89.1" x2="372.42" y2="198.9" xlink:href="#linear-gradient-10"/><linearGradient id="linear-gradient-39" x1="360.1" y1="130.4" x2="441.58" y2="154.54" xlink:href="#linear-gradient-10"/><clipPath id="clip-path-4"><path class="cls-1" d="M404.3,57.19H346.8a5.59,5.59,0,0,0-5.6,5.6l-.1,129.5a5.59,5.59,0,0,0,5.6,5.6h57.6V57.19"/></clipPath><linearGradient id="linear-gradient-40" x1="369.41" y1="159.1" x2="373.32" y2="132.13" xlink:href="#linear-gradient-12"/><clipPath id="clip-path-5"><path class="cls-1" d="M407,57.19h6.1A18.78,18.78,0,0,1,431.9,76v81.7a18.77,18.77,0,0,1-4.3,12l-23.2,28.1v-138A2.52,2.52,0,0,1,407,57.19Z"/></clipPath><linearGradient id="linear-gradient-41" x1="219.81" y1="59.08" x2="251.73" y2="110.91" xlink:href="#linear-gradient-10"/><linearGradient id="linear-gradient-42" x1="231.83" y1="96.05" x2="230.81" y2="51.62" xlink:href="#linear-gradient-10"/><linearGradient id="linear-gradient-43" x1="173.19" y1="106.15" x2="320.54" y2="18.34" xlink:href="#linear-gradient-12"/><linearGradient id="linear-gradient-44" x1="175.68" y1="110.33" x2="323.03" y2="22.52" xlink:href="#linear-gradient-12"/><linearGradient id="linear-gradient-45" x1="178.17" y1="114.51" x2="325.52" y2="26.7" xlink:href="#linear-gradient-12"/><linearGradient id="linear-gradient-46" x1="180.66" y1="118.69" x2="328.01" y2="30.87" xlink:href="#linear-gradient-12"/><linearGradient id="linear-gradient-47" x1="183.15" y1="122.87" x2="330.5" y2="35.05" xlink:href="#linear-gradient-12"/><linearGradient id="linear-gradient-48" x1="185.64" y1="127.04" x2="332.99" y2="39.23" xlink:href="#linear-gradient-12"/><linearGradient id="linear-gradient-49" x1="168.89" y1="98.93" x2="316.24" y2="11.12" xlink:href="#linear-gradient-12"/><linearGradient id="linear-gradient-50" x1="171.38" y1="103.11" x2="318.73" y2="15.29" xlink:href="#linear-gradient-12"/><linearGradient id="linear-gradient-51" x1="173.87" y1="107.28" x2="321.21" y2="19.47" xlink:href="#linear-gradient-12"/><linearGradient id="linear-gradient-52" x1="176.36" y1="111.46" x2="323.71" y2="23.65" xlink:href="#linear-gradient-12"/><linearGradient id="linear-gradient-53" x1="178.85" y1="115.64" x2="326.19" y2="27.83" xlink:href="#linear-gradient-12"/><linearGradient id="linear-gradient-54" x1="181.34" y1="119.82" x2="328.68" y2="32" xlink:href="#linear-gradient-12"/><linearGradient id="linear-gradient-55" x1="164.62" y1="91.78" x2="311.97" y2="3.96" xlink:href="#linear-gradient-12"/><linearGradient id="linear-gradient-56" x1="167.13" y1="95.98" x2="314.48" y2="8.16" xlink:href="#linear-gradient-12"/><linearGradient id="linear-gradient-57" x1="169.6" y1="100.13" x2="316.95" y2="12.32" xlink:href="#linear-gradient-12"/><linearGradient id="linear-gradient-58" x1="172.09" y1="104.31" x2="319.44" y2="16.5" xlink:href="#linear-gradient-12"/><linearGradient id="linear-gradient-59" x1="174.58" y1="108.49" x2="321.93" y2="20.68" xlink:href="#linear-gradient-12"/><linearGradient id="linear-gradient-60" x1="177.07" y1="112.67" x2="324.42" y2="24.85" xlink:href="#linear-gradient-12"/><linearGradient id="linear-gradient-61" x1="160.35" y1="84.6" x2="307.69" y2="-3.22" xlink:href="#linear-gradient-12"/><linearGradient id="linear-gradient-62" x1="162.83" y1="88.77" x2="310.18" y2="0.96" xlink:href="#linear-gradient-12"/><linearGradient id="linear-gradient-63" x1="165.3" y1="92.91" x2="312.65" y2="5.09" xlink:href="#linear-gradient-12"/><linearGradient id="linear-gradient-64" x1="167.79" y1="97.08" x2="315.14" y2="9.27" xlink:href="#linear-gradient-12"/><linearGradient id="linear-gradient-65" x1="170.28" y1="101.26" x2="317.63" y2="13.45" xlink:href="#linear-gradient-12"/><linearGradient id="linear-gradient-66" x1="172.77" y1="105.44" x2="320.12" y2="17.63" xlink:href="#linear-gradient-12"/><clipPath id="clip-path-7"><polygon class="cls-1" points="178.7 132.49 159.6 134.49 156.1 157.99 112.7 150.59 121.1 121.49 140.2 105.69 178.7 132.49"/></clipPath><linearGradient id="linear-gradient-67" x1="169" y1="133.97" x2="94.95" y2="178.14" gradientTransform="matrix(1, 0, 0, -1, 0, 270.99)" gradientUnits="userSpaceOnUse"><stop offset="0" stop-color="#ffbfcd"/><stop offset="1" stop-color="#e16d90"/></linearGradient><linearGradient id="linear-gradient-68" x1="111.68" y1="119.55" x2="160.36" y2="235.3" xlink:href="#linear-gradient-10"/><linearGradient id="linear-gradient-69" x1="203.31" y1="125.57" x2="88.59" y2="-201.92" gradientTransform="matrix(1, 0, 0, -1, 0, 270.99)" gradientUnits="userSpaceOnUse"><stop offset="0" stop-color="#79d0ff"/><stop offset="0.38" stop-color="#5198f9"/><stop offset="1" stop-color="#0e3bf0"/></linearGradient><linearGradient id="linear-gradient-70" x1="230.09" y1="36.02" x2="139.7" y2="-11.72" xlink:href="#linear-gradient-67"/><linearGradient id="linear-gradient-71" x1="167.58" y1="100.05" x2="72.09" y2="-70.5" xlink:href="#linear-gradient-69"/><clipPath id="clip-path-8"><path class="cls-1" d="M274.15,194.27c-15.75,6.16-40.26-8.19-40.26-8.19l17.33-51.37s-.84-1.25-29.21-17.21-47.6-6.73-77.67,3.06-51.15,24.13-55,37.13c-1.2,3.95-1.25,9.05-.56,14.37h0a4.75,4.75,0,0,1,0,.58,106.79,106.79,0,0,0,3,14.77c2.44,10.41,6.57,24.4,13,36.37,11.83,22.18,126.39,10.16,126.39,10.16S294.66,186.22,274.15,194.27Z"/></clipPath><clipPath id="clip-path-9"><path class="cls-1" d="M287,234.8c-15.69,6.3-40.32-7.84-40.32-7.84l16.89-51.52s-.85-1.23-29.36-16.95-47.65-6.33-77.64,3.71-50.94,24.57-54.72,37.6c-1.17,3.95-1.18,9.06-.44,14.37h0s0,.22,0,.58a105,105,0,0,0,3.09,14.75c2.53,10.39,6.77,24.34,13.26,36.26,12,22.07,126.46,9.08,126.46,9.08S307.4,226.59,287,234.8Z"/></clipPath><clipPath id="clip-path-10"><path class="cls-1" d="M264.92,275.79c-15.7,6.29-40.33-7.84-40.33-7.84l16.9-51.52s-.85-1.24-29.36-17-47.66-6.32-77.64,3.72-50.94,24.56-54.73,37.6c-1.16,4-1.17,9.05-.43,14.37h0a4.75,4.75,0,0,1,0,.58,106,106,0,0,0,3.09,14.74c2.53,10.39,6.78,24.34,13.27,36.26,12,22.08,126.46,9.09,126.46,9.09S285.36,267.57,264.92,275.79Z"/></clipPath><clipPath id="clip-path-11"><path class="cls-1" d="M248.73,233.63c-15.69,6.3-40.33-7.84-40.33-7.84l16.9-51.52s-.85-1.23-29.36-17S148.28,151,118.3,161s-50.94,24.57-54.72,37.6c-1.17,4-1.18,9.06-.44,14.37h0a4.83,4.83,0,0,1,0,.59,106.26,106.26,0,0,0,3.09,14.74c2.53,10.39,6.78,24.34,13.27,36.26,12,22.07,126.46,9.08,126.46,9.08S269.17,225.42,248.73,233.63Z"/></clipPath><clipPath id="clip-path-12"><path class="cls-1" d="M212,257.44c-15.69,6.29-40.32-7.84-40.32-7.84l16.89-51.52s-.85-1.24-29.36-17-47.65-6.32-77.64,3.72S30.67,209.4,26.89,222.43c-1.17,4-1.18,9.06-.44,14.38h0s0,.22,0,.58a104.52,104.52,0,0,0,3.09,14.74c2.53,10.39,6.77,24.34,13.26,36.26,12,22.08,126.46,9.08,126.46,9.08S232.48,249.22,212,257.44Z"/></clipPath><clipPath id="clip-path-13"><path class="cls-1" d="M232.22,198.94C216.48,205.12,192,190.8,192,190.8l17.26-51.4s-.84-1.24-29.23-17.16-47.62-6.67-77.67,3.16-51.12,24.19-55,37.2c-1.19,4-1.24,9.05-.54,14.37h0a4.75,4.75,0,0,1,0,.58,107.06,107.06,0,0,0,3,14.77c2.46,10.41,6.6,24.39,13,36.35,11.85,22.17,126.4,10,126.4,10S252.72,190.86,232.22,198.94Z"/></clipPath><linearGradient id="linear-gradient-72" x1="100.87" y1="147.97" x2="117.55" y2="-78.08" gradientTransform="matrix(1, 0, 0, -1, 0, 270.99)" gradientUnits="userSpaceOnUse"><stop offset="0.01" stop-color="#ffb8a4"/><stop offset="0.99" stop-color="#f54f6e"/></linearGradient><clipPath id="clip-path-14"><path class="cls-1" d="M47.6,248.79s-10.2-50.4-11.9-65.4,5.4-25.5,15.3-14.3,29.6,24.2,70.5,24.2,40.3-1,45,21.8,17.3,87.8,17.3,87.8S84.7,306.39,47.6,248.79Z"/></clipPath><linearGradient id="linear-gradient-73" x1="179.02" y1="-58.57" x2="30.43" y2="129.85" gradientTransform="matrix(1, 0, 0, -1, 0, 270.99)" gradientUnits="userSpaceOnUse"><stop offset="0" stop-color="#2a3264"/><stop offset="1" stop-color="#4f61a5" stop-opacity="0.15"/></linearGradient></defs><title>Asset 1</title><g id="Layer_2" data-name="Layer 2"><g id="Layer_1-2" data-name="Layer 1"><g id="OBJECTS"><path class="cls-2" d="M287.2,6.89c84.4,18.5,137.6,77.9,144.7,160.6,7,81.1-107.2,45.6-167,89.9-59.4,43.9-143.3,43.9-190.8,3.3s-42.6-115.6-17.4-161C99.6,22.59,178.7-16.91,287.2,6.89Z"/><g class="cls-3"><path class="cls-4" d="M34.5,149l420.9,2.3-7.1,88.3s-204.8,47.9-206.3,48.2S0,233,0,233Z"/></g><polygon class="cls-5" points="312.8 122.39 315.4 122.39 314.1 124.69 312.8 126.99 311.4 124.69 310.1 122.39 312.8 122.39"/><polygon class="cls-6" points="312.8 120.89 315.4 120.89 314.1 118.59 312.8 116.29 311.4 118.59 310.1 120.89 312.8 120.89"/><path class="cls-7" d="M66.5,81.39c12.9,18.8,3.3,79.4,3.3,79.4l-21.2-1.4s1.6-60.7,16.2-78.1A1,1,0,0,1,66.5,81.39Z"/><path class="cls-8" d="M62.5,154.59l.8-17.5,5.5-6a.49.49,0,0,0-.7-.7l-4.7,5.1.4-8.7v-1h0l.4-8.9,5.8-6a.49.49,0,1,0-.7-.7l-5,5.2.4-9.8h0l.5-10.4a.5.5,0,0,0-1,0l-.4,9.2-3.8-3.7a.49.49,0,1,0-.7.7l4.4,4.3-.8,19L58.8,121a.49.49,0,0,0-.7.7l4.7,4.2V127l-.4,9.8h0l-.8,17.3Z"/><path class="cls-9" d="M89,94c8,18.4-9.6,68.8-9.6,68.8l-18.1-4.5s10.7-51.8,26-64.7A1,1,0,0,1,89,94Z"/><path class="cls-10" d="M39.5,91.69c15.2,12.7,21.8,65,21.8,65l-18,4s-13.3-50.4-5.6-68.5A1.14,1.14,0,0,1,39.5,91.69Z"/><path class="cls-8" d="M79.3,132.49h0l1.9-7.8,6-4.3c.2-.1.2-.4.1-.6s-.4-.2-.6-.1l-5.2,3.7,2.1-8.5h0l2.2-9a.41.41,0,0,0-.8-.2l-1.9,8-2.7-3.9a.43.43,0,0,0-.7.5l3.1,4.5-4,16.5-2.9-3.9c-.1-.2-.4-.2-.6-.1s-.2.4-.1.6l3.3,4.5-.2,1-2.1,8.5h0L72.6,157H51.8l-2-10,3.8-6.6a.45.45,0,1,0-.8-.4l-3.3,5.7-1.1-5.6-.6-2.9h0l-1.6-8,3.8-6.6a.45.45,0,1,0-.8-.4l-3.3,5.7-.6-3-1.1-5.5h0l-2.4-12.5c0-.2-.3-.4-.5-.4a.38.38,0,0,0-.3.5l2.3,11.5-4-2.5c-.2-.1-.5-.1-.6.1s-.1.5.1.6l4.7,2.9,3.3,16.6-4-2.5c-.2-.1-.5-.1-.6.1s-.1.5.1.6l4.7,2.9,4,20a.43.43,0,0,0,.4.4H72.8c.2,0,.4-.1.4-.3l3.7-15.2,5.8-4.3c.2-.1.2-.4.1-.6s-.4-.2-.6-.1l-5,3.7,1.8-7.6Z"/><path class="cls-2" d="M42.1,153.79H81.6a6.2,6.2,0,0,1,6,7.7l-10.1,42.2a6.28,6.28,0,0,1-6,4.8h-23a6.07,6.07,0,0,1-6.1-5.3L36,161A6.2,6.2,0,0,1,42.1,153.79Z"/><circle class="cls-11" cx="67.6" cy="70.89" r="21.2"/><circle class="cls-12" cx="67.6" cy="70.89" r="14.1"/><circle class="cls-13" cx="67.58" cy="70.75" r="14.1"/><path class="cls-14" d="M71.7,75.19a5.29,5.29,0,0,1-2.9,1.4v1.1a1.1,1.1,0,1,1-2.2,0v-1a15.52,15.52,0,0,1-2.1-.4,5.08,5.08,0,0,1-1.8-.9c-.2-.1-.4-.3-.4-.4a1.27,1.27,0,0,1-.1-.6,1.61,1.61,0,0,1,.3-.9,1,1,0,0,1,.7-.4,1.9,1.9,0,0,1,.9.3c.6.3,1.2.6,1.7.8a4.68,4.68,0,0,0,1.7.2,3,3,0,0,0,1.8-.4,1.43,1.43,0,0,0,.6-1.2.91.91,0,0,0-.4-.8,1.93,1.93,0,0,0-.9-.5,15.46,15.46,0,0,0-1.5-.4,24.63,24.63,0,0,1-2.4-.7,3.11,3.11,0,0,1-1.6-1.2,3.3,3.3,0,0,1-.7-2.1,3.86,3.86,0,0,1,1.1-2.7A4.7,4.7,0,0,1,66.4,63v-1.1a1,1,0,0,1,1.1-1.1,1,1,0,0,1,.8.3,1.14,1.14,0,0,1,.3.8V63a7.89,7.89,0,0,1,3.3,1.3c.2.1.3.3.4.4a1.27,1.27,0,0,1,.1.6,1.61,1.61,0,0,1-.3.9,1,1,0,0,1-.7.4.6.6,0,0,1-.4-.1.91.91,0,0,1-.5-.3c-.5-.3-1-.6-1.4-.8a3.34,3.34,0,0,0-1.5-.3,2.86,2.86,0,0,0-1.7.5,1.43,1.43,0,0,0-.6,1.2,1,1,0,0,0,.4.9,2.62,2.62,0,0,0,.9.5,12.26,12.26,0,0,0,1.6.4,21.9,21.9,0,0,1,2.3.7,4.19,4.19,0,0,1,1.6,1.1,3.3,3.3,0,0,1,.7,2.1A3.69,3.69,0,0,1,71.7,75.19Z"/><circle class="cls-15" cx="91.4" cy="115.49" r="14.7"/><circle class="cls-16" cx="91.4" cy="115.49" r="9.8"/><circle class="cls-13" cx="91.28" cy="115.36" r="9.8"/><path class="cls-14" d="M94.2,118.39a4.21,4.21,0,0,1-2,1v.8a1.42,1.42,0,0,1-.2.6.85.85,0,0,1-.6.2,1.42,1.42,0,0,1-.6-.2c-.2-.1-.2-.3-.2-.6v-.7a3.19,3.19,0,0,1-1.4-.3,6.66,6.66,0,0,1-1.2-.6l-.3-.3a.6.6,0,0,1-.1-.4,1.42,1.42,0,0,1,.2-.6.55.55,0,0,1,.5-.3,1.42,1.42,0,0,1,.6.2,6.12,6.12,0,0,0,1.2.5,5,5,0,0,0,1.2.2,2.13,2.13,0,0,0,1.2-.3,1,1,0,0,0,.4-.9,1.42,1.42,0,0,0-.2-.6c-.2-.1-.4-.3-.6-.3a6.21,6.21,0,0,0-1-.3,10.31,10.31,0,0,1-1.6-.5,2.84,2.84,0,0,1-1.1-.8,2.46,2.46,0,0,1-.5-1.5,2.93,2.93,0,0,1,.8-1.9,3.48,3.48,0,0,1,2-1V109a1.42,1.42,0,0,1,.2-.6,1.07,1.07,0,0,1,.6-.2,1.42,1.42,0,0,1,.6.2.85.85,0,0,1,.2.6v.7a5,5,0,0,1,2.3.9l.3.3a.6.6,0,0,1,.1.4,1.42,1.42,0,0,1-.2.6.55.55,0,0,1-.5.3H94c-.1,0-.2-.1-.4-.2a9.25,9.25,0,0,0-1-.5,3.09,3.09,0,0,0-1.1-.2,2.13,2.13,0,0,0-1.2.3,1,1,0,0,0-.4.9.6.6,0,0,0,.3.6,2.09,2.09,0,0,0,.6.4,8.11,8.11,0,0,0,1.1.3,10.31,10.31,0,0,1,1.6.5,2.84,2.84,0,0,1,1.1.8,2.25,2.25,0,0,1,.5,1.5A3.1,3.1,0,0,1,94.2,118.39Z"/><polygon class="cls-17" points="272.1 192.99 182.6 192.99 214.1 155.89 303.6 155.89 272.1 192.99"/><polygon class="cls-18" points="272.1 195.99 182.6 195.99 214.1 158.89 303.6 158.89 272.1 195.99"/><polygon class="cls-19" points="303.6 155.89 303.6 158.89 272.1 195.99 182.6 195.99 182.6 192.99 272.1 192.99 303.6 155.89"/><polygon class="cls-20" points="226.4 142.49 223.2 177.39 260.5 177.39 259.3 143.69 226.4 142.49"/><polygon class="cls-21" points="258.8 151.39 224.4 164.09 226.4 142.49 258.4 143.69 258.8 151.39"/><polygon class="cls-22" points="260.5 177.39 267 170.09 265.1 144.69 258.4 144.69 260.5 177.39"/><path class="cls-23" d="M171.1,14.79H357.5a7.2,7.2,0,0,1,7.1,8.4l-20.3,116a7.19,7.19,0,0,1-7.1,5.9H150.6a7.2,7.2,0,0,1-7.1-8.4l20.4-116A7.38,7.38,0,0,1,171.1,14.79Z"/><path class="cls-24" d="M173.5,19H347.8a6.73,6.73,0,0,1,6.6,7.9l-19,108.5a6.83,6.83,0,0,1-6.6,5.6H154.4a6.73,6.73,0,0,1-6.6-7.9l19.1-108.5A6.83,6.83,0,0,1,173.5,19Z"/><g class="cls-25"><path class="cls-26" d="M353.2,14.79c8,0,6.6,6.4,3.3,21.7s-15.8,97.6-18.1,103.1-2.6,5.5-8.2,5.5c8.4,8.2,21.7,1.4,21.7,1.4L377.2,9.59Z"/></g><path class="cls-27" d="M186,94.29a.47.47,0,0,1-.5-.5c0-10.9.1-31.6,0-32.5a.5.5,0,1,1,1,0c.1,1.2,0,31.4,0,32.6C186.5,94.09,186.2,94.29,186,94.29Z"/><path class="cls-28" d="M197.6,95.39h0a.47.47,0,0,1-.5-.5c0-6.5.1-16.5,0-17.1a.68.68,0,0,1,.4-.6.55.55,0,0,1,.6.4c.1.6,0,14.5,0,17.2A.56.56,0,0,1,197.6,95.39Z"/><path class="cls-29" d="M207.8,100.49h0a.47.47,0,0,1-.5-.5c0-8.7.1-21.9,0-22.6a.51.51,0,1,1,1-.2c.1.8,0,20.5,0,22.7A.56.56,0,0,1,207.8,100.49Z"/><path class="cls-30" d="M218.6,94.29h0a.47.47,0,0,1-.5-.5c0-8.7.1-21.9,0-22.6a.51.51,0,0,1,1-.2c.1.8,0,20.5,0,22.7A.56.56,0,0,1,218.6,94.29Z"/><path class="cls-31" d="M228.8,108.09h0a.47.47,0,0,1-.5-.5c0-8.7.1-21.9,0-22.6a.51.51,0,1,1,1-.2c.1.8,0,20.5,0,22.7A.56.56,0,0,1,228.8,108.09Z"/><path class="cls-32" d="M239.7,101.39h0a.47.47,0,0,1-.5-.5c0-8,.1-29,0-29.9a.45.45,0,1,1,.9-.1c.1,1.1,0,28.8,0,30C240.2,101.19,240,101.39,239.7,101.39Z"/><path class="cls-33" d="M251,91.69h0a.47.47,0,0,1-.5-.5c0-7.7.1-19.4,0-20a.68.68,0,0,1,.4-.6.55.55,0,0,1,.6.4c.1.7,0,18.2,0,20.2C251.4,91.49,251.2,91.69,251,91.69Z"/><path class="cls-34" d="M262.1,94h0a.47.47,0,0,1-.5-.5c0-7.7.1-19.4,0-20a.68.68,0,0,1,.4-.6.55.55,0,0,1,.6.4c.1.7,0,18.2,0,20.2A.47.47,0,0,1,262.1,94Z"/><path class="cls-35" d="M273.2,98.49h0a.47.47,0,0,1-.5-.5c0-7.7.1-19.4,0-20a.68.68,0,0,1,.4-.6.55.55,0,0,1,.6.4c.1.7,0,18.2,0,20.2A.47.47,0,0,1,273.2,98.49Z"/><path class="cls-36" d="M283.5,106.09h0a.47.47,0,0,1-.5-.5c0-7.7.1-19.4,0-20a.68.68,0,0,1,.4-.6.55.55,0,0,1,.6.4c.1.7,0,18.2,0,20.2A.54.54,0,0,1,283.5,106.09Z"/><path class="cls-37" d="M293.7,106.79h0a.47.47,0,0,1-.5-.5c0-7.7.1-19.4,0-20a.68.68,0,0,1,.4-.6.55.55,0,0,1,.6.4c.1.7,0,18.2,0,20.2A.47.47,0,0,1,293.7,106.79Z"/><path class="cls-38" d="M304.1,101h0a.47.47,0,0,1-.5-.5c0-7.7.1-19.4,0-20a.68.68,0,0,1,.4-.6.55.55,0,0,1,.6.4c.1.7,0,18.2,0,20.2A.54.54,0,0,1,304.1,101Z"/><path class="cls-39" d="M314.6,106.79h0a.47.47,0,0,1-.5-.5c0-7.7.1-19.4,0-20a.68.68,0,0,1,.4-.6.55.55,0,0,1,.6.4c.1.7,0,18.2,0,20.2A.54.54,0,0,1,314.6,106.79Z"/><path class="cls-40" d="M324.7,98.19h0a.47.47,0,0,1-.5-.5c0-7.7.1-19.4,0-20a.68.68,0,0,1,.4-.6.55.55,0,0,1,.6.4c.1.7,0,18.2,0,20.2A.47.47,0,0,1,324.7,98.19Z"/><path class="cls-41" d="M186.9,88H185a2.48,2.48,0,0,1-2.5-2.5V69.79a2.48,2.48,0,0,1,2.5-2.5h1.9a2.48,2.48,0,0,1,2.5,2.5v15.7A2.48,2.48,0,0,1,186.9,88Z"/><path class="cls-42" d="M198.5,91.19h-1.9a2.48,2.48,0,0,1-2.5-2.5h0a2.48,2.48,0,0,1,2.5-2.5h1.9a2.48,2.48,0,0,1,2.5,2.5h0A2.48,2.48,0,0,1,198.5,91.19Z"/><path class="cls-41" d="M208.8,95.59h-2a2.48,2.48,0,0,1-2.5-2.5v-9.2a2.48,2.48,0,0,1,2.5-2.5h1.9a2.48,2.48,0,0,1,2.5,2.5v9.2A2.46,2.46,0,0,1,208.8,95.59Z"/><path class="cls-41" d="M219.5,88h-1.9a2.48,2.48,0,0,1-2.5-2.5v-4a2.48,2.48,0,0,1,2.5-2.5h1.9a2.48,2.48,0,0,1,2.5,2.5v4A2.48,2.48,0,0,1,219.5,88Z"/><path class="cls-42" d="M229.8,101.79h-1.9a2.48,2.48,0,0,1-2.5-2.5v-7.5a2.48,2.48,0,0,1,2.5-2.5h1.9a2.48,2.48,0,0,1,2.5,2.5v7.5A2.48,2.48,0,0,1,229.8,101.79Z"/><path class="cls-41" d="M240.7,98.29h-1.9a2.48,2.48,0,0,1-2.5-2.5V80.09a2.48,2.48,0,0,1,2.5-2.5h1.9a2.48,2.48,0,0,1,2.5,2.5v15.7A2.48,2.48,0,0,1,240.7,98.29Z"/><path class="cls-42" d="M251.9,88.39H250a2.48,2.48,0,0,1-2.5-2.5h0a2.48,2.48,0,0,1,2.5-2.5h1.9a2.48,2.48,0,0,1,2.5,2.5h0A2.48,2.48,0,0,1,251.9,88.39Z"/><path class="cls-41" d="M262.6,88h-1.9a2.48,2.48,0,0,1-2.5-2.5V69.79a2.48,2.48,0,0,1,2.5-2.5h1.9a2.48,2.48,0,0,1,2.5,2.5v15.7A2.48,2.48,0,0,1,262.6,88Z"/><path class="cls-42" d="M274.2,95.59h-1.9a2.48,2.48,0,0,1-2.5-2.5v-5.4a2.48,2.48,0,0,1,2.5-2.5h1.9a2.48,2.48,0,0,1,2.5,2.5v5.4A2.48,2.48,0,0,1,274.2,95.59Z"/><path class="cls-42" d="M284.7,103.59h-1.9a2.48,2.48,0,0,1-2.5-2.5v-5.4a2.48,2.48,0,0,1,2.5-2.5h1.9a2.48,2.48,0,0,1,2.5,2.5v5.4A2.48,2.48,0,0,1,284.7,103.59Z"/><path class="cls-41" d="M294.7,96.19h-1.9a2.48,2.48,0,0,1-2.5-2.5v-1.9a2.48,2.48,0,0,1,2.5-2.5h1.9a2.48,2.48,0,0,1,2.5,2.5v1.9A2.48,2.48,0,0,1,294.7,96.19Z"/><path class="cls-41" d="M305.4,93.79h-1.9a2.48,2.48,0,0,1-2.5-2.5V75.59a2.48,2.48,0,0,1,2.5-2.5h1.9a2.48,2.48,0,0,1,2.5,2.5v15.7A2.48,2.48,0,0,1,305.4,93.79Z"/><path class="cls-42" d="M315.6,101.59h-1.9a2.48,2.48,0,0,1-2.5-2.5V83.39a2.48,2.48,0,0,1,2.5-2.5h1.9a2.48,2.48,0,0,1,2.5,2.5v15.7A2.61,2.61,0,0,1,315.6,101.59Z"/><path class="cls-41" d="M325.7,89.29h-1.9a2.48,2.48,0,0,1-2.5-2.5V71.09a2.48,2.48,0,0,1,2.5-2.5h1.9a2.48,2.48,0,0,1,2.5,2.5v15.7A2.48,2.48,0,0,1,325.7,89.29Z"/><path class="cls-43" d="M295.6,120.49H188.4a1.32,1.32,0,0,1-1.3-1.3h0a1.32,1.32,0,0,1,1.3-1.3H295.6a1.28,1.28,0,0,1,1.2,1.6h0A1.19,1.19,0,0,1,295.6,120.49Z"/><path class="cls-44" d="M295.6,127H188.4a1.32,1.32,0,0,1-1.3-1.3h0a1.32,1.32,0,0,1,1.3-1.3H295.6a1.28,1.28,0,0,1,1.2,1.6h0A1.19,1.19,0,0,1,295.6,127Z"/><path class="cls-45" d="M308.5,58.49A9.5,9.5,0,1,1,318,49,9.5,9.5,0,0,1,308.5,58.49Zm0-16.1a6.5,6.5,0,1,0,6.5,6.5A6.49,6.49,0,0,0,308.5,42.39Z"/><g class="cls-46"><path class="cls-47" d="M296.9,46.09l8.9,4.2,2.7-1.4V36.49S300.1,33.59,296.9,46.09Z"/></g><circle class="cls-48" cx="339.6" cy="29.79" r="1.6"/><path class="cls-49" d="M334.2,29.79a1.6,1.6,0,1,1-1.6-1.6A1.58,1.58,0,0,1,334.2,29.79Z"/><path class="cls-50" d="M327.3,29.79a1.6,1.6,0,1,1-1.6-1.6A1.58,1.58,0,0,1,327.3,29.79Z"/><path class="cls-51" d="M275,44.09l1.4-8.1a.51.51,0,1,0-1-.2l-1.5,8.5c-7.5,3.9-29.7,3.6-43.2.5-12.1-2.8-23.6,2-25.9,3.1L206.3,37a.51.51,0,1,0-1-.2L203,54a.68.68,0,0,0,.4.6h.1c.2,0,.5-.2.5-.4l.7-5.2h.2c.1-.1,12.5-6.2,25.6-3.2,13.4,3,34.8,3.5,43.2-.3l-1.5,8.6a.55.55,0,0,0,.4.6h.1a.66.66,0,0,0,.5-.4l1.6-9.3a.1.1,0,0,0,.1-.1.57.57,0,0,0,.2-.7C275.1,44.09,275.1,44.09,275,44.09Z"/><path class="cls-52" d="M204.7,47s12.5-6.3,26-3.2,36.6,3.6,44-.8"/><path class="cls-14" d="M336.6,194.19c11.5,8.6,13.8,26.8-3.8,29.4s-25.8-6.1-24.3-17.1S325.4,185.79,336.6,194.19Z"/><path class="cls-53" d="M351.4,158.89c-21.6-.9-30.1,1.8-25.2,12.5s-4.4,20.6-4.4,20.6"/><path class="cls-54" d="M404.3,57.19H346.8a5.59,5.59,0,0,0-5.6,5.6l-.1,129.5a5.59,5.59,0,0,0,5.6,5.6h57.6V57.19Z"/><path class="cls-55" d="M404.3,57.19h23.5a4.06,4.06,0,0,1,4.1,4.1v101.6a4.78,4.78,0,0,1-1,2.8l-26.6,32.1Z"/><g class="cls-56"><line class="cls-57" x1="347.8" y1="77.59" x2="397.3" y2="77.59"/><line class="cls-57" x1="347.8" y1="84.49" x2="397.3" y2="84.49"/><line class="cls-58" x1="337.3" y1="139.89" x2="407.8" y2="139.89"/><path class="cls-14" d="M376.7,121.49a6,6,0,1,1-6-6A6,6,0,0,1,376.7,121.49Z"/><path class="cls-59" d="M375.3,121.49a4.5,4.5,0,1,1-4.5-4.5A4.48,4.48,0,0,1,375.3,121.49Z"/><rect class="cls-14" x="347.8" y="186.89" width="21.2" height="1.8"/></g><path class="cls-60" d="M409.9,76.89v19.8a1.92,1.92,0,0,0,2.9,1.7l5.4-3.1a1.94,1.94,0,0,0,1-1.7V75.89a1.94,1.94,0,0,0-2.4-1.9l-4.5.4A2.59,2.59,0,0,0,409.9,76.89Z"/><g class="cls-61"><path class="cls-62" d="M403.8,124.79a1.63,1.63,0,1,1,0-2.3A1.52,1.52,0,0,1,403.8,124.79Z"/><path class="cls-62" d="M410.5,131.79a1.63,1.63,0,1,1,0-2.3A1.52,1.52,0,0,1,410.5,131.79Z"/><path class="cls-62" d="M417.3,138.69a1.63,1.63,0,1,1,0-2.3A1.69,1.69,0,0,1,417.3,138.69Z"/><path class="cls-62" d="M424,145.69a1.63,1.63,0,1,1,0-2.3A1.69,1.69,0,0,1,424,145.69Z"/><path class="cls-62" d="M430.7,152.69a1.63,1.63,0,1,1,0-2.3A1.6,1.6,0,0,1,430.7,152.69Z"/><path class="cls-62" d="M437.4,159.59a1.63,1.63,0,1,1,0-2.3A1.52,1.52,0,0,1,437.4,159.59Z"/><path class="cls-62" d="M444.1,166.59a1.63,1.63,0,1,1,0-2.3A1.52,1.52,0,0,1,444.1,166.59Z"/><path class="cls-62" d="M450.8,173.59a1.63,1.63,0,1,1,0-2.3A1.52,1.52,0,0,1,450.8,173.59Z"/><path class="cls-62" d="M397.6,130.79a1.63,1.63,0,1,1,0-2.3A1.52,1.52,0,0,1,397.6,130.79Z"/><path class="cls-62" d="M404.3,137.69a1.63,1.63,0,1,1,0-2.3A1.52,1.52,0,0,1,404.3,137.69Z"/><path class="cls-62" d="M411,144.69a1.63,1.63,0,1,1,0-2.3A1.52,1.52,0,0,1,411,144.69Z"/><path class="cls-62" d="M417.8,151.69a1.63,1.63,0,1,1,0-2.3A1.69,1.69,0,0,1,417.8,151.69Z"/><path class="cls-62" d="M424.5,158.69a1.63,1.63,0,1,1,0-2.3A1.6,1.6,0,0,1,424.5,158.69Z"/><path class="cls-62" d="M431.2,165.59a1.63,1.63,0,1,1,0-2.3A1.6,1.6,0,0,1,431.2,165.59Z"/><path class="cls-62" d="M437.9,172.59a1.63,1.63,0,1,1,0-2.3A1.52,1.52,0,0,1,437.9,172.59Z"/><path class="cls-62" d="M444.6,179.59a1.63,1.63,0,1,1,0-2.3A1.52,1.52,0,0,1,444.6,179.59Z"/><path class="cls-62" d="M391.4,136.79a1.63,1.63,0,1,1,0-2.3A1.6,1.6,0,0,1,391.4,136.79Z"/><path class="cls-62" d="M398.1,143.69a1.63,1.63,0,1,1,0-2.3A1.52,1.52,0,0,1,398.1,143.69Z"/><path class="cls-62" d="M404.8,150.69a1.63,1.63,0,1,1,0-2.3A1.52,1.52,0,0,1,404.8,150.69Z"/><path class="cls-62" d="M411.5,157.69a1.63,1.63,0,1,1,0-2.3A1.52,1.52,0,0,1,411.5,157.69Z"/><path class="cls-62" d="M418.3,164.59a1.63,1.63,0,1,1,0-2.3A1.69,1.69,0,0,1,418.3,164.59Z"/><path class="cls-62" d="M425,171.59a1.63,1.63,0,1,1,0-2.3A1.6,1.6,0,0,1,425,171.59Z"/><path class="cls-62" d="M431.7,178.59a1.63,1.63,0,1,1,0-2.3A1.6,1.6,0,0,1,431.7,178.59Z"/><path class="cls-62" d="M438.4,185.59a1.63,1.63,0,1,1,0-2.3A1.52,1.52,0,0,1,438.4,185.59Z"/><path class="cls-62" d="M385.2,142.79a1.63,1.63,0,1,1,0-2.3A1.6,1.6,0,0,1,385.2,142.79Z"/><path class="cls-62" d="M391.9,149.69a1.63,1.63,0,1,1,0-2.3A1.6,1.6,0,0,1,391.9,149.69Z"/><path class="cls-62" d="M398.6,156.69a1.63,1.63,0,1,1,0-2.3A1.52,1.52,0,0,1,398.6,156.69Z"/><path class="cls-62" d="M405.3,163.69a1.63,1.63,0,1,1,0-2.3A1.52,1.52,0,0,1,405.3,163.69Z"/><path class="cls-62" d="M412,170.59a1.63,1.63,0,1,1,0-2.3A1.52,1.52,0,0,1,412,170.59Z"/><path class="cls-62" d="M418.8,177.59a1.63,1.63,0,1,1,0-2.3A1.69,1.69,0,0,1,418.8,177.59Z"/><path class="cls-62" d="M425.5,184.59a1.63,1.63,0,1,1,0-2.3A1.6,1.6,0,0,1,425.5,184.59Z"/><path class="cls-62" d="M432.2,191.49a1.63,1.63,0,1,1,0-2.3A1.52,1.52,0,0,1,432.2,191.49Z"/><path class="cls-62" d="M379,148.79a1.63,1.63,0,1,1,0-2.3A1.69,1.69,0,0,1,379,148.79Z"/><path class="cls-62" d="M385.7,155.69a1.63,1.63,0,1,1,0-2.3A1.6,1.6,0,0,1,385.7,155.69Z"/><path class="cls-62" d="M392.4,162.69a1.63,1.63,0,1,1,0-2.3A1.52,1.52,0,0,1,392.4,162.69Z"/><path class="cls-62" d="M399.1,169.69a1.63,1.63,0,1,1,0-2.3A1.52,1.52,0,0,1,399.1,169.69Z"/><path class="cls-62" d="M405.8,176.59a1.63,1.63,0,1,1,0-2.3A1.52,1.52,0,0,1,405.8,176.59Z"/><path class="cls-62" d="M412.5,183.59a1.63,1.63,0,1,1,0-2.3A1.52,1.52,0,0,1,412.5,183.59Z"/><path class="cls-62" d="M419.3,190.59a1.63,1.63,0,1,1,0-2.3A1.69,1.69,0,0,1,419.3,190.59Z"/><path class="cls-62" d="M426,197.49a1.63,1.63,0,1,1,0-2.3A1.6,1.6,0,0,1,426,197.49Z"/></g><path class="cls-63" d="M264.5,226H188.1a9.39,9.39,0,0,1-9.4-9.4v-30.5a9.39,9.39,0,0,1,9.4-9.4H275a9.42,9.42,0,0,1,8.9,12.5l-10.5,30.5A9.38,9.38,0,0,1,264.5,226Z"/><path class="cls-64" d="M259.2,222.09H195a7.85,7.85,0,0,1-7.9-7.9v-25.7a7.85,7.85,0,0,1,7.9-7.9h73a7.94,7.94,0,0,1,7.5,10.5l-8.8,25.6A8,8,0,0,1,259.2,222.09Z"/><path class="cls-65" d="M209.5,184.19h4a1.53,1.53,0,0,1,1.5,1.9l-.8,3.3a1.59,1.59,0,0,1-1.5,1.2h-4.1a1.58,1.58,0,0,1-1.5-2l.9-3.3A1.63,1.63,0,0,1,209.5,184.19Z"/><path class="cls-66" d="M219,184.19h4a1.53,1.53,0,0,1,1.5,1.9l-.8,3.3a1.59,1.59,0,0,1-1.5,1.2h-4.1a1.58,1.58,0,0,1-1.5-2l.9-3.3A1.63,1.63,0,0,1,219,184.19Z"/><path class="cls-67" d="M228.5,184.19h4a1.53,1.53,0,0,1,1.5,1.9l-.8,3.3a1.59,1.59,0,0,1-1.5,1.2h-4.1a1.58,1.58,0,0,1-1.5-2l.9-3.3A1.63,1.63,0,0,1,228.5,184.19Z"/><path class="cls-68" d="M238,184.19h4a1.53,1.53,0,0,1,1.5,1.9l-.8,3.3a1.59,1.59,0,0,1-1.5,1.2h-4.1a1.58,1.58,0,0,1-1.5-2l.9-3.3A1.63,1.63,0,0,1,238,184.19Z"/><path class="cls-69" d="M247.5,184.19h4a1.53,1.53,0,0,1,1.5,1.9l-.8,3.3a1.59,1.59,0,0,1-1.5,1.2h-4.1a1.58,1.58,0,0,1-1.5-2l.9-3.3A1.63,1.63,0,0,1,247.5,184.19Z"/><path class="cls-70" d="M257,184.19h4a1.53,1.53,0,0,1,1.5,1.9l-.8,3.3a1.59,1.59,0,0,1-1.5,1.2h-4.1a1.58,1.58,0,0,1-1.5-2l.9-3.3A1.53,1.53,0,0,1,257,184.19Z"/><path class="cls-71" d="M207.5,192.79h4a1.53,1.53,0,0,1,1.5,1.9l-.8,3.3a1.59,1.59,0,0,1-1.5,1.2h-4.1a1.58,1.58,0,0,1-1.5-2l.9-3.3A1.63,1.63,0,0,1,207.5,192.79Z"/><path class="cls-72" d="M217,192.79h4a1.53,1.53,0,0,1,1.5,1.9l-.8,3.3a1.59,1.59,0,0,1-1.5,1.2h-4.1a1.58,1.58,0,0,1-1.5-2l.9-3.3A1.63,1.63,0,0,1,217,192.79Z"/><path class="cls-73" d="M226.5,192.79h4a1.53,1.53,0,0,1,1.5,1.9l-.8,3.3a1.59,1.59,0,0,1-1.5,1.2h-4.1a1.58,1.58,0,0,1-1.5-2l.9-3.3A1.63,1.63,0,0,1,226.5,192.79Z"/><path class="cls-74" d="M236,192.79h4a1.53,1.53,0,0,1,1.5,1.9l-.8,3.3a1.59,1.59,0,0,1-1.5,1.2h-4.1a1.58,1.58,0,0,1-1.5-2l.9-3.3A1.63,1.63,0,0,1,236,192.79Z"/><path class="cls-75" d="M245.5,192.79h4a1.53,1.53,0,0,1,1.5,1.9l-.8,3.3a1.59,1.59,0,0,1-1.5,1.2h-4.1a1.58,1.58,0,0,1-1.5-2l.9-3.3A1.63,1.63,0,0,1,245.5,192.79Z"/><path class="cls-76" d="M255,192.79h4a1.53,1.53,0,0,1,1.5,1.9l-.8,3.3a1.59,1.59,0,0,1-1.5,1.2h-4.1a1.58,1.58,0,0,1-1.5-2l.9-3.3A1.63,1.63,0,0,1,255,192.79Z"/><path class="cls-77" d="M205.5,201.29h4a1.53,1.53,0,0,1,1.5,1.9l-.8,3.3a1.59,1.59,0,0,1-1.5,1.2h-4.1a1.58,1.58,0,0,1-1.5-2l.9-3.3A1.63,1.63,0,0,1,205.5,201.29Z"/><path class="cls-78" d="M215,201.29h4a1.53,1.53,0,0,1,1.5,1.9l-.7,3.3a1.59,1.59,0,0,1-1.5,1.2h-4.1a1.58,1.58,0,0,1-1.5-2l.9-3.3A1.41,1.41,0,0,1,215,201.29Z"/><path class="cls-79" d="M224.5,201.29h4a1.53,1.53,0,0,1,1.5,1.9l-.8,3.3a1.59,1.59,0,0,1-1.5,1.2h-4.1a1.58,1.58,0,0,1-1.5-2l.9-3.3A1.63,1.63,0,0,1,224.5,201.29Z"/><path class="cls-80" d="M234,201.29h4a1.53,1.53,0,0,1,1.5,1.9l-.8,3.3a1.59,1.59,0,0,1-1.5,1.2h-4.1a1.58,1.58,0,0,1-1.5-2l.9-3.3A1.63,1.63,0,0,1,234,201.29Z"/><path class="cls-81" d="M243.5,201.29h4a1.53,1.53,0,0,1,1.5,1.9l-.8,3.3a1.59,1.59,0,0,1-1.5,1.2h-4.1a1.58,1.58,0,0,1-1.5-2l.9-3.3A1.63,1.63,0,0,1,243.5,201.29Z"/><path class="cls-82" d="M253,201.29h4a1.53,1.53,0,0,1,1.5,1.9l-.8,3.3a1.59,1.59,0,0,1-1.5,1.2h-4.1a1.58,1.58,0,0,1-1.5-2l.9-3.3A1.63,1.63,0,0,1,253,201.29Z"/><path class="cls-83" d="M203.6,209.89h4a1.53,1.53,0,0,1,1.5,1.9l-.8,3.3a1.59,1.59,0,0,1-1.5,1.2h-4.1a1.58,1.58,0,0,1-1.5-2l.9-3.3A1.53,1.53,0,0,1,203.6,209.89Z"/><path class="cls-84" d="M213.1,209.89h4a1.53,1.53,0,0,1,1.5,1.9l-.8,3.3a1.59,1.59,0,0,1-1.5,1.2h-4.1a1.58,1.58,0,0,1-1.5-2l.9-3.3A1.53,1.53,0,0,1,213.1,209.89Z"/><path class="cls-85" d="M222.5,209.89h4a1.53,1.53,0,0,1,1.5,1.9l-.8,3.3a1.59,1.59,0,0,1-1.5,1.2h-4.1a1.58,1.58,0,0,1-1.5-2l.9-3.3A1.63,1.63,0,0,1,222.5,209.89Z"/><path class="cls-86" d="M232,209.89h4a1.53,1.53,0,0,1,1.5,1.9l-.8,3.3a1.59,1.59,0,0,1-1.5,1.2h-4.1a1.58,1.58,0,0,1-1.5-2l.9-3.3A1.63,1.63,0,0,1,232,209.89Z"/><path class="cls-87" d="M241.5,209.89h4a1.53,1.53,0,0,1,1.5,1.9l-.8,3.3a1.59,1.59,0,0,1-1.5,1.2h-4.1a1.58,1.58,0,0,1-1.5-2l.9-3.3A1.63,1.63,0,0,1,241.5,209.89Z"/><path class="cls-88" d="M251,209.89h4a1.53,1.53,0,0,1,1.5,1.9l-.8,3.3a1.59,1.59,0,0,1-1.5,1.2h-4.1a1.58,1.58,0,0,1-1.5-2l.9-3.3A1.63,1.63,0,0,1,251,209.89Z"/><g class="cls-3"><polygon class="cls-89" points="178.7 132.49 159.6 134.49 156.1 157.99 112.7 150.59 121.1 121.49 140.2 105.69 178.7 132.49"/><g class="cls-90"><path class="cls-91" d="M135.5,107c1.5,35,27.8,44.2,27.8,44.2l22.7-22.1L139.1,104Z"/></g><path class="cls-89" d="M182.2,54.79c4.1,8.9,6,27.3,6,27.3l6.9,12.1c1.7,2.5.4,2.7-.7,3.4l-4.2,2.6s7,32.5-14.3,32.6c-9.5,0-36-7.7-38.6-30.5s-6.4-54.2,16.1-54S182.2,54.79,182.2,54.79Z"/><path class="cls-92" d="M110.1,58.49c-.8-14,10.2-23.2,24-22.7s31.4-4.3,42.9-8.7,20.9,1.3,14.8,9.7c13.3.3,14,13.3,1.9,18.4s-40.5,5.1-40.5,5.1-3.1,28.3-13.8,30.1l-.3,14.6a14.25,14.25,0,0,1-9,13l-9.1,3.6s-12.5-22.7-17.9-33.2C97.9,77.89,97.3,61.79,110.1,58.49Z"/><path class="cls-89" d="M143.9,103s-7.8,8.6-16.7.5-1.6-20.6,6-20.4S143.5,93,143.5,93Z"/><path class="cls-93" d="M129.7,91.09c5-3.1,8.8,4.7,5.4,8.6"/><path class="cls-94" d="M174,88.09a2.3,2.3,0,1,0,2.3-2.3A2.4,2.4,0,0,0,174,88.09Z"/><path class="cls-95" d="M180.4,76.49s-2.3-3.5-7.6-2.9-6.4,4.1-6.4,4.1"/><path class="cls-14" d="M185.5,112.89l-15.3-3.4s-1,6.4,6.9,7.4S185.5,112.89,185.5,112.89Z"/><path class="cls-14" d="M103.5,149s5-12,19-11,33,6,39,13,6,11,6,11l-65-13"/><polygon class="cls-96" points="219.5 221.29 248.4 281.49 182 315.19 74.1 291.09 99.6 176.69 219.5 221.29"/><path class="cls-89" d="M188.5,258.29s12.2,27.3,31.9,30.7,75.6-38.5,89.9-51.1,25-19.7,25.5-26.2.7-13.8,5.3-10.7c.9-9.7-4.1-12.9-6.3-10.9-3.6-4.1-7.8-2.4-9.9-.6-2.7-5.4-7.3-4.2-7.3-4.2s-.3-5.5-5.4-5.7-7.6,7.3-11.1,12.8-6,8.4-16,15.1-49.8,28.7-49.8,28.7l-5.6-9.4-26.5,14.7Z"/><path class="cls-97" d="M317.7,185.39c-5.2.2-6.3,4.1-6.3,4.1s.2-6.8,2.2-7.7,3.6-.2,4.1,3.6"/><path class="cls-97" d="M325,189.49a21.61,21.61,0,0,0-4.6,4.4s-1.4-5,.5-6.1S325,189.49,325,189.49Z"/><path class="cls-97" d="M334.9,190.09a18.82,18.82,0,0,0-4.5,5.5s-.7-5.3.9-6.3S334.9,190.09,334.9,190.09Z"/><polygon class="cls-98" points="235.3 236.29 190.8 263.99 188.5 258.29 229.7 226.89 235.3 236.29"/><path class="cls-99" d="M84.6,153.89c10.5-8.6,36-8.7,66.4,0s51.6,11.7,66.1,40.9,14.6,30.6,14.6,30.6l-46.1,35.2s-6.5-44.2-48.1-41.1-71-28.3-71-28.3S73.6,162.89,84.6,153.89Z"/><g class="cls-100"><circle class="cls-101" cx="93.12" cy="147.99" r="27.1"/></g><g class="cls-102"><circle class="cls-101" cx="167.11" cy="148.99" r="27.1"/></g><g class="cls-103"><circle class="cls-101" cx="222.11" cy="204.99" r="27.1" transform="translate(-66.25 114.43) rotate(-25.27)"/></g><g class="cls-104"><circle class="cls-101" cx="146.11" cy="209.99" r="27.1"/></g><g class="cls-105"><circle class="cls-101" cx="166.11" cy="280.99" r="27.1"/></g><g class="cls-106"><circle class="cls-101" cx="80.14" cy="218.99" r="27.1" transform="translate(-108.94 82.5) rotate(-34.08)"/></g><path class="cls-107" d="M188.5,258.29s-16.9-41.5-48.8-57-40.1-11.1-55.1-18-8.5-17.8-8.5-17.8-13.1,26.7-15.7,51.8,99.1,79.1,99.1,79.1,79.4-4,58-8.8C200.8,284,188.5,258.29,188.5,258.29Z"/><path class="cls-108" d="M47.6,248.79s-10.2-50.4-11.9-65.4,5.4-25.5,15.3-14.3,29.6,24.2,70.5,24.2,40.3-1,45,21.8,17.3,87.8,17.3,87.8S84.7,306.39,47.6,248.79Z"/><g class="cls-109"><path class="cls-110" d="M25.6,236.89c75.2-44.8,82,30.6,140.6,32.2l58.6,1.5-7.8,55.7-139.3-8.2Z"/></g></g></g></g></g></svg>