<svg xmlns="http://www.w3.org/2000/svg" xmlns:xlink="http://www.w3.org/1999/xlink" viewBox="0 0 410.5 371.86"><defs><style>.cls-1,.cls-12,.cls-21{fill:none;stroke-linecap:round;stroke-miterlimit:10;stroke-width:5px;}.cls-1{stroke:url(#linear-gradient);}.cls-2{fill:url(#linear-gradient-2);}.cls-3{fill:#2e7bce;}.cls-4{fill:#80baf9;}.cls-5{fill:url(#linear-gradient-3);}.cls-6{fill:#fffbb0;}.cls-7{fill:#ffcc10;}.cls-8{fill:#d3a600;}.cls-9{fill:#ffcb28;}.cls-10{fill:#8a6900;}.cls-11{fill:#634901;}.cls-12{stroke:url(#linear-gradient-4);}.cls-13{fill:url(#linear-gradient-5);}.cls-14{fill:url(#linear-gradient-6);}.cls-15{fill:url(#linear-gradient-7);}.cls-16{fill:#56a1ff;}.cls-17{fill:#e9ffee;}.cls-18{fill:#3288d6;}.cls-19{fill:url(#linear-gradient-8);}.cls-20{fill:url(#linear-gradient-9);}.cls-21{stroke:url(#linear-gradient-10);}.cls-22{fill:url(#linear-gradient-11);}.cls-23{fill:#d8d17c;}.cls-24{fill:#bcb25b;}.cls-25{fill:url(#linear-gradient-12);}.cls-26{fill:url(#linear-gradient-13);}.cls-27{fill:#ffba68;}.cls-28{fill:#04273f;}.cls-29{fill:#000117;}.cls-30{fill:#00335c;}.cls-31{fill:url(#linear-gradient-14);}</style><linearGradient id="linear-gradient" x1="89.01" y1="223.69" x2="159.81" y2="223.69" gradientTransform="matrix(1, 0, 0, -1, 0, 358.59)" gradientUnits="userSpaceOnUse"><stop offset="0" stop-color="#5083c2" stop-opacity="0"/><stop offset="1" stop-color="#aad7ff"/></linearGradient><linearGradient id="linear-gradient-2" x1="26.58" y1="244.51" x2="129.92" y2="244.51" gradientTransform="matrix(1, 0, 0, -1, 0, 358.59)" gradientUnits="userSpaceOnUse"><stop offset="0" stop-color="#aad7ff"/><stop offset="1" stop-color="#5083c2" stop-opacity="0"/></linearGradient><linearGradient id="linear-gradient-3" x1="37.26" y1="262.04" x2="109.15" y2="262.04" gradientTransform="matrix(1, 0, 0, -1, 0, 358.59)" gradientUnits="userSpaceOnUse"><stop offset="0" stop-color="#1572ff"/><stop offset="1" stop-color="#5083c2" stop-opacity="0"/></linearGradient><linearGradient id="linear-gradient-4" x1="59.21" y1="104.74" x2="133.01" y2="104.74" xlink:href="#linear-gradient"/><linearGradient id="linear-gradient-5" x1="-1424.93" y1="57.48" x2="-1298.01" y2="57.48" gradientTransform="translate(-1298.01 358.59) rotate(180)" xlink:href="#linear-gradient-2"/><linearGradient id="linear-gradient-6" x1="17.97" y1="56.44" x2="93.87" y2="56.44" gradientTransform="matrix(1, -0.03, -0.03, -1, 7.65, 342.02)" xlink:href="#linear-gradient-3"/><linearGradient id="linear-gradient-7" x1="79.44" y1="144.91" x2="320.36" y2="144.91" xlink:href="#linear-gradient-2"/><linearGradient id="linear-gradient-8" x1="155.01" y1="177.64" x2="242.01" y2="177.64" xlink:href="#linear-gradient-2"/><linearGradient id="linear-gradient-9" x1="307.19" y1="234.49" x2="410.53" y2="234.49" xlink:href="#linear-gradient-2"/><linearGradient id="linear-gradient-10" x1="215.21" y1="208.94" x2="331.21" y2="208.94" xlink:href="#linear-gradient"/><linearGradient id="linear-gradient-11" x1="322.11" y1="253.09" x2="388.62" y2="253.09" xlink:href="#linear-gradient-3"/><linearGradient id="linear-gradient-12" x1="218.1" y1="34.95" x2="393.1" y2="34.95" xlink:href="#linear-gradient-2"/><linearGradient id="linear-gradient-13" x1="335.55" y1="76.72" x2="368.39" y2="76.72" xlink:href="#linear-gradient-3"/><linearGradient id="linear-gradient-14" x1="246.35" y1="27.22" x2="279.19" y2="27.22" xlink:href="#linear-gradient-3"/></defs><title>Asset 1</title><g id="Layer_2" data-name="Layer 2"><g id="Layer_1-2" data-name="Layer 1"><g id="OBJECT"><line class="cls-1" x1="157.31" y1="153.99" x2="91.51" y2="115.79"/><path class="cls-2" d="M70.51,142.49l58.5-33.9a1.84,1.84,0,0,0-.1-3.2l-37.6-20a4.27,4.27,0,0,0-4.1.1l-60.1,35.3a1.29,1.29,0,0,0,.1,2.3l37.7,19.6A6.47,6.47,0,0,0,70.51,142.49Z"/><path class="cls-3" d="M66.61,127.59l59.3-34.4c1-.6,1.3-3.8.3-4.3l-40.6-19.6-62.1,34.6c-.8.5-1,3.6-.2,4l38.1,19.8A5.34,5.34,0,0,0,66.61,127.59Z"/><path class="cls-4" d="M66.81,125.29l58.5-33.9a1.84,1.84,0,0,0-.1-3.2l-37.6-20a4.27,4.27,0,0,0-4.1.1l-60.1,35.3a1.29,1.29,0,0,0,.1,2.3l37.7,19.6A6.14,6.14,0,0,0,66.81,125.29Z"/><path class="cls-5" d="M67.81,116.29l40.7-23.6a1.27,1.27,0,0,0,0-2.2l-26.2-13.9a2.8,2.8,0,0,0-2.8.1l-41.8,24.5a.94.94,0,0,0,0,1.6l26.2,13.6A4.14,4.14,0,0,0,67.81,116.29Z"/><polygon class="cls-6" points="66.01 69.8 112.01 43.2 81.41 27 35.51 53.9 66.01 69.8"/><polygon class="cls-7" points="65.61 70 65.41 112.89 112.01 85.69 112.01 43.2 65.61 70"/><polygon class="cls-8" points="66.01 69.8 65.41 112.89 35.51 95.69 35.51 53.9 66.01 69.8"/><path class="cls-8" d="M52.31,58.79s1.9,3.2,8.4,3.1l3.1-14.4C63.71,47.59,53.61,51.09,52.31,58.79Z"/><path class="cls-8" d="M80.21,42.59s1.9,3.2,8.4,3.1l3.1-14.4S81.51,34.79,80.21,42.59Z"/><path class="cls-8" d="M52.31,47.79V23.09a12.38,12.38,0,0,1,6.2-10.8L81.11.69c6.2-2.6,15.1,2.6,15.1,7.3l-7,28.8-9,5.7V14.59a2.17,2.17,0,0,0-3.3-1.9l-12.1,6.8a5.88,5.88,0,0,0-3,5.2v28.2l-9.5,5.9Z"/><path class="cls-9" d="M60.61,50.89V26.19a12.38,12.38,0,0,1,6.2-10.8l21.6-11.5c3.7-1.8,9.1.8,9.1,5.5l.1,30.5s-.7,5.6-9,5.7V17.79a2.17,2.17,0,0,0-3.3-1.9l-12.1,6.8a5.88,5.88,0,0,0-3,5.2v28.2s-1.9,4.9-9.5,5.9V50.89Z"/><path class="cls-10" d="M94.21,84.19l2.3,5-11,6.2,1.2-5.6.5-2.5a6.74,6.74,0,0,1-4.6-1.3,5.73,5.73,0,0,1-1.1-1.1,9.45,9.45,0,0,1-1.7-4.8c-.9-9.6,7.2-18.9,14.6-18.1h.3c5.1.8,6.8,6.6,5.4,12.2A18.77,18.77,0,0,1,94.21,84.19Z"/><path class="cls-11" d="M89.81,81.69l2.3,5-5.4,3.1.5-2.5a6.74,6.74,0,0,1-4.6-1.3l.2-1.1h-1.3a9.45,9.45,0,0,1-1.7-4.8c-.9-9.6,7.2-18.9,14.6-18.1,1.8,2.4,2.3,6.1,1.4,9.8A18.93,18.93,0,0,1,89.81,81.69Z"/><line class="cls-12" x1="130.51" y1="234.09" x2="61.71" y2="273.59"/><path class="cls-13" d="M72.91,336l-71.8-41.7a2.22,2.22,0,0,1,.1-3.9l46.2-24.5a5.22,5.22,0,0,1,5,.1l73.7,43.3a1.57,1.57,0,0,1-.1,2.8l-46.3,24.1A7.43,7.43,0,0,1,72.91,336Z"/><path class="cls-3" d="M77.71,317.69l-72.8-42.2c-1.2-.7-1.6-4.6-.4-5.3l49.8-24.1,76.2,42.5c1,.6,1.2,4.4.2,4.9l-46.8,24.3A6.24,6.24,0,0,1,77.71,317.69Z"/><path class="cls-4" d="M77.51,314.89l-71.8-41.7a2.22,2.22,0,0,1,.1-3.9L52,244.79a5.22,5.22,0,0,1,5,.1l73.7,43.3a1.57,1.57,0,0,1-.1,2.8l-46.3,24.1A7.41,7.41,0,0,1,77.51,314.89Z"/><path class="cls-14" d="M87.91,305.49l-63.6-35.8a1.22,1.22,0,0,1,0-2.1l8.5-4.9a2.44,2.44,0,0,1,2.6,0l64.6,36.7a.85.85,0,0,1,0,1.5l-8.6,4.7A3.93,3.93,0,0,1,87.91,305.49Z"/><polygon class="cls-10" points="15.41 223.5 23.81 218.59 28.91 224.19 15.41 223.5"/><polygon class="cls-10" points="27.31 260.19 31.91 257.3 31.21 250.29 27.41 249.09 27.31 260.19"/><path class="cls-10" d="M71.81,244.09l-43.4-25.2a5.13,5.13,0,0,0-7.7,4.4l-.2,23.7,14.3,8.2-.2-16.5,4.2,2.5v11.6l9.5,5.7.2-11.8,20.3,12.5Z"/><path class="cls-10" d="M117.21,271.09c1.7,16.2-5.3,28.1-15.3,28.9s-21.5-9.4-26.7-25c-6.2-18.8-1.1-38.2,12.7-39.6C101.91,233.89,115.21,251.69,117.21,271.09Z"/><path class="cls-7" d="M109.81,274.09c1.1,16-6.3,27.6-16.4,28.1s-21.3-9.9-26-25.6c-5.6-18.8.2-37.7,14.2-38.7S108.51,254.79,109.81,274.09Z"/><path class="cls-10" d="M92.41,285.69a5.81,5.81,0,0,1-3.9,1.7c-4.6.3-9.9-5-12.1-12.9-2.6-9.4.1-19,6.5-19.5a5.83,5.83,0,0,1,2.3.2c5.5,1.5,10.2,9.5,10.8,18C96.41,278.89,94.91,283.39,92.41,285.69Z"/><path class="cls-11" d="M92.41,285.69c-4-1.2-8-6-9.8-12.6-2-7.3-.9-14.6,2.7-17.8,5.5,1.5,10.2,9.5,10.8,18C96.41,278.89,94.91,283.39,92.41,285.69Z"/><path class="cls-7" d="M69.71,251.69l-49.4-28.4a4.65,4.65,0,0,0-7,4l-.1,20.9a6.46,6.46,0,0,0,3.1,5.5l11.1,6.4-.2-16.5,4.2,2.5v11.6l9.8,5.8.2-11.8,25.3,15.2Z"/><polygon class="cls-10" points="41.31 263.5 48.41 259.39 48.41 255.79 41.51 251.59 41.31 263.5"/><path class="cls-15" d="M82,205.29l133.5,77.4a12.73,12.73,0,0,0,12.8,0l88.6-51.6a6.94,6.94,0,0,0,0-12l-130-74.5a13.11,13.11,0,0,0-12.6-.1l-92.2,51.7A5.26,5.26,0,0,0,82,205.29Z"/><path class="cls-3" d="M82.31,174.69l133.4,77.4a12.73,12.73,0,0,0,12.8,0l89.7-52.2c8.9-5.2,2.4-16.2-3.8-16.9L187,114.09a13.11,13.11,0,0,0-12.6-.1L82,160.69C78.51,162.59,76.31,171.39,82.31,174.69Z"/><path class="cls-16" d="M82,169.29l133.5,77.4a12.73,12.73,0,0,0,12.8,0l88.6-51.6a6.94,6.94,0,0,0,0-12l-130-74.5a13.11,13.11,0,0,0-12.6-.1l-92.2,51.7A5.26,5.26,0,0,0,82,169.29Z"/><polygon class="cls-17" points="90.61 164.9 209.41 233.79 298.51 182.09 180.51 114.5 90.61 164.9"/><ellipse class="cls-18" cx="262.91" cy="213.59" rx="8.7" ry="6"/><path class="cls-16" d="M120.81,144.79l31.8-18.5,6.8,3.9a2.15,2.15,0,0,1,0,3.7l-25.3,15.3a6.65,6.65,0,0,1-7.4-.3Z"/><polygon class="cls-19" points="189.71 205.29 242.01 175 207.31 156.59 155.01 187.29 189.71 205.29"/><path class="cls-8" d="M254.11,16.79l-16-7.4c-21.3,16.1-45.7,2-45.7,2-19.3,40.2-45.7,48-45.7,48s-6.3,60.2,2,92.5,44.9,32.7,44.9,32.7c15.6-15.2,26.2-32.4,33.1-46.6a115.43,115.43,0,0,0,11.4-50.4V24.19A25,25,0,0,0,254.11,16.79Z"/><path class="cls-7" d="M254.11,16.79V95a115.75,115.75,0,0,1-11.4,50.4,166,166,0,0,1-33.1,46.6s-36.6-.4-44.9-32.7-2-92.5-2-92.5,26.4-7.9,45.7-48C208.41,18.79,232.81,32.89,254.11,16.79Z"/><path class="cls-6" d="M246.11,35.49l-1.2,64.2a91.45,91.45,0,0,1-8.6,37.5c-5.5,11.8-14.2,26.4-27.3,39.1,0,0-28.4-.8-34.3-27s-.2-74.7-.2-74.7,20.6-6,36.1-38.1C210.71,36.49,229.41,48.29,246.11,35.49Z"/><path class="cls-11" d="M235.61,106.29c-3.4,16.8-14.4,31.2-25.8,34.5-12.5,3.6-23.6-6.8-23.6-26.2,0-23.3,15.2-46,31.8-46C232.71,68.49,239.61,86.79,235.61,106.29Z"/><polygon class="cls-6" points="187.91 114.39 193.81 107.09 202.41 114.19 228.51 79.8 231.21 86.69 203.71 126.89 187.91 114.39"/><path class="cls-20" d="M351.11,152.49l58.5-33.9a1.84,1.84,0,0,0-.1-3.2l-37.6-20a4.27,4.27,0,0,0-4.1.1l-60.1,35.3a1.29,1.29,0,0,0,.1,2.3l37.7,19.6A6.14,6.14,0,0,0,351.11,152.49Z"/><path class="cls-3" d="M347.21,137.59l59.3-34.4c1-.6,1.3-3.8.3-4.3l-40.6-19.6-62.1,34.6c-.8.5-1,3.6-.2,4l38.1,19.8A5.34,5.34,0,0,0,347.21,137.59Z"/><path class="cls-4" d="M347.41,135.29l58.5-34a1.84,1.84,0,0,0-.1-3.2l-37.6-20a4.27,4.27,0,0,0-4.1.1L304,113.49a1.29,1.29,0,0,0,.1,2.3l37.7,19.6A5.86,5.86,0,0,0,347.41,135.29Z"/><polyline class="cls-21" points="217.71 162.9 254.21 141.9 285.71 160.4 328.71 136.4"/><path class="cls-22" d="M341.11,123.59,388,97a1.27,1.27,0,0,0,0-2.2l-14.6-7.6a2.8,2.8,0,0,0-2.8.1l-47.9,27.5a.94.94,0,0,0,0,1.6l14.7,7.3A3.76,3.76,0,0,0,341.11,123.59Z"/><path class="cls-10" d="M372,38.49a3.66,3.66,0,0,0-5.4-3.2l-44.4,25v46l12.8,5.3V99l37-21.3Z"/><polygon class="cls-23" points="327.51 36.49 327.41 82.39 358.91 63.99 358.91 18.3 327.51 36.49"/><polygon class="cls-24" points="330.91 39.49 330.81 44.49 355.11 30.3 355.11 25.5 330.91 39.49"/><polygon class="cls-24" points="330.91 47.99 330.81 52.99 355.11 38.8 355.11 33.99 330.91 47.99"/><polygon class="cls-24" points="330.91 55.9 330.81 60.9 355.11 46.7 355.11 41.99 330.91 55.9"/><polygon class="cls-24" points="330.91 64.09 330.81 69.09 355.11 54.9 355.11 50.09 330.91 64.09"/><polygon class="cls-6" points="337.61 44.09 337.51 90 369.01 71.59 369.01 25.89 337.61 44.09"/><polygon class="cls-23" points="341.01 47.2 340.91 52.09 365.21 37.9 365.21 33.2 341.01 47.2"/><polygon class="cls-23" points="341.01 55.59 340.91 60.59 365.21 46.4 365.21 41.59 341.01 55.59"/><polygon class="cls-23" points="341.01 63.59 340.91 68.59 365.21 54.4 365.21 49.59 341.01 63.59"/><polygon class="cls-23" points="341.01 71.69 340.91 76.69 365.21 62.49 365.21 57.7 341.01 71.69"/><path class="cls-7" d="M335,65.59v46L384.81,83V45.29a4.5,4.5,0,0,0-6.7-3.9Z"/><polygon class="cls-10" points="322.21 60.3 335.01 65.59 335.01 92.8 322.31 88.39 322.21 60.3"/><path class="cls-25" d="M261.31,371.09l130.9-72a1.84,1.84,0,0,0-.1-3.2l-37.6-20a4.27,4.27,0,0,0-4.1.1l-60,35.3c-.9.5-73.2,39.9-72.3,40.3l37.7,19.6A5.67,5.67,0,0,0,261.31,371.09Z"/><path class="cls-3" d="M261.91,358.59l127.2-74.8c1-.6,1.3-3.8.3-4.3l-40.6-19.6-129.9,75c-.8.5-1,3.6-.2,4l38.1,19.8A5.16,5.16,0,0,0,261.91,358.59Z"/><path class="cls-4" d="M261.61,356.09l126.8-74.2a1.84,1.84,0,0,0-.1-3.2l-37.6-20a4.27,4.27,0,0,0-4.1.1l-128.2,75.5a1.29,1.29,0,0,0,.1,2.3l37.7,19.6A5.47,5.47,0,0,0,261.61,356.09Z"/><path class="cls-26" d="M335.81,285.49s-.6,2.1,5.8,3.2,7-4.5,9.9-5.8c6.2-2.7,14.2-.6,16.5-2.2s-5.9-5.8-8.5-5.8-5.9,1.8-8.2,3.4S333.31,282,335.81,285.49Z"/><path class="cls-27" d="M367.91,181s1.7,11.7-1.9,16.2-12.1-.7-12.1-.7l-.2-6.7,7.3,1.1-2.1-4.6Z"/><path class="cls-28" d="M358.51,163.89c8.6-.6,10.9,18.6,10.9,18.6l-6.8,5.9C362.61,188.49,352.11,164.39,358.51,163.89Z"/><path class="cls-27" d="M328.61,193.09s-3.5,9.7.4,14,13.7-1.1,13.7-1.1l-.1-6.7-7.2,1.4,1.9-4.7Z"/><path class="cls-29" d="M363.91,204.29l-3.1,62.4s1.4,2.9-6.6.3l-1.4-44.5-1.3,2.1-5.4,26.2s-3.4,2.6-8.2-1.1l3-42.3Z"/><path class="cls-30" d="M347.41,162.79s-12.7,9.1-12.7,9.8,6.2,34.8,6.2,34.8,14.6,5,23-3.1l.7-31.6a9.49,9.49,0,0,0-6.6-9.3A22.23,22.23,0,0,0,347.41,162.79Z"/><path class="cls-27" d="M359,147.59s1.9,1,1.6,8.6-4.4,7.4-4.4,7.4l-.8,4.2a7.45,7.45,0,0,1-4.1,1,6.21,6.21,0,0,1-4.2-1.5V162s-2.3-7.3-1.6-11.1S352.31,142.19,359,147.59Z"/><path class="cls-29" d="M354,237.29a47.86,47.86,0,0,0-1.6,17.4c1,9.1,2.6,16.5,2.6,16.5s4.3,1.6,6.6,1.4l.8-36.2Z"/><path class="cls-29" d="M351.91,153.19s-.1,2.8-1.8,3.9c0,0-.7-1.9-1.6-1.9s-1.1,3.7.5,4l-2,2s-2.5-5.6-1.6-9.8C345.41,151.29,351.41,152.39,351.91,153.19Z"/><path class="cls-29" d="M338.11,247.39s-5.3,14.7-2.4,30.4a11.38,11.38,0,0,0,6.9,1.3l3.5-28.2Z"/><path class="cls-30" d="M345.41,151.29s2.1,1.8,8.3,1.9,7.5-1.3,7.5-1.3-.8-5-2.1-6.7-10-.2-10-.2S345.71,146.39,345.41,151.29Z"/><path class="cls-28" d="M350,152.89a14.11,14.11,0,0,0,6.6,2.2c3.5.1,6.6-1,7-1.5s-1.6-2.1-3.4-2.8S353,153.09,350,152.89Z"/><path class="cls-30" d="M335.71,173a13.38,13.38,0,0,1,5.9,10.6c.4,7.3-4.8,14.8-4.8,14.8l-9-5.4,6.8-20.3Z"/><path class="cls-29" d="M355.61,271a22.72,22.72,0,0,1,.2,3.8c-.1,1.7-.1,2.4-.1,2.4s.2,1.2,2.3,1.4a9.92,9.92,0,0,1,4.4,1.4c1.4.6,5.2,1.9,6.9.8s-2.6-3.5-4.9-5-4.1-2.7-4-4.6S355.61,271,355.61,271Z"/><path class="cls-29" d="M341.21,278a7.47,7.47,0,0,0,1.7,4.7c1.8,2.2,5.9,4.5,4.9,6.5-.7,1.3-6.3-.4-8.1-1.3s-3.4-1.2-3.7-2.6a49.63,49.63,0,0,1,.6-7.6C336.71,276.19,341.21,278,341.21,278Z"/><path class="cls-31" d="M246.61,335s-.6,2.1,5.8,3.2,7-4.5,9.9-5.8c6.2-2.7,14.2-.6,16.5-2.2s-5.9-5.8-8.5-5.8-5.9,1.8-8.2,3.4S244.11,331.49,246.61,335Z"/><path class="cls-27" d="M278.61,230.49s1.7,11.7-1.9,16.2-12.1-.7-12.1-.7l-.2-6.7,7.3,1.1-2.1-4.6Z"/><path class="cls-28" d="M269.31,213.39c8.6-.6,10.9,18.6,10.9,18.6l-6.8,5.9C273.41,238,262.91,213.89,269.31,213.39Z"/><path class="cls-27" d="M239.41,242.59s-3.5,9.7.4,14,13.7-1.1,13.7-1.1l-.1-6.7-7.2,1.4,1.9-4.7Z"/><path class="cls-29" d="M274.71,253.79l-3.1,62.4s1.4,2.9-6.6.3l-1.4-44.5-1.3,2.1-5.4,26.2s-3.4,2.6-8.2-1.1l3-42.3Z"/><path class="cls-30" d="M258.21,212.29s-12.7,9.1-12.7,9.8,6.2,34.8,6.2,34.8,14.6,5,23-3.1l.7-31.6a9.49,9.49,0,0,0-6.6-9.3A22.23,22.23,0,0,0,258.21,212.29Z"/><path class="cls-27" d="M269.81,197.09s1.9,1,1.6,8.6-4.4,7.4-4.4,7.4l-.8,4.2a7.45,7.45,0,0,1-4.1,1,6.21,6.21,0,0,1-4.2-1.5v-5.3s-2.3-7.3-1.6-11.1S263.11,191.69,269.81,197.09Z"/><path class="cls-29" d="M264.81,286.79a47.86,47.86,0,0,0-1.6,17.4c1,9.1,2.6,16.5,2.6,16.5s4.3,1.6,6.6,1.4l.8-36.2Z"/><path class="cls-29" d="M262.71,202.69s-.1,2.8-1.8,3.9c0,0-.7-1.9-1.6-1.9s-1.1,3.7.5,4l-2,2s-2.5-5.6-1.6-9.8C256.21,200.79,262.21,201.89,262.71,202.69Z"/><path class="cls-29" d="M248.91,296.89s-5.3,14.7-2.4,30.4a11.38,11.38,0,0,0,6.9,1.3l3.5-28.2Z"/><path class="cls-30" d="M256.21,200.79s2.1,1.8,8.3,1.9,7.5-1.3,7.5-1.3-.8-5-2.1-6.7-10-.2-10-.2S256.51,195.89,256.21,200.79Z"/><path class="cls-28" d="M260.81,202.39a14.11,14.11,0,0,0,6.6,2.2c3.5.1,6.6-1,7-1.5s-1.6-2.1-3.4-2.8S263.81,202.59,260.81,202.39Z"/><path class="cls-30" d="M246.51,222.49a13.38,13.38,0,0,1,5.9,10.6c.4,7.3-4.8,14.8-4.8,14.8l-9-5.4,6.8-20.3Z"/><path class="cls-29" d="M266.41,320.49a22.72,22.72,0,0,1,.2,3.8c-.1,1.7-.1,2.4-.1,2.4s.2,1.2,2.3,1.4a9.92,9.92,0,0,1,4.4,1.4c1.4.6,5.2,1.9,6.9.8s-2.6-3.5-4.9-5-4.1-2.7-4-4.6S266.41,320.49,266.41,320.49Z"/><path class="cls-29" d="M252,327.49a7.47,7.47,0,0,0,1.7,4.7c1.8,2.2,5.9,4.5,4.9,6.5-.7,1.3-6.3-.4-8.1-1.3s-3.4-1.2-3.7-2.6a49.63,49.63,0,0,1,.6-7.6C247.51,325.69,252,327.49,252,327.49Z"/></g></g></g></svg>