<?xml version="1.0" encoding="utf-8"?>
<!-- Generator: Adobe Illustrator 24.3.0, SVG Export Plug-In . SVG Version: 6.00 Build 0)  -->
<svg version="1.1" xmlns="http://www.w3.org/2000/svg" xmlns:xlink="http://www.w3.org/1999/xlink" x="0px" y="0px"
	 viewBox="0 0 1122 1122" style="enable-background:new 0 0 1122 1122;" xml:space="preserve">
<style type="text/css">
	.st0{opacity:5.000000e-02;fill:#2E4661;}
	.st1{fill:#2E4661;}
	.st2{fill:#FFFFFF;}
	.st3{opacity:0.44;fill:#272525;}
	.st4{fill:#6DB294;}
	.st5{fill:#A36652;}
	.st6{fill:#D0D1D3;}
	.st7{fill:#679BC6;}
	.st8{fill:#F9A140;}
	.st9{opacity:0.1;fill:#272525;}
	.st10{fill:#F4D242;}
	.st11{opacity:3.000000e-02;fill:#2E4661;}
</style>
<g id="background">
	<g>
		
			<ellipse transform="matrix(0.7071 -0.7071 0.7071 0.7071 -254.1994 508.3056)" class="st0" cx="486.5" cy="561" rx="454.5" ry="454.5"/>
	</g>
</g>
<g id="object">
	<g>
		<rect x="136" y="409" class="st1" width="594.2" height="411.6"/>
		<rect x="156.7" y="424.9" class="st2" width="552.9" height="382.9"/>
		<rect x="399" y="814" class="st1" width="68.2" height="52.8"/>
		<rect x="351.7" y="864.6" class="st1" width="162.9" height="30.8"/>
		<polygon class="st3" points="399.5,823.5 467.2,823.5 467.2,866.8 		"/>
	</g>
	<g>
		<g>
			<g>
				<path class="st2" d="M985.4,425.5c4.3,0,7.8,3.5,7.8,7.8c0,4.3-3.5,7.8-7.8,7.8"/>
			</g>
		</g>
	</g>
	<g>
		<g>
			<rect x="308.1" y="656" class="st4" width="15.5" height="48.3"/>
			<rect x="397.8" y="705.8" class="st4" width="15.5" height="48.3"/>
			<rect x="416.3" y="705.8" class="st4" width="15.5" height="27.3"/>
			<rect x="468.2" y="667.8" class="st5" width="15.5" height="36.5"/>
			<rect x="486.5" y="653.9" class="st5" width="15.5" height="50.4"/>
			<rect x="450.9" y="705.8" class="st4" width="15.5" height="60.2"/>
			<rect x="288.4" y="664.7" class="st4" width="15.5" height="39.6"/>
			<rect x="268.7" y="666.2" class="st4" width="15.5" height="38"/>
			<rect x="235.2" y="693.5" class="st4" width="15.5" height="10.8"/>
			<rect x="216.9" y="697.6" class="st4" width="15.5" height="6.7"/>
			<rect x="198.5" y="694.8" class="st4" width="15.5" height="9.5"/>
			<rect x="323.6" y="705.8" class="st5" width="15.5" height="24.2"/>
			<rect x="252.1" y="705.1" class="st5" width="15.5" height="8.2"/>
			<rect x="342.3" y="705.8" class="st5" width="15.5" height="56.6"/>
			<rect x="360.8" y="705.8" class="st5" width="15.5" height="49.4"/>
			<rect x="379.3" y="705.8" class="st5" width="15.5" height="15.4"/>
			<rect x="433.3" y="654.9" class="st5" width="15.5" height="49.4"/>
		</g>
		<g>
			<rect x="629.6" y="677.7" class="st4" width="15.5" height="27.8"/>
			<rect x="576.4" y="705.8" class="st4" width="15.5" height="48.3"/>
			<rect x="557.9" y="705.8" class="st4" width="15.5" height="27.3"/>
			<rect x="506.1" y="667.8" class="st5" width="15.5" height="36.5"/>
			<rect x="523.4" y="705.8" class="st4" width="15.5" height="60.2"/>
			<rect x="649.3" y="682.7" class="st4" width="15.5" height="22.8"/>
			<rect x="613.4" y="705.8" class="st5" width="15.5" height="27.6"/>
			<rect x="594.9" y="705.8" class="st5" width="15.5" height="15.4"/>
			<rect x="541" y="654.9" class="st5" width="15.5" height="49.4"/>
		</g>
	</g>
	<path class="st6" d="M677,620.4H197.2c-3.3,0-5.9,0.5-5.9,1.2v0c0,0.7,2.7,1.2,5.9,1.2H677c3.3,0,5.9-0.5,5.9-1.2v0
		C682.9,620.9,680.2,620.4,677,620.4z"/>
	<g>
		<path class="st7" d="M191.4,588.7c5.3-0.3,10.6-0.5,16-0.8c1.3-0.1,2.6-0.9,2.9-2.2c7.7-35.5,15.3-71.1,23-106.6
			c-1.9,0-3.9,0-5.8,0c7.8,21.8,15.6,43.5,23.4,65.3c1,2.9,4.7,2.8,5.8,0c7-18.1,14-36.3,21-54.4c-1.9,0-3.9,0-5.8,0
			c7.6,25,15.2,50,22.8,75c0.4,1.3,1.5,2.2,2.9,2.2c25.9,0.9,51.9,1.8,77.8,2.8c2.3,0.1,7.5,1.3,9.4-0.6c3.1-3.1,5.3-7.6,7.7-11.2
			c7.4-10.8,14.8-21.6,22.1-32.4c-1.7,0-3.5,0-5.2,0c10,18.5,20,37.1,29.9,55.6c1,1.8,3.4,1.9,4.7,0.6c7.4-6.9,14.8-13.7,22.2-20.6
			c-1.6-0.2-3.2-0.4-4.7-0.6c6.8,8.9,13.6,17.7,20.4,26.6c1.6,2.1,4.6,1.9,5.5-0.7c1.4-3.8,2.8-7.7,4.2-11.5
			c-1.8,0.2-3.7,0.5-5.5,0.7c2.4,4.6,4.8,9.3,7.2,13.9c0.9,1.7,3.5,2,4.7,0.6c19-21.2,37.9-42.3,56.9-63.5c-1.6-0.2-3.2-0.4-4.7-0.6
			c7.4,11.6,14.9,23.2,22.3,34.8c4.7,7.3,9.4,14.7,14.1,22c1.3,2.1,3.9,8.3,7,8.2c28.5-0.4,57.1-0.8,85.6-1.2c0.2,0,0.4,0,0.5,0
			c3.9-0.1,3.9-6.1,0-6c-28.7,0.4-57.5,0.8-86.2,1.2c0.9,0.5,1.7,1,2.6,1.5c-13.6-21.2-27.2-42.3-40.7-63.5c-1-1.6-3.4-2.1-4.7-0.6
			c-19,21.2-37.9,42.3-56.9,63.5c1.6,0.2,3.2,0.4,4.7,0.6c-2.4-4.6-4.8-9.3-7.2-13.9c-1.3-2.5-4.7-1.6-5.5,0.7
			c-1.4,3.8-2.8,7.7-4.2,11.5c1.8-0.2,3.7-0.5,5.5-0.7c-6.8-8.9-13.6-17.7-20.4-26.6c-1.2-1.6-3.2-2.1-4.7-0.6
			c-7.4,6.9-14.8,13.7-22.2,20.6c1.6,0.2,3.2,0.4,4.7,0.6c-10-18.5-20-37.1-29.9-55.6c-1.1-2.1-4-1.8-5.2,0
			c-9.8,14.3-19.6,28.6-29.3,42.9c0.9-0.5,1.7-1,2.6-1.5c-28.3-1-56.7-2-85-3c1,0.7,1.9,1.5,2.9,2.2c-7.6-25-15.2-50-22.8-75
			c-0.9-3-4.8-2.7-5.8,0c-7,18.1-14,36.3-21,54.4c1.9,0,3.9,0,5.8,0c-7.8-21.8-15.6-43.5-23.4-65.3c-0.9-2.6-5.2-3.1-5.8,0
			c-7.7,35.5-15.3,71.1-23,106.6c1-0.7,1.9-1.5,2.9-2.2c-5.3,0.3-10.6,0.5-16,0.8C187.5,582.8,187.5,588.9,191.4,588.7L191.4,588.7z
			"/>
	</g>
	<g>
		<g>
			<g>
				
					<ellipse transform="matrix(0.7071 -0.7071 0.7071 0.7071 -76.8215 599.4153)" class="st8" cx="685.1" cy="392.4" rx="40.9" ry="40.9"/>
				<path class="st9" d="M694.7,348.9c-24-5.3-47.8,9.9-53.1,33.9c-5.3,24,9.9,47.8,33.9,53.1c24,5.3,47.8-9.9,53.1-33.9
					C734,378,718.8,354.2,694.7,348.9z M677.2,428.6c-20-4.4-32.6-24.2-28.2-44.2c4.4-20,24.2-32.6,44.2-28.2
					c20,4.4,32.6,24.2,28.2,44.2C717,420.4,697.2,433.1,677.2,428.6z"/>
				<path class="st10" d="M695.7,344.5c-26.5-5.8-52.7,10.9-58.5,37.4c-5.8,26.5,10.9,52.7,37.4,58.5c26.5,5.8,52.7-10.9,58.5-37.4
					C739,376.5,722.2,350.3,695.7,344.5z M676.4,432.4c-22-4.9-36-26.7-31.1-48.7c4.9-22,26.7-36,48.7-31.1
					c22,4.9,36,26.7,31.1,48.7C720.2,423.3,698.4,437.2,676.4,432.4z"/>
			</g>
			<path class="st10" d="M700.6,398.4c-0.8-1.8-2.4-3.4-4.6-4.8c1.7-0.5,3.1-1.4,4.1-2.5c1-1.2,1.8-2.6,2.2-4.4
				c0.8-3.5,0.1-6.5-2-8.8c-2.1-2.4-5.5-4.1-10.2-5.1l-1.7-0.4c0.3-1.6,0.7-3.2,1-4.8c0.3-1.5-2.3-2-2.6-0.6c-0.3,1.6-0.7,3.2-1,4.8
				l-1.7-0.4c0.3-1.6,0.7-3.2,1-4.8c0.3-1.5-2.3-2-2.6-0.6c-0.3,1.6-0.7,3.2-1,4.8l-6.9-1.5c-0.8-0.2-1.4-0.1-1.9,0.2
				c-0.5,0.3-0.8,0.9-1,1.7c-0.2,0.9-0.1,1.6,0.3,2.1c0.4,0.5,1.5,0.9,3.2,1.2l1.1,0.2l-6.6,30.2l-1.1-0.2c-1.9-0.4-3.1-0.5-3.6-0.3
				c-0.6,0.2-0.9,0.8-1.1,1.7c-0.2,0.8-0.1,1.5,0.2,1.9c0.3,0.5,0.8,0.8,1.6,1l7.1,1.6c-0.3,1.6-0.7,3.2-1,4.8
				c-0.3,1.5,2.3,2,2.6,0.6c0.3-1.6,0.7-3.2,1-4.8l1.7,0.4c-0.3,1.6-0.7,3.2-1,4.8c-0.3,1.5,2.3,2,2.6,0.6c0.3-1.6,0.7-3.2,1-4.8
				l0.9,0.2l2.9,0.6c2.5,0.5,4.4,0.8,5.8,0.8c1.4,0,2.7-0.2,4-0.6c2.1-0.7,3.8-1.7,5.2-3.2c1.4-1.5,2.3-3.2,2.7-5.2
				C701.5,402.3,701.4,400.2,700.6,398.4z M689.7,377.6c2.6,0.6,4.5,1.5,5.6,2.9c1.2,1.4,1.5,3,1.1,5c-0.5,2.1-1.6,3.5-3.3,4.2
				c-1.8,0.7-4.2,0.7-7.4,0l-1.1-0.3c0.9-4.1,1.8-8.2,2.7-12.3L689.7,377.6z M684.7,376.5c-0.9,4.1-1.8,8.2-2.7,12.3l-1.7-0.4
				c0.9-4.1,1.8-8.2,2.7-12.3L684.7,376.5z M676.3,406.3c1-4.6,2-9.2,3-13.7l1.7,0.4c-1,4.6-2,9.2-3,13.7L676.3,406.3z M691.5,408
				c-2,0.7-5,0.6-9.2-0.4l-1.6-0.3c1-4.6,2-9.2,3-13.7l1.9,0.4c4.1,0.9,6.9,2.1,8.3,3.5c1.4,1.4,1.8,3.4,1.3,5.8
				C694.7,405.8,693.4,407.3,691.5,408z"/>
		</g>
		<g>
			<g>
				
					<ellipse transform="matrix(0.8946 -0.447 0.447 0.8946 -53.8368 356.5613)" class="st8" cx="728.8" cy="292.4" rx="63.8" ry="63.8"/>
				<path class="st9" d="M706,226.6c-36.3,12.6-55.6,52.2-43,88.5c12.6,36.3,52.2,55.6,88.5,43c36.3-12.6,55.6-52.2,43-88.5
					C782,233.3,742.3,214.1,706,226.6z M747.7,347.1c-30.2,10.4-63.2-5.6-73.6-35.8c-10.4-30.2,5.6-63.2,35.8-73.6
					c30.2-10.4,63.2,5.6,73.6,35.8C793.9,303.7,777.9,336.6,747.7,347.1z"/>
				<path class="st10" d="M703.7,219.9c-40,13.8-61.3,57.5-47.4,97.6c13.8,40,57.5,61.3,97.6,47.4c40-13.8,61.3-57.5,47.4-97.6
					C787.4,227.3,743.7,206,703.7,219.9z M749.6,352.7c-33.3,11.5-69.7-6.1-81.2-39.5c-11.5-33.3,6.1-69.7,39.5-81.2
					c33.3-11.5,69.7,6.1,81.2,39.5C800.6,304.8,782.9,341.2,749.6,352.7z"/>
			</g>
			<path class="st10" d="M754.1,287.7c-2.6-1.8-5.9-2.7-10-2.7c1.8-2.1,3-4.3,3.4-6.7c0.5-2.4,0.2-4.9-0.7-7.6
				c-1.8-5.3-5.1-8.7-9.8-10.2c-4.7-1.5-10.6-1-17.8,1.5l-2.6,0.9c-0.8-2.4-1.7-4.8-2.5-7.2c-0.8-2.2-4.8-0.8-4,1.4
				c0.8,2.4,1.7,4.8,2.5,7.2l-2.6,0.9c-0.8-2.4-1.7-4.8-2.5-7.2c-0.8-2.2-4.8-0.8-4,1.4c0.8,2.4,1.7,4.8,2.5,7.2l-10.5,3.6
				c-1.1,0.4-1.9,1-2.3,1.8c-0.4,0.8-0.4,1.8,0,3c0.5,1.4,1.2,2.2,2.1,2.5c0.9,0.3,2.7-0.1,5.3-0.9l1.7-0.6l15.8,45.6l-1.7,0.6
				c-2.8,1-4.5,1.8-5.1,2.6c-0.6,0.7-0.6,1.8-0.2,3.1c0.4,1.2,1,2,1.8,2.4c0.8,0.4,1.8,0.4,3,0l10.8-3.7c0.8,2.4,1.7,4.8,2.5,7.2
				c0.8,2.2,4.8,0.8,4-1.4c-0.8-2.4-1.7-4.8-2.5-7.2l2.6-0.9c0.8,2.4,1.7,4.8,2.5,7.2c0.8,2.2,4.8,0.8,4-1.4
				c-0.8-2.4-1.7-4.8-2.5-7.2l1.3-0.5l4.4-1.5c3.7-1.3,6.5-2.5,8.4-3.6c1.9-1.1,3.5-2.4,4.8-4c2.2-2.6,3.6-5.4,4.3-8.5
				c0.6-3.1,0.4-6.1-0.6-9.2C758.6,292.2,756.7,289.5,754.1,287.7z M722.8,268.9c3.9-1.4,7.2-1.6,9.8-0.7c2.6,0.9,4.5,2.8,5.5,5.8
				c1.1,3.2,0.8,5.9-1,8.2c-1.8,2.3-5.1,4.3-9.9,6l-1.7,0.6c-2.1-6.2-4.3-12.4-6.4-18.6L722.8,268.9z M715.1,271.6
				c2.1,6.2,4.3,12.4,6.4,18.6l-2.6,0.9c-2.1-6.2-4.3-12.4-6.4-18.6L715.1,271.6z M728.3,318.1c-2.4-6.9-4.8-13.8-7.2-20.8l2.6-0.9
				c2.4,6.9,4.8,13.8,7.2,20.8L728.3,318.1z M749.9,308c-2,2.5-6.2,4.9-12.6,7l-2.4,0.8c-2.4-6.9-4.8-13.8-7.2-20.8l2.9-1
				c6.2-2.2,10.9-2.9,13.9-2.1c3,0.7,5.2,3,6.5,6.7C752.3,302.4,751.9,305.5,749.9,308z"/>
		</g>
		
			<ellipse transform="matrix(0.7071 -0.7071 0.7071 0.7071 -137.0172 453.7974)" class="st9" cx="479.3" cy="392.3" rx="137.2" ry="137.2"/>
		<g>
			<g>
				
					<ellipse transform="matrix(0.7071 -0.7071 0.7071 0.7071 -129.8487 444.4069)" class="st8" cx="471.5" cy="378.9" rx="115.7" ry="115.7"/>
				<path class="st9" d="M441.6,256.4C373.9,273,332.5,341.2,349,408.9c16.5,67.7,84.8,109.1,152.5,92.6
					c67.7-16.5,109.1-84.8,92.6-152.5C577.5,281.3,509.3,239.9,441.6,256.4z M496.4,480.9c-56.3,13.8-113.1-20.7-126.9-77
					c-13.8-56.3,20.7-113.1,77-126.9c56.3-13.8,113.1,20.7,126.9,77C587.2,410.3,552.7,467.1,496.4,480.9z"/>
				<path class="st10" d="M438.5,243.9c-74.6,18.2-120.3,93.5-102.1,168.1c18.2,74.6,93.5,120.3,168.1,102.1
					c74.6-18.2,120.3-93.5,102.1-168.1C588.4,271.3,513.1,225.6,438.5,243.9z M499,491.3c-62.1,15.2-124.7-22.9-139.9-84.9
					C344,344.3,382,281.7,444.1,266.5c62.1-15.2,124.7,22.9,139.9,84.9C599.1,413.6,561.1,476.2,499,491.3z"/>
			</g>
			<path class="st10" d="M518.1,374.8c-4.4-3.6-10.3-5.8-17.7-6.6c3.6-3.4,6.1-7.2,7.3-11.5c1.2-4.2,1.2-8.8,0-13.8
				c-2.4-9.9-7.7-16.6-16-20c-8.3-3.5-19-3.6-32.4-0.3l-4.8,1.2c-1.1-4.5-2.2-8.9-3.3-13.4c-1-4.1-8.4-2.3-7.4,1.8
				c1.1,4.5,2.2,8.9,3.3,13.4l-4.8,1.2c-1.1-4.5-2.2-8.9-3.3-13.4c-1-4.1-8.4-2.3-7.4,1.8c1.1,4.5,2.2,8.9,3.3,13.4l-19.5,4.8
				c-2.1,0.5-3.6,1.5-4.5,2.9c-0.8,1.4-1,3.3-0.5,5.5c0.6,2.6,1.8,4.2,3.4,4.8c1.6,0.6,4.9,0.4,9.7-0.8l3.1-0.8l20.8,85l-3.1,0.8
				c-5.2,1.3-8.4,2.5-9.6,3.8c-1.2,1.3-1.4,3.1-0.8,5.7c0.6,2.3,1.5,3.8,2.9,4.7s3.2,1,5.4,0.5l20.1-4.9c1.1,4.5,2.2,8.9,3.3,13.4
				c1,4.1,8.4,2.3,7.4-1.8c-1.1-4.5-2.2-8.9-3.3-13.4l4.8-1.2c1.1,4.5,2.2,8.9,3.3,13.4c1,4.1,8.4,2.3,7.4-1.8
				c-1.1-4.5-2.2-8.9-3.3-13.4l2.5-0.6l8.1-2c6.9-1.7,12.2-3.4,15.8-5.1c3.6-1.7,6.7-3.8,9.4-6.3c4.4-4.3,7.5-9.1,9.1-14.5
				c1.7-5.4,1.8-11,0.4-16.7C525.5,383.6,522.5,378.4,518.1,374.8z M464.8,335.6c7.3-1.8,13.3-1.7,17.9,0.4c4.6,2,7.6,5.9,9,11.5
				c1.4,5.9,0.4,10.8-3.3,14.7c-3.6,3.9-9.9,6.9-18.8,9.1l-3.2,0.8c-2.8-11.6-5.7-23.2-8.5-34.7L464.8,335.6z M450.4,339.1
				c2.8,11.6,5.7,23.2,8.5,34.7l-4.8,1.2c-2.8-11.6-5.7-23.2-8.5-34.7L450.4,339.1z M466.4,425.3c-3.2-12.9-6.3-25.8-9.5-38.7
				l4.8-1.2c3.2,12.9,6.3,25.8,9.5,38.7L466.4,425.3z M507,410.6c-4.1,4.2-12.1,7.7-23.9,10.6l-4.4,1.1c-3.2-12.9-6.3-25.8-9.5-38.7
				l5.4-1.3c11.6-2.8,20.1-3.4,25.5-1.5c5.3,1.8,8.9,6.2,10.6,13.2C512.3,400.9,511.1,406.5,507,410.6z"/>
		</g>
	</g>
	<polygon class="st11" points="156.7,424.9 156.7,807.8 709.6,807.8 	"/>
</g>
</svg>
